<?xml version="1.0" encoding="UTF-8" standalone="no"?>
<svg
   xmlns:dc="http://purl.org/dc/elements/1.1/"
   xmlns:cc="http://creativecommons.org/ns#"
   xmlns:rdf="http://www.w3.org/1999/02/22-rdf-syntax-ns#"
   xmlns:svg="http://www.w3.org/2000/svg"
   xmlns="http://www.w3.org/2000/svg"
   viewBox="0 0 680.76001 791.62665"
   height="791.62665"
   width="680.76001"
   xml:space="preserve"
   id="svg2"
   version="1.1"><metadata
     id="metadata8"><rdf:RDF><cc:Work
         rdf:about=""><dc:format>image/svg+xml</dc:format><dc:type
           rdf:resource="http://purl.org/dc/dcmitype/StillImage" /></cc:Work></rdf:RDF></metadata><defs
     id="defs6" /><g
     transform="matrix(1.3333333,0,0,-1.3333333,0,791.62667)"
     id="g10"><g
       transform="scale(0.1)"
       id="g12"><path
         id="path14"
         style="fill:#100f0d;fill-opacity:1;fill-rule:nonzero;stroke:none"
         d="m 1378.78,100.262 c 0,7.519 -1.07,14 -3.31,19.308 -2.15,5.379 -5.19,9.532 -9.1,12.461 -3.89,2.84 -8.18,4.301 -12.91,4.301 -7.5,0 -13.84,-3.16 -18.99,-9.293 -5.16,-6.199 -7.74,-15.258 -7.74,-27.2577 0,-11.3204 2.58,-20.1094 7.66,-26.3086 5.16,-6.3125 11.52,-9.4727 19.07,-9.4727 4.5,0 8.73,1.3711 12.59,4.1523 3.8,2.7383 6.9,6.8399 9.24,12.2696 2.35,5.5195 3.49,12.0976 3.49,19.8401 z m -53.31,41.379 v -3.422 c 5.11,6.543 10.39,11.441 15.9,14.48 5.53,3.114 11.82,4.672 18.8,4.672 8.35,0 16.06,-2.269 23.11,-6.781 7.02,-4.508 12.58,-11.059 16.69,-19.758 4.08,-8.68 6.09,-18.922 6.09,-30.781 0,-8.719 -1.14,-16.8401 -3.5,-24.051 -2.35,-7.3203 -5.6,-13.5 -9.71,-18.4375 -4.12,-4.9609 -9.02,-8.793 -14.59,-11.4336 -5.65,-2.7187 -11.7,-4.0195 -18.09,-4.0195 -7.81,0 -14.34,1.6211 -19.62,4.8828 -5.33,3.25 -10.33,8.0078 -15.08,14.3281 V 18.7188 C 1325.47,6.21875 1321.11,0 1312.41,0 c -5.12,0 -8.53,1.58984 -10.14,4.78906 -1.68,3.24219 -2.5,7.95314 -2.5,14.10154 V 141.449 c 0,5.403 1.09,9.453 3.37,12.114 2.3,2.648 5.38,4.007 9.27,4.007 3.85,0 6.99,-1.359 9.41,-4.14 2.42,-2.75 3.65,-6.7 3.65,-11.789" /><path
         id="path16"
         style="fill:#100f0d;fill-opacity:1;fill-rule:nonzero;stroke:none"
         d="m 1498.6,58.1602 v 3.582 c -3.27,-4.2813 -6.68,-7.8711 -10.28,-10.7695 -3.59,-2.961 -7.5,-5.1016 -11.74,-6.5039 -4.29,-1.418 -9.13,-2.1368 -14.58,-2.1368 -6.54,0 -12.43,1.4375 -17.66,4.25 -5.23,2.8282 -9.28,6.7696 -12.09,11.75 -3.44,6.0274 -5.09,14.6993 -5.09,25.9571 v 56.2739 c 0,5.648 1.22,9.917 3.69,12.718 2.46,2.801 5.7,4.219 9.74,4.219 4.13,0 7.43,-1.418 9.97,-4.289 2.53,-2.852 3.78,-7.082 3.78,-12.648 V 95.082 c 0,-6.5312 0.52,-12.082 1.55,-16.5117 1.12,-4.4883 3.02,-7.9883 5.8,-10.5586 2.7,-2.4922 6.46,-3.7617 11.17,-3.7617 4.64,0 8.94,1.4414 12.96,4.2695 4.09,2.8125 7.05,6.5196 8.89,11.1016 1.53,4.0195 2.29,12.8203 2.29,26.3989 v 34.543 c 0,5.566 1.26,9.796 3.81,12.648 2.5,2.871 5.74,4.289 9.82,4.289 4.06,0 7.31,-1.418 9.77,-4.219 2.43,-2.801 3.64,-7.07 3.64,-12.718 V 58.332 c 0,-5.4023 -1.13,-9.4804 -3.49,-12.1523 -2.34,-2.7383 -5.37,-4.0508 -9.11,-4.0508 -3.71,0 -6.76,1.4336 -9.21,4.1719 -2.42,2.8515 -3.63,6.7305 -3.63,11.8594" /><path
         id="path18"
         style="fill:#100f0d;fill-opacity:1;fill-rule:nonzero;stroke:none"
         d="m 1577.5,99.1406 c 0,-11.289 2.46,-19.9297 7.39,-26.0312 4.97,-6.0274 11.47,-9.1094 19.52,-9.1094 6.85,0 12.7,3.1289 17.69,9.3203 4.98,6.2188 7.45,15.0586 7.45,26.6485 0,7.5702 -1.04,13.9722 -3.1,19.3632 -2.08,5.438 -5.02,9.617 -8.77,12.539 -3.84,2.942 -8.2,4.461 -13.27,4.461 -5.23,0 -9.77,-1.519 -13.85,-4.461 -4.09,-2.922 -7.24,-7.211 -9.59,-12.801 -2.33,-5.539 -3.47,-12.16 -3.47,-19.9294 z m -1.28,84.3794 v -43.391 c 5.04,5.601 10.29,9.801 15.6,12.82 5.32,2.93 11.92,4.422 19.74,4.422 9.05,0 16.95,-2.269 23.76,-6.691 6.8,-4.551 12.11,-10.989 15.85,-19.481 3.79,-8.476 5.64,-18.558 5.64,-30.199 0,-8.6094 -1.03,-16.4805 -3.11,-23.7109 -2.1,-7.1368 -5.11,-13.3282 -9.12,-18.6602 -4.02,-5.2266 -8.86,-9.2695 -14.51,-12.25 -5.7,-2.8164 -11.96,-4.2695 -18.8,-4.2695 -4.15,0 -8.12,0.5195 -11.83,1.5429 -3.67,1.0469 -6.84,2.4102 -9.37,4.1563 -2.63,1.6016 -4.84,3.4219 -6.67,5.1719 -1.81,1.8398 -4.21,4.5195 -7.18,8.1211 V 58.332 c 0,-5.3632 -1.26,-9.4023 -3.72,-12.1523 -2.43,-2.7383 -5.61,-4.0703 -9.35,-4.0703 -3.88,0 -6.93,1.332 -9.25,4.0703 -2.27,2.8125 -3.41,6.8008 -3.41,12.1523 v 123.957 c 0,5.711 1.1,10.07 3.36,13.012 2.21,2.961 5.29,4.422 9.3,4.422 4.16,0 7.4,-1.391 9.63,-4.231 2.28,-2.781 3.44,-6.75 3.44,-11.972" /><path
         id="path20"
         style="fill:#100f0d;fill-opacity:1;fill-rule:nonzero;stroke:none"
         d="M 1676.01,59.3828 V 182.469 c 0,5.711 1.2,9.98 3.59,12.91 2.48,2.883 5.73,4.344 9.85,4.344 4.12,0 7.42,-1.41 9.96,-4.301 2.48,-2.859 3.8,-7.223 3.8,-12.953 V 59.3828 c 0,-5.7617 -1.32,-10.1015 -3.86,-13.0039 -2.54,-2.8164 -5.86,-4.2695 -9.9,-4.2695 -3.99,0 -7.19,1.4922 -9.7,4.4726 -2.49,2.9883 -3.74,7.2383 -3.74,12.8008" /><path
         id="path22"
         style="fill:#100f0d;fill-opacity:1;fill-rule:nonzero;stroke:none"
         d="M 1758.48,141.371 V 59.3828 c 0,-5.7226 -1.33,-10.0234 -3.86,-12.9336 -2.61,-2.8476 -5.92,-4.3398 -9.87,-4.3398 -4,0 -7.25,1.4922 -9.72,4.4414 -2.47,3.0195 -3.76,7.2695 -3.76,12.832 v 81.1802 c 0,5.566 1.29,9.796 3.76,12.648 2.47,2.871 5.72,4.289 9.72,4.289 3.95,0 7.26,-1.418 9.87,-4.289 2.53,-2.852 3.86,-6.781 3.86,-11.84 z m -13.46,29.348 c -3.78,0 -6.99,1.211 -9.75,3.703 -2.61,2.41 -4,5.867 -4,10.32 0,4 1.39,7.278 4.15,9.918 2.76,2.61 5.95,3.832 9.6,3.832 3.52,0 6.66,-1.14 9.37,-3.48 2.71,-2.36 4.09,-5.821 4.09,-10.27 0,-4.41 -1.34,-7.82 -4,-10.242 -2.66,-2.461 -5.78,-3.781 -9.46,-3.781" /><path
         id="path24"
         style="fill:#100f0d;fill-opacity:1;fill-rule:nonzero;stroke:none"
         d="m 1884,77.25 c 0,-3.5078 -1,-7.3086 -3.01,-11.3398 -2.06,-4.0079 -5.14,-7.8204 -9.31,-11.4688 -4.12,-3.6211 -9.36,-6.5508 -15.67,-8.75 -6.3,-2.2812 -13.43,-3.3594 -21.31,-3.3594 -16.82,0 -29.92,5.1289 -39.37,15.3282 -9.41,10.2304 -14.13,23.8984 -14.13,41.1093 0,11.6405 2.14,21.9605 6.44,30.8825 4.31,8.879 10.61,15.848 18.75,20.707 8.15,4.922 17.95,7.364 29.26,7.364 7.07,0 13.54,-1.102 19.42,-3.223 5.87,-2.168 10.85,-4.949 14.93,-8.309 4.09,-3.41 7.2,-7.039 9.38,-10.859 2.17,-3.84 3.22,-7.441 3.22,-10.769 0,-3.352 -1.23,-6.231 -3.63,-8.614 -2.44,-2.379 -5.34,-3.539 -8.8,-3.539 -2.29,0 -4.14,0.653 -5.67,1.86 -1.45,1.179 -3.14,3.082 -5.02,5.839 -3.3,5.25 -6.8,9.231 -10.41,11.922 -3.63,2.61 -8.23,3.949 -13.76,3.949 -8.08,0 -14.56,-3.328 -19.46,-9.871 -4.93,-6.578 -7.35,-15.539 -7.35,-26.8981 0,-5.3086 0.63,-10.2812 1.9,-14.7109 1.25,-4.4883 3.07,-8.2891 5.45,-11.4687 2.4,-3.1524 5.26,-5.5196 8.67,-7.1524 3.38,-1.6601 7.11,-2.457 11.13,-2.457 5.49,0 10.13,1.289 14.02,3.9297 3.9,2.6679 7.34,6.6875 10.32,12.0312 1.66,3.2695 3.45,5.7383 5.38,7.5664 1.95,1.8125 4.31,2.6719 7.09,2.6719 3.32,0 6.07,-1.2813 8.29,-3.9219 C 1882.9,83 1884,80.2305 1884,77.25" /><path
         id="path26"
         style="fill:#100f0d;fill-opacity:1;fill-rule:nonzero;stroke:none"
         d="m 1928.8,99.9688 c 0,-7.6993 1.15,-14.1993 3.43,-19.6368 2.31,-5.4218 5.4,-9.4414 9.38,-12.1797 4.02,-2.7812 8.37,-4.1523 13.04,-4.1523 4.8,0 9.16,1.332 13.1,3.8906 3.98,2.6094 7.09,6.6289 9.49,11.9883 2.36,5.3516 3.53,12.082 3.53,20.0899 0,7.6012 -1.17,14.0622 -3.53,19.5312 -2.4,5.449 -5.56,9.602 -9.56,12.531 -4.03,2.84 -8.41,4.301 -13.19,4.301 -4.97,0 -9.41,-1.519 -13.35,-4.461 -3.89,-2.922 -6.97,-7.199 -9.11,-12.699 -2.14,-5.531 -3.23,-11.871 -3.23,-19.2032 z m 53.46,-41.6368 v 2.7696 c -3.66,-4.3711 -7.26,-7.9102 -10.85,-10.6094 -3.49,-2.7695 -7.37,-4.8399 -11.52,-6.2617 -4.14,-1.3907 -8.67,-2.1211 -13.58,-2.1211 -6.5,0 -12.56,1.4531 -18.09,4.2695 -5.52,2.9805 -10.32,7.0313 -14.38,12.3711 -4.04,5.3398 -7.11,11.6094 -9.22,18.8398 -2.12,7.1797 -3.14,14.9805 -3.14,23.4102 0,17.699 4.16,31.59 12.46,41.512 8.33,9.91 19.23,14.859 32.76,14.859 7.83,0 14.45,-1.43 19.82,-4.289 5.37,-2.762 10.63,-7.082 15.74,-12.953 v 41.922 c 0,5.84 1.1,10.23 3.34,13.199 2.22,3 5.36,4.473 9.49,4.473 4.11,0 7.28,-1.371 9.53,-4.082 2.21,-2.719 3.36,-6.782 3.36,-12.121 V 58.332 c 0,-5.4023 -1.21,-9.4804 -3.61,-12.1523 -2.4,-2.7383 -5.46,-4.0703 -9.28,-4.0703 -3.67,0 -6.79,1.3906 -9.22,4.1914 -2.4,2.8008 -3.61,6.7695 -3.61,12.0312" /><path
         id="path28"
         style="fill:#100f0d;fill-opacity:1;fill-rule:nonzero;stroke:none"
         d="m 2109.79,99.7422 c 0,11.5388 -2.48,20.5778 -7.33,27.0198 -4.89,6.41 -11.47,9.66 -19.69,9.66 -5.34,0 -10,-1.442 -14.05,-4.313 -4.05,-2.918 -7.16,-7.16 -9.36,-12.777 -2.18,-5.551 -3.3,-12.07 -3.3,-19.5898 0,-7.4297 1.12,-13.8828 3.24,-19.4102 2.15,-5.5507 5.26,-9.8007 9.3,-12.75 4,-2.9297 8.76,-4.3828 14.17,-4.3828 8.22,0 14.8,3.211 19.69,9.6914 4.85,6.4492 7.33,15.4492 7.33,26.8516 z m 27.29,0 c 0,-8.4102 -1.28,-16.2109 -3.79,-23.4024 -2.53,-7.0781 -6.18,-13.2304 -10.93,-18.371 -4.82,-5.1368 -10.53,-8.9766 -17.16,-11.7891 -6.64,-2.7383 -14.16,-4.0703 -22.43,-4.0703 -8.21,0 -15.64,1.332 -22.19,4.1523 -6.58,2.7578 -12.3,6.7188 -17.12,11.8985 -4.79,5.1796 -8.43,11.2304 -10.96,18.2617 -2.48,7.0781 -3.72,14.8203 -3.72,23.3672 0,8.6019 1.28,16.4609 3.77,23.5699 2.53,7.172 6.13,13.231 10.86,18.332 4.72,5.039 10.42,8.942 17.17,11.68 6.72,2.738 14.08,4.129 22.19,4.129 8.25,0 15.73,-1.391 22.43,-4.168 6.68,-2.769 12.43,-6.762 17.21,-11.883 4.81,-5.117 8.43,-11.258 10.88,-18.328 2.54,-7.051 3.79,-14.851 3.79,-23.3788" /><path
         id="path30"
         style="fill:#100f0d;fill-opacity:1;fill-rule:nonzero;stroke:none"
         d="m 2251.93,123.191 c -2.04,-4.789 -3.01,-13.261 -3.01,-25.4605 v -37.711 c 0,-5.9375 -1.27,-10.4492 -3.89,-13.4375 -2.58,-2.9804 -6.04,-4.4726 -10.28,-4.4726 -4.09,0 -7.42,1.4922 -9.96,4.4726 -2.56,2.9883 -3.81,7.5 -3.81,13.4375 v 45.2695 c 0,7.121 -0.27,12.652 -0.74,16.652 -0.47,3.911 -1.71,7.168 -3.78,9.711 -2.02,2.547 -5.29,3.809 -9.72,3.809 -8.9,0 -14.75,-3.199 -17.59,-9.609 -2.85,-6.352 -4.19,-15.512 -4.19,-27.4497 V 60.0195 c 0,-5.9297 -1.32,-10.3906 -3.84,-13.3398 -2.58,-3.0781 -5.95,-4.5703 -10.09,-4.5703 -4.15,0 -7.56,1.4922 -10.16,4.5703 -2.65,2.9492 -3.89,7.4101 -3.89,13.332 v 81.2073 c 0,5.351 1.12,9.414 3.45,12.183 2.4,2.75 5.5,4.168 9.38,4.168 3.71,0 6.83,-1.281 9.29,-3.89 2.49,-2.59 3.73,-6.16 3.73,-10.75 v -2.7 c 4.7,5.899 9.77,10.25 15.12,12.981 5.38,2.769 11.42,4.16 17.94,4.16 6.82,0 12.68,-1.43 17.6,-4.289 4.93,-2.812 8.96,-7.121 12.13,-12.852 4.59,5.77 9.51,10.129 14.77,12.93 5.25,2.82 11.05,4.211 17.4,4.211 7.5,0 13.89,-1.492 19.23,-4.59 5.4,-3.051 9.4,-7.402 12.07,-13.09 2.34,-5.128 3.48,-13.199 3.48,-24.242 V 60.0195 c 0,-5.9375 -1.29,-10.4492 -3.84,-13.4375 -2.65,-2.9804 -6.03,-4.4726 -10.29,-4.4726 -4.13,0 -7.49,1.4922 -10.1,4.5703 -2.65,2.9492 -3.96,7.4101 -3.96,13.3398 v 47.7615 c 0,6.098 -0.25,10.981 -0.73,14.66 -0.51,3.711 -1.86,6.75 -4.07,9.258 -2.18,2.5 -5.52,3.762 -9.93,3.762 -3.58,0 -7,-1.129 -10.17,-3.301 -3.28,-2.238 -5.72,-5.219 -7.55,-8.969 v 0" /><path
         id="path32"
         style="fill:#100f0d;fill-opacity:1;fill-rule:nonzero;stroke:none"
         d="m 2405.95,99.2109 c -4.01,-1.5703 -9.81,-3.1289 -17.41,-4.8593 -7.61,-1.6993 -12.88,-2.9414 -15.8,-3.75 -2.93,-0.8203 -5.72,-2.3594 -8.34,-4.6602 -2.69,-2.3906 -4.03,-5.6094 -4.03,-9.7695 0,-4.3399 1.59,-7.961 4.67,-10.9922 3.15,-3.0508 7.24,-4.5274 12.29,-4.5274 5.37,0 10.37,1.25 14.89,3.7071 4.55,2.4414 7.92,5.6601 10.01,9.5 2.46,4.3203 3.72,11.3711 3.72,21.3008 z m 1.76,-41.1211 c -6.59,-5.3476 -12.94,-9.3203 -19.08,-11.9609 -6.12,-2.7187 -13.05,-4.0195 -20.65,-4.0195 -7.02,0 -13.09,1.4531 -18.4,4.2695 -5.32,2.9024 -9.35,6.8125 -12.22,11.7813 -2.82,4.9101 -4.29,10.1992 -4.29,15.9921 0,7.7579 2.42,14.3477 7.12,19.8399 4.67,5.4492 11.14,9.1288 19.38,11.0198 1.72,0.418 6.04,1.308 12.83,2.769 6.92,1.489 12.72,2.789 17.67,4 4.84,1.199 10.16,2.68 15.88,4.399 -0.35,7.519 -1.79,13.011 -4.33,16.582 -2.59,3.468 -7.92,5.179 -15.91,5.179 -6.95,0 -12.11,-0.98 -15.65,-2.992 -3.46,-1.98 -6.47,-5.027 -8.92,-9.097 -2.53,-4 -4.25,-6.661 -5.28,-7.922 -1.06,-1.321 -3.28,-1.899 -6.61,-1.899 -3.1,0 -5.72,1.008 -7.92,3.028 -2.25,2.062 -3.36,4.64 -3.36,7.882 0,4.969 1.7,9.86 5.07,14.508 3.39,4.742 8.68,8.614 15.84,11.711 7.17,3.051 16.13,4.563 26.83,4.563 11.92,0 21.34,-1.512 28.22,-4.442 6.82,-2.922 11.6,-7.551 14.45,-13.98 2.85,-6.332 4.24,-14.832 4.24,-25.36 0,-6.64 0,-12.332 -0.04,-16.941 -0.05,-4.6875 -0.08,-9.8398 -0.14,-15.5195 0,-5.3086 0.84,-10.8985 2.55,-16.6602 1.65,-5.789 2.5,-9.5312 2.5,-11.1601 0,-2.918 -1.33,-5.5899 -3.94,-7.9688 -2.57,-2.3789 -5.58,-3.582 -8.87,-3.582 -2.84,0 -5.53,1.332 -8.3,4.0703 -2.72,2.75 -5.6,6.75 -8.67,11.9101" /><path
         id="path34"
         style="fill:#100f0d;fill-opacity:1;fill-rule:nonzero;stroke:none"
         d="M 2487.45,141.371 V 59.3828 c 0,-5.7226 -1.31,-10.0234 -3.86,-12.9336 -2.59,-2.8476 -5.85,-4.3398 -9.85,-4.3398 -3.97,0 -7.26,1.4922 -9.71,4.4414 -2.53,3.0195 -3.78,7.2695 -3.78,12.832 v 81.1802 c 0,5.566 1.25,9.796 3.78,12.648 2.45,2.871 5.74,4.289 9.71,4.289 4,0 7.26,-1.418 9.85,-4.289 2.55,-2.852 3.86,-6.781 3.86,-11.84 z M 2474,170.719 c -3.74,0 -6.96,1.211 -9.66,3.703 -2.69,2.41 -4.09,5.867 -4.09,10.32 0,4 1.42,7.278 4.18,9.918 2.73,2.61 5.97,3.832 9.57,3.832 3.54,0 6.69,-1.14 9.42,-3.48 2.68,-2.36 4.03,-5.821 4.03,-10.27 0,-4.41 -1.31,-7.82 -3.98,-10.242 -2.65,-2.461 -5.81,-3.781 -9.47,-3.781" /><path
         id="path36"
         style="fill:#100f0d;fill-opacity:1;fill-rule:nonzero;stroke:none"
         d="m 2540.3,141.781 v -3.379 c 4.75,6.559 9.97,11.387 15.61,14.469 5.7,3.07 12.23,4.629 19.63,4.629 7.13,0 13.58,-1.621 19.26,-4.918 5.59,-3.242 9.83,-7.82 12.59,-13.762 1.81,-3.488 2.94,-7.269 3.51,-11.269 0.49,-3.981 0.8,-9.121 0.8,-15.379 V 59.3828 c 0,-5.7226 -1.28,-10.0234 -3.76,-12.9336 -2.5,-2.8476 -5.74,-4.3398 -9.7,-4.3398 -4.05,0 -7.36,1.4922 -9.78,4.4726 -2.56,2.9883 -3.86,7.2383 -3.86,12.8008 v 47.2692 c 0,9.399 -1.21,16.539 -3.69,21.481 -2.54,4.949 -7.52,7.469 -14.96,7.469 -4.83,0 -9.24,-1.532 -13.22,-4.563 -3.98,-2.976 -6.9,-7.137 -8.75,-12.418 -1.33,-4.23 -2.03,-12.09 -2.03,-23.7421 V 59.3828 c 0,-5.7617 -1.25,-10.1015 -3.82,-13.0039 -2.57,-2.8164 -5.87,-4.2695 -9.91,-4.2695 -3.89,0 -7.14,1.4922 -9.65,4.4414 -2.56,3.0195 -3.8,7.2695 -3.8,12.832 v 81.9882 c 0,5.43 1.11,9.43 3.41,12.102 2.21,2.679 5.37,4.027 9.27,4.027 2.34,0 4.54,-0.641 6.43,-1.77 1.98,-1.16 3.47,-2.988 4.65,-5.25 1.12,-2.417 1.77,-5.3 1.77,-8.699" /><path
         id="path38"
         style="fill:#100f0d;fill-opacity:1;fill-rule:nonzero;stroke:none"
         d="m 2655.35,139.832 21.96,-64.4414 23.72,67.2504 c 1.89,5.422 3.7,9.199 5.52,11.468 1.82,2.243 4.5,3.391 8.13,3.391 3.46,0 6.39,-1.211 8.87,-3.68 2.37,-2.41 3.59,-5.168 3.59,-8.441 0,-1.219 -0.23,-2.656 -0.66,-4.277 -0.39,-1.7 -0.89,-3.262 -1.48,-4.762 -0.57,-1.391 -1.16,-3.078 -1.95,-4.938 l -26.08,-67.57 c -0.73,-1.9297 -1.7,-4.4218 -2.83,-7.4101 -1.19,-2.9727 -2.5,-5.461 -3.89,-7.6524 -1.47,-2.0898 -3.2,-3.6992 -5.27,-4.8906 -2.13,-1.1797 -4.68,-1.7695 -7.67,-1.7695 -3.85,0 -6.9,0.9023 -9.23,2.7109 -2.28,1.8594 -3.98,3.8399 -5.07,6.082 -1.07,2.129 -2.96,6.4766 -5.51,12.9297 l -25.93,66.84 c -0.6,1.629 -1.24,3.308 -1.89,4.98 -0.59,1.661 -1.08,3.321 -1.55,5.09 -0.42,1.77 -0.66,3.25 -0.66,4.438 0,1.98 0.56,3.902 1.71,5.8 1.14,1.93 2.7,3.5 4.68,4.68 2.02,1.199 4.13,1.84 6.51,1.84 4.47,0 7.58,-1.348 9.29,-4.098 1.7,-2.683 3.61,-7.211 5.69,-13.57" /><path
         id="path40"
         style="fill:#100f0d;fill-opacity:1;fill-rule:nonzero;stroke:none"
         d="m 2766.58,109.012 h 49.28 c -0.62,9.668 -3.11,16.918 -7.5,21.718 -4.36,4.79 -10.09,7.211 -17.21,7.211 -6.73,0 -12.32,-2.449 -16.64,-7.308 -4.35,-4.863 -6.96,-12.094 -7.93,-21.621 z m 53.2,-16.1526 h -53.2 c 0.01,-6.4688 1.31,-12.1406 3.69,-17.0977 2.46,-4.8711 5.66,-8.6015 9.7,-11.1094 4,-2.5234 8.45,-3.7304 13.31,-3.7304 3.24,0 6.25,0.3984 8.89,1.1679 2.68,0.8399 5.32,2.0821 7.86,3.75 2.48,1.711 4.79,3.4727 6.94,5.4922 2.1,1.9375 4.93,4.5274 8.27,7.8789 1.41,1.3008 3.42,1.8907 5.97,1.8907 2.84,0 5.06,-0.7696 6.8,-2.4102 1.73,-1.5898 2.54,-3.8203 2.54,-6.7305 0,-2.5703 -0.94,-5.5703 -2.88,-9.0312 -1.9,-3.3789 -4.75,-6.6992 -8.71,-9.8984 -3.9,-3.1211 -8.77,-5.6915 -14.65,-7.8321 -5.85,-2.0664 -12.58,-3.0898 -20.28,-3.0898 -17.43,0 -31.04,5.2304 -40.7,15.5703 -9.68,10.4531 -14.51,24.5117 -14.51,42.2891 0,8.4922 1.23,16.2112 3.57,23.3712 2.39,7.191 5.86,13.332 10.46,18.441 4.59,5.16 10.19,9.121 16.92,11.821 6.74,2.75 14.14,4.121 22.34,4.121 10.55,0 19.7,-2.332 27.3,-7.043 7.63,-4.68 13.31,-10.68 17.09,-18.09 3.79,-7.461 5.68,-14.981 5.68,-22.731 0,-7.078 -1.9,-11.7067 -5.86,-13.8082 -3.95,-2.1485 -9.43,-3.1914 -16.54,-3.1914" /><path
         id="path42"
         style="fill:#100f0d;fill-opacity:1;fill-rule:nonzero;stroke:none"
         d="m 2962.66,77.25 c 0,-3.5078 -1,-7.3086 -3.08,-11.3398 -2.03,-4.0079 -5.05,-7.8204 -9.24,-11.4688 -4.13,-3.6211 -9.41,-6.5508 -15.74,-8.75 -6.27,-2.2812 -13.41,-3.3594 -21.25,-3.3594 -16.86,0 -29.97,5.1289 -39.38,15.3282 -9.4,10.2304 -14.15,23.8984 -14.15,41.1093 0,11.6405 2.14,21.9605 6.49,30.8825 4.33,8.879 10.51,15.848 18.71,20.707 8.14,4.922 17.93,7.364 29.31,7.364 7.03,0 13.47,-1.102 19.4,-3.223 5.85,-2.168 10.8,-4.949 14.94,-8.309 4.08,-3.41 7.16,-7.039 9.35,-10.859 2.14,-3.84 3.22,-7.441 3.22,-10.769 0,-3.352 -1.19,-6.231 -3.69,-8.614 -2.39,-2.379 -5.32,-3.539 -8.78,-3.539 -2.25,0 -4.13,0.653 -5.59,1.86 -1.52,1.179 -3.18,3.082 -5.07,5.839 -3.32,5.25 -6.77,9.231 -10.39,11.922 -3.62,2.61 -8.22,3.949 -13.82,3.949 -7.99,0 -14.48,-3.328 -19.39,-9.871 -4.96,-6.578 -7.41,-15.539 -7.41,-26.8981 0,-5.3086 0.68,-10.2812 1.89,-14.7109 1.27,-4.4883 3.11,-8.2891 5.52,-11.4687 2.38,-3.1524 5.29,-5.5196 8.67,-7.1524 3.33,-1.6601 7.07,-2.457 11.15,-2.457 5.43,0 10.12,1.289 14,3.9297 3.87,2.6679 7.34,6.6875 10.33,12.0312 1.67,3.2695 3.42,5.7383 5.38,7.5664 1.9,1.8125 4.23,2.6719 7.07,2.6719 3.27,0 6.07,-1.2813 8.18,-3.9219 2.25,-2.6992 3.37,-5.4687 3.37,-8.4492" /><path
         id="path44"
         style="fill:#100f0d;fill-opacity:1;fill-rule:nonzero;stroke:none"
         d="m 2987.92,155.102 h 2.98 v 17.058 c 0,4.551 0.13,8.172 0.37,10.762 0.23,2.598 0.82,4.777 1.95,6.699 1.02,1.899 2.56,3.488 4.59,4.731 1.97,1.179 4.19,1.757 6.65,1.757 3.44,0 6.57,-1.328 9.34,-4.007 1.82,-1.832 3.03,-4 3.53,-6.582 0.51,-2.598 0.73,-6.34 0.73,-11.098 v -19.32 h 10 c 3.85,0 6.8,-0.961 8.82,-2.872 2.06,-1.91 3.05,-4.32 3.05,-7.308 0,-3.82 -1.44,-6.52 -4.37,-8.02 -2.87,-1.492 -7.01,-2.261 -12.38,-2.261 h -5.12 V 82.3594 c 0,-4.4492 0.17,-7.8672 0.45,-10.2891 0.35,-2.4101 1.19,-4.3476 2.45,-5.789 1.26,-1.5118 3.37,-2.2813 6.32,-2.2813 1.58,0 3.73,0.2695 6.48,0.9023 2.66,0.5782 4.8,0.879 6.35,0.879 2.18,0 4.22,-0.961 5.95,-2.711 1.72,-1.8906 2.63,-4.1211 2.63,-6.8398 0,-4.5508 -2.35,-8.0586 -7.16,-10.4883 -4.84,-2.4297 -11.69,-3.6328 -20.62,-3.6328 -8.5,0 -14.97,1.4922 -19.35,4.4726 -4.36,2.9883 -7.28,7.0782 -8.59,12.4102 -1.39,5.2578 -2.07,12.2969 -2.07,21.0898 v 54.559 h -3.61 c -3.85,0 -6.85,0.961 -8.93,2.922 -2.07,1.929 -3.07,4.359 -3.07,7.359 0,2.988 1.05,5.398 3.19,7.308 2.19,1.911 5.3,2.872 9.44,2.872" /><path
         id="path46"
         style="fill:#100f0d;fill-opacity:1;fill-rule:nonzero;stroke:none"
         d="m 3133.11,99.7422 c 0,11.5388 -2.46,20.5778 -7.31,27.0198 -4.94,6.41 -11.43,9.66 -19.69,9.66 -5.33,0 -10,-1.442 -14.03,-4.313 -4.08,-2.918 -7.19,-7.16 -9.37,-12.777 -2.19,-5.551 -3.31,-12.07 -3.31,-19.5898 0,-7.4297 1.12,-13.8828 3.27,-19.4102 2.15,-5.5507 5.22,-9.8007 9.23,-12.75 4,-2.9297 8.75,-4.3828 14.21,-4.3828 8.26,0 14.75,3.211 19.69,9.6914 4.85,6.4492 7.31,15.4492 7.31,26.8516 z m 27.31,0 c 0,-8.4102 -1.25,-16.2109 -3.82,-23.4024 -2.5,-7.0781 -6.18,-13.2304 -10.93,-18.371 -4.8,-5.1368 -10.52,-8.9766 -17.13,-11.7891 -6.67,-2.7383 -14.09,-4.0703 -22.43,-4.0703 -8.27,0 -15.69,1.332 -22.23,4.1523 -6.56,2.7578 -12.28,6.7188 -17.09,11.8985 -4.79,5.1796 -8.46,11.2304 -10.91,18.2617 -2.48,7.0781 -3.7,14.8203 -3.7,23.3672 0,8.6019 1.22,16.4609 3.7,23.5699 2.58,7.172 6.16,13.231 10.86,18.332 4.76,5.039 10.45,8.942 17.14,11.68 6.78,2.738 14.16,4.129 22.23,4.129 8.26,0 15.69,-1.391 22.43,-4.168 6.7,-2.769 12.42,-6.762 17.22,-11.883 4.72,-5.117 8.43,-11.258 10.91,-18.328 2.5,-7.051 3.75,-14.851 3.75,-23.3788" /><path
         id="path48"
         style="fill:#100f0d;fill-opacity:1;fill-rule:nonzero;stroke:none"
         d="M 3208.86,83 V 59.3828 c 0,-5.7617 -1.31,-10.1015 -3.9,-13.0039 -2.6,-2.8164 -5.87,-4.2695 -9.9,-4.2695 -3.86,0 -7.12,1.4922 -9.63,4.3398 -2.51,2.9102 -3.76,7.211 -3.76,12.9336 v 78.9962 c 0,12.762 4.4,19.121 13.24,19.121 4.47,0 7.74,-1.52 9.77,-4.469 1.96,-2.968 3.01,-7.39 3.27,-13.199 3.24,5.809 6.62,10.231 10.04,13.199 3.42,2.949 7.96,4.469 13.65,4.469 5.76,0 11.28,-1.52 16.68,-4.469 5.35,-2.968 8.07,-6.949 8.07,-11.851 0,-3.457 -1.18,-6.367 -3.47,-8.59 -2.26,-2.231 -4.74,-3.399 -7.44,-3.399 -0.97,0 -3.4,0.661 -7.2,1.969 -3.85,1.262 -7.22,1.922 -10.16,1.922 -3.94,0 -7.19,-1.051 -9.69,-3.293 -2.54,-2.219 -4.51,-5.406 -5.9,-9.699 -1.39,-4.34 -2.4,-9.43 -2.9,-15.391 -0.5,-5.8787 -0.77,-13.0896 -0.77,-21.699" /><path
         id="path50"
         style="fill:#100f0d;fill-opacity:1;fill-rule:nonzero;stroke:none"
         d="m 3353.72,79.1914 c 0,-7.8594 -1.83,-14.5391 -5.52,-20.1328 -3.67,-5.6094 -9.05,-9.7773 -16.2,-12.6875 -7.17,-2.8086 -15.82,-4.2617 -26.11,-4.2617 -9.67,0 -18.09,1.5429 -25.08,4.6914 -6.98,3.1094 -12.13,6.9883 -15.42,11.6484 -3.36,4.6602 -5.07,9.3594 -5.07,14.0625 0,3.1094 1.09,5.7891 3.27,8 2.11,2.2696 4.81,3.3203 8.03,3.3203 2.87,0 5.09,-0.7422 6.61,-2.1406 1.52,-1.5508 2.95,-3.5508 4.38,-6.1914 2.79,-5.0586 6.11,-8.8398 10.05,-11.3281 3.82,-2.5313 9.12,-3.7696 15.89,-3.7696 5.42,0 9.89,1.2891 13.39,3.8165 3.47,2.5234 5.26,5.4101 5.26,8.6718 0,5.0196 -1.83,8.668 -5.43,10.9297 -3.67,2.3399 -9.6,4.5195 -17.9,6.582 -9.35,2.4297 -17,4.9766 -22.89,7.6172 -5.87,2.6915 -10.62,6.2305 -14.11,10.6015 -3.53,4.301 -5.31,9.711 -5.31,16.078 0,5.731 1.64,11.09 4.9,16.133 3.23,5.07 8.11,9.09 14.42,12.117 6.33,3.031 13.98,4.551 22.99,4.551 7,0 13.33,-0.781 18.98,-2.309 5.59,-1.511 10.34,-3.582 14.03,-6.109 3.75,-2.582 6.64,-5.422 8.58,-8.519 2,-3.153 2.96,-6.204 2.96,-9.161 0,-3.269 -1.02,-5.882 -3.16,-8.043 -2.1,-2.007 -5.1,-3.058 -8.89,-3.058 -2.82,0 -5.18,0.82 -7.19,2.519 -1.91,1.641 -4.18,4.121 -6.69,7.403 -2.07,2.777 -4.47,5.019 -7.29,6.679 -2.79,1.629 -6.57,2.5 -11.33,2.5 -4.93,0 -9.05,-1.082 -12.24,-3.293 -3.29,-2.168 -4.93,-4.91 -4.93,-8.16 0,-3 1.22,-5.429 3.57,-7.34 2.42,-1.91 5.62,-3.48 9.7,-4.738 4.08,-1.25 9.63,-2.808 16.74,-4.59 8.46,-2.14 15.33,-4.679 20.69,-7.691 5.34,-2.949 9.38,-6.4806 12.14,-10.5392 2.8,-4.0899 4.18,-8.711 4.18,-13.8594" /><path
         id="path52"
         style="fill:#100f0d;fill-opacity:1;fill-rule:nonzero;stroke:none"
         d="m 3384.59,42.1094 c -4.12,0 -7.68,1.332 -10.63,4.1523 -3.04,2.7578 -4.51,6.668 -4.51,11.6094 0,4.2187 1.39,7.8594 4.23,10.9297 2.86,3.0312 6.4,4.5195 10.59,4.5195 4.16,0 7.75,-1.4883 10.64,-4.5078 3,-2.9727 4.48,-6.6836 4.48,-10.9414 0,-4.9023 -1.48,-8.7695 -4.48,-11.5703 -2.89,-2.8008 -6.34,-4.1914 -10.32,-4.1914" /><path
         id="path54"
         style="fill:#100f0d;fill-opacity:1;fill-rule:nonzero;stroke:none"
         d="m 3504.85,99.7422 c 0,11.5388 -2.45,20.5778 -7.34,27.0198 -4.88,6.41 -11.41,9.66 -19.64,9.66 -5.33,0 -9.95,-1.442 -14.03,-4.313 -4.06,-2.918 -7.17,-7.16 -9.35,-12.777 -2.17,-5.551 -3.28,-12.07 -3.28,-19.5898 0,-7.4297 1.04,-13.8828 3.19,-19.4102 2.23,-5.5507 5.27,-9.8007 9.31,-12.75 4,-2.9297 8.72,-4.3828 14.16,-4.3828 8.23,0 14.76,3.211 19.64,9.6914 4.89,6.4492 7.34,15.4492 7.34,26.8516 z m 27.32,0 c 0,-8.4102 -1.25,-16.2109 -3.81,-23.4024 -2.53,-7.0781 -6.15,-13.2304 -10.94,-18.371 -4.83,-5.1368 -10.47,-8.9766 -17.13,-11.7891 -6.62,-2.7383 -14.09,-4.0703 -22.42,-4.0703 -8.23,0 -15.63,1.332 -22.2,4.1523 -6.58,2.7578 -12.25,6.7188 -17.05,11.8985 -4.89,5.1796 -8.52,11.2304 -11.04,18.2617 -2.44,7.0781 -3.69,14.8203 -3.69,23.3672 0,8.6019 1.25,16.4609 3.79,23.5699 2.57,7.172 6.13,13.231 10.82,18.332 4.72,5.039 10.44,8.942 17.17,11.68 6.7,2.738 14.05,4.129 22.2,4.129 8.23,0 15.7,-1.391 22.42,-4.168 6.74,-2.769 12.46,-6.762 17.25,-11.883 4.75,-5.117 8.38,-11.258 10.9,-18.328 2.48,-7.051 3.73,-14.851 3.73,-23.3788" /><path
         id="path56"
         style="fill:#100f0d;fill-opacity:1;fill-rule:nonzero;stroke:none"
         d="M 3580.61,83 V 59.3828 c 0,-5.7617 -1.3,-10.1015 -3.89,-13.0039 -2.55,-2.8164 -5.88,-4.2695 -9.83,-4.2695 -3.97,0 -7.15,1.4922 -9.69,4.3398 -2.56,2.9102 -3.8,7.211 -3.8,12.9336 v 78.9962 c 0,12.762 4.48,19.121 13.27,19.121 4.52,0 7.75,-1.52 9.73,-4.469 1.96,-2.968 3.13,-7.39 3.36,-13.199 3.19,5.809 6.52,10.231 9.94,13.199 3.44,2.949 8.01,4.469 13.67,4.469 5.81,0 11.35,-1.52 16.67,-4.469 5.38,-2.968 8.1,-6.949 8.1,-11.851 0,-3.457 -1.15,-6.367 -3.43,-8.59 -2.31,-2.231 -4.74,-3.399 -7.47,-3.399 -0.96,0 -3.35,0.661 -7.17,1.969 -3.83,1.262 -7.2,1.922 -10.15,1.922 -3.96,0 -7.19,-1.051 -9.79,-3.293 -2.48,-2.219 -4.44,-5.406 -5.86,-9.699 -1.35,-4.34 -2.33,-9.43 -2.85,-15.391 -0.53,-5.8787 -0.81,-13.0896 -0.81,-21.699" /><path
         id="path58"
         style="fill:#100f0d;fill-opacity:1;fill-rule:nonzero;stroke:none"
         d="m 3659.13,100.719 c 0,-11.4885 2.42,-20.1995 7.25,-26.1096 4.78,-5.8477 11.05,-8.8281 18.63,-8.8281 4.5,0 8.82,1.3085 12.82,3.8398 4.02,2.5312 7.29,6.3281 9.82,11.4297 2.56,5.1094 3.78,11.2617 3.78,18.539 0,11.5702 -2.46,20.5622 -7.33,26.9922 -4.87,6.5 -11.3,9.75 -19.26,9.75 -7.75,0 -13.99,-3.16 -18.65,-9.293 -4.71,-6.187 -7.06,-14.937 -7.06,-26.32 z m 78.83,36 V 54.2422 c 0,-9.4609 -1.03,-17.5508 -2.92,-24.3125 -1.93,-6.8281 -5.01,-12.4375 -9.25,-16.8672 -4.25,-4.42187 -9.85,-7.71094 -16.67,-9.86328 C 3702.23,1.08984 3693.67,0 3683.45,0 c -9.38,0 -17.77,1.32031 -25.1,4.05859 -7.39,2.80079 -13.08,6.30081 -17.05,10.66411 -3.98,4.289 -5.99,8.75 -5.99,13.3476 0,3.4805 1.1,6.2813 3.43,8.461 2.22,2.2382 4.96,3.3203 8.13,3.3203 4,0 7.44,-1.8594 10.49,-5.5118 1.46,-1.9296 2.99,-3.8007 4.5,-5.6796 1.56,-1.918 3.3,-3.5899 5.18,-4.8985 1.91,-1.3906 4.21,-2.3906 6.86,-3.0508 2.6,-0.6484 5.7,-0.9882 9.17,-0.9882 6.98,0 12.51,1.0468 16.37,3.0664 3.89,2.0429 6.62,4.9023 8.2,8.5625 1.49,3.6875 2.49,7.5976 2.65,11.789 0.32,4.2813 0.51,10.9492 0.69,20.2813 -4.18,-6.0899 -9.09,-10.7422 -14.51,-13.9219 -5.48,-3.1992 -12.03,-4.7578 -19.54,-4.7578 -9.18,0 -17.13,2.3867 -23.89,7.2695 -6.84,4.8399 -12.08,11.6172 -15.72,20.3789 -3.6,8.711 -5.48,18.7891 -5.48,30.2304 0,8.578 1.09,16.281 3.36,23.149 2.18,6.82 5.33,12.632 9.52,17.339 4.07,4.723 8.85,8.282 14.22,10.692 5.41,2.351 11.25,3.57 17.75,3.57 7.67,0 14.34,-1.558 19.98,-4.672 5.72,-3.039 10.9,-7.937 15.77,-14.48 v 3.801 c 0,4.96 1.2,8.742 3.49,11.519 2.3,2.672 5.32,4.031 8.95,4.031 5.26,0 8.75,-1.757 10.5,-5.34 1.7,-3.578 2.58,-8.781 2.58,-15.511" /><path
         id="path60"
         style="fill:#100f0d;fill-opacity:1;fill-rule:nonzero;stroke:none"
         d="m 2559.26,413.09 h 40.33 c -2.85,-21.75 -11.75,-38.719 -26.58,-50.938 -13.71,-11.972 -30.32,-17.871 -49.72,-17.871 -26.35,0 -47.38,9.258 -63.08,27.731 -14.87,17.57 -22.29,40.25 -22.29,67.957 0,28.402 7.37,51.094 22.08,68.281 14.71,17.121 35.5,25.723 62.39,25.723 19.99,0 36.91,-5.41 50.62,-16.141 14.54,-11.602 23.44,-27.902 26.58,-48.773 h -40.33 c -3.49,18.211 -14.6,27.261 -33.52,27.261 -31.17,0 -46.79,-18.461 -46.79,-55.418 0,-17.32 4.01,-31.453 12.03,-42.461 8.02,-11.062 19.32,-16.589 33.9,-16.589 21.74,0 33.21,10.429 34.38,31.238 z m -158.8,25.449 c 0,-36.098 11.45,-66.656 34.31,-91.559 22.9,-24.89 50.9,-37.351 84.15,-37.351 33.1,0 61.13,12.461 83.99,37.351 22.92,24.903 34.29,55.461 34.29,91.559 0,36.082 -11.37,66.613 -34.29,91.524 -22.86,24.949 -50.89,37.378 -83.99,37.378 -33.25,0 -61.25,-12.429 -84.15,-37.378 -22.86,-24.911 -34.31,-55.442 -34.31,-91.524 z m -40.98,0 c 0,45.941 15.55,85.152 46.66,117.723 31.15,32.519 68.76,48.789 112.78,48.789 43.92,0 81.47,-16.27 112.65,-48.789 31.13,-32.571 46.73,-71.782 46.73,-117.723 0,-45.969 -15.6,-85.238 -46.73,-117.738 -31.18,-32.551 -68.73,-48.832 -112.65,-48.832 -44.02,0 -81.63,16.281 -112.78,48.832 -31.11,32.5 -46.66,71.769 -46.66,117.738" /><path
         id="path62"
         style="fill:#100f0d;fill-opacity:1;fill-rule:nonzero;stroke:none"
         d="m 2423.99,334.121 23.26,-19.73 170.95,219.531 -23.24,19.699 -170.97,-219.5" /><path
         id="path64"
         style="fill:#c8edef;fill-opacity:1;fill-rule:evenodd;stroke:none"
         d="M 0,831.43 H 5105.72 V 5937.15 L 0,5937.15 V 831.43" /><path
         id="path66"
         style="fill:#65abe2;fill-opacity:1;fill-rule:evenodd;stroke:none"
         d="m 3591.33,2738.91 269.18,-126.46 c 132.4,-62.19 265.87,-122.03 400.4,-179.48 219.98,-93.97 364.19,-308.47 368.18,-547.64 5.87,-353.44 39.69,-705.83 101.24,-1053.908 H 1757.35 l 54.21,395.788 c 31.65,231.04 58.28,462.74 79.88,694.93 21.41,230.19 165.54,430.84 376.85,524.63 105.13,46.66 207.96,98.34 308.14,154.87 l 1014.9,137.27" /><path
         id="path68"
         style="fill:#569bda;fill-opacity:1;fill-rule:evenodd;stroke:none"
         d="m 4021.58,1471.13 32.23,-276.12 c 14.12,-121.17 27.93,-242.369 41.42,-363.588 h -503.9 c 217.12,81.75 399.63,258.928 430.25,639.708 z M 2038.07,831.422 h -280.72 l 54.21,395.788 c 31.65,231.04 58.28,462.74 79.88,694.93 21.41,230.19 165.54,430.84 376.85,524.63 -73.32,-160.05 -108.79,-334.85 -103.64,-510.83 5.65,-193.36 -37.91,-384.96 -126.58,-556.85 -88.61,-171.8 -88.61,-375.87 0,-547.668 v 0" /><path
         id="path70"
         style="fill:#2e2d2d;fill-opacity:1;fill-rule:evenodd;stroke:none"
         d="m 2785.02,3350.22 c 536.15,0 973.44,437.29 973.44,973.44 0,536.17 -437.29,973.46 -973.44,973.46 -536.16,0 -973.46,-437.29 -973.46,-973.46 0,-536.15 437.3,-973.44 973.46,-973.44" /><path
         id="path72"
         style="fill:#2e2d2d;fill-opacity:1;fill-rule:evenodd;stroke:none"
         d="m 3347.72,2860.23 c 536.15,0 973.45,437.29 973.45,973.45 0,536.16 -437.3,973.45 -973.45,973.45 -536.15,0 -973.45,-437.29 -973.45,-973.45 0,-536.16 437.3,-973.45 973.45,-973.45" /><path
         id="path74"
         style="fill:#f15030;fill-opacity:1;fill-rule:evenodd;stroke:none"
         d="m 2576.43,2601.64 c -74.89,-213.56 -61.73,-395.51 53.92,-472.19 184.54,-122.36 560.09,69.61 838.84,428.78 46.43,59.81 87.22,120.52 122.14,180.68 -193.41,122.69 -342.4,304.15 -425.08,517.75 l -105.73,273.11 -491.68,-113.8 c 123.46,-134.66 201.14,-304.95 221.9,-486.46 10.62,-92.99 -28.24,-184.75 -102.42,-241.81 l -111.89,-86.06" /><path
         id="path76"
         style="fill:#eb3c1f;fill-opacity:1;fill-rule:evenodd;stroke:none"
         d="m 2733.22,3454.02 -164.38,-38.05 c 123.46,-134.66 201.14,-304.95 221.9,-486.46 10.62,-92.99 -28.24,-184.75 -102.42,-241.81 l -12.47,-9.59 c 186.35,41.49 325.33,203.25 325.33,396.5 0,172.83 -111.18,320.46 -267.96,379.41" /><path
         id="path78"
         style="fill:#f15030;fill-opacity:1;fill-rule:evenodd;stroke:none"
         d="m 2490.95,4760.19 c -544.25,0 -544.25,-443.08 -544.25,-1011.94 0,-568.86 352.53,-787.87 544.25,-787.87 191.73,0 804.47,219.01 804.47,787.87 0,568.86 -260.22,1011.94 -804.47,1011.94" /><path
         id="path80"
         style="fill:#f15030;fill-opacity:1;fill-rule:evenodd;stroke:none"
         d="m 3317.28,4125.98 c -79.94,30.12 -176.09,-47.49 -214.77,-173.35 -38.68,-125.85 -5.24,-252.29 74.69,-282.4 79.94,-30.11 176.11,47.5 214.79,173.34 38.68,125.86 5.22,252.3 -74.71,282.41" /><path
         id="path82"
         style="fill:#2e2d2d;fill-opacity:1;fill-rule:evenodd;stroke:none"
         d="m 2552.87,4218.55 26.08,99.36 34.38,-13.86 c 97.73,-39.39 187.5,-96.21 264.93,-167.7 l -40.22,-48.98 c -72.72,44.63 -149.74,81.84 -229.91,111.04 l -55.26,20.14" /><path
         id="path84"
         style="fill:#2e2d2d;fill-opacity:1;fill-rule:evenodd;stroke:none"
         d="m 2660.14,3839.89 c 51.85,0 94.12,54.24 94.12,120.75 0,66.51 -42.27,120.75 -94.12,120.75 -51.84,0 -94.13,-54.24 -94.13,-120.75 0,-66.51 42.29,-120.75 94.13,-120.75" /><path
         id="path86"
         style="fill:#2e2d2d;fill-opacity:1;fill-rule:evenodd;stroke:none"
         d="m 2285,4202.4 -21.67,104.19 -28.08,-10.77 c -79.81,-30.67 -153.04,-79.95 -216.13,-145.45 l 33.07,-54.05 c 59.33,38.48 122.21,68.95 187.68,90.94 l 45.13,15.14" /><path
         id="path88"
         style="fill:#2e2d2d;fill-opacity:1;fill-rule:evenodd;stroke:none"
         d="m 2194.95,3839.89 c 40.39,0 73.34,54.24 73.34,120.75 0,66.51 -32.95,120.75 -73.34,120.75 -40.39,0 -73.34,-54.24 -73.34,-120.75 0,-66.51 32.95,-120.75 73.34,-120.75" /><path
         id="path90"
         style="fill:#742018;fill-opacity:1;fill-rule:evenodd;stroke:none"
         d="m 2381.4,3430.01 c 136.83,0 278.74,72.96 278.74,-70 0,-142.97 -141.91,-103.09 -278.74,-103.09 -136.83,0 -216.75,-39.88 -216.75,103.09 0,142.96 79.92,70 216.75,70" /><path
         id="path92"
         style="fill:#ffffff;fill-opacity:1;fill-rule:evenodd;stroke:none"
         d="m 2654.53,3317 c -27.56,-91.14 -152.32,-60.08 -273.13,-60.08 -80.47,0 -141.25,-13.77 -177.67,3.95 10.02,107.15 88.11,43.8 215.64,43.8 90.22,0 182.65,31.72 235.16,12.33" /><path
         id="path94"
         style="fill:#ffffff;fill-opacity:1;fill-rule:evenodd;stroke:none"
         d="m 2381.4,3430.01 c 124.64,0 253.5,60.51 275.45,-36.79 -52.07,-31.05 -145.91,-13.19 -237.48,-13.19 -123.84,0 -201.07,-32.66 -214.61,67.13 36.53,7.6 96.92,-17.15 176.64,-17.15" /><path
         id="path96"
         style="fill:#eb3c1f;fill-opacity:1;fill-rule:evenodd;stroke:none"
         d="m 2346.48,3552.08 c 62.25,0 147.24,28.63 147.24,0 0,-28.62 -34.46,-90.92 -96.7,-90.92 -62.26,0 -128.73,62.3 -128.73,90.92 0,28.63 15.94,0 78.19,0" /><path
         id="path98"
         style="fill:#2e2d2d;fill-opacity:1;fill-rule:evenodd;stroke:none"
         d="m 1909.84,3991.64 43.13,119.04 c 112.83,311.46 470.44,511.03 801.28,527.55 246.93,-130.75 228.08,-541.91 496.78,-510.08 138.5,235.01 382.12,-542.16 660.74,-167.51 l -699.3,770.66 -718.75,300.42 -474.6,-395.79 -127.68,-432.47 18.4,-211.82" /><path
         id="path100"
         style="fill:#ffffff;fill-opacity:1;fill-rule:evenodd;stroke:none"
         d="M 968.418,5937.15 V 3512.98 h -30.113 v 2424.17 h 30.113" /><path
         id="path102"
         style="fill:#2e2d2d;fill-opacity:1;fill-rule:evenodd;stroke:none"
         d="m 953.355,2880.07 c 91.885,0 166.825,92.07 166.825,204.95 0,112.88 -74.94,204.95 -166.825,204.95 -91.878,0 -166.828,-92.07 -166.828,-204.95 0,-112.88 74.95,-204.95 166.828,-204.95" /><path
         id="path104"
         style="fill:#2e2d2d;fill-opacity:1;fill-rule:evenodd;stroke:none"
         d="m 953.355,3161.11 c 62.075,0 112.715,63.5 112.715,141.35 0,77.86 -50.64,141.36 -112.715,141.36 -62.078,0 -112.71,-63.5 -112.71,-141.36 0,-77.85 50.632,-141.35 112.71,-141.35" /><path
         id="path106"
         style="fill:#2e2d2d;fill-opacity:1;fill-rule:evenodd;stroke:none"
         d="m 953.355,3395.82 c 47.535,0 86.295,29.45 86.295,65.58 0,36.12 -38.76,65.59 -86.295,65.59 -47.531,0 -86.289,-29.47 -86.289,-65.59 0,-36.13 38.758,-65.58 86.289,-65.58" /><path
         id="path108"
         style="fill:#2e2d2d;fill-opacity:1;fill-rule:evenodd;stroke:none"
         d="m 993.188,3495.05 4.601,4.03 c 14.841,13 23.131,31.94 22.641,51.66 -0.5,19.73 -9.75,38.22 -25.231,50.45 l 5.761,-12.08 c 7.39,-15.54 7.26,-33.61 -0.36,-49.04 -7.635,-15.43 -21.924,-26.51 -38.76,-30.06 z m -79.676,0 -4.602,4.03 c -14.84,13 -23.133,31.94 -22.637,51.66 0.5,19.73 9.747,38.22 25.227,50.45 l -5.758,-12.08 c -7.398,-15.54 -7.265,-33.61 0.363,-49.04 7.629,-15.43 21.918,-26.51 38.762,-30.06 l -31.355,-14.96 v 0" /><path
         id="path110"
         style="fill:#2e2d2d;fill-opacity:1;fill-rule:evenodd;stroke:none"
         d="m 998.551,3389.62 53.099,14.4 c 83.68,71.47 143.23,175.58 138.05,316.31 18.84,-134.99 -6.83,-251.27 -120.68,-338.86 l -75.028,-13.86 4.559,22.01" /><path
         id="path112"
         style="fill:#2e2d2d;fill-opacity:1;fill-rule:evenodd;stroke:none"
         d="m 1050.64,3298.94 61.2,-1.85 c 112.22,48.99 209.34,140.54 249.38,292.06 -23.65,-149.82 -88.63,-265.31 -238.19,-321.69 l -84.36,9.53 11.97,21.95" /><path
         id="path114"
         style="fill:#2e2d2d;fill-opacity:1;fill-rule:evenodd;stroke:none"
         d="m 1046.04,3150.08 123.02,25.5 164.05,-52.6 49.53,3.08 c 99.66,6.23 195.12,42.36 273.92,103.69 l -35.59,-34.04 c -75.59,-72.31 -175.54,-113.64 -280.12,-115.86 l -162.5,58.59 -98.36,-35.59 -33.95,47.23" /><path
         id="path116"
         style="fill:#2e2d2d;fill-opacity:1;fill-rule:evenodd;stroke:none"
         d="m 1092.55,3042.15 64.55,-78.99 23.72,-137.85 20.82,-34.5 c 41.89,-69.42 103.76,-124.57 177.49,-158.28 l -37.87,12.84 c -80.44,27.26 -147.72,83.71 -188.58,158.18 l -18.83,138.99 -62.55,57.45 21.25,42.16" /><path
         id="path118"
         style="fill:#2e2d2d;fill-opacity:1;fill-rule:evenodd;stroke:none"
         d="m 908.152,3389.62 -53.097,14.4 c -83.672,71.47 -143.231,175.58 -138.047,316.31 -18.848,-134.99 6.832,-251.27 120.68,-338.86 l 75.023,-13.86 -4.559,22.01" /><path
         id="path120"
         style="fill:#2e2d2d;fill-opacity:1;fill-rule:evenodd;stroke:none"
         d="m 856.07,3298.94 -61.203,-1.85 c -112.222,48.99 -209.34,140.54 -249.387,292.06 23.653,-149.82 88.637,-265.31 238.192,-321.69 l 84.363,9.53 -11.965,21.95" /><path
         id="path122"
         style="fill:#2e2d2d;fill-opacity:1;fill-rule:evenodd;stroke:none"
         d="m 860.664,3150.08 -123.023,25.5 -164.047,-52.6 -49.528,3.08 c -99.656,6.23 -195.125,42.36 -273.925,103.69 l 35.589,-34.04 c 75.594,-72.31 175.543,-113.64 280.129,-115.86 l 162.496,58.59 98.364,-35.59 33.945,47.23" /><path
         id="path124"
         style="fill:#2e2d2d;fill-opacity:1;fill-rule:evenodd;stroke:none"
         d="m 814.148,3042.15 -64.546,-78.99 -23.711,-137.85 -20.825,-34.5 c -41.89,-69.42 -103.757,-124.57 -177.492,-158.28 l 37.871,12.84 c 80.438,27.26 147.731,83.71 188.578,158.18 l 18.825,138.99 62.562,57.45 -21.262,42.16" /></g></g></svg>