<?xml version="1.0" encoding="UTF-8" standalone="no"?>
<svg
   xmlns:dc="http://purl.org/dc/elements/1.1/"
   xmlns:cc="http://creativecommons.org/ns#"
   xmlns:rdf="http://www.w3.org/1999/02/22-rdf-syntax-ns#"
   xmlns:svg="http://www.w3.org/2000/svg"
   xmlns="http://www.w3.org/2000/svg"
   viewBox="0 0 561.59998 777.52002"
   height="777.52002"
   width="561.59998"
   xml:space="preserve"
   id="svg2"
   version="1.1"><metadata
     id="metadata8"><rdf:RDF><cc:Work
         rdf:about=""><dc:format>image/svg+xml</dc:format><dc:type
           rdf:resource="http://purl.org/dc/dcmitype/StillImage" /></cc:Work></rdf:RDF></metadata><defs
     id="defs6" /><g
     transform="matrix(1.3333333,0,0,-1.3333333,0,777.52)"
     id="g10"><g
       transform="scale(0.1)"
       id="g12"><path
         id="path14"
         style="fill:#100f0d;fill-opacity:1;fill-rule:nonzero;stroke:none"
         d="m 943.676,100.27 c 0,7.519 -1.074,14 -3.305,19.3 -2.156,5.379 -5.195,9.539 -9.101,12.461 -3.891,2.848 -8.18,4.309 -12.915,4.309 -7.496,0 -13.835,-3.16 -18.992,-9.301 -5.152,-6.199 -7.73,-15.25 -7.73,-27.2499 0,-11.3203 2.578,-20.1094 7.652,-26.3086 5.156,-6.3086 11.52,-9.4688 19.07,-9.4688 4.504,0 8.731,1.3594 12.59,4.1485 3.801,2.7304 6.903,6.8281 9.243,12.2617 2.347,5.5273 3.488,12.0976 3.488,19.8481 z m -53.309,41.371 v -3.411 c 5.106,6.54 10.395,11.442 15.903,14.481 5.531,3.098 11.816,4.668 18.796,4.668 8.352,0 16.063,-2.27 23.11,-6.777 7.023,-4.512 12.582,-11.071 16.691,-19.77 4.082,-8.684 6.09,-18.91 6.09,-30.781 0,-8.7112 -1.137,-16.8283 -3.5,-24.0393 -2.352,-7.3203 -5.602,-13.5117 -9.707,-18.4531 -4.121,-4.9492 -9.023,-8.7891 -14.598,-11.418 -5.64,-2.7187 -11.691,-4.0312 -18.086,-4.0312 -7.808,0 -14.339,1.6211 -19.617,4.8906 -5.328,3.25 -10.328,8 -15.082,14.3203 V 18.7188 C 890.367,6.21875 886.008,0 877.305,0 c -5.114,0 -8.528,1.60156 -10.137,4.80078 -1.68,3.23828 -2.5,7.94922 -2.5,14.10152 V 141.461 c 0,5.398 1.09,9.449 3.375,12.109 2.293,2.641 5.371,4.012 9.262,4.012 3.855,0 6.996,-1.371 9.414,-4.141 2.418,-2.75 3.648,-6.699 3.648,-11.8" /><path
         id="path16"
         style="fill:#100f0d;fill-opacity:1;fill-rule:nonzero;stroke:none"
         d="M 1063.5,58.1719 V 61.75 c -3.27,-4.2891 -6.68,-7.8711 -10.28,-10.7695 -3.59,-2.961 -7.51,-5.1094 -11.74,-6.5 -4.29,-1.4219 -9.13,-2.1407 -14.58,-2.1407 -6.54,0 -12.44,1.4297 -17.67,4.25 -5.22,2.8321 -9.269,6.7618 -12.082,11.7422 -3.441,6.0391 -5.093,14.7071 -5.093,25.9688 V 140.57 c 0,5.641 1.226,9.922 3.691,12.711 2.461,2.809 5.704,4.219 9.734,4.219 4.14,0 7.44,-1.41 9.98,-4.277 2.53,-2.852 3.77,-7.082 3.77,-12.653 V 95.0898 c 0,-6.5273 0.53,-12.0781 1.56,-16.5078 1.11,-4.4922 3.02,-7.9922 5.8,-10.5625 2.7,-2.4882 6.46,-3.7578 11.17,-3.7578 4.63,0 8.93,1.4375 12.96,4.2696 4.08,2.8085 7.05,6.5078 8.89,11.0898 1.53,4.0312 2.28,12.8281 2.28,26.4099 v 34.539 c 0,5.571 1.26,9.801 3.81,12.653 2.5,2.867 5.75,4.277 9.83,4.277 4.06,0 7.31,-1.41 9.77,-4.219 2.42,-2.789 3.64,-7.07 3.64,-12.711 V 58.332 c 0,-5.4023 -1.13,-9.4726 -3.5,-12.1406 -2.33,-2.7422 -5.37,-4.0625 -9.1,-4.0625 -3.71,0 -6.76,1.4414 -9.21,4.1719 -2.42,2.8476 -3.63,6.7383 -3.63,11.8711" /><path
         id="path18"
         style="fill:#100f0d;fill-opacity:1;fill-rule:nonzero;stroke:none"
         d="m 1142.4,99.1406 c 0,-11.2812 2.46,-19.9297 7.39,-26.0195 4.97,-6.0391 11.46,-9.1094 19.52,-9.1094 6.85,0 12.7,3.1172 17.69,9.3086 4.97,6.2188 7.45,15.0586 7.45,26.6485 0,7.5702 -1.04,13.9802 -3.11,19.3712 -2.08,5.441 -5.02,9.621 -8.76,12.539 -3.84,2.941 -8.2,4.461 -13.27,4.461 -5.23,0 -9.77,-1.52 -13.86,-4.461 -4.08,-2.918 -7.24,-7.207 -9.58,-12.797 -2.33,-5.543 -3.47,-12.16 -3.47,-19.9414 z m -1.29,84.3904 v -43.39 c 5.05,5.601 10.3,9.8 15.6,12.808 5.33,2.93 11.93,4.43 19.75,4.43 9.04,0 16.95,-2.27 23.76,-6.688 6.8,-4.55 12.11,-10.992 15.84,-19.492 3.79,-8.469 5.64,-18.547 5.64,-30.187 0,-8.6097 -1.03,-16.4807 -3.1,-23.7112 -2.11,-7.1406 -5.11,-13.332 -9.12,-18.6602 -4.02,-5.2422 -8.86,-9.2695 -14.51,-12.25 -5.71,-2.8203 -11.97,-4.2812 -18.8,-4.2812 -4.15,0 -8.12,0.5312 -11.83,1.5508 -3.68,1.0507 -6.84,2.4101 -9.37,4.1601 -2.63,1.6016 -4.84,3.4102 -6.67,5.1719 -1.82,1.8398 -4.21,4.5078 -7.19,8.1172 V 58.332 c 0,-5.3632 -1.26,-9.3906 -3.72,-12.1406 -2.42,-2.7422 -5.6,-4.082 -9.34,-4.082 -3.88,0 -6.93,1.3398 -9.26,4.082 -2.26,2.8086 -3.4,6.8008 -3.4,12.1406 v 123.969 c 0,5.711 1.1,10.07 3.36,13.012 2.21,2.957 5.28,4.417 9.3,4.417 4.16,0 7.39,-1.398 9.63,-4.23 2.28,-2.781 3.43,-6.762 3.43,-11.969" /><path
         id="path20"
         style="fill:#100f0d;fill-opacity:1;fill-rule:nonzero;stroke:none"
         d="M 1240.9,59.3906 V 182.469 c 0,5.722 1.21,9.98 3.6,12.91 2.47,2.891 5.72,4.351 9.85,4.351 4.12,0 7.42,-1.421 9.96,-4.308 2.48,-2.863 3.8,-7.211 3.8,-12.953 V 59.3906 c 0,-5.7617 -1.32,-10.1015 -3.87,-13 -2.54,-2.8203 -5.85,-4.2812 -9.89,-4.2812 -3.99,0 -7.19,1.5 -9.7,4.4804 -2.5,2.9805 -3.75,7.2305 -3.75,12.8008" /><path
         id="path22"
         style="fill:#100f0d;fill-opacity:1;fill-rule:nonzero;stroke:none"
         d="M 1323.37,141.379 V 59.3906 c 0,-5.7187 -1.32,-10.0195 -3.85,-12.9297 -2.62,-2.8515 -5.92,-4.3515 -9.87,-4.3515 -4,0 -7.25,1.5 -9.72,4.4531 -2.47,3.0078 -3.76,7.2578 -3.76,12.8281 V 140.57 c 0,5.571 1.29,9.801 3.76,12.653 2.47,2.867 5.72,4.277 9.72,4.277 3.95,0 7.25,-1.41 9.87,-4.277 2.53,-2.852 3.85,-6.782 3.85,-11.844 z m -13.45,29.351 c -3.79,0 -7,1.211 -9.75,3.7 -2.62,2.41 -4,5.871 -4,10.32 0,3.988 1.38,7.281 4.15,9.922 2.76,2.609 5.95,3.828 9.6,3.828 3.52,0 6.66,-1.141 9.37,-3.488 2.71,-2.352 4.08,-5.821 4.08,-10.262 0,-4.41 -1.33,-7.82 -3.99,-10.238 -2.67,-2.473 -5.78,-3.782 -9.46,-3.782" /><path
         id="path24"
         style="fill:#100f0d;fill-opacity:1;fill-rule:nonzero;stroke:none"
         d="m 1448.9,77.2617 c 0,-3.5234 -1,-7.3125 -3.02,-11.3398 -2.05,-4.0117 -5.13,-7.8203 -9.3,-11.4727 -4.12,-3.6289 -9.36,-6.5586 -15.67,-8.75 -6.31,-2.2773 -13.43,-3.3594 -21.31,-3.3594 -16.82,0 -29.93,5.1211 -39.37,15.3321 -9.41,10.2187 -14.14,23.8984 -14.14,41.0976 0,11.6405 2.15,21.9725 6.45,30.8785 4.31,8.891 10.61,15.864 18.74,20.723 8.15,4.918 17.95,7.359 29.27,7.359 7.07,0 13.54,-1.109 19.42,-3.218 5.87,-2.172 10.85,-4.961 14.93,-8.313 4.08,-3.41 7.2,-7.051 9.37,-10.859 2.18,-3.84 3.23,-7.449 3.23,-10.781 0,-3.348 -1.24,-6.227 -3.63,-8.598 -2.44,-2.379 -5.34,-3.539 -8.81,-3.539 -2.28,0 -4.13,0.648 -5.66,1.859 -1.45,1.168 -3.15,3.078 -5.02,5.84 -3.31,5.25 -6.8,9.231 -10.41,11.91 -3.63,2.61 -8.23,3.961 -13.76,3.961 -8.09,0 -14.56,-3.332 -19.46,-9.871 -4.93,-6.59 -7.36,-15.539 -7.36,-26.9101 0,-5.3007 0.63,-10.2695 1.91,-14.6992 1.25,-4.5 3.07,-8.3008 5.45,-11.4726 2.4,-3.1485 5.26,-5.5274 8.66,-7.1602 3.39,-1.6601 7.12,-2.4492 11.14,-2.4492 5.49,0 10.13,1.2891 14.02,3.9297 3.9,2.6601 7.33,6.6914 10.31,12.0312 1.67,3.2696 3.45,5.7383 5.39,7.5703 1.95,1.8008 4.31,2.6602 7.09,2.6602 3.31,0 6.07,-1.2813 8.28,-3.9102 2.15,-2.6992 3.26,-5.4687 3.26,-8.4492" /><path
         id="path26"
         style="fill:#100f0d;fill-opacity:1;fill-rule:nonzero;stroke:none"
         d="m 1493.7,99.9688 c 0,-7.6875 1.14,-14.1875 3.42,-19.629 2.31,-5.4179 5.4,-9.4492 9.39,-12.1796 4.01,-2.7891 8.37,-4.1485 13.04,-4.1485 4.8,0 9.16,1.3281 13.1,3.8789 3.98,2.6211 7.09,6.6407 9.48,12 2.37,5.3516 3.53,12.0821 3.53,20.0782 0,7.6132 -1.16,14.0702 -3.53,19.5432 -2.39,5.437 -5.55,9.597 -9.56,12.519 -4.03,2.848 -8.4,4.309 -13.19,4.309 -4.96,0 -9.4,-1.52 -13.34,-4.461 -3.89,-2.918 -6.97,-7.199 -9.12,-12.707 -2.13,-5.52 -3.22,-11.859 -3.22,-19.2032 z m 53.46,-41.6368 v 2.7774 c -3.66,-4.3672 -7.26,-7.9102 -10.86,-10.6094 -3.49,-2.7695 -7.36,-4.8398 -11.51,-6.2695 -4.14,-1.3789 -8.68,-2.1211 -13.58,-2.1211 -6.5,0 -12.57,1.4609 -18.09,4.2812 -5.53,2.9805 -10.32,7.0313 -14.38,12.3594 -4.04,5.3516 -7.11,11.6211 -9.22,18.8516 -2.12,7.1797 -3.14,14.9804 -3.14,23.4104 0,17.687 4.16,31.59 12.46,41.5 8.32,9.918 19.23,14.867 32.76,14.867 7.83,0 14.45,-1.43 19.82,-4.289 5.37,-2.758 10.63,-7.078 15.74,-12.949 v 41.91 c 0,5.84 1.1,10.238 3.34,13.211 2.21,3 5.35,4.468 9.49,4.468 4.11,0 7.28,-1.378 9.53,-4.078 2.21,-2.73 3.36,-6.781 3.36,-12.121 V 58.332 c 0,-5.4023 -1.21,-9.4726 -3.61,-12.1406 -2.4,-2.7422 -5.46,-4.082 -9.28,-4.082 -3.68,0 -6.79,1.4023 -9.22,4.1914 -2.41,2.8086 -3.61,6.7812 -3.61,12.0312" /><path
         id="path28"
         style="fill:#100f0d;fill-opacity:1;fill-rule:nonzero;stroke:none"
         d="m 1674.69,99.75 c 0,11.531 -2.48,20.582 -7.34,27.02 -4.88,6.41 -11.46,9.66 -19.68,9.66 -5.35,0 -10,-1.45 -14.06,-4.321 -4.04,-2.918 -7.15,-7.16 -9.35,-12.769 -2.18,-5.559 -3.3,-12.07 -3.3,-19.59 0,-7.4297 1.12,-13.8906 3.24,-19.4102 2.15,-5.5507 5.25,-9.8007 9.3,-12.75 4,-2.9414 8.76,-4.3789 14.17,-4.3789 8.22,0 14.8,3.211 19.68,9.6797 4.86,6.461 7.34,15.4492 7.34,26.8594 z m 27.28,0 c 0,-8.4102 -1.28,-16.2109 -3.79,-23.3984 -2.52,-7.0821 -6.17,-13.2305 -10.92,-18.3828 -4.82,-5.129 -10.53,-8.9688 -17.16,-11.7774 -6.64,-2.7422 -14.17,-4.082 -22.43,-4.082 -8.22,0 -15.64,1.3398 -22.19,4.1523 -6.58,2.7696 -12.31,6.7305 -17.13,11.9102 -4.79,5.1679 -8.42,11.2304 -10.95,18.2578 -2.48,7.082 -3.72,14.8086 -3.72,23.3711 0,8.5902 1.28,16.4492 3.77,23.5582 2.53,7.18 6.12,13.243 10.86,18.332 4.72,5.051 10.42,8.95 17.17,11.68 6.72,2.75 14.08,4.129 22.19,4.129 8.25,0 15.72,-1.379 22.43,-4.168 6.68,-2.762 12.43,-6.75 17.2,-11.871 4.82,-5.121 8.44,-11.262 10.88,-18.332 2.55,-7.047 3.79,-14.848 3.79,-23.379" /><path
         id="path30"
         style="fill:#100f0d;fill-opacity:1;fill-rule:nonzero;stroke:none"
         d="m 1816.83,123.199 c -2.04,-4.801 -3.01,-13.258 -3.01,-25.4568 V 60.0195 c 0,-5.9297 -1.27,-10.4492 -3.89,-13.4297 -2.58,-2.9804 -6.04,-4.4804 -10.29,-4.4804 -4.08,0 -7.41,1.5 -9.95,4.4804 -2.56,2.9805 -3.81,7.5 -3.81,13.4297 v 45.2815 c 0,7.121 -0.27,12.64 -0.74,16.648 -0.47,3.903 -1.72,7.172 -3.78,9.699 -2.02,2.551 -5.3,3.813 -9.72,3.813 -8.9,0 -14.75,-3.191 -17.6,-9.609 -2.84,-6.34 -4.19,-15.5 -4.19,-27.4536 V 60.0195 c 0,-5.9179 -1.31,-10.3906 -3.83,-13.3398 -2.59,-3.0703 -5.96,-4.5703 -10.09,-4.5703 -4.15,0 -7.56,1.5 -10.16,4.5703 -2.65,2.9492 -3.89,7.4219 -3.89,13.332 v 81.2073 c 0,5.363 1.12,9.422 3.45,12.179 2.39,2.762 5.5,4.184 9.38,4.184 3.71,0 6.82,-1.293 9.29,-3.891 2.48,-2.589 3.73,-6.171 3.73,-10.761 v -2.688 c 4.7,5.899 9.77,10.238 15.12,12.981 5.37,2.769 11.42,4.156 17.94,4.156 6.82,0 12.68,-1.43 17.59,-4.289 4.94,-2.809 8.97,-7.121 12.14,-12.848 4.59,5.77 9.5,10.129 14.77,12.93 5.25,2.82 11.05,4.207 17.4,4.207 7.5,0 13.89,-1.5 19.22,-4.59 5.4,-3.047 9.41,-7.41 12.08,-13.09 2.34,-5.14 3.48,-13.199 3.48,-24.25 V 60.0195 c 0,-5.9297 -1.29,-10.4492 -3.84,-13.4297 -2.65,-2.9804 -6.03,-4.4804 -10.29,-4.4804 -4.13,0 -7.49,1.5 -10.1,4.5703 -2.65,2.9492 -3.97,7.4219 -3.97,13.3398 v 47.7695 c 0,6.102 -0.24,10.973 -0.73,14.66 -0.5,3.711 -1.85,6.742 -4.06,9.25 -2.18,2.5 -5.52,3.762 -9.93,3.762 -3.58,0 -7.01,-1.121 -10.17,-3.289 -3.28,-2.242 -5.72,-5.223 -7.55,-8.973 v 0" /><path
         id="path32"
         style="fill:#100f0d;fill-opacity:1;fill-rule:nonzero;stroke:none"
         d="m 1970.84,99.2109 c -4,-1.5586 -9.8,-3.1211 -17.4,-4.8515 -7.61,-1.6992 -12.88,-2.9375 -15.8,-3.75 -2.93,-0.8203 -5.73,-2.3594 -8.34,-4.6602 -2.69,-2.3867 -4.03,-5.6094 -4.03,-9.7695 0,-4.3399 1.59,-7.957 4.67,-10.9883 3.15,-3.0625 7.24,-4.5312 12.29,-4.5312 5.37,0 10.36,1.25 14.89,3.7109 4.55,2.4375 7.92,5.6484 10,9.5 2.47,4.3203 3.72,11.3711 3.72,21.3008 z m 1.77,-41.1093 c -6.59,-5.3516 -12.94,-9.3321 -19.08,-11.961 -6.12,-2.7187 -13.05,-4.0312 -20.65,-4.0312 -7.02,0 -13.09,1.4609 -18.41,4.2812 -5.31,2.8985 -9.34,6.8086 -12.21,11.7813 -2.83,4.9101 -4.29,10.1875 -4.29,15.9765 0,7.7735 2.42,14.3633 7.12,19.8516 4.67,5.4492 11.14,9.129 19.37,11.012 1.73,0.418 6.04,1.32 12.84,2.777 6.91,1.492 12.71,2.793 17.67,4 4.83,1.191 10.16,2.684 15.87,4.402 -0.35,7.508 -1.78,13 -4.32,16.579 -2.59,3.46 -7.93,5.171 -15.91,5.171 -6.95,0 -12.11,-0.968 -15.65,-2.992 -3.46,-1.98 -6.47,-5.019 -8.92,-9.097 -2.53,-3.993 -4.25,-6.661 -5.28,-7.922 -1.06,-1.309 -3.28,-1.891 -6.61,-1.891 -3.1,0 -5.72,1 -7.92,3.031 -2.26,2.059 -3.36,4.629 -3.36,7.879 0,4.973 1.7,9.86 5.06,14.512 3.4,4.738 8.69,8.598 15.85,11.711 7.17,3.039 16.13,4.558 26.83,4.558 11.92,0 21.33,-1.519 28.22,-4.449 6.82,-2.91 11.6,-7.539 14.45,-13.972 2.84,-6.34 4.24,-14.829 4.24,-25.36 0,-6.636 0,-12.328 -0.04,-16.9373 -0.05,-4.6914 -0.08,-9.8398 -0.15,-15.5195 0,-5.3125 0.84,-10.9024 2.56,-16.6602 1.65,-5.7929 2.49,-9.5312 2.49,-11.1601 0,-2.9219 -1.33,-5.5899 -3.93,-7.9727 -2.57,-2.3906 -5.58,-3.5898 -8.87,-3.5898 -2.84,0 -5.54,1.3398 -8.31,4.082 -2.71,2.75 -5.6,6.7383 -8.66,11.9102" /><path
         id="path34"
         style="fill:#100f0d;fill-opacity:1;fill-rule:nonzero;stroke:none"
         d="M 2052.34,141.379 V 59.3906 c 0,-5.7187 -1.3,-10.0195 -3.85,-12.9297 -2.59,-2.8515 -5.85,-4.3515 -9.85,-4.3515 -3.98,0 -7.26,1.5 -9.71,4.4531 -2.53,3.0078 -3.78,7.2578 -3.78,12.8281 V 140.57 c 0,5.571 1.25,9.801 3.78,12.653 2.45,2.867 5.73,4.277 9.71,4.277 4,0 7.26,-1.41 9.85,-4.277 2.55,-2.852 3.85,-6.782 3.85,-11.844 z m -13.44,29.351 c -3.74,0 -6.97,1.211 -9.66,3.7 -2.69,2.41 -4.09,5.871 -4.09,10.32 0,3.988 1.41,7.281 4.18,9.922 2.73,2.609 5.96,3.828 9.57,3.828 3.54,0 6.69,-1.141 9.42,-3.488 2.68,-2.352 4.02,-5.821 4.02,-10.262 0,-4.41 -1.3,-7.82 -3.97,-10.238 -2.66,-2.473 -5.81,-3.782 -9.47,-3.782" /><path
         id="path36"
         style="fill:#100f0d;fill-opacity:1;fill-rule:nonzero;stroke:none"
         d="m 2105.2,141.789 v -3.391 c 4.75,6.563 9.97,11.403 15.61,14.473 5.69,3.078 12.23,4.629 19.63,4.629 7.13,0 13.57,-1.621 19.26,-4.91 5.58,-3.238 9.83,-7.82 12.59,-13.758 1.81,-3.492 2.93,-7.269 3.51,-11.281 0.49,-3.969 0.8,-9.11 0.8,-15.371 V 59.3906 c 0,-5.7187 -1.29,-10.0195 -3.76,-12.9297 -2.5,-2.8515 -5.74,-4.3515 -9.71,-4.3515 -4.04,0 -7.35,1.5 -9.77,4.4804 -2.56,2.9805 -3.86,7.2305 -3.86,12.8008 v 47.2574 c 0,9.415 -1.21,16.551 -3.69,21.493 -2.54,4.949 -7.52,7.468 -14.96,7.468 -4.83,0 -9.24,-1.527 -13.22,-4.558 -3.98,-2.981 -6.9,-7.141 -8.75,-12.422 -1.34,-4.227 -2.03,-12.09 -2.03,-23.7384 v -35.5 c 0,-5.7617 -1.25,-10.1015 -3.83,-13 -2.57,-2.8203 -5.87,-4.2812 -9.9,-4.2812 -3.89,0 -7.14,1.5 -9.65,4.4531 -2.57,3.0078 -3.8,7.2578 -3.8,12.8281 v 81.9884 c 0,5.43 1.11,9.422 3.41,12.101 2.2,2.68 5.37,4.02 9.26,4.02 2.35,0 4.54,-0.629 6.43,-1.758 1.99,-1.172 3.48,-2.992 4.65,-5.262 1.13,-2.41 1.78,-5.289 1.78,-8.691" /><path
         id="path38"
         style="fill:#100f0d;fill-opacity:1;fill-rule:nonzero;stroke:none"
         d="m 2220.24,139.84 21.97,-64.4494 23.72,67.2614 c 1.88,5.418 3.7,9.2 5.52,11.469 1.82,2.238 4.5,3.379 8.13,3.379 3.46,0 6.39,-1.211 8.87,-3.68 2.37,-2.398 3.59,-5.16 3.59,-8.441 0,-1.219 -0.23,-2.649 -0.66,-4.27 -0.39,-1.699 -0.89,-3.257 -1.49,-4.757 -0.56,-1.403 -1.15,-3.082 -1.94,-4.942 l -26.08,-67.5702 c -0.74,-1.9296 -1.7,-4.4179 -2.84,-7.4101 -1.18,-2.9688 -2.5,-5.4609 -3.88,-7.6602 -1.47,-2.0898 -3.21,-3.6875 -5.28,-4.8789 -2.13,-1.1797 -4.67,-1.7812 -7.66,-1.7812 -3.85,0 -6.91,0.9101 -9.23,2.7226 -2.29,1.8477 -3.99,3.8399 -5.07,6.0664 -1.07,2.1407 -2.96,6.4922 -5.52,12.9414 l -25.93,66.8402 c -0.59,1.633 -1.24,3.312 -1.88,4.98 -0.6,1.66 -1.08,3.32 -1.55,5.09 -0.42,1.762 -0.67,3.25 -0.67,4.441 0,1.981 0.57,3.899 1.72,5.801 1.13,1.918 2.7,3.5 4.68,4.68 2.02,1.199 4.13,1.828 6.5,1.828 4.48,0 7.59,-1.34 9.3,-4.102 1.7,-2.668 3.6,-7.199 5.68,-13.558" /><path
         id="path40"
         style="fill:#100f0d;fill-opacity:1;fill-rule:nonzero;stroke:none"
         d="m 2331.47,109.02 h 49.29 c -0.62,9.671 -3.11,16.921 -7.5,21.722 -4.36,4.789 -10.1,7.199 -17.22,7.199 -6.72,0 -12.31,-2.441 -16.64,-7.3 -4.34,-4.86 -6.95,-12.09 -7.93,-21.621 z m 53.21,-16.1489 h -53.21 c 0.01,-6.4688 1.31,-12.1406 3.7,-17.1016 2.46,-4.8789 5.66,-8.5976 9.69,-11.1211 4.01,-2.5195 8.46,-3.7187 13.31,-3.7187 3.25,0 6.25,0.3906 8.9,1.1601 2.68,0.8399 5.31,2.0821 7.86,3.75 2.48,1.711 4.79,3.4805 6.94,5.5 2.09,1.9415 4.93,4.5196 8.27,7.8711 1.4,1.3086 3.41,1.8985 5.96,1.8985 2.85,0 5.07,-0.7696 6.81,-2.4102 1.73,-1.5976 2.54,-3.8203 2.54,-6.7265 0,-2.5704 -0.94,-5.5704 -2.88,-9.043 -1.91,-3.3789 -4.76,-6.6992 -8.71,-9.8906 -3.9,-3.1172 -8.77,-5.6875 -14.65,-7.8282 -5.85,-2.0703 -12.58,-3.1015 -20.28,-3.1015 -17.44,0 -31.04,5.2422 -40.7,15.582 -9.69,10.4492 -14.51,24.5078 -14.51,42.2774 0,8.5002 1.23,16.2222 3.57,23.3712 2.39,7.199 5.85,13.332 10.45,18.449 4.59,5.16 10.2,9.121 16.93,11.82 6.74,2.75 14.14,4.121 22.34,4.121 10.55,0 19.7,-2.339 27.3,-7.039 7.62,-4.679 13.31,-10.691 17.09,-18.089 3.79,-7.461 5.68,-14.981 5.68,-22.731 0,-7.082 -1.9,-11.7108 -5.86,-13.8085 -3.95,-2.1523 -9.43,-3.1914 -16.54,-3.1914" /><path
         id="path42"
         style="fill:#100f0d;fill-opacity:1;fill-rule:nonzero;stroke:none"
         d="m 2527.56,77.2617 c 0,-3.5234 -1.01,-7.3125 -3.08,-11.3398 -2.03,-4.0117 -5.06,-7.8203 -9.25,-11.4727 -4.13,-3.6289 -9.4,-6.5586 -15.73,-8.75 -6.27,-2.2773 -13.42,-3.3594 -21.25,-3.3594 -16.86,0 -29.97,5.1211 -39.38,15.3321 -9.41,10.2187 -14.15,23.8984 -14.15,41.0976 0,11.6405 2.14,21.9725 6.49,30.8785 4.33,8.891 10.51,15.864 18.71,20.723 8.14,4.918 17.93,7.359 29.31,7.359 7.03,0 13.47,-1.109 19.39,-3.218 5.86,-2.172 10.8,-4.961 14.94,-8.313 4.09,-3.41 7.17,-7.051 9.36,-10.859 2.14,-3.84 3.21,-7.449 3.21,-10.781 0,-3.348 -1.18,-6.227 -3.68,-8.598 -2.39,-2.379 -5.32,-3.539 -8.78,-3.539 -2.25,0 -4.13,0.648 -5.59,1.859 -1.53,1.168 -3.19,3.078 -5.07,5.84 -3.32,5.25 -6.77,9.231 -10.39,11.91 -3.63,2.61 -8.23,3.961 -13.82,3.961 -7.99,0 -14.48,-3.332 -19.4,-9.871 -4.96,-6.59 -7.4,-15.539 -7.4,-26.9101 0,-5.3007 0.68,-10.2695 1.89,-14.6992 1.27,-4.5 3.11,-8.3008 5.51,-11.4726 2.39,-3.1485 5.3,-5.5274 8.68,-7.1602 3.33,-1.6601 7.07,-2.4492 11.15,-2.4492 5.43,0 10.12,1.2891 14,3.9297 3.87,2.6601 7.34,6.6914 10.32,12.0312 1.67,3.2696 3.43,5.7383 5.39,7.5703 1.9,1.8008 4.22,2.6602 7.07,2.6602 3.27,0 6.07,-1.2813 8.18,-3.9102 2.25,-2.6992 3.37,-5.4687 3.37,-8.4492" /><path
         id="path44"
         style="fill:#100f0d;fill-opacity:1;fill-rule:nonzero;stroke:none"
         d="m 2552.81,155.109 h 2.99 v 17.063 c 0,4.539 0.13,8.168 0.37,10.75 0.23,2.609 0.82,4.789 1.95,6.699 1.02,1.91 2.55,3.5 4.59,4.738 1.97,1.18 4.18,1.762 6.65,1.762 3.43,0 6.57,-1.332 9.34,-4.019 1.82,-1.821 3.03,-3.993 3.53,-6.571 0.5,-2.609 0.73,-6.351 0.73,-11.101 v -19.321 h 10 c 3.85,0 6.8,-0.968 8.82,-2.867 2.06,-1.91 3.04,-4.332 3.04,-7.312 0,-3.821 -1.43,-6.532 -4.36,-8.02 -2.87,-1.5 -7.01,-2.269 -12.38,-2.269 h -5.12 V 82.3711 c 0,-4.4609 0.17,-7.8711 0.45,-10.3008 0.35,-2.3984 1.19,-4.3398 2.45,-5.789 1.26,-1.5 3.37,-2.2696 6.32,-2.2696 1.58,0 3.73,0.2696 6.48,0.8985 2.66,0.5703 4.8,0.8711 6.35,0.8711 2.18,0 4.22,-0.9493 5.95,-2.6993 1.72,-1.8906 2.62,-4.1211 2.62,-6.8515 0,-4.5508 -2.34,-8.0508 -7.15,-10.4805 -4.84,-2.4414 -11.69,-3.6406 -20.62,-3.6406 -8.51,0 -14.97,1.5 -19.35,4.4804 -4.36,2.9805 -7.28,7.0821 -8.59,12.4102 -1.4,5.2617 -2.07,12.2891 -2.07,21.0898 v 54.5512 h -3.61 c -3.85,0 -6.85,0.968 -8.93,2.918 -2.07,1.941 -3.07,4.371 -3.07,7.371 0,2.98 1.05,5.402 3.19,7.312 2.19,1.899 5.3,2.867 9.43,2.867" /><path
         id="path46"
         style="fill:#100f0d;fill-opacity:1;fill-rule:nonzero;stroke:none"
         d="m 2698.01,99.75 c 0,11.531 -2.46,20.582 -7.32,27.02 -4.93,6.41 -11.42,9.66 -19.68,9.66 -5.34,0 -10,-1.45 -14.03,-4.321 -4.08,-2.918 -7.19,-7.16 -9.37,-12.769 -2.19,-5.559 -3.31,-12.07 -3.31,-19.59 0,-7.4297 1.12,-13.8906 3.27,-19.4102 2.15,-5.5507 5.21,-9.8007 9.23,-12.75 4,-2.9414 8.75,-4.3789 14.21,-4.3789 8.26,0 14.75,3.211 19.68,9.6797 4.86,6.461 7.32,15.4492 7.32,26.8594 z m 27.3,0 c 0,-8.4102 -1.25,-16.2109 -3.82,-23.3984 -2.5,-7.0821 -6.17,-13.2305 -10.92,-18.3828 -4.8,-5.129 -10.52,-8.9688 -17.13,-11.7774 -6.67,-2.7422 -14.09,-4.082 -22.43,-4.082 -8.28,0 -15.69,1.3398 -22.23,4.1523 -6.56,2.7696 -12.29,6.7305 -17.09,11.9102 -4.8,5.1679 -8.46,11.2304 -10.91,18.2578 -2.48,7.082 -3.7,14.8086 -3.7,23.3711 0,8.5902 1.22,16.4492 3.7,23.5582 2.58,7.18 6.15,13.243 10.86,18.332 4.76,5.051 10.45,8.95 17.14,11.68 6.78,2.75 14.16,4.129 22.23,4.129 8.26,0 15.69,-1.379 22.43,-4.168 6.7,-2.762 12.42,-6.75 17.21,-11.871 4.73,-5.121 8.44,-11.262 10.92,-18.332 2.49,-7.047 3.74,-14.848 3.74,-23.379" /><path
         id="path48"
         style="fill:#100f0d;fill-opacity:1;fill-rule:nonzero;stroke:none"
         d="M 2773.76,83.0117 V 59.3906 c 0,-5.7617 -1.31,-10.1015 -3.91,-13 -2.59,-2.8203 -5.87,-4.2812 -9.89,-4.2812 -3.87,0 -7.12,1.5 -9.63,4.3515 -2.52,2.9102 -3.76,7.211 -3.76,12.9297 v 78.9884 c 0,12.773 4.4,19.121 13.23,19.121 4.48,0 7.75,-1.508 9.78,-4.461 1.95,-2.98 3.01,-7.387 3.27,-13.199 3.23,5.812 6.61,10.219 10.04,13.199 3.42,2.953 7.96,4.461 13.64,4.461 5.76,0 11.28,-1.508 16.68,-4.461 5.35,-2.98 8.08,-6.949 8.08,-11.848 0,-3.461 -1.18,-6.371 -3.47,-8.589 -2.26,-2.231 -4.74,-3.411 -7.44,-3.411 -0.98,0 -3.4,0.668 -7.21,1.981 -3.84,1.258 -7.21,1.918 -10.15,1.918 -3.94,0 -7.19,-1.059 -9.69,-3.289 -2.54,-2.219 -4.51,-5.41 -5.9,-9.699 -1.39,-4.34 -2.4,-9.43 -2.9,-15.391 -0.51,-5.8907 -0.77,-13.0899 -0.77,-21.6993" /><path
         id="path50"
         style="fill:#100f0d;fill-opacity:1;fill-rule:nonzero;stroke:none"
         d="m 2918.61,79.1914 c 0,-7.8516 -1.82,-14.543 -5.51,-20.1211 -3.68,-5.6094 -9.06,-9.7812 -16.21,-12.6914 -7.16,-2.8086 -15.82,-4.2695 -26.1,-4.2695 -9.68,0 -18.09,1.5508 -25.09,4.6992 -6.97,3.1133 -12.13,6.9805 -15.42,11.6523 -3.36,4.6602 -5.07,9.3594 -5.07,14.0508 0,3.1172 1.1,5.7891 3.28,8.0078 2.11,2.2696 4.81,3.3203 8.02,3.3203 2.87,0 5.1,-0.7382 6.62,-2.1484 1.52,-1.5391 2.94,-3.5391 4.38,-6.1797 2.78,-5.0703 6.1,-8.8515 10.05,-11.3398 3.82,-2.5313 9.12,-3.7735 15.89,-3.7735 5.42,0 9.89,1.293 13.39,3.8204 3.46,2.5312 5.26,5.4101 5.26,8.6718 0,5.0196 -1.84,8.6797 -5.43,10.9414 -3.67,2.3399 -9.6,4.5078 -17.9,6.5664 -9.36,2.4414 -17,4.9805 -22.89,7.6329 -5.87,2.6917 -10.63,6.2307 -14.11,10.5977 -3.53,4.293 -5.31,9.703 -5.31,16.082 0,5.719 1.64,11.078 4.9,16.121 3.23,5.066 8.1,9.098 14.42,12.117 6.33,3.043 13.98,4.551 22.99,4.551 7,0 13.33,-0.781 18.97,-2.301 5.6,-1.508 10.35,-3.578 14.04,-6.109 3.75,-2.578 6.64,-5.418 8.58,-8.52 1.99,-3.148 2.96,-6.199 2.96,-9.16 0,-3.269 -1.03,-5.879 -3.16,-8.051 -2.1,-2 -5.1,-3.046 -8.89,-3.046 -2.82,0 -5.19,0.816 -7.19,2.519 -1.91,1.641 -4.19,4.117 -6.7,7.398 -2.06,2.782 -4.46,5.02 -7.28,6.68 -2.8,1.629 -6.57,2.5 -11.33,2.5 -4.93,0 -9.05,-1.09 -12.25,-3.289 -3.28,-2.172 -4.92,-4.922 -4.92,-8.172 0,-3 1.21,-5.429 3.57,-7.328 2.42,-1.922 5.62,-3.492 9.69,-4.75 4.09,-1.25 9.64,-2.801 16.75,-4.59 8.46,-2.14 15.32,-4.672 20.68,-7.679 5.35,-2.95 9.39,-6.4926 12.14,-10.5434 2.81,-4.0898 4.18,-8.707 4.18,-13.8672" /><path
         id="path52"
         style="fill:#100f0d;fill-opacity:1;fill-rule:nonzero;stroke:none"
         d="m 2949.49,42.1094 c -4.12,0 -7.68,1.3398 -10.63,4.1523 -3.04,2.7696 -4.51,6.668 -4.51,11.6094 0,4.2187 1.39,7.8711 4.22,10.9297 2.87,3.039 6.41,4.5195 10.6,4.5195 4.16,0 7.74,-1.4805 10.63,-4.5117 3,-2.9688 4.49,-6.6797 4.49,-10.9375 0,-4.9023 -1.49,-8.7617 -4.49,-11.5703 -2.89,-2.7891 -6.33,-4.1914 -10.31,-4.1914" /><path
         id="path54"
         style="fill:#100f0d;fill-opacity:1;fill-rule:nonzero;stroke:none"
         d="m 3069.75,99.75 c 0,11.531 -2.46,20.582 -7.34,27.02 -4.88,6.41 -11.41,9.66 -19.65,9.66 -5.32,0 -9.95,-1.45 -14.02,-4.321 -4.06,-2.918 -7.18,-7.16 -9.36,-12.769 -2.16,-5.559 -3.28,-12.07 -3.28,-19.59 0,-7.4297 1.05,-13.8906 3.2,-19.4102 2.22,-5.5507 5.27,-9.8007 9.3,-12.75 4.01,-2.9414 8.72,-4.3789 14.16,-4.3789 8.24,0 14.77,3.211 19.65,9.6797 4.88,6.461 7.34,15.4492 7.34,26.8594 z m 27.32,0 c 0,-8.4102 -1.25,-16.2109 -3.81,-23.3984 -2.54,-7.0821 -6.15,-13.2305 -10.95,-18.3828 -4.82,-5.129 -10.46,-8.9688 -17.12,-11.7774 -6.63,-2.7422 -14.1,-4.082 -22.43,-4.082 -8.22,0 -15.62,1.3398 -22.19,4.1523 -6.59,2.7696 -12.25,6.7305 -17.05,11.9102 -4.9,5.1679 -8.52,11.2304 -11.04,18.2578 -2.44,7.082 -3.69,14.8086 -3.69,23.3711 0,8.5902 1.25,16.4492 3.79,23.5582 2.57,7.18 6.13,13.243 10.82,18.332 4.72,5.051 10.44,8.95 17.17,11.68 6.7,2.75 14.05,4.129 22.19,4.129 8.24,0 15.71,-1.379 22.43,-4.168 6.73,-2.762 12.46,-6.75 17.25,-11.871 4.75,-5.121 8.38,-11.262 10.9,-18.332 2.48,-7.047 3.73,-14.848 3.73,-23.379" /><path
         id="path56"
         style="fill:#100f0d;fill-opacity:1;fill-rule:nonzero;stroke:none"
         d="M 3145.51,83.0117 V 59.3906 c 0,-5.7617 -1.3,-10.1015 -3.89,-13 -2.55,-2.8203 -5.88,-4.2812 -9.83,-4.2812 -3.97,0 -7.15,1.5 -9.69,4.3515 -2.56,2.9102 -3.8,7.211 -3.8,12.9297 v 78.9884 c 0,12.773 4.47,19.121 13.26,19.121 4.52,0 7.76,-1.508 9.74,-4.461 1.96,-2.98 3.12,-7.387 3.36,-13.199 3.19,5.812 6.52,10.219 9.94,13.199 3.44,2.953 8.01,4.461 13.67,4.461 5.81,0 11.35,-1.508 16.67,-4.461 5.38,-2.98 8.1,-6.949 8.1,-11.848 0,-3.461 -1.16,-6.371 -3.43,-8.589 -2.32,-2.231 -4.75,-3.411 -7.47,-3.411 -0.96,0 -3.35,0.668 -7.17,1.981 -3.84,1.258 -7.21,1.918 -10.16,1.918 -3.95,0 -7.18,-1.059 -9.78,-3.289 -2.48,-2.219 -4.44,-5.41 -5.86,-9.699 -1.36,-4.34 -2.33,-9.43 -2.85,-15.391 -0.53,-5.8907 -0.81,-13.0899 -0.81,-21.6993" /><path
         id="path58"
         style="fill:#100f0d;fill-opacity:1;fill-rule:nonzero;stroke:none"
         d="m 3224.02,100.73 c 0,-11.4878 2.43,-20.1987 7.26,-26.1206 4.77,-5.8477 11.04,-8.8281 18.63,-8.8281 4.49,0 8.82,1.3085 12.81,3.8398 4.03,2.5273 7.3,6.3398 9.83,11.4414 2.56,5.1094 3.78,11.2578 3.78,18.5273 0,11.5822 -2.46,20.5702 -7.34,27.0002 -4.86,6.5 -11.29,9.75 -19.25,9.75 -7.75,0 -13.99,-3.16 -18.66,-9.301 -4.7,-6.187 -7.06,-14.937 -7.06,-26.309 z m 78.84,35.989 V 54.25 c 0,-9.4609 -1.03,-17.5586 -2.92,-24.3086 -1.93,-6.832 -5.01,-12.4531 -9.26,-16.8711 -4.24,-4.41796 -9.84,-7.71092 -16.67,-9.85936 C 3267.13,1.10156 3258.56,0 3248.35,0 c -9.39,0 -17.77,1.33203 -25.1,4.07031 -7.39,2.80078 -13.08,6.30079 -17.05,10.66019 -3.98,4.289 -5.99,8.75 -5.99,13.3515 0,3.4805 1.1,6.2774 3.42,8.4571 2.23,2.2304 4.96,3.3203 8.14,3.3203 4,0 7.44,-1.8594 10.49,-5.5078 1.46,-1.9297 2.98,-3.8008 4.5,-5.6797 1.56,-1.9219 3.3,-3.5899 5.17,-4.9102 1.92,-1.3828 4.21,-2.3828 6.87,-3.039 2.6,-0.6641 5.7,-0.9922 9.17,-0.9922 6.98,0 12.51,1.0508 16.37,3.0703 3.88,2.039 6.62,4.8984 8.2,8.5586 1.48,3.6797 2.49,7.6015 2.65,11.7929 0.32,4.2774 0.5,10.9493 0.69,20.2774 -4.18,-6.0899 -9.09,-10.7383 -14.51,-13.918 -5.48,-3.2109 -12.03,-4.7617 -19.54,-4.7617 -9.18,0 -17.13,2.3789 -23.89,7.2695 -6.85,4.8399 -12.08,11.6211 -15.72,20.3828 -3.61,8.7071 -5.48,18.7891 -5.48,30.2267 0,8.57 1.09,16.281 3.36,23.152 2.18,6.821 5.33,12.617 9.52,17.34 4.07,4.719 8.85,8.281 14.22,10.68 5.41,2.359 11.25,3.578 17.75,3.578 7.67,0 14.34,-1.57 19.97,-4.668 5.73,-3.039 10.91,-7.941 15.77,-14.481 v 3.801 c 0,4.961 1.21,8.739 3.5,11.52 2.3,2.66 5.31,4.031 8.95,4.031 5.26,0 8.75,-1.773 10.49,-5.34 1.7,-3.582 2.59,-8.781 2.59,-15.523" /><path
         id="path60"
         style="fill:#100f0d;fill-opacity:1;fill-rule:nonzero;stroke:none"
         d="m 2124.16,413.102 h 40.33 c -2.85,-21.75 -11.76,-38.723 -26.58,-50.942 -13.72,-11.969 -30.33,-17.871 -49.73,-17.871 -26.34,0 -47.37,9.262 -63.07,27.731 -14.88,17.562 -22.3,40.25 -22.3,67.949 0,28.402 7.38,51.101 22.09,68.293 14.7,17.109 35.5,25.718 62.39,25.718 19.99,0 36.9,-5.41 50.62,-16.14 14.54,-11.61 23.44,-27.899 26.58,-48.77 h -40.33 c -3.5,18.211 -14.6,27.262 -33.53,27.262 -31.17,0 -46.79,-18.461 -46.79,-55.422 0,-17.32 4.02,-31.449 12.04,-42.461 8.02,-11.058 19.32,-16.59 33.9,-16.59 21.74,0 33.2,10.43 34.38,31.243 z m -158.8,25.449 c 0,-36.102 11.45,-66.66 34.31,-91.559 22.89,-24.902 50.9,-37.363 84.15,-37.363 33.1,0 61.13,12.461 83.98,37.363 22.92,24.899 34.3,55.457 34.3,91.559 0,36.07 -11.38,66.609 -34.3,91.508 -22.85,24.953 -50.88,37.39 -83.98,37.39 -33.25,0 -61.26,-12.437 -84.15,-37.39 -22.86,-24.899 -34.31,-55.438 -34.31,-91.508 z m -40.98,0 c 0,45.941 15.55,85.148 46.66,117.711 31.15,32.519 68.75,48.789 112.78,48.789 43.92,0 81.46,-16.27 112.64,-48.789 31.14,-32.563 46.73,-71.77 46.73,-117.711 0,-45.981 -15.59,-85.25 -46.73,-117.75 -31.18,-32.539 -68.72,-48.821 -112.64,-48.821 -44.03,0 -81.63,16.282 -112.78,48.821 -31.11,32.5 -46.66,71.769 -46.66,117.75" /><path
         id="path62"
         style="fill:#100f0d;fill-opacity:1;fill-rule:nonzero;stroke:none"
         d="m 1988.89,334.121 23.25,-19.719 170.96,219.528 -23.25,19.699 -170.96,-219.508" /><path
         id="path64"
         style="fill:#fde4da;fill-opacity:1;fill-rule:evenodd;stroke:none"
         d="m 2106.01,1609.8 c 1159.94,0 2105.99,946.04 2105.99,2106 0,1159.95 -946.05,2106 -2105.99,2106 C 946.059,5821.8 0,4875.75 0,3715.8 0,2555.84 946.059,1609.8 2106.01,1609.8" /><path
         id="path66"
         style="fill:#f68b27;fill-opacity:1;fill-rule:evenodd;stroke:none"
         d="m 2535.62,2620.19 41.11,-193.84 c 61.11,-288.14 67.05,-590.56 17.54,-892.16 -21.41,-130.42 2.28,-259.61 67.15,-366 17.03,-27.95 40.15,-51.46 67.85,-69 19.7,-12.47 28.75,-36.27 22.97,-60.47 -5.77,-24.19 -25.24,-44.079 -49.44,-50.529 h -276.01 c -20.61,0 -38.3,11.5 -45.88,29.799 -7.58,18.31 -3.77,40.37 9.88,57.2 31.9,39.31 43.85,89.77 31.97,135 -7.55,28.76 -8.47,59.48 -2.69,90 9.16,48.36 2.6,96.76 -18.73,138 -77.17,149.33 -143.67,304.68 -199.05,465.01 -72.62,210.3 -65.64,447.08 19.71,668.99 l 313.62,48" /><path
         id="path68"
         style="fill:#e57318;fill-opacity:1;fill-rule:evenodd;stroke:none"
         d="m 2535.62,2620.19 41.11,-193.84 c 29.92,-141.07 46.6,-285.56 50.04,-431.7 -53.75,129.73 -140.28,245.84 -254.24,335.5 -48.24,37.96 -113.95,45.04 -169.17,18.22 -16.85,-8.18 -31.81,-19.09 -44.48,-32.02 9.8,85.92 30.86,171.94 63.12,255.84 l 313.62,48" /><path
         id="path70"
         style="fill:#f68b27;fill-opacity:1;fill-rule:evenodd;stroke:none"
         d="m 1615.17,2566.14 82.44,-1156.12 c 30.23,-111.32 -114.77,-203.25 -210.05,-247.1 -44.85,-20.62 -103.6,-63.34 -156.84,-50.05 -22.33,5.57 -43.45,-2.77 -52.92,-20.87 -9.47,-18.11 -5.28,-42.17 10.48,-60.28 15.77,-18.09 39.79,-26.43 60.18,-20.86 l 62.52,-22.669 h 513.82 c 72.12,142.559 -19.55,158.739 -3.85,337.379 25.28,287.51 137.25,444.27 155.19,733.53 7.89,127.27 -188.57,527.51 -315.7,586 -127.12,58.51 -78.9,21.4 -145.27,-78.96" /><path
         id="path72"
         style="fill:#e57318;fill-opacity:1;fill-rule:evenodd;stroke:none"
         d="m 1615.17,2566.14 13.47,-188.86 c 90.03,-8.64 176.85,-43.08 249.3,-100.83 114.12,-90.96 179.79,-229.56 177.9,-375.49 9.52,48.89 16.75,100.92 20.3,158.14 7.89,127.27 -188.57,527.51 -315.7,586 -127.12,58.51 -78.9,21.4 -145.27,-78.96" /><path
         id="path74"
         style="fill:#b7641d;fill-opacity:1;fill-rule:evenodd;stroke:none"
         d="m 2812.04,5035.72 -111.44,18.81 c -156.2,26.35 -300.02,101.56 -410.79,214.81 -224.6,229.66 -574.38,282.26 -856.6,128.81 -45.83,-24.91 -45.92,-327.65 30.26,-362.43 260.41,-118.92 550.77,-156.01 832.71,-106.38 137.99,24.29 279.16,24.29 417.15,0 28.89,-5.09 58.38,4.82 78.32,26.32 19.94,21.49 32.09,78.09 20.39,80.06" /><path
         id="path76"
         style="fill:#9c4d1d;fill-opacity:1;fill-rule:evenodd;stroke:none"
         d="m 1401.91,5247.05 c 0.63,-90.85 19.42,-192.09 61.56,-211.33 260.41,-118.92 550.77,-156.01 832.71,-106.38 137.99,24.29 279.16,24.29 417.15,0 11.33,-1.99 22.73,-1.68 33.63,0.73 l -5.76,66.39 -282.01,16.49 93.01,32.09 h -253.5 l -353.62,48.99 -433.89,142.43 154.5,-111.14 c -101.34,7.96 -194.33,52.18 -263.78,121.73" /><path
         id="path78"
         style="fill:#1b1919;fill-opacity:1;fill-rule:evenodd;stroke:none"
         d="m 2154.97,5681.98 -19.49,23.43 c -119.13,143.14 -329.53,167.8 -478.51,56.07 l 31.68,3.01 c 28.17,2.66 56.45,-3.63 80.82,-18.01 h -43.5 c -50.65,0 -98.61,-22.78 -130.61,-62.05 -31.99,-39.27 -44.62,-90.84 -34.39,-140.45 l 25.5,33.01 c 19.22,24.87 49.66,38.4 81,36 l -13.5,-34.51 c -24.74,-63.24 -10.62,-135.09 36.23,-184.26 l 437.77,-353.92 98.99,-162.32 12.01,-1.5 243.01,3 -66.01,120 c -45.75,83.2 -61.12,179.72 -43.44,273 17.05,89.98 -18.44,181.86 -91.56,237 l 30,-9 c 44.08,-13.22 80.23,-44.98 99,-87 l -3.01,45 c -7.81,117.19 -102.07,210 -219.35,216.01 l -38.64,70.49 6,-63" /><path
         id="path80"
         style="fill:#f68b27;fill-opacity:1;fill-rule:evenodd;stroke:none"
         d="M 2372.53,4944.81 C 2506.36,4926.77 2615.67,4829 2648.49,4698 l 124.9,-203.05 94.53,192.55 52.52,196.05 129.53,-14 49,-234.56 c 50.98,-243.93 -39.74,-495.78 -234.55,-651.17 l -105.04,-7 -178.53,290.57 -87.52,-213.56 13.98,-399.1 -578.34,189.05 -16.8,21 192.55,787.71 267.81,292.32" /><path
         id="path82"
         style="fill:#e57318;fill-opacity:1;fill-rule:evenodd;stroke:none"
         d="m 2580.85,4267.39 -87.52,-213.56 10.12,-288.63 -300.71,13.96 4.5,493.5 c 95.66,-5.13 187.52,38.12 244.51,115.14 l 30.23,40.86 98.87,-161.27" /><path
         id="path84"
         style="fill:#f68b27;fill-opacity:1;fill-rule:evenodd;stroke:none"
         d="m 2158.39,4984.11 -57.19,334.75 -230.78,-257.54 16.51,-144.36 -154.75,-69 c -134.52,11.03 -253.96,-93.6 -273.55,-239.65 -11.69,-87.11 -42.37,-169.88 -89.46,-241.28 -57.67,-87.49 -112.76,-299.07 -118.77,-406.74 67.45,-191.06 168.83,-492.95 376.49,-503.55 l 745.64,1452.81 -214.14,74.56" /><path
         id="path86"
         style="fill:#e57318;fill-opacity:1;fill-rule:evenodd;stroke:none"
         d="m 1930.98,5145.26 -60.56,-61.76 11.78,-133.84 c 10.18,-3.15 21.02,-4.85 32.29,-4.85 58.12,0 105.24,45.15 105.24,100.84 0,50.32 -38.47,92.03 -88.75,99.61" /><path
         id="path88"
         style="fill:#5f2e15;fill-opacity:1;fill-rule:evenodd;stroke:none"
         d="m 2326.2,5010.05 46.86,-16.73 c 40.74,-14.55 72.59,-38.82 100.35,-76.46 l 3.05,-4.13 c -113.29,-22.34 -239.18,-576.18 -126.16,-978.24 29.96,-106.52 125.98,-129.98 146.96,7.03 47.01,-206.52 359.45,-923.73 222.05,-1387.45 -18.19,-50.32 -1253.55,-105.79 -1298.35,-11.16 -97.62,206.17 -11.96,676 -32.36,1111.82 -20.43,436.34 80.64,806.28 361.71,1096.27 113.58,117.17 258.59,214.16 408.08,261.95 57.5,18.37 110.8,17.46 167.81,-2.9" /><path
         id="path90"
         style="fill:#462515;fill-opacity:1;fill-rule:evenodd;stroke:none"
         d="m 2424.21,4867.17 c -94.1,-143.55 -169.55,-592.44 -73.91,-932.68 29.96,-106.52 125.98,-129.98 146.96,7.03 47.01,-206.52 359.45,-923.73 222.05,-1387.45 -6.25,-17.28 -156.14,-35.17 -352.03,-47.39 82.55,89.44 124.98,208.73 117.4,330.21 -7.56,121.48 -64.47,234.58 -157.48,313.06 l -96.02,81.01 c 55.22,-98.09 33.65,-221.51 -51.56,-295.07 -85.21,-73.56 -210.45,-76.87 -299.43,-7.94 l -58.08,45.01 c 103.8,5.16 199.11,58.93 257.18,145.14 58.06,86.19 72.12,194.72 37.9,292.86 l -53.62,153.77 c 16.01,-130.21 -43.87,-258.1 -154.12,-329.2 -110.26,-71.1 -251.46,-72.88 -363.47,-4.57 l -73.79,45 c 188.06,1.21 366.38,83.82 488.91,226.49 122.54,142.67 177.28,331.42 150.09,517.51 -42.56,291.33 54.22,585.75 261.34,795 z m 51.23,45.29 c -3.26,-0.74 -6.54,-1.85 -9.81,-3.45 l 7.78,7.85 2.03,-4.4 v 0" /><path
         id="path92"
         style="fill:#f68b27;fill-opacity:1;fill-rule:evenodd;stroke:none"
         d="m 1727.33,5651.41 -13.15,-78.9 c -29.71,-178.25 -33.51,-359.85 -11.27,-539.19 3.31,-26.68 25.89,-46.78 52.78,-46.96 56.98,-0.4 113.95,1.49 170.78,5.63 24.16,1.76 46.54,13.3 62,31.94 127.92,154.28 198.31,348.17 199.14,548.58 l -460.28,78.9" /><path
         id="path94"
         style="fill:#1b1919;fill-opacity:1;fill-rule:evenodd;stroke:none"
         d="m 2003.48,5475.74 c -42.58,45.08 -102.24,70.07 -164.24,68.78 -62.01,-1.28 -120.58,-28.72 -161.26,-75.53 -32.66,-37.6 -83.87,-53.3 -132,-40.51 l 11.52,4.51 c 46.68,18.26 79.86,60.32 86.74,109.99 l 54.74,135.26 305.25,-4.5 199.51,-77.25 53.98,-399.75 -99.33,-183.79 c -207.07,180.01 90.47,446.52 -154.91,462.79" /><path
         id="path96"
         style="fill:#ffffff;fill-opacity:1;fill-rule:evenodd;stroke:none"
         d="m 1752.75,5125.32 c 7.63,-44.84 40.26,-62.57 55.74,-62.57 15.47,0 78.89,17.73 93.9,62.57 h -149.64" /><path
         id="path98"
         style="fill:#1b1919;fill-opacity:1;fill-rule:evenodd;stroke:none"
         d="m 1850.6,5367.72 v 41.76 l 41.76,-0.33 c 25.44,-0.2 49.69,-8.95 68.86,-24.86 l -7.56,-20.79 c -11.74,2.75 -23.81,4.14 -35.98,4.15 l -67.08,0.07" /><path
         id="path100"
         style="fill:#1b1919;fill-opacity:1;fill-rule:evenodd;stroke:none"
         d="m 1894.79,5348.28 c -16.38,-0.74 -29.66,-18.25 -29.66,-39.1 0,-20.86 13.28,-37.16 29.66,-36.42 16.38,0.74 29.66,18.25 29.66,39.11 0,20.85 -13.28,37.15 -29.66,36.41" /><path
         id="path102"
         style="fill:#1b1919;fill-opacity:1;fill-rule:evenodd;stroke:none"
         d="m 1757.57,5363.5 v 41.76 l -29,-3.54 c -17.66,-2.16 -34.49,-12.77 -47.8,-30.15 l 5.25,-20.2 c 8.15,3.63 16.52,5.96 24.98,6.91 l 46.57,5.22" /><path
         id="path104"
         style="fill:#1b1919;fill-opacity:1;fill-rule:evenodd;stroke:none"
         d="m 1734.22,5340.66 c 11.38,0.52 20.59,-15.97 20.59,-36.82 0,-20.86 -9.21,-38.18 -20.59,-38.7 -11.37,-0.51 -20.59,15.98 -20.59,36.83 0,20.85 9.22,38.17 20.59,38.69" /><path
         id="path106"
         style="fill:#e57318;fill-opacity:1;fill-rule:evenodd;stroke:none"
         d="m 1775.37,5203.49 c -21.18,0 -24.48,14.28 -24.48,2.83 0,-11.46 22.36,-44.31 43.54,-44.31 21.17,0 33.14,32.85 33.14,44.31 0,11.45 -31.03,-2.83 -52.2,-2.83" /><path
         id="path108"
         style="fill:#f68b27;fill-opacity:1;fill-rule:evenodd;stroke:none"
         d="m 3048.92,4876.79 -6.08,8.21 -44.28,130.34 c -18.51,54.58 -70.56,90.61 -128.18,88.75 -41.31,-1.34 -82.66,1.96 -123.24,9.86 -55.22,10.73 -69.36,-33.09 -69.36,-77.25 v -48.44 h -30.06 c -13.8,0 -26.3,-8.19 -31.83,-20.85 -5.53,-12.66 -3.03,-27.39 6.35,-37.52 15.99,-17.25 34.76,-31.7 55.54,-42.73 28.71,-15.24 55.34,-34.11 79.22,-56.15 58.91,-54.33 143.15,-71.4 218.56,-44.27 l 46.75,12.91 c 16.22,4.48 28.13,15.67 33.6,31.57 5.49,15.91 3.01,32.06 -6.99,45.57" /><path
         id="path110"
         style="fill:#462515;fill-opacity:1;fill-rule:evenodd;stroke:none"
         d="m 1448.12,3973.99 c 0,-661.43 362.5,-660.43 357.5,-402.53 -268.61,-20.8 -345.18,206.74 -357.5,402.53" /><path
         id="path112"
         style="fill:#462515;fill-opacity:1;fill-rule:evenodd;stroke:none"
         d="m 1415.12,3235.99 c 0,-661.44 362.5,-660.44 357.5,-402.53 -268.61,-20.8 -345.17,206.74 -357.5,402.53" /><path
         id="path114"
         style="fill:#b7641d;fill-opacity:1;fill-rule:evenodd;stroke:none"
         d="m 2967.59,5002.49 100.92,-23.99 c 74.72,-17.77 152.57,-17.77 227.32,0 46.23,10.99 92.85,-16.68 105.35,-62.54 7.97,-29.22 7.5,-60.09 -1.35,-89.06 l -4.04,-1.35 c -33.91,-11.3 -69.78,-15.43 -105.37,-12.15 -52.95,4.88 -104.61,19.06 -152.64,41.87 -50.02,23.76 -105.93,32.23 -160.74,24.33 -22.79,-3.28 -45.55,6.4 -58.96,25.12 -13.44,18.72 -15.34,43.36 -4.93,63.92 10.41,20.56 32.68,39.02 54.44,33.85" /></g></g></svg>