<?xml version="1.0" encoding="UTF-8" standalone="no"?>
<svg
   xmlns:dc="http://purl.org/dc/elements/1.1/"
   xmlns:cc="http://creativecommons.org/ns#"
   xmlns:rdf="http://www.w3.org/1999/02/22-rdf-syntax-ns#"
   xmlns:svg="http://www.w3.org/2000/svg"
   xmlns="http://www.w3.org/2000/svg"
   viewBox="0 0 742.54669 718.74664"
   height="718.74664"
   width="742.54669"
   xml:space="preserve"
   id="svg2"
   version="1.1"><metadata
     id="metadata8"><rdf:RDF><cc:Work
         rdf:about=""><dc:format>image/svg+xml</dc:format><dc:type
           rdf:resource="http://purl.org/dc/dcmitype/StillImage" /></cc:Work></rdf:RDF></metadata><defs
     id="defs6" /><g
     transform="matrix(1.3333333,0,0,-1.3333333,0,718.74667)"
     id="g10"><g
       transform="scale(0.1)"
       id="g12"><path
         id="path14"
         style="fill:#100f0d;fill-opacity:1;fill-rule:nonzero;stroke:none"
         d="m 1589.59,100.27 c 0,7.523 -1.07,14 -3.3,19.3 -2.16,5.379 -5.2,9.532 -9.1,12.461 -3.89,2.852 -8.18,4.309 -12.92,4.309 -7.49,0 -13.83,-3.16 -18.99,-9.301 -5.15,-6.199 -7.73,-15.25 -7.73,-27.2499 0,-11.3164 2.58,-20.1094 7.66,-26.3086 5.15,-6.3086 11.51,-9.4688 19.06,-9.4688 4.51,0 8.73,1.3594 12.6,4.1485 3.79,2.7304 6.89,6.832 9.23,12.2617 2.35,5.5273 3.49,12.0976 3.49,19.8481 z m -53.31,41.371 v -3.411 c 5.11,6.54 10.4,11.442 15.91,14.481 5.53,3.102 11.81,4.672 18.8,4.672 8.35,0 16.06,-2.274 23.1,-6.781 7.03,-4.512 12.58,-11.071 16.7,-19.77 4.08,-8.68 6.09,-18.91 6.09,-30.781 0,-8.7112 -1.14,-16.8283 -3.51,-24.0393 -2.34,-7.332 -5.6,-13.5117 -9.7,-18.4492 -4.12,-4.9531 -9.03,-8.793 -14.6,-11.4219 -5.64,-2.7187 -11.69,-4.0312 -18.08,-4.0312 -7.82,0 -14.34,1.6211 -19.62,4.8906 -5.33,3.25 -10.33,8 -15.09,14.3203 V 18.7188 C 1536.28,6.21875 1531.92,0 1523.22,0 c -5.11,0 -8.52,1.60156 -10.13,4.80078 -1.68,3.23828 -2.5,7.94922 -2.5,14.10152 V 141.461 c 0,5.398 1.08,9.449 3.37,12.109 2.29,2.641 5.37,4.012 9.26,4.012 3.86,0 7,-1.371 9.42,-4.141 2.41,-2.75 3.64,-6.699 3.64,-11.8" /><path
         id="path16"
         style="fill:#100f0d;fill-opacity:1;fill-rule:nonzero;stroke:none"
         d="M 1709.42,58.1719 V 61.75 c -3.27,-4.2891 -6.69,-7.8711 -10.28,-10.7695 -3.59,-2.961 -7.51,-5.1094 -11.74,-6.5 -4.29,-1.418 -9.13,-2.1407 -14.58,-2.1407 -6.54,0 -12.44,1.4297 -17.67,4.25 -5.22,2.8321 -9.27,6.7618 -12.08,11.7422 -3.45,6.0391 -5.1,14.7071 -5.1,25.9688 V 140.57 c 0,5.641 1.23,9.922 3.7,12.711 2.46,2.809 5.69,4.219 9.73,4.219 4.14,0 7.44,-1.41 9.98,-4.277 2.53,-2.864 3.77,-7.082 3.77,-12.653 V 95.0898 c 0,-6.5273 0.52,-12.0781 1.56,-16.5078 1.11,-4.4922 3.02,-7.9922 5.8,-10.5625 2.7,-2.4882 6.45,-3.7578 11.17,-3.7578 4.63,0 8.93,1.4375 12.96,4.2696 4.08,2.8085 7.05,6.5078 8.89,11.0898 1.53,4.0312 2.28,12.8203 2.28,26.4099 v 34.539 c 0,5.571 1.26,9.789 3.81,12.653 2.5,2.867 5.75,4.277 9.83,4.277 4.06,0 7.3,-1.41 9.77,-4.219 2.42,-2.789 3.63,-7.07 3.63,-12.711 V 58.332 c 0,-5.4023 -1.12,-9.4726 -3.49,-12.1523 -2.33,-2.7305 -5.37,-4.0508 -9.1,-4.0508 -3.71,0 -6.77,1.4414 -9.21,4.1719 -2.42,2.8515 -3.63,6.7383 -3.63,11.8711" /><path
         id="path18"
         style="fill:#100f0d;fill-opacity:1;fill-rule:nonzero;stroke:none"
         d="m 1788.32,99.1406 c 0,-11.289 2.46,-19.9297 7.38,-26.0195 4.97,-6.0391 11.47,-9.1094 19.52,-9.1094 6.86,0 12.71,3.1172 17.7,9.3086 4.97,6.2188 7.45,15.0586 7.45,26.6485 0,7.5702 -1.04,13.9802 -3.11,19.3712 -2.08,5.441 -5.02,9.621 -8.76,12.543 -3.85,2.937 -8.21,4.457 -13.28,4.457 -5.22,0 -9.77,-1.52 -13.85,-4.457 -4.08,-2.922 -7.24,-7.211 -9.58,-12.801 -2.33,-5.543 -3.47,-12.16 -3.47,-19.9414 z m -1.29,84.3904 v -43.39 c 5.05,5.601 10.3,9.789 15.6,12.808 5.32,2.93 11.93,4.434 19.74,4.434 9.05,0 16.96,-2.274 23.77,-6.692 6.79,-4.55 12.11,-10.992 15.84,-19.492 3.79,-8.469 5.64,-18.547 5.64,-30.187 0,-8.6097 -1.03,-16.4925 -3.1,-23.7112 -2.11,-7.1406 -5.12,-13.3281 -9.12,-18.6602 -4.02,-5.2383 -8.86,-9.2695 -14.51,-12.25 -5.71,-2.8203 -11.97,-4.2812 -18.81,-4.2812 -4.14,0 -8.12,0.5312 -11.82,1.5508 -3.68,1.0507 -6.85,2.4101 -9.37,4.1601 -2.63,1.6016 -4.84,3.4102 -6.68,5.1719 -1.81,1.8398 -4.2,4.5078 -7.18,8.1172 V 58.332 c 0,-5.3593 -1.26,-9.3906 -3.72,-12.1523 -2.43,-2.7305 -5.6,-4.0703 -9.35,-4.0703 -3.87,0 -6.92,1.3398 -9.25,4.0703 -2.26,2.8203 -3.41,6.8125 -3.41,12.1523 v 123.969 c 0,5.711 1.11,10.07 3.36,13.012 2.22,2.957 5.29,4.417 9.3,4.417 4.17,0 7.4,-1.398 9.63,-4.23 2.29,-2.777 3.44,-6.758 3.44,-11.969" /><path
         id="path20"
         style="fill:#100f0d;fill-opacity:1;fill-rule:nonzero;stroke:none"
         d="M 1886.82,59.3906 V 182.469 c 0,5.722 1.21,9.98 3.6,12.91 2.47,2.891 5.72,4.351 9.84,4.351 4.12,0 7.43,-1.417 9.96,-4.308 2.49,-2.859 3.8,-7.211 3.8,-12.953 V 59.3906 c 0,-5.7578 -1.31,-10.1015 -3.86,-13 -2.54,-2.8203 -5.85,-4.2812 -9.9,-4.2812 -3.99,0 -7.18,1.5 -9.69,4.4804 -2.5,2.9805 -3.75,7.2305 -3.75,12.8008" /><path
         id="path22"
         style="fill:#100f0d;fill-opacity:1;fill-rule:nonzero;stroke:none"
         d="M 1969.29,141.379 V 59.3906 c 0,-5.7187 -1.33,-10.0195 -3.85,-12.9297 -2.62,-2.8515 -5.92,-4.3515 -9.87,-4.3515 -4,0 -7.25,1.5 -9.73,4.4531 -2.46,3.0078 -3.75,7.2578 -3.75,12.8281 V 140.57 c 0,5.571 1.29,9.789 3.75,12.653 2.48,2.867 5.73,4.277 9.73,4.277 3.95,0 7.25,-1.41 9.87,-4.277 2.52,-2.864 3.85,-6.782 3.85,-11.844 z m -13.45,29.351 c -3.79,0 -7,1.211 -9.75,3.7 -2.62,2.41 -4,5.871 -4,10.32 0,3.992 1.38,7.27 4.15,9.922 2.75,2.609 5.95,3.828 9.6,3.828 3.52,0 6.66,-1.141 9.37,-3.488 2.71,-2.352 4.08,-5.821 4.08,-10.262 0,-4.41 -1.34,-7.82 -4,-10.238 -2.66,-2.473 -5.77,-3.782 -9.45,-3.782" /><path
         id="path24"
         style="fill:#100f0d;fill-opacity:1;fill-rule:nonzero;stroke:none"
         d="m 2094.81,77.2617 c 0,-3.5195 -0.99,-7.3203 -3.01,-11.3398 -2.05,-4.0117 -5.13,-7.8203 -9.3,-11.4727 -4.13,-3.6289 -9.36,-6.5586 -15.67,-8.75 -6.31,-2.2773 -13.43,-3.3594 -21.31,-3.3594 -16.82,0 -29.93,5.1211 -39.37,15.3321 -9.41,10.2187 -14.14,23.8984 -14.14,41.0976 0,11.6405 2.15,21.9725 6.45,30.8825 4.31,8.887 10.61,15.86 18.74,20.707 8.15,4.934 17.95,7.371 29.27,7.371 7.07,0 13.53,-1.109 19.42,-3.218 5.87,-2.172 10.85,-4.961 14.93,-8.321 4.08,-3.398 7.2,-7.039 9.37,-10.851 2.18,-3.84 3.23,-7.449 3.23,-10.777 0,-3.352 -1.24,-6.231 -3.63,-8.602 -2.45,-2.379 -5.35,-3.539 -8.81,-3.539 -2.28,0 -4.13,0.648 -5.66,1.859 -1.45,1.168 -3.15,3.078 -5.03,5.84 -3.3,5.238 -6.79,9.231 -10.4,11.91 -3.63,2.61 -8.23,3.961 -13.76,3.961 -8.09,0 -14.56,-3.332 -19.46,-9.871 -4.93,-6.59 -7.36,-15.539 -7.36,-26.9101 0,-5.3007 0.63,-10.2695 1.91,-14.6992 1.25,-4.5 3.07,-8.3008 5.45,-11.4726 2.4,-3.1485 5.26,-5.5274 8.66,-7.1602 3.39,-1.6562 7.12,-2.4492 11.14,-2.4492 5.48,0 10.13,1.293 14.02,3.9297 3.89,2.6601 7.33,6.6914 10.31,12.0312 1.67,3.2696 3.45,5.7383 5.39,7.5703 1.94,1.8008 4.31,2.6602 7.09,2.6602 3.31,0 6.07,-1.2813 8.28,-3.9102 2.15,-2.6992 3.25,-5.4687 3.25,-8.4492" /><path
         id="path26"
         style="fill:#100f0d;fill-opacity:1;fill-rule:nonzero;stroke:none"
         d="m 2139.62,99.9688 c 0,-7.6875 1.14,-14.1993 3.42,-19.629 2.31,-5.4179 5.4,-9.4492 9.39,-12.1796 4.01,-2.7891 8.37,-4.1485 13.04,-4.1485 4.79,0 9.15,1.3281 13.1,3.8789 3.97,2.6211 7.09,6.6289 9.48,12 2.37,5.3516 3.53,12.0821 3.53,20.0782 0,7.6132 -1.16,14.0742 -3.53,19.5432 -2.39,5.437 -5.55,9.59 -9.56,12.519 -4.03,2.852 -8.41,4.309 -13.19,4.309 -4.96,0 -9.41,-1.52 -13.34,-4.457 -3.89,-2.922 -6.97,-7.203 -9.12,-12.711 -2.14,-5.52 -3.22,-11.859 -3.22,-19.2032 z m 53.46,-41.6368 v 2.7774 c -3.66,-4.3672 -7.26,-7.9102 -10.86,-10.6094 -3.49,-2.7695 -7.37,-4.8398 -11.52,-6.2695 -4.13,-1.3789 -8.67,-2.1211 -13.57,-2.1211 -6.5,0 -12.57,1.4609 -18.09,4.2812 -5.53,2.9805 -10.32,7.0313 -14.38,12.3594 -4.04,5.3516 -7.12,11.6094 -9.23,18.8516 -2.11,7.1797 -3.14,14.9804 -3.14,23.4104 0,17.687 4.17,31.59 12.47,41.5 8.32,9.918 19.22,14.871 32.75,14.871 7.84,0 14.46,-1.434 19.83,-4.293 5.37,-2.758 10.63,-7.078 15.74,-12.949 v 41.91 c 0,5.84 1.09,10.238 3.34,13.211 2.21,3 5.35,4.468 9.49,4.468 4.11,0 7.28,-1.378 9.53,-4.078 2.21,-2.73 3.36,-6.781 3.36,-12.121 V 58.332 c 0,-5.4023 -1.21,-9.4726 -3.61,-12.1523 -2.41,-2.7305 -5.46,-4.0703 -9.28,-4.0703 -3.68,0 -6.79,1.4023 -9.23,4.1914 -2.4,2.8008 -3.6,6.7812 -3.6,12.0312" /><path
         id="path28"
         style="fill:#100f0d;fill-opacity:1;fill-rule:nonzero;stroke:none"
         d="m 2320.61,99.75 c 0,11.531 -2.48,20.582 -7.34,27.02 -4.89,6.41 -11.46,9.66 -19.68,9.66 -5.35,0 -10,-1.45 -14.06,-4.321 -4.04,-2.918 -7.16,-7.16 -9.35,-12.769 -2.18,-5.559 -3.3,-12.07 -3.3,-19.59 0,-7.4297 1.12,-13.8906 3.24,-19.4102 2.15,-5.5507 5.25,-9.8007 9.29,-12.75 4,-2.9375 8.77,-4.3789 14.18,-4.3789 8.22,0 14.79,3.211 19.68,9.6797 4.86,6.461 7.34,15.4492 7.34,26.8594 z m 27.28,0 c 0,-8.4102 -1.28,-16.2109 -3.79,-23.3984 -2.52,-7.0821 -6.17,-13.2305 -10.93,-18.3789 -4.82,-5.1329 -10.52,-8.9727 -17.15,-11.793 -6.64,-2.7305 -14.17,-4.0703 -22.43,-4.0703 -8.22,0 -15.64,1.3398 -22.19,4.1523 -6.59,2.7696 -12.31,6.7305 -17.13,11.9102 -4.79,5.1679 -8.43,11.2304 -10.95,18.2578 -2.49,7.082 -3.72,14.8125 -3.72,23.3711 0,8.5902 1.27,16.4492 3.77,23.5582 2.52,7.18 6.12,13.243 10.85,18.332 4.73,5.051 10.42,8.95 17.18,11.68 6.72,2.75 14.08,4.129 22.19,4.129 8.25,0 15.72,-1.379 22.43,-4.168 6.68,-2.762 12.43,-6.75 17.2,-11.871 4.82,-5.121 8.44,-11.262 10.88,-18.328 2.55,-7.051 3.79,-14.863 3.79,-23.383" /><path
         id="path30"
         style="fill:#100f0d;fill-opacity:1;fill-rule:nonzero;stroke:none"
         d="m 2462.74,123.199 c -2.04,-4.797 -3,-13.269 -3,-25.4568 V 60.0195 c 0,-5.9297 -1.27,-10.4492 -3.9,-13.4297 -2.57,-2.9804 -6.04,-4.4804 -10.28,-4.4804 -4.08,0 -7.41,1.5 -9.95,4.4804 -2.56,2.9805 -3.81,7.5 -3.81,13.4297 v 45.2815 c 0,7.121 -0.27,12.64 -0.74,16.648 -0.47,3.903 -1.72,7.16 -3.78,9.703 -2.02,2.547 -5.3,3.809 -9.73,3.809 -8.89,0 -14.74,-3.191 -17.59,-9.609 -2.85,-6.34 -4.19,-15.5 -4.19,-27.4497 V 60.0195 c 0,-5.9179 -1.31,-10.3906 -3.84,-13.3398 -2.58,-3.0703 -5.95,-4.5703 -10.08,-4.5703 -4.15,0 -7.56,1.5 -10.17,4.5703 -2.64,2.9492 -3.89,7.4219 -3.89,13.332 v 81.2073 c 0,5.363 1.13,9.422 3.46,12.183 2.39,2.758 5.49,4.18 9.38,4.18 3.71,0 6.82,-1.293 9.29,-3.902 2.48,-2.578 3.73,-6.16 3.73,-10.75 v -2.688 c 4.7,5.899 9.76,10.238 15.12,12.981 5.37,2.769 11.42,4.16 17.94,4.16 6.82,0 12.67,-1.434 17.59,-4.293 4.94,-2.809 8.97,-7.117 12.14,-12.848 4.59,5.77 9.5,10.117 14.77,12.93 5.25,2.82 11.05,4.211 17.4,4.211 7.49,0 13.89,-1.504 19.22,-4.59 5.4,-3.051 9.41,-7.414 12.08,-13.094 2.34,-5.136 3.47,-13.199 3.47,-24.25 V 60.0195 c 0,-5.9297 -1.29,-10.4492 -3.83,-13.4297 -2.65,-2.9804 -6.03,-4.4804 -10.29,-4.4804 -4.13,0 -7.49,1.5 -10.1,4.5703 -2.66,2.9492 -3.97,7.4219 -3.97,13.3398 v 47.7735 c 0,6.098 -0.24,10.969 -0.73,14.648 -0.5,3.719 -1.85,6.75 -4.06,9.258 -2.18,2.5 -5.52,3.762 -9.93,3.762 -3.59,0 -7.01,-1.121 -10.18,-3.289 -3.27,-2.242 -5.71,-5.223 -7.55,-8.973 v 0" /><path
         id="path32"
         style="fill:#100f0d;fill-opacity:1;fill-rule:nonzero;stroke:none"
         d="m 2616.76,99.2109 c -4.01,-1.5586 -9.8,-3.1211 -17.4,-4.8515 -7.62,-1.6992 -12.88,-2.9375 -15.81,-3.75 -2.92,-0.8203 -5.72,-2.3594 -8.34,-4.6602 -2.68,-2.3867 -4.02,-5.6094 -4.02,-9.7695 0,-4.3399 1.58,-7.957 4.67,-10.9883 3.14,-3.0625 7.24,-4.5312 12.28,-4.5312 5.38,0 10.37,1.25 14.9,3.7109 4.55,2.4414 7.92,5.6484 10,9.5 2.47,4.3203 3.72,11.3711 3.72,21.3008 z m 1.77,-41.1093 c -6.59,-5.3516 -12.94,-9.3321 -19.08,-11.961 -6.12,-2.7187 -13.05,-4.0312 -20.65,-4.0312 -7.02,0 -13.09,1.4609 -18.41,4.2812 -5.32,2.8985 -9.35,6.8086 -12.22,11.7813 -2.82,4.9101 -4.28,10.1875 -4.28,15.9804 0,7.7696 2.41,14.3594 7.12,19.8477 4.67,5.4492 11.14,9.133 19.37,11.012 1.73,0.418 6.04,1.32 12.84,2.781 6.91,1.488 12.71,2.789 17.67,3.996 4.83,1.191 10.16,2.684 15.87,4.391 -0.35,7.519 -1.78,13.011 -4.32,16.59 -2.6,3.46 -7.93,5.171 -15.92,5.171 -6.94,0 -12.11,-0.968 -15.64,-2.992 -3.46,-1.976 -6.48,-5.019 -8.93,-9.097 -2.52,-3.993 -4.24,-6.661 -5.28,-7.922 -1.05,-1.321 -3.27,-1.891 -6.6,-1.891 -3.1,0 -5.72,1 -7.92,3.031 -2.26,2.063 -3.36,4.629 -3.36,7.879 0,4.973 1.69,9.864 5.06,14.512 3.4,4.73 8.69,8.602 15.85,11.711 7.17,3.039 16.13,4.558 26.82,4.558 11.93,0 21.34,-1.519 28.23,-4.449 6.82,-2.922 11.6,-7.539 14.45,-13.968 2.84,-6.34 4.24,-14.833 4.24,-25.364 0,-6.636 0,-12.34 -0.04,-16.9373 -0.06,-4.6914 -0.08,-9.8398 -0.15,-15.5195 0,-5.3125 0.84,-10.9024 2.56,-16.6602 1.65,-5.789 2.49,-9.5312 2.49,-11.1601 0,-2.9219 -1.33,-5.5899 -3.93,-7.9727 -2.57,-2.3867 -5.58,-3.5898 -8.88,-3.5898 -2.83,0 -5.53,1.3398 -8.3,4.0703 -2.71,2.7617 -5.6,6.75 -8.66,11.9219" /><path
         id="path34"
         style="fill:#100f0d;fill-opacity:1;fill-rule:nonzero;stroke:none"
         d="M 2698.26,141.379 V 59.3906 c 0,-5.7187 -1.3,-10.0195 -3.85,-12.9297 -2.59,-2.8515 -5.86,-4.3515 -9.85,-4.3515 -3.98,0 -7.26,1.5 -9.72,4.4531 -2.52,3.0078 -3.77,7.2578 -3.77,12.8281 V 140.57 c 0,5.571 1.25,9.789 3.77,12.653 2.46,2.867 5.74,4.277 9.72,4.277 3.99,0 7.26,-1.41 9.85,-4.277 2.55,-2.864 3.85,-6.782 3.85,-11.844 z m -13.44,29.351 c -3.75,0 -6.97,1.211 -9.66,3.7 -2.69,2.41 -4.09,5.871 -4.09,10.32 0,3.992 1.41,7.27 4.17,9.922 2.73,2.609 5.97,3.828 9.58,3.828 3.53,0 6.69,-1.141 9.42,-3.488 2.68,-2.352 4.02,-5.821 4.02,-10.262 0,-4.41 -1.3,-7.82 -3.97,-10.238 -2.66,-2.473 -5.81,-3.782 -9.47,-3.782" /><path
         id="path36"
         style="fill:#100f0d;fill-opacity:1;fill-rule:nonzero;stroke:none"
         d="m 2751.11,141.789 v -3.387 c 4.76,6.559 9.98,11.399 15.62,14.469 5.69,3.078 12.23,4.629 19.63,4.629 7.13,0 13.57,-1.621 19.26,-4.91 5.58,-3.238 9.83,-7.82 12.58,-13.758 1.82,-3.492 2.94,-7.269 3.52,-11.281 0.49,-3.969 0.8,-9.11 0.8,-15.371 V 59.3906 c 0,-5.7187 -1.29,-10.0195 -3.76,-12.9297 -2.5,-2.8515 -5.74,-4.3515 -9.71,-4.3515 -4.04,0 -7.35,1.5 -9.77,4.4804 -2.56,2.9805 -3.86,7.2305 -3.86,12.8008 v 47.2614 c 0,9.411 -1.21,16.547 -3.69,21.489 -2.54,4.949 -7.52,7.468 -14.96,7.468 -4.84,0 -9.25,-1.527 -13.22,-4.558 -3.98,-2.981 -6.9,-7.141 -8.76,-12.418 -1.33,-4.231 -2.03,-12.09 -2.03,-23.7424 v -35.5 c 0,-5.7578 -1.25,-10.1015 -3.82,-13 -2.57,-2.8203 -5.87,-4.2812 -9.9,-4.2812 -3.89,0 -7.14,1.5 -9.65,4.4531 -2.57,3.0078 -3.8,7.2578 -3.8,12.8281 v 81.9884 c 0,5.434 1.11,9.422 3.4,12.101 2.21,2.68 5.38,4.02 9.27,4.02 2.35,0 4.54,-0.629 6.43,-1.758 1.99,-1.172 3.48,-2.992 4.65,-5.262 1.12,-2.41 1.77,-5.289 1.77,-8.691" /><path
         id="path38"
         style="fill:#100f0d;fill-opacity:1;fill-rule:nonzero;stroke:none"
         d="m 2866.16,139.84 21.97,-64.4494 23.72,67.2614 c 1.88,5.418 3.7,9.2 5.51,11.457 1.83,2.25 4.51,3.391 8.14,3.391 3.46,0 6.38,-1.211 8.87,-3.68 2.37,-2.398 3.59,-5.16 3.59,-8.441 0,-1.219 -0.24,-2.649 -0.67,-4.27 -0.39,-1.699 -0.88,-3.257 -1.48,-4.757 -0.57,-1.403 -1.15,-3.082 -1.94,-4.942 l -26.09,-67.5702 c -0.73,-1.9296 -1.7,-4.4179 -2.83,-7.4101 -1.18,-2.9688 -2.5,-5.457 -3.89,-7.6602 -1.46,-2.0898 -3.2,-3.6875 -5.27,-4.8789 -2.13,-1.1797 -4.68,-1.7812 -7.66,-1.7812 -3.85,0 -6.91,0.9101 -9.23,2.7226 -2.29,1.8477 -3.99,3.8399 -5.07,6.0703 -1.08,2.1368 -2.96,6.4883 -5.52,12.9375 l -25.93,66.8402 c -0.59,1.633 -1.24,3.312 -1.88,4.98 -0.6,1.66 -1.09,3.32 -1.55,5.09 -0.42,1.762 -0.67,3.25 -0.67,4.441 0,1.981 0.57,3.899 1.72,5.801 1.13,1.918 2.7,3.5 4.68,4.68 2.02,1.199 4.13,1.828 6.5,1.828 4.47,0 7.59,-1.34 9.3,-4.098 1.7,-2.672 3.6,-7.211 5.68,-13.562" /><path
         id="path40"
         style="fill:#100f0d;fill-opacity:1;fill-rule:nonzero;stroke:none"
         d="m 2977.39,109.02 h 49.29 c -0.63,9.66 -3.12,16.921 -7.5,21.722 -4.37,4.789 -10.1,7.199 -17.22,7.199 -6.73,0 -12.31,-2.441 -16.64,-7.3 -4.34,-4.871 -6.95,-12.09 -7.93,-21.621 z m 53.21,-16.1606 h -53.21 c 0.01,-6.4571 1.31,-12.1289 3.69,-17.0899 2.46,-4.8789 5.67,-8.5976 9.7,-11.1172 4.01,-2.5234 8.46,-3.7226 13.31,-3.7226 3.24,0 6.25,0.3906 8.9,1.1601 2.67,0.8399 5.31,2.0821 7.86,3.75 2.48,1.711 4.78,3.4805 6.93,5.5 2.1,1.9297 4.93,4.5196 8.27,7.8711 1.41,1.3086 3.42,1.8985 5.97,1.8985 2.84,0 5.07,-0.7696 6.81,-2.418 1.73,-1.5898 2.54,-3.8086 2.54,-6.7187 0,-2.5704 -0.94,-5.5704 -2.88,-9.043 -1.91,-3.3789 -4.76,-6.6992 -8.71,-9.8906 -3.9,-3.1172 -8.77,-5.6875 -14.65,-7.8282 -5.85,-2.0703 -12.58,-3.1015 -20.29,-3.1015 -17.43,0 -31.03,5.2422 -40.69,15.582 -9.69,10.4492 -14.51,24.5078 -14.51,42.2774 0,8.5042 1.23,16.2112 3.56,23.3712 2.4,7.199 5.86,13.332 10.46,18.449 4.59,5.16 10.2,9.121 16.93,11.82 6.73,2.75 14.14,4.121 22.34,4.121 10.55,0 19.7,-2.339 27.29,-7.039 7.63,-4.679 13.32,-10.691 17.09,-18.089 3.79,-7.461 5.69,-14.981 5.69,-22.731 0,-7.078 -1.91,-11.7108 -5.86,-13.8085 -3.96,-2.1523 -9.43,-3.2031 -16.54,-3.2031" /><path
         id="path42"
         style="fill:#100f0d;fill-opacity:1;fill-rule:nonzero;stroke:none"
         d="m 3173.48,77.2617 c 0,-3.5195 -1.01,-7.3203 -3.08,-11.3398 -2.03,-4.0117 -5.06,-7.8203 -9.25,-11.4727 -4.13,-3.6289 -9.4,-6.5586 -15.73,-8.75 -6.27,-2.2773 -13.42,-3.3594 -21.25,-3.3594 -16.87,0 -29.97,5.1211 -39.38,15.3321 -9.41,10.2187 -14.16,23.8984 -14.16,41.0976 0,11.6405 2.14,21.9725 6.5,30.8825 4.33,8.887 10.51,15.86 18.71,20.707 8.13,4.934 17.93,7.371 29.31,7.371 7.03,0 13.46,-1.109 19.39,-3.218 5.86,-2.172 10.8,-4.961 14.94,-8.321 4.08,-3.398 7.17,-7.039 9.36,-10.851 2.14,-3.84 3.21,-7.449 3.21,-10.777 0,-3.352 -1.18,-6.231 -3.68,-8.602 -2.39,-2.379 -5.32,-3.539 -8.78,-3.539 -2.26,0 -4.13,0.648 -5.6,1.859 -1.52,1.168 -3.18,3.078 -5.06,5.84 -3.32,5.238 -6.77,9.231 -10.39,11.91 -3.63,2.61 -8.23,3.961 -13.82,3.961 -7.99,0 -14.49,-3.332 -19.4,-9.871 -4.96,-6.59 -7.4,-15.539 -7.4,-26.9101 0,-5.3007 0.67,-10.2695 1.88,-14.6992 1.27,-4.5 3.12,-8.3008 5.52,-11.4726 2.39,-3.1485 5.3,-5.5274 8.67,-7.1602 3.33,-1.6562 7.07,-2.4492 11.16,-2.4492 5.43,0 10.11,1.293 14,3.9297 3.87,2.6601 7.33,6.6914 10.32,12.0312 1.67,3.2696 3.43,5.7383 5.38,7.5703 1.91,1.8008 4.23,2.6602 7.07,2.6602 3.28,0 6.08,-1.2813 8.19,-3.9102 2.24,-2.6992 3.37,-5.4687 3.37,-8.4492" /><path
         id="path44"
         style="fill:#100f0d;fill-opacity:1;fill-rule:nonzero;stroke:none"
         d="m 3198.73,155.109 h 2.99 v 17.063 c 0,4.539 0.13,8.168 0.37,10.75 0.22,2.609 0.82,4.789 1.94,6.699 1.03,1.91 2.56,3.5 4.59,4.738 1.98,1.18 4.19,1.762 6.65,1.762 3.44,0 6.58,-1.332 9.35,-4.019 1.82,-1.821 3.03,-3.993 3.52,-6.571 0.51,-2.609 0.74,-6.351 0.74,-11.101 v -19.321 h 10 c 3.84,0 6.79,-0.968 8.82,-2.867 2.06,-1.91 3.04,-4.332 3.04,-7.312 0,-3.821 -1.43,-6.528 -4.36,-8.02 -2.87,-1.5 -7.01,-2.269 -12.39,-2.269 h -5.11 V 82.3711 c 0,-4.4609 0.16,-7.8711 0.45,-10.3008 0.35,-2.3984 1.19,-4.3398 2.45,-5.789 1.26,-1.5 3.37,-2.2696 6.32,-2.2696 1.58,0 3.73,0.2696 6.48,0.8985 2.66,0.5703 4.8,0.8711 6.35,0.8711 2.18,0 4.22,-0.9493 5.95,-2.6993 1.71,-1.9023 2.62,-4.1211 2.62,-6.8515 0,-4.5508 -2.34,-8.0508 -7.16,-10.4805 -4.83,-2.4375 -11.69,-3.6406 -20.61,-3.6406 -8.51,0 -14.97,1.5 -19.36,4.4804 -4.35,2.9805 -7.27,7.0821 -8.58,12.4102 -1.4,5.2617 -2.07,12.2891 -2.07,21.0898 v 54.5512 h -3.61 c -3.85,0 -6.85,0.968 -8.93,2.922 -2.07,1.937 -3.08,4.367 -3.08,7.367 0,2.98 1.06,5.402 3.2,7.312 2.18,1.899 5.3,2.867 9.43,2.867" /><path
         id="path46"
         style="fill:#100f0d;fill-opacity:1;fill-rule:nonzero;stroke:none"
         d="m 3343.93,99.75 c 0,11.531 -2.47,20.582 -7.32,27.02 -4.93,6.41 -11.42,9.66 -19.69,9.66 -5.33,0 -10,-1.45 -14.02,-4.321 -4.08,-2.918 -7.2,-7.16 -9.37,-12.769 -2.19,-5.559 -3.32,-12.07 -3.32,-19.59 0,-7.4297 1.13,-13.8906 3.28,-19.4102 2.14,-5.5507 5.21,-9.8007 9.22,-12.75 4.01,-2.9375 8.75,-4.3789 14.21,-4.3789 8.27,0 14.76,3.211 19.69,9.6797 4.85,6.461 7.32,15.4492 7.32,26.8594 z m 27.3,0 c 0,-8.4102 -1.25,-16.2109 -3.82,-23.3984 -2.5,-7.0821 -6.17,-13.2305 -10.93,-18.3789 -4.79,-5.1329 -10.51,-8.9727 -17.12,-11.793 -6.67,-2.7305 -14.1,-4.0703 -22.44,-4.0703 -8.27,0 -15.68,1.3398 -22.22,4.1523 -6.57,2.7696 -12.29,6.7305 -17.09,11.9102 -4.8,5.1679 -8.46,11.2304 -10.91,18.2578 -2.48,7.082 -3.7,14.8125 -3.7,23.3711 0,8.5902 1.22,16.4492 3.7,23.5582 2.58,7.18 6.15,13.243 10.86,18.332 4.75,5.051 10.45,8.95 17.14,11.68 6.77,2.75 14.16,4.129 22.22,4.129 8.27,0 15.7,-1.379 22.44,-4.168 6.69,-2.762 12.42,-6.75 17.21,-11.871 4.73,-5.121 8.44,-11.262 10.92,-18.328 2.49,-7.051 3.74,-14.863 3.74,-23.383" /><path
         id="path48"
         style="fill:#100f0d;fill-opacity:1;fill-rule:nonzero;stroke:none"
         d="M 3419.68,83.0117 V 59.3906 c 0,-5.7578 -1.31,-10.1015 -3.91,-13 -2.6,-2.8203 -5.87,-4.2812 -9.89,-4.2812 -3.87,0 -7.12,1.5 -9.63,4.3515 -2.52,2.9102 -3.76,7.211 -3.76,12.9297 v 78.9884 c 0,12.773 4.39,19.121 13.23,19.121 4.48,0 7.75,-1.508 9.78,-4.461 1.95,-2.976 3.01,-7.387 3.27,-13.199 3.23,5.812 6.61,10.223 10.04,13.199 3.42,2.953 7.96,4.461 13.64,4.461 5.76,0 11.28,-1.508 16.68,-4.461 5.35,-2.976 8.08,-6.949 8.08,-11.859 0,-3.45 -1.18,-6.36 -3.47,-8.578 -2.27,-2.243 -4.75,-3.411 -7.44,-3.411 -0.98,0 -3.4,0.668 -7.21,1.981 -3.85,1.258 -7.21,1.918 -10.15,1.918 -3.94,0 -7.19,-1.059 -9.69,-3.289 -2.54,-2.219 -4.51,-5.41 -5.9,-9.699 -1.4,-4.34 -2.4,-9.43 -2.9,-15.391 -0.51,-5.8907 -0.77,-13.1016 -0.77,-21.6993" /><path
         id="path50"
         style="fill:#100f0d;fill-opacity:1;fill-rule:nonzero;stroke:none"
         d="m 3564.53,79.1914 c 0,-7.8516 -1.82,-14.5391 -5.52,-20.1211 -3.67,-5.6094 -9.05,-9.7812 -16.2,-12.6914 -7.17,-2.8086 -15.82,-4.2695 -26.1,-4.2695 -9.68,0 -18.1,1.5508 -25.09,4.7031 -6.97,3.1094 -12.13,6.9766 -15.42,11.6484 -3.36,4.6602 -5.07,9.3594 -5.07,14.0508 0,3.1211 1.1,5.7891 3.27,8.0078 2.11,2.2735 4.82,3.3203 8.03,3.3203 2.87,0 5.1,-0.7382 6.61,-2.1484 1.53,-1.5391 2.95,-3.5391 4.39,-6.1797 2.78,-5.0703 6.1,-8.8515 10.05,-11.3398 3.81,-2.5313 9.12,-3.7696 15.89,-3.7696 5.42,0 9.89,1.2891 13.38,3.8204 3.47,2.5273 5.27,5.4062 5.27,8.6679 0,5.0196 -1.84,8.6797 -5.43,10.9414 -3.67,2.3399 -9.6,4.5078 -17.9,6.5703 -9.36,2.4375 -17,4.9766 -22.89,7.629 -5.87,2.6917 -10.63,6.2307 -14.11,10.6017 -3.53,4.289 -5.32,9.699 -5.32,16.078 0,5.719 1.64,11.078 4.91,16.121 3.23,5.07 8.1,9.098 14.42,12.117 6.33,3.043 13.97,4.551 22.99,4.551 7,0 13.33,-0.777 18.97,-2.301 5.6,-1.519 10.34,-3.59 14.04,-6.109 3.75,-2.578 6.64,-5.418 8.58,-8.52 1.99,-3.148 2.96,-6.199 2.96,-9.16 0,-3.269 -1.03,-5.879 -3.17,-8.051 -2.1,-2 -5.09,-3.046 -8.88,-3.046 -2.82,0 -5.19,0.82 -7.19,2.519 -1.91,1.641 -4.19,4.117 -6.7,7.398 -2.06,2.782 -4.46,5.02 -7.28,6.68 -2.8,1.629 -6.58,2.5 -11.33,2.5 -4.93,0 -9.06,-1.09 -12.25,-3.289 -3.28,-2.172 -4.92,-4.922 -4.92,-8.172 0,-3 1.21,-5.429 3.56,-7.328 2.43,-1.922 5.63,-3.492 9.7,-4.75 4.08,-1.25 9.64,-2.801 16.75,-4.59 8.46,-2.14 15.32,-4.679 20.68,-7.679 5.34,-2.95 9.39,-6.4926 12.14,-10.5395 2.8,-4.0898 4.18,-8.7109 4.18,-13.8711" /><path
         id="path52"
         style="fill:#100f0d;fill-opacity:1;fill-rule:nonzero;stroke:none"
         d="m 3595.41,42.1094 c -4.12,0 -7.69,1.3398 -10.63,4.1523 -3.04,2.7696 -4.52,6.668 -4.52,11.6094 0,4.2187 1.4,7.8711 4.23,10.9297 2.86,3.039 6.41,4.5195 10.6,4.5195 4.16,0 7.74,-1.4805 10.63,-4.5078 3,-2.9727 4.49,-6.6836 4.49,-10.9414 0,-4.8984 -1.49,-8.7695 -4.49,-11.5703 -2.89,-2.7891 -6.34,-4.1914 -10.31,-4.1914" /><path
         id="path54"
         style="fill:#100f0d;fill-opacity:1;fill-rule:nonzero;stroke:none"
         d="m 3715.66,99.75 c 0,11.531 -2.45,20.582 -7.33,27.02 -4.88,6.41 -11.42,9.66 -19.65,9.66 -5.32,0 -9.95,-1.45 -14.02,-4.321 -4.06,-2.918 -7.18,-7.16 -9.36,-12.769 -2.17,-5.559 -3.28,-12.07 -3.28,-19.59 0,-7.4297 1.05,-13.8906 3.19,-19.4102 2.23,-5.5507 5.28,-9.8007 9.31,-12.75 4.01,-2.9375 8.72,-4.3789 14.16,-4.3789 8.23,0 14.77,3.211 19.65,9.6797 4.88,6.461 7.33,15.4492 7.33,26.8594 z m 27.33,0 c 0,-8.4102 -1.25,-16.2109 -3.81,-23.3984 -2.54,-7.0821 -6.15,-13.2305 -10.95,-18.3789 -4.82,-5.1329 -10.47,-8.9727 -17.13,-11.793 -6.62,-2.7305 -14.09,-4.0703 -22.42,-4.0703 -8.22,0 -15.62,1.3398 -22.2,4.1523 -6.58,2.7696 -12.24,6.7305 -17.05,11.9102 -4.89,5.1679 -8.51,11.2304 -11.03,18.2578 -2.44,7.082 -3.69,14.8125 -3.69,23.3711 0,8.5902 1.25,16.4492 3.79,23.5582 2.56,7.18 6.13,13.243 10.82,18.332 4.71,5.051 10.44,8.95 17.16,11.68 6.7,2.75 14.06,4.129 22.2,4.129 8.23,0 15.7,-1.379 22.42,-4.168 6.74,-2.762 12.46,-6.75 17.26,-11.871 4.75,-5.121 8.38,-11.262 10.9,-18.328 2.48,-7.051 3.73,-14.863 3.73,-23.383" /><path
         id="path56"
         style="fill:#100f0d;fill-opacity:1;fill-rule:nonzero;stroke:none"
         d="M 3791.43,83.0117 V 59.3906 c 0,-5.7578 -1.3,-10.1015 -3.89,-13 -2.55,-2.8203 -5.88,-4.2812 -9.83,-4.2812 -3.97,0 -7.15,1.5 -9.69,4.3515 -2.56,2.9102 -3.8,7.211 -3.8,12.9297 v 78.9884 c 0,12.773 4.47,19.121 13.26,19.121 4.52,0 7.75,-1.508 9.74,-4.461 1.96,-2.976 3.12,-7.387 3.36,-13.199 3.19,5.812 6.52,10.223 9.94,13.199 3.44,2.953 8.01,4.461 13.67,4.461 5.81,0 11.35,-1.508 16.67,-4.461 5.38,-2.976 8.1,-6.949 8.1,-11.859 0,-3.45 -1.16,-6.36 -3.43,-8.578 -2.32,-2.243 -4.75,-3.411 -7.47,-3.411 -0.96,0 -3.35,0.668 -7.17,1.981 -3.84,1.258 -7.21,1.918 -10.16,1.918 -3.95,0 -7.19,-1.059 -9.78,-3.289 -2.48,-2.219 -4.45,-5.41 -5.86,-9.699 -1.36,-4.34 -2.34,-9.43 -2.85,-15.391 -0.53,-5.8907 -0.81,-13.1016 -0.81,-21.6993" /><path
         id="path58"
         style="fill:#100f0d;fill-opacity:1;fill-rule:nonzero;stroke:none"
         d="m 3869.94,100.73 c 0,-11.4878 2.42,-20.1987 7.26,-26.1206 4.77,-5.8477 11.04,-8.8281 18.63,-8.8281 4.49,0 8.82,1.3085 12.81,3.8398 4.03,2.5312 7.3,6.3398 9.83,11.4414 2.56,5.1094 3.78,11.2578 3.78,18.5273 0,11.5822 -2.46,20.5702 -7.34,27.0002 -4.86,6.5 -11.3,9.75 -19.26,9.75 -7.74,0 -13.98,-3.16 -18.65,-9.301 -4.71,-6.187 -7.06,-14.937 -7.06,-26.309 z m 78.84,35.993 V 54.25 c 0,-9.4609 -1.04,-17.5586 -2.92,-24.3203 -1.93,-6.8203 -5.01,-12.4375 -9.26,-16.8594 -4.25,-4.41796 -9.84,-7.71874 -16.67,-9.85936 C 3913.05,1.10156 3904.48,0 3894.27,0 c -9.39,0 -17.78,1.33203 -25.1,4.07031 -7.39,2.80078 -13.09,6.28909 -17.05,10.66019 -3.99,4.289 -6,8.75 -6,13.3515 0,3.4805 1.11,6.2774 3.43,8.461 2.23,2.2265 4.96,3.3164 8.14,3.3164 4,0 7.44,-1.8594 10.48,-5.5078 1.47,-1.9297 2.99,-3.8008 4.51,-5.6797 1.56,-1.9219 3.3,-3.5899 5.17,-4.9102 1.92,-1.3789 4.21,-2.3828 6.87,-3.039 2.59,-0.6602 5.7,-0.9922 9.17,-0.9922 6.98,0 12.51,1.039 16.36,3.0703 3.89,2.039 6.63,4.8984 8.21,8.5586 1.48,3.6797 2.49,7.6015 2.64,11.7929 0.33,4.2774 0.51,10.9493 0.7,20.2774 -4.18,-6.0899 -9.09,-10.7383 -14.51,-13.918 -5.48,-3.2109 -12.04,-4.7617 -19.55,-4.7617 -9.18,0 -17.12,2.3789 -23.88,7.2695 -6.85,4.8399 -12.08,11.6211 -15.73,20.3828 -3.6,8.7071 -5.47,18.7774 -5.47,30.2267 0,8.57 1.09,16.281 3.36,23.141 2.17,6.832 5.33,12.632 9.52,17.351 4.07,4.719 8.84,8.281 14.22,10.68 5.41,2.359 11.25,3.582 17.75,3.582 7.67,0 14.34,-1.57 19.97,-4.672 5.72,-3.039 10.91,-7.941 15.77,-14.481 v 3.79 c 0,4.972 1.2,8.75 3.5,11.531 2.29,2.66 5.31,4.031 8.94,4.031 5.27,0 8.75,-1.769 10.5,-5.34 1.7,-3.582 2.59,-8.781 2.59,-15.519" /><path
         id="path60"
         style="fill:#100f0d;fill-opacity:1;fill-rule:nonzero;stroke:none"
         d="m 2770.07,413.102 h 40.34 c -2.85,-21.75 -11.76,-38.723 -26.58,-50.942 -13.72,-11.969 -30.33,-17.871 -49.73,-17.871 -26.35,0 -47.37,9.262 -63.07,27.731 -14.88,17.562 -22.3,40.25 -22.3,67.953 0,28.398 7.37,51.097 22.09,68.289 14.7,17.109 35.5,25.718 62.38,25.718 19.99,0 36.91,-5.41 50.63,-16.14 14.54,-11.61 23.44,-27.91 26.58,-48.77 h -40.34 c -3.49,18.211 -14.6,27.262 -33.52,27.262 -31.17,0 -46.79,-18.473 -46.79,-55.422 0,-17.32 4.02,-31.449 12.04,-42.461 8.01,-11.058 19.32,-16.59 33.9,-16.59 21.74,0 33.2,10.43 34.37,31.243 z m -158.79,25.449 c 0,-36.11 11.45,-66.66 34.31,-91.559 22.89,-24.902 50.9,-37.359 84.15,-37.359 33.1,0 61.13,12.457 83.98,37.359 22.92,24.899 34.3,55.449 34.3,91.559 0,36.07 -11.38,66.609 -34.3,91.512 -22.85,24.949 -50.88,37.378 -83.98,37.378 -33.25,0 -61.26,-12.429 -84.15,-37.378 -22.86,-24.903 -34.31,-55.442 -34.31,-91.512 z m -40.98,0 c 0,45.941 15.55,85.14 46.66,117.711 31.15,32.519 68.75,48.789 112.78,48.789 43.92,0 81.46,-16.27 112.64,-48.789 31.14,-32.571 46.73,-71.77 46.73,-117.711 0,-45.981 -15.59,-85.25 -46.73,-117.75 -31.18,-32.539 -68.72,-48.821 -112.64,-48.821 -44.03,0 -81.63,16.282 -112.78,48.821 -31.11,32.5 -46.66,71.769 -46.66,117.75" /><path
         id="path62"
         style="fill:#100f0d;fill-opacity:1;fill-rule:nonzero;stroke:none"
         d="m 2634.8,334.121 23.26,-19.719 170.95,219.528 -23.24,19.703 -170.97,-219.512" /><path
         id="path64"
         style="fill:#efa658;fill-opacity:1;fill-rule:evenodd;stroke:none"
         d="m 2784.53,5213.51 c 1505.59,0 2726.1,-1220.51 2726.1,-2726.08 0,-361.83 -70.68,-707.08 -198.65,-1023 H 257.102 c -128,315.92 -198.6528,661.17 -198.6528,1023 0,1505.57 1220.5108,2726.08 2726.0808,2726.08" /><path
         id="path66"
         style="fill:#ed411e;fill-opacity:1;fill-rule:evenodd;stroke:none"
         d="m 3242.48,4758.54 c -54.32,16.94 -117.51,-30.71 -141.13,-106.43 -23.63,-75.73 1.27,-150.86 55.58,-167.8 54.33,-16.95 117.52,30.7 141.14,106.42 23.63,75.73 -1.26,150.86 -55.59,167.81 z m -915.9,0 c 54.32,16.94 117.51,-30.71 141.13,-106.43 23.63,-75.73 -1.26,-150.86 -55.58,-167.8 -54.32,-16.95 -117.52,30.7 -141.14,106.42 -23.63,75.73 1.27,150.86 55.59,167.81 v 0" /><path
         id="path68"
         style="fill:#ffffff;fill-opacity:1;fill-rule:evenodd;stroke:none"
         d="m 2469.57,4073.43 -693.45,-236.71 c -74.87,-25.56 -133.71,-84.32 -159.37,-159.17 -25.64,-74.85 -15.22,-157.34 28.24,-223.45 l 45.89,-518.93 c 20.84,-235.58 135.41,-452.91 318.01,-603.22 l 62.28,-388.24 713.36,-70.73 713.36,70.73 62.3,388.24 c 182.58,150.31 297.15,367.64 317.98,603.22 l 45.92,518.93 c 43.44,66.11 53.88,148.6 28.21,223.45 -25.64,74.85 -84.48,133.61 -159.35,159.17 l -693.46,236.71 v 238.08 h -629.92 v -238.08" /><path
         id="path70"
         style="fill:#5a4430;fill-opacity:1;fill-rule:evenodd;stroke:none"
         d="m 3073.43,3237.35 c 38.19,0 69.16,-30.97 69.16,-69.17 0,-38.21 -30.97,-69.16 -69.16,-69.16 -38.22,0 -69.18,30.95 -69.18,69.16 0,38.2 30.96,69.17 69.18,69.17 z m 0,-492.33 c 38.19,0 69.16,-30.96 69.16,-69.17 0,-38.19 -30.97,-69.16 -69.16,-69.16 -38.22,0 -69.18,30.97 -69.18,69.16 0,38.21 30.96,69.17 69.18,69.17 z m 0,-492.32 c 38.19,0 69.16,-30.97 69.16,-69.16 0,-38.2 -30.97,-69.17 -69.16,-69.17 -38.22,0 -69.18,30.97 -69.18,69.17 0,38.19 30.96,69.16 69.18,69.16 z m -577.78,0 c 38.2,0 69.16,-30.97 69.16,-69.16 0,-38.2 -30.96,-69.17 -69.16,-69.17 -38.2,0 -69.17,30.97 -69.17,69.17 0,38.19 30.97,69.16 69.17,69.16 z m 0,492.32 c 38.2,0 69.16,-30.96 69.16,-69.17 0,-38.19 -30.96,-69.16 -69.16,-69.16 -38.2,0 -69.17,30.97 -69.17,69.16 0,38.21 30.97,69.17 69.17,69.17 z m 577.78,984.66 c 38.19,0 69.16,-30.98 69.16,-69.18 0,-38.19 -30.97,-69.17 -69.16,-69.17 -38.22,0 -69.18,30.98 -69.18,69.17 0,38.2 30.96,69.18 69.18,69.18 z m -577.78,0 c 38.2,0 69.16,-30.98 69.16,-69.18 0,-38.19 -30.96,-69.17 -69.16,-69.17 -38.2,0 -69.17,30.98 -69.17,69.17 0,38.2 30.97,69.18 69.17,69.18 z m 0,-492.33 c 38.2,0 69.16,-30.97 69.16,-69.17 0,-38.21 -30.96,-69.16 -69.16,-69.16 -38.2,0 -69.17,30.95 -69.17,69.16 0,38.2 30.97,69.17 69.17,69.17 v 0" /><path
         id="path72"
         style="fill:#ffffff;fill-opacity:1;fill-rule:evenodd;stroke:none"
         d="m 3830.77,3797.27 874.37,-745.5 c 144.38,-123.12 205.23,-318.22 156.44,-501.59 -104.31,-392.09 -418.43,-693.33 -814.53,-781.17 -118.8,-26.36 -241.37,24.68 -306.34,127.58 -65,102.89 -58.42,235.49 16.44,331.45 l 372.73,566.47 -552.21,353.48 253.1,649.28" /><path
         id="path74"
         style="fill:#f15030;fill-opacity:1;fill-rule:evenodd;stroke:none"
         d="m 4019.82,2360.48 -181.8,62.75 c 1,128.15 -176.17,157.66 -235.36,25.7 l -24.92,-61.32 -21.31,34.33 c -77.36,124.5 -227.04,42.96 -154.44,-84.38 24.73,-43.39 15.33,-58.58 13.09,-108.47 -3.97,-87.95 7.88,-151.37 81.88,-199.04 91.87,-59.19 431.29,-249.04 629.86,-103.11 69.21,45.6 106.59,126.5 96.44,208.79 -13.59,110.32 -98.99,188.71 -203.44,224.75" /><path
         id="path76"
         style="fill:#ffffff;fill-opacity:1;fill-rule:evenodd;stroke:none"
         d="M 1738.3,3797.27 863.941,3051.77 C 719.547,2928.65 658.688,2733.55 707.48,2550.18 c 104.317,-392.09 418.44,-693.33 814.53,-781.17 118.81,-26.36 241.37,24.68 306.35,127.58 64.99,102.89 58.41,235.49 -16.43,331.45 l -372.76,566.47 552.23,353.48 -253.1,649.28" /><path
         id="path78"
         style="fill:#f15030;fill-opacity:1;fill-rule:evenodd;stroke:none"
         d="m 1549.24,2360.48 181.81,62.75 c -1,128.15 176.18,157.66 235.36,25.7 l 24.91,-61.32 21.33,34.33 c 77.35,124.5 227.03,42.96 154.43,-84.38 -24.73,-43.39 -15.34,-58.58 -13.09,-108.47 3.96,-87.95 -7.87,-151.37 -81.88,-199.04 -91.88,-59.19 -431.3,-249.04 -629.85,-103.11 -69.22,45.6 -106.59,126.5 -96.45,208.79 13.6,110.32 98.98,188.71 203.43,224.75" /><path
         id="path80"
         style="fill:#fcdab4;fill-opacity:1;fill-rule:evenodd;stroke:none"
         d="M 2784.53,1464.43 H 1032.37 c -0.04,2.59 -0.09,5.19 -0.09,7.82 0,187.27 129.11,344.35 303.15,387.2 1.34,162.59 133.55,294.01 296.48,294.01 118.12,0 220.11,-69.09 267.78,-169.04 46.01,54.44 111.28,92.09 185.32,102.39 -7.24,25.65 -11.12,52.72 -11.12,80.7 0,163.61 132.54,296.28 296.11,296.5 50.03,181.98 216.66,315.69 414.53,315.69 197.89,0 364.51,-133.71 414.53,-315.69 163.58,-0.22 296.12,-132.89 296.12,-296.5 0,-27.98 -3.88,-55.05 -11.12,-80.7 74.03,-10.3 139.31,-47.95 185.32,-102.39 47.66,99.95 149.64,169.04 267.77,169.04 162.94,0 295.14,-131.42 296.49,-294.01 174.05,-42.85 303.15,-199.93 303.15,-387.2 0,-2.63 -0.05,-5.23 -0.1,-7.82 H 2784.53" /><path
         id="path82"
         style="fill:#f9cd9c;fill-opacity:1;fill-rule:evenodd;stroke:none"
         d="M 2784.53,1533.2 H 1032.37 c -0.04,0.98 -0.09,1.93 -0.09,2.92 0,69.5 129.11,127.83 303.15,143.73 1.34,60.37 133.55,109.13 296.48,109.13 118.12,0 220.11,-25.64 267.78,-62.76 46.01,20.22 111.28,34.2 185.32,38.04 -7.24,9.51 -11.12,19.55 -11.12,29.94 0,60.73 132.54,109.98 296.11,110.06 50.03,67.57 216.66,117.21 414.53,117.21 197.89,0 364.51,-49.64 414.53,-117.21 163.58,-0.08 296.12,-49.33 296.12,-110.06 0,-10.39 -3.88,-20.43 -11.12,-29.94 74.03,-3.84 139.31,-17.82 185.32,-38.04 47.66,37.12 149.64,62.76 267.77,62.76 162.94,0 295.14,-48.76 296.49,-109.13 174.05,-15.9 303.15,-74.23 303.15,-143.73 0,-0.99 -0.05,-1.94 -0.1,-2.92 H 2784.53" /><path
         id="path84"
         style="fill:#ca6f1c;fill-opacity:1;fill-rule:evenodd;stroke:none"
         d="m 0,1297.71 h 5569.06 v 333.47 H 0 v -333.47" /><path
         id="path86"
         style="fill:#f15030;fill-opacity:1;fill-rule:evenodd;stroke:none"
         d="m 2363.41,5048.63 h 842.23 v -577.68 c 0,-231.62 -189.49,-421.12 -421.11,-421.12 v 0 c -231.61,0 -421.12,189.5 -421.12,421.12 v 577.68" /><path
         id="path88"
         style="fill:#ffffff;fill-opacity:1;fill-rule:evenodd;stroke:none"
         d="m 2929.86,4260.39 c -3.98,-76.54 -67.84,-137.93 -145.33,-137.93 v 0 c -77.49,0 -141.34,61.39 -145.33,137.93 h 290.66" /><path
         id="path90"
         style="fill:#ffffff;fill-opacity:1;fill-rule:evenodd;stroke:none"
         d="m 2293.54,4788.09 h 981.98 v 602.47 h -981.98 v -602.47" /><path
         id="path92"
         style="fill:#5a4430;fill-opacity:1;fill-rule:evenodd;stroke:none"
         d="m 3275.52,4788.09 -69.88,-238.86 v 238.86 z m -981.97,0 69.86,-238.86 v 238.86 h -69.86 v 0" /><path
         id="path94"
         style="fill:#5a4430;fill-opacity:1;fill-rule:evenodd;stroke:none"
         d="m 2885.59,4684.42 -4.94,71.27 116.45,-10.58 c 36.92,-2.29 71.54,-18.72 96.67,-45.87 l -31.06,-31.75 c -11.72,8.46 -25.76,13.14 -40.21,13.4 l -136.91,3.53" /><path
         id="path96"
         style="fill:#2e2d2d;fill-opacity:1;fill-rule:evenodd;stroke:none"
         d="m 2902.88,4622.71 h 128.62 v -71.03 c 0,-35.35 -28.93,-64.3 -64.3,-64.3 -35.37,0 -64.32,28.93 -64.32,64.3 v 71.03" /><path
         id="path98"
         style="fill:#5a4430;fill-opacity:1;fill-rule:evenodd;stroke:none"
         d="m 2683.49,4684.42 4.94,71.27 -116.46,-10.58 c -36.92,-2.29 -71.54,-18.72 -96.67,-45.87 l 31.05,-31.75 c 11.73,8.46 25.76,13.14 40.23,13.4 l 136.91,3.53" /><path
         id="path100"
         style="fill:#2e2d2d;fill-opacity:1;fill-rule:evenodd;stroke:none"
         d="m 2666.18,4622.71 h -128.61 v -71.03 c 0,-35.35 28.93,-64.3 64.3,-64.3 35.37,0 64.31,28.93 64.31,64.3 v 71.03" /></g></g></svg>