<?xml version="1.0" encoding="UTF-8" standalone="no"?>
<svg
   xmlns:dc="http://purl.org/dc/elements/1.1/"
   xmlns:cc="http://creativecommons.org/ns#"
   xmlns:rdf="http://www.w3.org/1999/02/22-rdf-syntax-ns#"
   xmlns:svg="http://www.w3.org/2000/svg"
   xmlns="http://www.w3.org/2000/svg"
   viewBox="0 0 569.35999 779.4267"
   height="779.4267"
   width="569.35999"
   xml:space="preserve"
   id="svg2"
   version="1.1"><metadata
     id="metadata8"><rdf:RDF><cc:Work
         rdf:about=""><dc:format>image/svg+xml</dc:format><dc:type
           rdf:resource="http://purl.org/dc/dcmitype/StillImage" /></cc:Work></rdf:RDF></metadata><defs
     id="defs6" /><g
     transform="matrix(1.3333333,0,0,-1.3333333,0,779.42667)"
     id="g10"><g
       transform="scale(0.1)"
       id="g12"><path
         id="path14"
         style="fill:#100f0d;fill-opacity:1;fill-rule:nonzero;stroke:none"
         d="m 769.68,100.262 c 0,7.519 -1.075,14 -3.309,19.308 -2.156,5.379 -5.195,9.532 -9.101,12.461 -3.891,2.84 -8.176,4.301 -12.915,4.301 -7.496,0 -13.832,-3.16 -18.988,-9.293 -5.156,-6.199 -7.734,-15.258 -7.734,-27.2577 0,-11.3204 2.578,-20.1094 7.656,-26.3125 C 730.445,67.1602 736.809,64 744.355,64 c 4.508,0 8.731,1.3711 12.594,4.1523 3.797,2.7383 6.899,6.8399 9.239,12.2696 2.347,5.5195 3.492,12.0976 3.492,19.8401 z m -53.313,41.379 v -3.422 c 5.11,6.543 10.395,11.441 15.903,14.48 5.535,3.11 11.816,4.672 18.8,4.672 8.348,0 16.059,-2.269 23.106,-6.781 7.023,-4.508 12.582,-11.059 16.691,-19.758 4.082,-8.68 6.09,-18.922 6.09,-30.781 0,-8.719 -1.137,-16.8401 -3.5,-24.051 -2.348,-7.3203 -5.602,-13.5 -9.707,-18.4414 -4.121,-4.957 -9.023,-8.7891 -14.594,-11.4297 -5.644,-2.7187 -11.695,-4.0195 -18.086,-4.0195 -7.812,0 -14.34,1.6211 -19.621,4.8828 -5.328,3.25 -10.328,8.0078 -15.082,14.3281 V 18.7188 C 716.367,6.21875 712.008,0 703.305,0 c -5.114,0 -8.524,1.58984 -10.137,4.78906 -1.68,3.24219 -2.5,7.95314 -2.5,14.10154 V 141.449 c 0,5.403 1.09,9.461 3.375,12.114 2.297,2.648 5.371,4.007 9.262,4.007 3.859,0 7,-1.359 9.414,-4.14 2.418,-2.75 3.648,-6.688 3.648,-11.789" /><path
         id="path16"
         style="fill:#100f0d;fill-opacity:1;fill-rule:nonzero;stroke:none"
         d="m 889.504,58.1602 v 3.582 c -3.274,-4.2813 -6.688,-7.8711 -10.285,-10.7734 -3.59,-2.9571 -7.504,-5.0977 -11.739,-6.5 -4.292,-1.418 -9.128,-2.1368 -14.582,-2.1368 -6.535,0 -12.433,1.4375 -17.664,4.25 -5.222,2.8282 -9.273,6.7696 -12.086,11.75 -3.441,6.0274 -5.089,14.6993 -5.089,25.9571 v 56.2739 c 0,5.648 1.222,9.929 3.687,12.718 2.465,2.801 5.699,4.219 9.738,4.219 4.137,0 7.438,-1.418 9.977,-4.289 2.527,-2.852 3.773,-7.082 3.773,-12.648 V 95.082 c 0,-6.5312 0.524,-12.082 1.559,-16.5117 1.113,-4.4883 3.016,-7.9883 5.801,-10.5586 2.699,-2.4922 6.453,-3.7617 11.168,-3.7617 4.633,0 8.933,1.4414 12.957,4.2695 4.086,2.8125 7.051,6.5196 8.89,11.1016 1.532,4.0195 2.286,12.8203 2.286,26.3989 v 34.543 c 0,5.566 1.261,9.796 3.808,12.648 2.5,2.871 5.746,4.289 9.828,4.289 4.059,0 7.309,-1.418 9.77,-4.219 2.426,-2.789 3.637,-7.07 3.637,-12.718 V 58.332 c 0,-5.4023 -1.129,-9.4804 -3.493,-12.1523 -2.336,-2.7383 -5.371,-4.0508 -9.105,-4.0508 -3.707,0 -6.766,1.4336 -9.211,4.1719 -2.414,2.8476 -3.625,6.7305 -3.625,11.8594" /><path
         id="path18"
         style="fill:#100f0d;fill-opacity:1;fill-rule:nonzero;stroke:none"
         d="m 968.402,99.1406 c 0,-11.289 2.457,-19.9297 7.383,-26.0312 C 980.758,67.082 987.258,64 995.309,64 c 6.851,0 12.701,3.1289 17.691,9.3203 4.97,6.2188 7.45,15.0586 7.45,26.6485 0,7.5702 -1.04,13.9722 -3.11,19.3632 -2.08,5.438 -5.02,9.617 -8.76,12.539 -3.84,2.942 -8.2,4.461 -13.271,4.461 -5.231,0 -9.774,-1.519 -13.856,-4.461 -4.082,-2.922 -7.238,-7.211 -9.582,-12.801 -2.328,-5.539 -3.469,-12.16 -3.469,-19.9294 z m -1.289,84.3794 v -43.391 c 5.051,5.601 10.297,9.801 15.602,12.82 5.32,2.93 11.926,4.422 19.745,4.422 9.04,0 16.95,-2.269 23.76,-6.691 6.8,-4.551 12.11,-10.989 15.85,-19.481 3.78,-8.476 5.64,-18.558 5.64,-30.199 0,-8.6094 -1.04,-16.4805 -3.11,-23.7109 -2.1,-7.1368 -5.11,-13.3282 -9.12,-18.6602 -4.02,-5.2266 -8.86,-9.2695 -14.51,-12.25 -5.71,-2.8164 -11.97,-4.2695 -18.8,-4.2695 -4.147,0 -8.123,0.5195 -11.826,1.539 -3.68,1.0508 -6.848,2.4141 -9.371,4.1602 -2.633,1.6016 -4.84,3.4219 -6.676,5.1836 -1.813,1.8281 -4.203,4.5078 -7.184,8.1094 V 58.332 c 0,-5.3632 -1.258,-9.4023 -3.718,-12.1523 -2.426,-2.7383 -5.602,-4.0703 -9.348,-4.0703 -3.875,0 -6.93,1.332 -9.25,4.0703 -2.27,2.8125 -3.41,6.8125 -3.41,12.1523 v 123.957 c 0,5.711 1.101,10.07 3.359,13.012 2.211,2.961 5.289,4.418 9.301,4.418 4.168,0 7.398,-1.387 9.629,-4.227 2.285,-2.781 3.437,-6.75 3.437,-11.972" /><path
         id="path20"
         style="fill:#100f0d;fill-opacity:1;fill-rule:nonzero;stroke:none"
         d="M 1066.9,59.3789 V 182.469 c 0,5.711 1.21,9.98 3.6,12.91 2.47,2.883 5.73,4.34 9.85,4.34 4.12,0 7.42,-1.41 9.96,-4.297 2.48,-2.863 3.8,-7.223 3.8,-12.953 V 59.3789 c 0,-5.7578 -1.32,-10.0976 -3.87,-13 -2.53,-2.8164 -5.85,-4.2695 -9.89,-4.2695 -3.99,0 -7.19,1.4922 -9.7,4.4726 -2.5,2.9883 -3.75,7.2383 -3.75,12.7969" /><path
         id="path22"
         style="fill:#100f0d;fill-opacity:1;fill-rule:nonzero;stroke:none"
         d="M 1149.38,141.371 V 59.3789 c 0,-5.7187 -1.33,-10.0195 -3.86,-12.9297 -2.61,-2.8476 -5.92,-4.3398 -9.87,-4.3398 -4,0 -7.25,1.4922 -9.72,4.4414 -2.47,3.0195 -3.76,7.2695 -3.76,12.8281 v 81.1841 c 0,5.566 1.29,9.796 3.76,12.648 2.47,2.871 5.72,4.289 9.72,4.289 3.95,0 7.26,-1.418 9.87,-4.289 2.53,-2.852 3.86,-6.781 3.86,-11.84 z m -13.46,29.348 c -3.79,0 -6.99,1.211 -9.75,3.703 -2.62,2.41 -4,5.867 -4,10.32 0,4 1.38,7.278 4.15,9.918 2.76,2.61 5.95,3.832 9.6,3.832 3.52,0 6.66,-1.14 9.37,-3.48 2.71,-2.36 4.09,-5.821 4.09,-10.27 0,-4.41 -1.34,-7.82 -4,-10.242 -2.67,-2.461 -5.78,-3.781 -9.46,-3.781" /><path
         id="path24"
         style="fill:#100f0d;fill-opacity:1;fill-rule:nonzero;stroke:none"
         d="m 1274.9,77.25 c 0,-3.5078 -1,-7.3086 -3.02,-11.3398 -2.05,-4.0079 -5.13,-7.8204 -9.3,-11.4688 -4.12,-3.6211 -9.36,-6.5508 -15.67,-8.75 -6.3,-2.2812 -13.43,-3.3594 -21.31,-3.3594 -16.82,0 -29.93,5.1289 -39.37,15.3282 -9.41,10.2304 -14.14,23.8984 -14.14,41.1093 0,11.6405 2.15,21.9605 6.45,30.8825 4.31,8.879 10.61,15.848 18.75,20.707 8.14,4.922 17.94,7.364 29.26,7.364 7.07,0 13.54,-1.102 19.42,-3.223 5.87,-2.168 10.85,-4.949 14.93,-8.309 4.09,-3.41 7.2,-7.043 9.37,-10.859 2.18,-3.84 3.23,-7.441 3.23,-10.773 0,-3.348 -1.23,-6.227 -3.63,-8.61 -2.44,-2.379 -5.34,-3.539 -8.81,-3.539 -2.28,0 -4.13,0.653 -5.66,1.86 -1.45,1.179 -3.14,3.082 -5.02,5.839 -3.3,5.25 -6.8,9.231 -10.41,11.922 -3.63,2.61 -8.23,3.949 -13.76,3.949 -8.08,0 -14.56,-3.328 -19.46,-9.871 -4.93,-6.578 -7.36,-15.539 -7.36,-26.8981 0,-5.3086 0.63,-10.2812 1.91,-14.7109 1.25,-4.4883 3.07,-8.2891 5.45,-11.4687 2.4,-3.1524 5.26,-5.5196 8.67,-7.1524 3.38,-1.6601 7.11,-2.457 11.13,-2.457 5.49,0 10.13,1.289 14.02,3.9297 3.9,2.6679 7.34,6.6875 10.31,12.0273 1.67,3.2734 3.46,5.7422 5.39,7.5703 1.95,1.8125 4.31,2.6719 7.09,2.6719 3.31,0 6.07,-1.2813 8.29,-3.9219 2.14,-2.6992 3.25,-5.4687 3.25,-8.4492" /><path
         id="path26"
         style="fill:#100f0d;fill-opacity:1;fill-rule:nonzero;stroke:none"
         d="m 1319.7,99.9688 c 0,-7.6993 1.14,-14.1993 3.43,-19.6368 2.3,-5.4218 5.4,-9.4414 9.38,-12.1797 4.01,-2.7812 8.37,-4.1523 13.04,-4.1523 4.8,0 9.16,1.332 13.1,3.8906 3.98,2.6094 7.09,6.6289 9.48,11.9883 2.37,5.3516 3.54,12.082 3.54,20.0899 0,7.6012 -1.17,14.0622 -3.54,19.5312 -2.39,5.449 -5.55,9.602 -9.56,12.531 -4.02,2.84 -8.4,4.301 -13.18,4.301 -4.97,0 -9.41,-1.519 -13.35,-4.461 -3.89,-2.922 -6.97,-7.199 -9.12,-12.699 -2.13,-5.531 -3.22,-11.871 -3.22,-19.2032 z m 53.46,-41.6368 v 2.7696 c -3.66,-4.3594 -7.26,-7.9102 -10.86,-10.6094 -3.49,-2.7695 -7.36,-4.8399 -11.51,-6.2617 -4.14,-1.3907 -8.68,-2.1211 -13.58,-2.1211 -6.5,0 -12.57,1.4531 -18.09,4.2695 -5.53,2.9805 -10.32,7.0313 -14.38,12.3711 -4.04,5.3398 -7.11,11.6094 -9.22,18.8398 -2.12,7.1797 -3.14,14.9805 -3.14,23.4102 0,17.699 4.16,31.59 12.46,41.512 8.32,9.91 19.23,14.859 32.76,14.859 7.83,0 14.45,-1.43 19.82,-4.289 5.37,-2.762 10.63,-7.082 15.74,-12.953 v 41.922 c 0,5.84 1.1,10.23 3.34,13.199 2.22,3 5.36,4.469 9.49,4.469 4.11,0 7.28,-1.367 9.53,-4.078 2.21,-2.719 3.36,-6.782 3.36,-12.121 V 58.332 c 0,-5.4023 -1.21,-9.4804 -3.61,-12.1523 -2.4,-2.7383 -5.46,-4.0703 -9.28,-4.0703 -3.68,0 -6.79,1.3906 -9.22,4.1914 -2.4,2.8008 -3.61,6.7695 -3.61,12.0312" /><path
         id="path28"
         style="fill:#100f0d;fill-opacity:1;fill-rule:nonzero;stroke:none"
         d="m 1500.69,99.7422 c 0,11.5388 -2.48,20.5778 -7.34,27.0198 -4.88,6.41 -11.46,9.66 -19.68,9.66 -5.34,0 -10,-1.442 -14.06,-4.313 -4.04,-2.918 -7.15,-7.16 -9.35,-12.777 -2.18,-5.551 -3.3,-12.07 -3.3,-19.5898 0,-7.4297 1.12,-13.8828 3.24,-19.4102 2.15,-5.5507 5.25,-9.8007 9.3,-12.75 4,-2.9297 8.76,-4.3828 14.17,-4.3828 8.22,0 14.8,3.211 19.68,9.6914 4.86,6.4492 7.34,15.4492 7.34,26.8516 z m 27.28,0 c 0,-8.4102 -1.28,-16.2109 -3.79,-23.4024 -2.52,-7.0781 -6.17,-13.2304 -10.92,-18.371 -4.82,-5.1368 -10.53,-8.9766 -17.16,-11.7891 -6.64,-2.7383 -14.17,-4.0703 -22.43,-4.0703 -8.22,0 -15.64,1.332 -22.19,4.1523 -6.58,2.7578 -12.31,6.7305 -17.12,11.8985 -4.79,5.1796 -8.43,11.2304 -10.96,18.2617 -2.48,7.0781 -3.72,14.8203 -3.72,23.3672 0,8.6019 1.28,16.4609 3.77,23.5699 2.53,7.172 6.13,13.231 10.86,18.332 4.72,5.051 10.42,8.938 17.17,11.68 6.72,2.738 14.08,4.129 22.19,4.129 8.25,0 15.72,-1.391 22.43,-4.168 6.68,-2.769 12.43,-6.762 17.21,-11.883 4.81,-5.117 8.43,-11.258 10.87,-18.328 2.55,-7.051 3.79,-14.851 3.79,-23.3788" /><path
         id="path30"
         style="fill:#100f0d;fill-opacity:1;fill-rule:nonzero;stroke:none"
         d="m 1642.83,123.191 c -2.04,-4.789 -3.01,-13.261 -3.01,-25.4605 v -37.711 c 0,-5.9375 -1.27,-10.4492 -3.89,-13.4375 -2.58,-2.9804 -6.04,-4.4726 -10.29,-4.4726 -4.08,0 -7.41,1.4922 -9.95,4.4726 -2.56,2.9883 -3.81,7.5 -3.81,13.4375 v 45.2695 c 0,7.121 -0.27,12.652 -0.74,16.652 -0.47,3.911 -1.72,7.168 -3.78,9.707 -2.02,2.551 -5.29,3.813 -9.72,3.813 -8.9,0 -14.75,-3.199 -17.6,-9.609 -2.84,-6.352 -4.19,-15.512 -4.19,-27.4497 V 60.0195 c 0,-5.9297 -1.31,-10.3906 -3.83,-13.3398 -2.59,-3.0781 -5.96,-4.5703 -10.09,-4.5703 -4.15,0 -7.56,1.4922 -10.16,4.5703 -2.65,2.9492 -3.89,7.4101 -3.89,13.332 v 81.2073 c 0,5.351 1.12,9.41 3.45,12.183 2.4,2.746 5.5,4.168 9.38,4.168 3.71,0 6.82,-1.281 9.29,-3.89 2.49,-2.59 3.73,-6.16 3.73,-10.75 v -2.7 c 4.7,5.899 9.77,10.25 15.12,12.981 5.37,2.769 11.42,4.16 17.94,4.16 6.82,0 12.68,-1.43 17.59,-4.289 4.94,-2.812 8.97,-7.121 12.14,-12.852 4.59,5.77 9.51,10.129 14.77,12.93 5.25,2.82 11.05,4.211 17.4,4.211 7.5,0 13.89,-1.492 19.23,-4.59 5.4,-3.051 9.4,-7.402 12.07,-13.09 2.34,-5.132 3.48,-13.199 3.48,-24.242 V 60.0195 c 0,-5.9375 -1.29,-10.4492 -3.84,-13.4375 -2.65,-2.9804 -6.03,-4.4726 -10.29,-4.4726 -4.13,0 -7.49,1.4922 -10.1,4.5703 -2.65,2.9492 -3.97,7.4101 -3.97,13.3398 v 47.7615 c 0,6.098 -0.24,10.981 -0.72,14.66 -0.51,3.707 -1.86,6.75 -4.07,9.258 -2.18,2.5 -5.52,3.762 -9.93,3.762 -3.58,0 -7.01,-1.129 -10.17,-3.301 -3.28,-2.238 -5.72,-5.219 -7.55,-8.969 v 0" /><path
         id="path32"
         style="fill:#100f0d;fill-opacity:1;fill-rule:nonzero;stroke:none"
         d="m 1796.85,99.2109 c -4.01,-1.5703 -9.81,-3.1289 -17.41,-4.8593 -7.61,-1.6993 -12.88,-2.9414 -15.8,-3.75 -2.93,-0.8203 -5.72,-2.3594 -8.34,-4.6602 -2.69,-2.3906 -4.03,-5.6094 -4.03,-9.7695 0,-4.3399 1.59,-7.961 4.67,-10.9922 3.15,-3.0508 7.24,-4.5274 12.29,-4.5274 5.37,0 10.36,1.25 14.89,3.7071 4.55,2.4414 7.92,5.6601 10.01,9.5 2.46,4.3203 3.72,11.3711 3.72,21.3008 z m 1.76,-41.1211 c -6.59,-5.3476 -12.94,-9.3203 -19.08,-11.9609 -6.12,-2.7187 -13.05,-4.0195 -20.65,-4.0195 -7.02,0 -13.09,1.4531 -18.41,4.2695 -5.31,2.9024 -9.34,6.8125 -12.21,11.7813 -2.83,4.9101 -4.29,10.1992 -4.29,15.9882 0,7.7618 2.42,14.3516 7.12,19.8438 4.67,5.4492 11.14,9.1288 19.37,11.0198 1.73,0.418 6.04,1.308 12.84,2.769 6.91,1.489 12.72,2.789 17.67,4 4.84,1.199 10.16,2.68 15.88,4.399 -0.36,7.519 -1.79,13.011 -4.33,16.582 -2.59,3.468 -7.93,5.179 -15.91,5.179 -6.95,0 -12.11,-0.98 -15.65,-2.992 -3.46,-1.98 -6.47,-5.027 -8.92,-9.097 -2.53,-4 -4.25,-6.661 -5.28,-7.922 -1.06,-1.321 -3.28,-1.899 -6.61,-1.899 -3.1,0 -5.72,1.008 -7.92,3.028 -2.25,2.062 -3.36,4.64 -3.36,7.882 0,4.969 1.7,9.86 5.07,14.508 3.39,4.742 8.68,8.61 15.84,11.711 7.17,3.051 16.13,4.563 26.83,4.563 11.92,0 21.33,-1.512 28.22,-4.442 6.82,-2.922 11.6,-7.551 14.45,-13.98 2.84,-6.332 4.24,-14.832 4.24,-25.36 0,-6.64 0,-12.332 -0.04,-16.941 -0.05,-4.6875 -0.08,-9.8398 -0.15,-15.5195 0,-5.3086 0.84,-10.8985 2.56,-16.6602 1.65,-5.789 2.49,-9.5312 2.49,-11.1601 0,-2.918 -1.32,-5.5899 -3.93,-7.9688 -2.57,-2.3828 -5.58,-3.582 -8.87,-3.582 -2.84,0 -5.54,1.332 -8.3,4.0703 -2.72,2.75 -5.61,6.75 -8.67,11.9101" /><path
         id="path34"
         style="fill:#100f0d;fill-opacity:1;fill-rule:nonzero;stroke:none"
         d="M 1878.34,141.371 V 59.3789 c 0,-5.7187 -1.3,-10.0195 -3.85,-12.9297 -2.59,-2.8476 -5.85,-4.3398 -9.85,-4.3398 -3.98,0 -7.26,1.4922 -9.71,4.4414 -2.53,3.0195 -3.78,7.2695 -3.78,12.8281 v 81.1841 c 0,5.566 1.25,9.796 3.78,12.648 2.45,2.871 5.73,4.289 9.71,4.289 4,0 7.26,-1.418 9.85,-4.289 2.55,-2.852 3.85,-6.781 3.85,-11.84 z m -13.44,29.348 c -3.74,0 -6.97,1.211 -9.66,3.703 -2.69,2.41 -4.09,5.867 -4.09,10.32 0,4 1.41,7.278 4.18,9.918 2.73,2.61 5.96,3.832 9.57,3.832 3.54,0 6.69,-1.14 9.42,-3.48 2.68,-2.36 4.02,-5.821 4.02,-10.27 0,-4.41 -1.3,-7.82 -3.97,-10.242 -2.66,-2.461 -5.81,-3.781 -9.47,-3.781" /><path
         id="path36"
         style="fill:#100f0d;fill-opacity:1;fill-rule:nonzero;stroke:none"
         d="m 1931.2,141.781 v -3.379 c 4.75,6.559 9.97,11.387 15.61,14.469 5.69,3.07 12.23,4.629 19.63,4.629 7.13,0 13.57,-1.621 19.26,-4.918 5.58,-3.242 9.83,-7.82 12.59,-13.762 1.81,-3.488 2.94,-7.269 3.51,-11.269 0.49,-3.981 0.8,-9.121 0.8,-15.379 V 59.3789 c 0,-5.7187 -1.29,-10.0195 -3.76,-12.9297 -2.5,-2.8476 -5.74,-4.3398 -9.7,-4.3398 -4.05,0 -7.36,1.4922 -9.78,4.4726 -2.56,2.9883 -3.86,7.2383 -3.86,12.7969 v 47.2691 c 0,9.403 -1.21,16.543 -3.69,21.481 -2.54,4.953 -7.52,7.473 -14.96,7.473 -4.83,0 -9.24,-1.532 -13.22,-4.563 -3.98,-2.976 -6.9,-7.137 -8.75,-12.418 -1.34,-4.23 -2.03,-12.09 -2.03,-23.7421 v -35.5 c 0,-5.7578 -1.25,-10.0976 -3.83,-13 -2.56,-2.8164 -5.87,-4.2695 -9.9,-4.2695 -3.89,0 -7.14,1.4922 -9.65,4.4414 -2.57,3.0195 -3.8,7.2695 -3.8,12.8281 v 81.9921 c 0,5.43 1.11,9.43 3.41,12.098 2.2,2.679 5.37,4.031 9.26,4.031 2.35,0 4.55,-0.641 6.44,-1.77 1.98,-1.16 3.47,-2.988 4.64,-5.25 1.13,-2.417 1.78,-5.3 1.78,-8.699" /><path
         id="path38"
         style="fill:#100f0d;fill-opacity:1;fill-rule:nonzero;stroke:none"
         d="m 2046.25,139.832 21.96,-64.4414 23.72,67.2504 c 1.88,5.422 3.7,9.199 5.52,11.468 1.82,2.243 4.5,3.391 8.13,3.391 3.46,0 6.39,-1.211 8.87,-3.68 2.37,-2.41 3.59,-5.172 3.59,-8.441 0,-1.219 -0.23,-2.656 -0.66,-4.277 -0.39,-1.7 -0.89,-3.262 -1.49,-4.762 -0.56,-1.391 -1.15,-3.078 -1.94,-4.938 l -26.08,-67.57 c -0.74,-1.9297 -1.7,-4.4218 -2.84,-7.4101 -1.18,-2.9727 -2.5,-5.461 -3.88,-7.6524 -1.47,-2.0898 -3.21,-3.6992 -5.28,-4.8906 -2.12,-1.1797 -4.67,-1.7695 -7.66,-1.7695 -3.85,0 -6.91,0.9023 -9.23,2.7109 -2.29,1.8594 -3.98,3.8399 -5.07,6.082 -1.07,2.129 -2.96,6.4766 -5.52,12.9297 l -25.92,66.84 c -0.6,1.629 -1.24,3.308 -1.89,4.98 -0.59,1.661 -1.08,3.321 -1.55,5.09 -0.42,1.77 -0.67,3.25 -0.67,4.438 0,1.98 0.57,3.902 1.72,5.8 1.14,1.93 2.7,3.5 4.68,4.68 2.02,1.199 4.13,1.84 6.5,1.84 4.48,0 7.59,-1.352 9.3,-4.098 1.7,-2.683 3.61,-7.211 5.69,-13.57" /><path
         id="path40"
         style="fill:#100f0d;fill-opacity:1;fill-rule:nonzero;stroke:none"
         d="m 2157.48,109.012 h 49.28 c -0.62,9.668 -3.11,16.918 -7.5,21.718 -4.36,4.79 -10.09,7.211 -17.21,7.211 -6.73,0 -12.32,-2.449 -16.64,-7.312 -4.35,-4.859 -6.96,-12.09 -7.93,-21.617 z m 53.2,-16.1526 h -53.2 c 0.01,-6.4688 1.3,-12.1406 3.69,-17.0977 2.46,-4.8711 5.66,-8.6015 9.69,-11.1094 4.01,-2.5234 8.46,-3.7304 13.31,-3.7304 3.25,0 6.25,0.3984 8.9,1.1679 2.68,0.8399 5.31,2.0821 7.86,3.75 2.48,1.711 4.79,3.4727 6.94,5.4922 2.1,1.9375 4.93,4.5274 8.27,7.8789 1.4,1.3008 3.42,1.8907 5.96,1.8907 2.85,0 5.07,-0.7696 6.81,-2.4102 1.73,-1.5898 2.54,-3.8203 2.54,-6.7305 0,-2.5703 -0.94,-5.5703 -2.88,-9.0312 -1.9,-3.3789 -4.76,-6.6992 -8.71,-9.8984 -3.9,-3.1211 -8.77,-5.6915 -14.65,-7.8321 -5.85,-2.0703 -12.58,-3.0898 -20.28,-3.0898 -17.43,0 -31.04,5.2304 -40.7,15.5703 -9.68,10.4492 -14.51,24.5117 -14.51,42.2891 0,8.4922 1.23,16.2112 3.57,23.3712 2.39,7.191 5.86,13.332 10.46,18.441 4.58,5.16 10.19,9.129 16.92,11.821 6.74,2.75 14.14,4.121 22.34,4.121 10.55,0 19.7,-2.332 27.3,-7.043 7.62,-4.68 13.31,-10.68 17.09,-18.09 3.79,-7.461 5.68,-14.981 5.68,-22.731 0,-7.078 -1.9,-11.7067 -5.86,-13.8082 -3.95,-2.1485 -9.43,-3.1914 -16.54,-3.1914" /><path
         id="path42"
         style="fill:#100f0d;fill-opacity:1;fill-rule:nonzero;stroke:none"
         d="m 2353.56,77.25 c 0,-3.5078 -1.01,-7.3086 -3.08,-11.3398 -2.03,-4.0079 -5.06,-7.8204 -9.24,-11.4688 -4.14,-3.6211 -9.41,-6.5508 -15.74,-8.75 -6.27,-2.2812 -13.42,-3.3594 -21.25,-3.3594 -16.86,0 -29.97,5.1289 -39.38,15.3282 -9.41,10.2304 -14.15,23.8984 -14.15,41.1093 0,11.6405 2.14,21.9605 6.49,30.8825 4.33,8.879 10.51,15.848 18.71,20.707 8.14,4.922 17.93,7.364 29.31,7.364 7.03,0 13.47,-1.102 19.39,-3.223 5.86,-2.168 10.8,-4.949 14.95,-8.309 4.08,-3.41 7.16,-7.043 9.35,-10.859 2.14,-3.84 3.21,-7.441 3.21,-10.773 0,-3.348 -1.18,-6.227 -3.68,-8.61 -2.39,-2.379 -5.32,-3.539 -8.78,-3.539 -2.25,0 -4.13,0.653 -5.59,1.86 -1.53,1.179 -3.19,3.082 -5.07,5.839 -3.32,5.25 -6.77,9.231 -10.39,11.922 -3.62,2.61 -8.22,3.949 -13.82,3.949 -7.99,0 -14.48,-3.328 -19.39,-9.871 -4.97,-6.578 -7.41,-15.539 -7.41,-26.8981 0,-5.3086 0.68,-10.2812 1.89,-14.7109 1.27,-4.4883 3.11,-8.2891 5.52,-11.4687 2.38,-3.1524 5.29,-5.5196 8.67,-7.1524 3.33,-1.6601 7.07,-2.457 11.15,-2.457 5.43,0 10.12,1.289 14,3.9297 3.87,2.6679 7.34,6.6875 10.33,12.0273 1.67,3.2734 3.42,5.7422 5.38,7.5703 1.9,1.8125 4.23,2.6719 7.07,2.6719 3.27,0 6.07,-1.2813 8.18,-3.9219 2.25,-2.6992 3.37,-5.4687 3.37,-8.4492" /><path
         id="path44"
         style="fill:#100f0d;fill-opacity:1;fill-rule:nonzero;stroke:none"
         d="m 2378.81,155.102 h 2.99 v 17.058 c 0,4.551 0.13,8.172 0.37,10.762 0.23,2.598 0.82,4.777 1.95,6.699 1.02,1.899 2.55,3.488 4.59,4.731 1.97,1.179 4.19,1.757 6.65,1.757 3.43,0 6.57,-1.328 9.34,-4.007 1.82,-1.832 3.03,-4 3.53,-6.582 0.51,-2.598 0.73,-6.34 0.73,-11.098 v -19.32 h 10 c 3.85,0 6.8,-0.961 8.82,-2.872 2.06,-1.91 3.05,-4.32 3.05,-7.308 0,-3.82 -1.44,-6.52 -4.37,-8.02 -2.87,-1.492 -7.01,-2.261 -12.38,-2.261 h -5.12 V 82.3594 c 0,-4.4492 0.17,-7.8672 0.45,-10.2891 0.35,-2.4101 1.19,-4.3476 2.45,-5.789 1.26,-1.5118 3.37,-2.2813 6.32,-2.2813 1.58,0 3.73,0.2695 6.48,0.8984 2.66,0.5821 4.8,0.8829 6.35,0.8829 2.18,0 4.22,-0.961 5.95,-2.711 1.72,-1.8906 2.62,-4.1211 2.62,-6.8398 0,-4.5508 -2.34,-8.0586 -7.15,-10.4883 -4.84,-2.4336 -11.69,-3.6328 -20.62,-3.6328 -8.5,0 -14.97,1.4922 -19.35,4.4726 -4.36,2.9883 -7.28,7.0782 -8.59,12.4102 -1.39,5.2578 -2.07,12.2969 -2.07,21.0898 v 54.559 h -3.61 c -3.85,0 -6.85,0.961 -8.93,2.918 -2.07,1.933 -3.07,4.363 -3.07,7.363 0,2.988 1.05,5.398 3.19,7.308 2.19,1.911 5.3,2.872 9.43,2.872" /><path
         id="path46"
         style="fill:#100f0d;fill-opacity:1;fill-rule:nonzero;stroke:none"
         d="m 2524.01,99.7422 c 0,11.5388 -2.46,20.5778 -7.32,27.0198 -4.93,6.41 -11.42,9.66 -19.68,9.66 -5.34,0 -10,-1.442 -14.03,-4.313 -4.08,-2.918 -7.19,-7.16 -9.37,-12.777 -2.19,-5.551 -3.31,-12.07 -3.31,-19.5898 0,-7.4297 1.12,-13.8828 3.27,-19.4102 2.15,-5.5507 5.21,-9.8007 9.23,-12.75 4,-2.9297 8.75,-4.3828 14.21,-4.3828 8.26,0 14.75,3.211 19.68,9.6914 4.86,6.4492 7.32,15.4492 7.32,26.8516 z m 27.3,0 c 0,-8.4102 -1.25,-16.2109 -3.81,-23.4024 -2.5,-7.0781 -6.18,-13.2304 -10.93,-18.371 -4.8,-5.1368 -10.52,-8.9766 -17.13,-11.7891 -6.67,-2.7383 -14.09,-4.0703 -22.43,-4.0703 -8.27,0 -15.69,1.332 -22.23,4.1523 -6.56,2.7578 -12.28,6.7305 -17.09,11.8985 -4.79,5.1796 -8.46,11.2304 -10.91,18.2617 -2.48,7.0781 -3.7,14.8203 -3.7,23.3672 0,8.6019 1.22,16.4609 3.7,23.5699 2.58,7.172 6.15,13.231 10.86,18.332 4.76,5.051 10.45,8.938 17.14,11.68 6.78,2.738 14.16,4.129 22.23,4.129 8.26,0 15.69,-1.391 22.43,-4.168 6.7,-2.769 12.42,-6.762 17.22,-11.883 4.72,-5.117 8.43,-11.258 10.91,-18.328 2.49,-7.051 3.74,-14.851 3.74,-23.3788" /><path
         id="path48"
         style="fill:#100f0d;fill-opacity:1;fill-rule:nonzero;stroke:none"
         d="M 2599.76,83 V 59.3789 c 0,-5.7578 -1.31,-10.0976 -3.91,-13 -2.59,-2.8164 -5.86,-4.2695 -9.89,-4.2695 -3.87,0 -7.12,1.4922 -9.63,4.3398 -2.52,2.9102 -3.76,7.211 -3.76,12.9297 v 79.0001 c 0,12.762 4.4,19.121 13.24,19.121 4.47,0 7.74,-1.52 9.77,-4.469 1.95,-2.972 3.01,-7.39 3.27,-13.199 3.23,5.809 6.61,10.227 10.04,13.199 3.42,2.949 7.96,4.469 13.64,4.469 5.77,0 11.28,-1.52 16.68,-4.469 5.36,-2.972 8.08,-6.949 8.08,-11.851 0,-3.457 -1.18,-6.367 -3.47,-8.59 -2.26,-2.231 -4.74,-3.399 -7.44,-3.399 -0.97,0 -3.4,0.661 -7.21,1.969 -3.84,1.262 -7.21,1.922 -10.15,1.922 -3.94,0 -7.19,-1.051 -9.69,-3.293 -2.54,-2.219 -4.51,-5.41 -5.9,-9.699 -1.39,-4.34 -2.4,-9.43 -2.9,-15.391 -0.51,-5.8787 -0.77,-13.0896 -0.77,-21.699" /><path
         id="path50"
         style="fill:#100f0d;fill-opacity:1;fill-rule:nonzero;stroke:none"
         d="m 2744.61,79.1914 c 0,-7.8594 -1.82,-14.5391 -5.51,-20.1328 -3.68,-5.6094 -9.06,-9.7773 -16.2,-12.6875 -7.17,-2.8086 -15.82,-4.2617 -26.11,-4.2617 -9.68,0 -18.09,1.539 -25.09,4.6914 -6.97,3.1094 -12.12,6.9883 -15.42,11.6484 -3.36,4.6602 -5.06,9.3594 -5.06,14.0625 0,3.1094 1.09,5.7891 3.27,8 2.11,2.2696 4.81,3.3203 8.02,3.3203 2.88,0 5.1,-0.7422 6.62,-2.1406 1.52,-1.5508 2.95,-3.5508 4.38,-6.1914 2.78,-5.0586 6.1,-8.8398 10.05,-11.3281 3.82,-2.5313 9.12,-3.7735 15.89,-3.7735 5.42,0 9.89,1.293 13.39,3.8204 3.46,2.5234 5.26,5.4101 5.26,8.6718 0,5.0196 -1.84,8.668 -5.43,10.9297 -3.67,2.3399 -9.6,4.5195 -17.9,6.5781 -9.35,2.4336 -17,4.9805 -22.89,7.6211 -5.87,2.6915 -10.63,6.2305 -14.11,10.6015 -3.53,4.301 -5.31,9.711 -5.31,16.078 0,5.731 1.64,11.09 4.9,16.133 3.23,5.07 8.1,9.09 14.42,12.117 6.33,3.031 13.98,4.551 22.99,4.551 7,0 13.33,-0.781 18.98,-2.309 5.59,-1.511 10.34,-3.582 14.03,-6.109 3.75,-2.582 6.64,-5.422 8.58,-8.519 1.99,-3.153 2.96,-6.204 2.96,-9.161 0,-3.273 -1.02,-5.882 -3.16,-8.043 -2.1,-2.007 -5.1,-3.058 -8.89,-3.058 -2.82,0 -5.19,0.82 -7.19,2.519 -1.91,1.641 -4.19,4.121 -6.7,7.403 -2.06,2.777 -4.46,5.019 -7.28,6.679 -2.79,1.629 -6.57,2.5 -11.33,2.5 -4.93,0 -9.05,-1.082 -12.25,-3.293 -3.28,-2.168 -4.92,-4.91 -4.92,-8.16 0,-3 1.21,-5.429 3.57,-7.34 2.42,-1.91 5.62,-3.48 9.69,-4.738 4.09,-1.25 9.64,-2.808 16.75,-4.59 8.46,-2.14 15.32,-4.679 20.69,-7.691 5.34,-2.949 9.38,-6.4806 12.13,-10.5392 2.81,-4.0899 4.18,-8.711 4.18,-13.8594" /><path
         id="path52"
         style="fill:#100f0d;fill-opacity:1;fill-rule:nonzero;stroke:none"
         d="m 2775.49,42.1094 c -4.12,0 -7.68,1.332 -10.63,4.1523 -3.04,2.7578 -4.51,6.668 -4.51,11.6094 0,4.2187 1.39,7.8594 4.23,10.9297 2.86,3.0312 6.4,4.5195 10.59,4.5195 4.16,0 7.75,-1.4883 10.64,-4.5117 2.99,-2.9688 4.48,-6.6797 4.48,-10.9375 0,-4.9023 -1.49,-8.7695 -4.48,-11.5703 -2.89,-2.8008 -6.34,-4.1914 -10.32,-4.1914" /><path
         id="path54"
         style="fill:#100f0d;fill-opacity:1;fill-rule:nonzero;stroke:none"
         d="m 2895.75,99.7422 c 0,11.5388 -2.45,20.5778 -7.34,27.0198 -4.88,6.41 -11.41,9.66 -19.65,9.66 -5.32,0 -9.95,-1.442 -14.02,-4.313 -4.06,-2.918 -7.18,-7.16 -9.35,-12.777 -2.17,-5.551 -3.29,-12.07 -3.29,-19.5898 0,-7.4297 1.05,-13.8828 3.2,-19.4102 2.22,-5.5507 5.27,-9.8007 9.3,-12.75 4.01,-2.9297 8.73,-4.3828 14.16,-4.3828 8.24,0 14.77,3.211 19.65,9.6914 4.89,6.4492 7.34,15.4492 7.34,26.8516 z m 27.32,0 c 0,-8.4102 -1.25,-16.2109 -3.81,-23.4024 -2.54,-7.0781 -6.15,-13.2304 -10.94,-18.371 -4.83,-5.1368 -10.47,-8.9766 -17.13,-11.7891 -6.62,-2.7383 -14.1,-4.0703 -22.43,-4.0703 -8.22,0 -15.62,1.332 -22.19,4.1523 -6.58,2.7578 -12.25,6.7305 -17.05,11.8985 -4.9,5.1796 -8.52,11.2304 -11.04,18.2617 -2.44,7.0781 -3.69,14.8203 -3.69,23.3672 0,8.6019 1.25,16.4609 3.79,23.5699 2.57,7.172 6.13,13.231 10.82,18.332 4.72,5.051 10.44,8.938 17.17,11.68 6.7,2.738 14.05,4.129 22.19,4.129 8.24,0 15.71,-1.391 22.43,-4.168 6.73,-2.769 12.46,-6.762 17.25,-11.883 4.75,-5.117 8.38,-11.258 10.9,-18.328 2.48,-7.051 3.73,-14.851 3.73,-23.3788" /><path
         id="path56"
         style="fill:#100f0d;fill-opacity:1;fill-rule:nonzero;stroke:none"
         d="M 2971.51,83 V 59.3789 c 0,-5.7578 -1.3,-10.0976 -3.89,-13 -2.55,-2.8164 -5.88,-4.2695 -9.83,-4.2695 -3.97,0 -7.15,1.4922 -9.69,4.3398 -2.56,2.9102 -3.8,7.211 -3.8,12.9297 v 79.0001 c 0,12.762 4.47,19.121 13.26,19.121 4.52,0 7.76,-1.52 9.74,-4.469 1.96,-2.972 3.12,-7.39 3.36,-13.199 3.19,5.809 6.52,10.227 9.94,13.199 3.44,2.949 8.01,4.469 13.67,4.469 5.81,0 11.35,-1.52 16.67,-4.469 5.38,-2.972 8.1,-6.949 8.1,-11.851 0,-3.457 -1.15,-6.367 -3.43,-8.59 -2.31,-2.231 -4.75,-3.399 -7.47,-3.399 -0.96,0 -3.35,0.661 -7.17,1.969 -3.84,1.262 -7.21,1.922 -10.15,1.922 -3.96,0 -7.19,-1.051 -9.79,-3.293 -2.48,-2.219 -4.44,-5.41 -5.86,-9.699 -1.36,-4.34 -2.33,-9.43 -2.85,-15.391 -0.53,-5.8787 -0.81,-13.0896 -0.81,-21.699" /><path
         id="path58"
         style="fill:#100f0d;fill-opacity:1;fill-rule:nonzero;stroke:none"
         d="m 3050.02,100.719 c 0,-11.4768 2.43,-20.1995 7.26,-26.1096 4.78,-5.8477 11.05,-8.8281 18.63,-8.8281 4.5,0 8.82,1.3085 12.82,3.8398 4.02,2.5312 7.29,6.3281 9.82,11.4297 2.56,5.1094 3.78,11.2617 3.78,18.539 0,11.5702 -2.46,20.5622 -7.33,26.9922 -4.87,6.5 -11.3,9.75 -19.26,9.75 -7.75,0 -13.99,-3.16 -18.66,-9.293 -4.7,-6.187 -7.06,-14.937 -7.06,-26.32 z m 78.84,36 V 54.2422 c 0,-9.4609 -1.03,-17.5508 -2.92,-24.3125 -1.93,-6.8281 -5.01,-12.4375 -9.26,-16.8672 -4.24,-4.42187 -9.84,-7.71094 -16.67,-9.86328 C 3093.13,1.08984 3084.57,0 3074.35,0 c -9.38,0 -17.77,1.32031 -25.1,4.05859 -7.39,2.80079 -13.08,6.30081 -17.05,10.66021 -3.98,4.2929 -5.99,8.75 -5.99,13.3515 0,3.4805 1.1,6.2813 3.42,8.461 2.23,2.2382 4.96,3.3203 8.14,3.3203 4,0 7.44,-1.8594 10.49,-5.5118 1.46,-1.9296 2.99,-3.8007 4.5,-5.6796 1.56,-1.918 3.3,-3.5899 5.17,-4.8985 1.92,-1.3906 4.21,-2.3906 6.87,-3.0508 2.6,-0.6523 5.7,-0.9921 9.17,-0.9921 6.98,0 12.51,1.0507 16.37,3.0703 3.88,2.0429 6.62,4.9023 8.2,8.5625 1.48,3.6875 2.49,7.5976 2.65,11.789 0.32,4.2813 0.5,10.9492 0.69,20.2813 -4.18,-6.0899 -9.09,-10.7422 -14.51,-13.9219 -5.48,-3.1992 -12.03,-4.7578 -19.54,-4.7578 -9.18,0 -17.13,2.3867 -23.89,7.2695 -6.85,4.8399 -12.08,11.6172 -15.72,20.3789 -3.61,8.711 -5.48,18.7891 -5.48,30.2304 0,8.578 1.09,16.281 3.36,23.149 2.18,6.82 5.33,12.632 9.52,17.339 4.07,4.723 8.85,8.282 14.22,10.692 5.41,2.347 11.25,3.57 17.75,3.57 7.67,0 14.34,-1.562 19.97,-4.672 5.73,-3.039 10.91,-7.937 15.77,-14.48 v 3.801 c 0,4.96 1.21,8.742 3.5,11.519 2.3,2.672 5.31,4.031 8.95,4.031 5.26,0 8.75,-1.761 10.49,-5.34 1.7,-3.582 2.59,-8.781 2.59,-15.511" /><path
         id="path60"
         style="fill:#100f0d;fill-opacity:1;fill-rule:nonzero;stroke:none"
         d="m 1950.16,413.09 h 40.33 c -2.85,-21.75 -11.75,-38.719 -26.58,-50.93 -13.71,-11.98 -30.33,-17.879 -49.73,-17.879 -26.34,0 -47.37,9.258 -63.07,27.731 -14.87,17.57 -22.3,40.25 -22.3,67.957 0,28.402 7.38,51.094 22.09,68.281 14.71,17.121 35.5,25.723 62.39,25.723 19.99,0 36.91,-5.41 50.62,-16.141 14.54,-11.602 23.44,-27.902 26.58,-48.773 h -40.33 c -3.49,18.211 -14.6,27.261 -33.52,27.261 -31.18,0 -46.8,-18.461 -46.8,-55.41 0,-17.328 4.02,-31.461 12.04,-42.469 8.02,-11.062 19.32,-16.589 33.9,-16.589 21.74,0 33.2,10.429 34.38,31.238 z m -158.8,25.449 c 0,-36.098 11.45,-66.66 34.31,-91.559 22.89,-24.89 50.9,-37.351 84.15,-37.351 33.1,0 61.13,12.461 83.98,37.351 22.92,24.899 34.3,55.461 34.3,91.559 0,36.082 -11.38,66.613 -34.3,91.52 -22.85,24.953 -50.88,37.382 -83.98,37.382 -33.25,0 -61.26,-12.429 -84.15,-37.382 -22.86,-24.907 -34.31,-55.438 -34.31,-91.52 z m -40.98,0 c 0,45.941 15.55,85.152 46.66,117.723 31.15,32.519 68.76,48.789 112.78,48.789 43.92,0 81.46,-16.27 112.65,-48.789 31.13,-32.571 46.72,-71.782 46.72,-117.723 0,-45.969 -15.59,-85.238 -46.72,-117.738 -31.19,-32.551 -68.73,-48.832 -112.65,-48.832 -44.02,0 -81.63,16.281 -112.78,48.832 -31.11,32.5 -46.66,71.769 -46.66,117.738" /><path
         id="path62"
         style="fill:#100f0d;fill-opacity:1;fill-rule:nonzero;stroke:none"
         d="m 1814.89,334.121 23.25,-19.73 170.96,219.531 -23.25,19.699 -170.96,-219.5" /><path
         id="path64"
         style="fill:#fef0d3;fill-opacity:1;fill-rule:evenodd;stroke:none"
         d="m 2074.27,1397.14 c 1142.46,0 2074.28,931.81 2074.28,2074.28 0,1142.47 -931.82,2074.27 -2074.28,2074.27 C 931.801,5545.69 0,4613.89 0,3471.42 0,2328.95 931.801,1397.14 2074.27,1397.14" /><path
         id="path66"
         style="fill:#361623;fill-opacity:1;fill-rule:evenodd;stroke:none"
         d="m 2157.94,1933.96 c -44.57,91.16 -6.92,201.19 84.14,245.94 117.74,57.85 258.51,40.9 359.13,-43.27 l 56.89,-52.33 c 41.4,-38.08 58.68,-95.76 45.02,-150.34 -64.59,-258.27 -124.5,-522.77 -91.25,-786.92 11.04,-87.58 111.82,-166.13 193.18,-200.298 64.76,-27.203 118.29,-75.711 151.69,-137.5 5.51,-10.14 5.75,-22.332 0.63,-32.691 -5.12,-10.379 -14.9,-17.629 -26.32,-19.43 -87.33,-14.031 -176.4,-13.219 -263.48,2.371 -52.64,9.387 -103.71,26.149 -151.7,49.75 -53.78,26.449 -113.14,39.469 -173.02,37.93 -44.46,-1.133 -81.5,33.797 -82.97,78.219 -6.96,208.659 68.36,342.809 34.36,496.589 -39.42,178.38 -56.04,347.88 -136.3,511.98" /><path
         id="path68"
         style="fill:#cfafc2;fill-opacity:1;fill-rule:evenodd;stroke:none"
         d="m 2753.5,2948.75 3.04,-296.96 c 1.88,-184.71 -19.13,-368.94 -62.55,-548.48 -14.21,-58.74 -51.82,-109.11 -104.11,-139.46 -52.27,-30.32 -114.67,-37.95 -172.73,-21.13 -202.49,58.68 -333.93,253.92 -312.12,463.61 l 648.47,542.42" /><path
         id="path70"
         style="fill:#b898aa;fill-opacity:1;fill-rule:evenodd;stroke:none"
         d="m 2756.66,2629.67 c 0.01,-101.58 -6.88,-202.97 -20.61,-303.46 -92.86,37.35 -197.53,39.47 -293.45,3.59 -113.28,-42.38 -200.98,-132.75 -240.56,-245.5 -72.01,87.55 -109.44,202.44 -97.01,322.03 l 244.12,204.18 407.51,19.16" /><path
         id="path72"
         style="fill:#361623;fill-opacity:1;fill-rule:evenodd;stroke:none"
         d="m 1897.19,1933.96 c 44.58,91.16 6.93,201.19 -84.14,245.94 -117.73,57.85 -258.48,40.9 -359.11,-43.27 l -56.89,-52.33 c -41.41,-38.08 -58.69,-95.76 -45.04,-150.34 64.6,-258.27 124.52,-522.77 91.26,-786.92 -11.02,-87.58 -111.81,-166.13 -193.19,-200.298 -64.76,-27.203 -118.28,-75.711 -151.69,-137.5 -5.5,-10.14 -5.72,-22.332 -0.62,-32.691 5.1,-10.379 14.92,-17.629 26.32,-19.43 87.34,-14.031 176.4,-13.219 263.48,2.371 52.64,9.387 103.7,26.149 151.7,49.75 53.76,26.449 113.14,39.469 173.03,37.93 44.44,-1.133 81.48,33.797 82.96,78.219 6.95,208.659 -68.36,342.809 -34.37,496.589 39.43,178.38 56.05,347.88 136.3,511.98" /><path
         id="path74"
         style="fill:#cfafc2;fill-opacity:1;fill-rule:evenodd;stroke:none"
         d="m 1301.64,2948.75 -3.04,-296.96 c -1.88,-184.71 19.13,-368.94 62.55,-548.48 14.22,-58.74 51.82,-109.11 104.1,-139.46 52.28,-30.32 114.68,-37.95 172.74,-21.13 202.49,58.68 333.92,253.92 312.11,463.61 l -648.46,542.42" /><path
         id="path76"
         style="fill:#b898aa;fill-opacity:1;fill-rule:evenodd;stroke:none"
         d="m 1298.49,2629.67 c -0.02,-101.58 6.86,-202.97 20.59,-303.46 92.88,37.35 197.55,39.47 293.46,3.59 113.29,-42.38 200.98,-132.75 240.56,-245.5 72.01,87.55 109.44,202.44 97,322.03 l -244.1,204.18 -407.51,19.16" /><path
         id="path78"
         style="fill:#361623;fill-opacity:1;fill-rule:evenodd;stroke:none"
         d="m 1586.05,4083.25 -66.36,-104.3 C 1256.42,3565.23 1128.81,3079.66 1154.66,2589.94 l 109.59,-61.63 c 232.69,-130.85 496.43,-196.38 763.32,-189.63 266.88,-6.75 530.61,58.78 763.31,189.63 l 109.59,61.63 c 25.85,489.72 -101.73,975.29 -365.03,1389.01 l -66.36,104.3 -441.51,-113.78 -441.52,113.78" /><path
         id="path80"
         style="fill:#481a30;fill-opacity:1;fill-rule:evenodd;stroke:none"
         d="m 1286.83,4741.05 64.01,-443.25 c 32.66,-226.27 161.72,-419.81 344.04,-538.66 206.75,-134.79 458.63,-134.79 665.38,0 182.31,118.85 311.37,312.39 344.05,538.66 l 63.99,443.25 -740.73,26.07 -740.74,-26.07" /><path
         id="path82"
         style="fill:#481d32;fill-opacity:1;fill-rule:evenodd;stroke:none"
         d="m 2264.23,5426.89 c -26.91,23.37 -63.62,27.81 -99.12,7.54 -35.49,-20.25 -61.44,-60.45 -71.99,-105.19 26.91,-23.36 63.61,-27.81 99.11,-7.55 35.51,20.26 61.46,60.46 72,105.2 z m -473.33,0 c 26.92,23.37 63.62,27.81 99.12,7.54 35.49,-20.25 61.44,-60.45 72,-105.19 -26.92,-23.36 -63.62,-27.81 -99.12,-7.55 -35.5,20.26 -61.45,60.46 -72,105.2 v 0" /><path
         id="path84"
         style="fill:#f28f61;fill-opacity:1;fill-rule:evenodd;stroke:none"
         d="m 1001.28,4645.84 -52.44,-142.22 c -21.227,-57.59 -30.805,-118.82 -28.152,-180.15 l -37.93,-133.39 c -14.988,-52.73 -2.528,-109.46 33.195,-151.05 l 71.11,-101.92 c 148.777,-213.27 399.787,-331.3 658.947,-309.88 l 51.13,86.27 -259.72,297.09 c -45.56,52.11 -84.56,109.59 -116.15,171.18 l 135.11,182 -455.1,282.07" /><path
         id="path86"
         style="fill:#d87145;fill-opacity:1;fill-rule:evenodd;stroke:none"
         d="m 1321.27,4181.77 135.11,182 -184.63,114.43 -148.37,33.17 67.06,-68.04 c 70.16,-71.17 115.96,-162.74 130.83,-261.56" /><path
         id="path88"
         style="fill:#f28f61;fill-opacity:1;fill-rule:evenodd;stroke:none"
         d="m 3007.14,4645.84 42.67,-165.55 c 25.02,-97.09 69.36,-188.13 130.37,-267.71 97.12,-126.68 79.5,-306.93 -40.3,-412.41 -24.97,-21.99 -56.82,-34.62 -90.07,-35.72 -62.76,-2.07 -125.17,10.14 -182.53,35.72 -91.55,40.81 -157.14,124.08 -175.39,222.65 -21.26,114.81 -66.49,223.85 -132.74,319.99 l 447.99,303.03" /><path
         id="path90"
         style="fill:#d87145;fill-opacity:1;fill-rule:evenodd;stroke:none"
         d="m 2687.82,4043.35 c -22.69,107.26 -66.39,209.06 -128.67,299.46 l 200.32,135.5 90.8,-24.15 -33.84,-38.36 c -90.27,-102.36 -136.48,-236.21 -128.61,-372.45" /><path
         id="path92"
         style="fill:#7d3660;fill-opacity:1;fill-rule:evenodd;stroke:none"
         d="m 1534.61,5238.75 -159.58,-62.68 c -223,-87.61 -378.893,-291.8 -404.632,-530.01 l 51.282,-48.44 c 531.86,-502.3 1479.92,-502.3 2011.77,0 l 51.29,48.44 c -25.74,238.21 -181.64,442.4 -404.63,530.01 l -159.58,62.68 c -14.86,353.49 -274.28,559.48 -492.96,606.95 -218.68,-41.77 -478.09,-253.46 -492.96,-606.95" /><path
         id="path94"
         style="fill:#6f2a51;fill-opacity:1;fill-rule:evenodd;stroke:none"
         d="m 2937.05,4991.63 c -67.77,80.45 -155.39,144.55 -256.95,184.44 l -159.57,62.68 -31.32,-37.87 c -125.74,-152.09 -313.47,-239.2 -510.8,-237.03 l 49.16,-10.67 c 173.14,-37.56 353.7,-19.74 516.16,50.96 126.36,54.99 270.72,50.4 393.32,-12.51" /><path
         id="path96"
         style="fill:#361623;fill-opacity:1;fill-rule:evenodd;stroke:none"
         d="m 1945.73,5308.8 -13.8,48.76 c -21.07,74.44 -96.99,119.08 -172.27,101.3 l 10.13,-35.56 c 21.86,-76.71 96.93,-125.57 175.94,-114.5 z m 163.68,0 13.8,48.76 c 21.06,74.44 97,119.08 172.27,101.3 l -10.13,-35.56 c -21.86,-76.71 -96.94,-125.57 -175.94,-114.5 v 0" /><path
         id="path98"
         style="fill:#c7782a;fill-opacity:1;fill-rule:evenodd;stroke:none"
         d="m 990.129,3352.62 2871.401,1026.67 50.12,-140.18 -2871.4,-1026.67 -50.121,140.18" /><path
         id="path100"
         style="fill:#b4631d;fill-opacity:1;fill-rule:evenodd;stroke:none"
         d="m 2694.62,3962.08 673.7,240.87 36.96,-144.9 -664.51,-237.6 c 12.98,12.6 21.73,29.31 24.37,47.8 4.21,29.46 -7.69,58.91 -31.17,77.18 -11.64,9.04 -25.22,14.66 -39.35,16.65" /><path
         id="path102"
         style="fill:#cfafc2;fill-opacity:1;fill-rule:evenodd;stroke:none"
         d="m 3719.6,4369.86 72.26,-202.08 c 69.59,-194.6 283.76,-295.96 478.36,-226.37 l -7.21,-39.61 c -42.73,-235 -210.1,-428.06 -436.68,-503.7 -223.15,-85.16 -474.99,-41.99 -657.04,112.63 l -30.7,26.06 c 194.63,69.59 295.98,283.75 226.39,478.37 l -72.26,202.06 213.46,76.32 213.42,76.32" /><path
         id="path104"
         style="fill:#ffffff;fill-opacity:1;fill-rule:evenodd;stroke:none"
         d="m 4140.78,3919.48 c 42.93,-0.4 86.65,6.64 129.44,21.93 l -7.21,-39.61 c -42.73,-235 -210.1,-428.06 -436.68,-503.7 -223.15,-85.16 -474.99,-41.99 -657.04,112.63 l -30.7,26.06 c 42.8,15.3 81.06,37.59 114.01,65.13 157.62,-72.51 340.26,-80.49 506.9,-16.89 169.19,56.48 305.37,178.45 381.28,334.45" /><path
         id="path106"
         style="fill:#f28f61;fill-opacity:1;fill-rule:evenodd;stroke:none"
         d="m 1696.86,3755.12 123.83,-20.36 c 63.19,-10.41 120.57,-43.04 161.81,-92.04 24.09,-28.63 40.41,-62.97 47.39,-99.73 l 17.78,-71.12 c 6.31,-25.21 0.44,-51.93 -15.86,-72.17 -16.29,-20.25 -41.12,-31.7 -67.1,-30.94 -19.64,0.58 -38.96,5.01 -56.89,13.04 l -188.44,-68.74 c -28.27,-10.31 -59.77,-6.4 -84.66,10.51 -24.89,16.91 -40.14,44.75 -40.97,74.82 -1.65,59.6 -37.36,112.97 -91.84,137.22 l -16,37 c -31.15,71.97 -35.35,152.74 -11.86,227.56 l 222.81,-45.05" /><path
         id="path108"
         style="fill:#f89b70;fill-opacity:1;fill-rule:evenodd;stroke:none"
         d="m 3257.2,4005.38 -50.96,196.75 -11.85,42.66 c -9.92,35.72 -45.2,58.2 -81.76,52.11 -36.57,-6.09 -62.65,-38.8 -60.44,-75.81 l -182.53,-82.98 c -51.13,-23.25 -81.34,-76.94 -74.66,-132.73 6.37,-53.19 20.13,-105.24 40.84,-154.65 19.09,-45.42 71.27,-66.9 116.79,-48 l 250.06,67.55 c 27.63,7.46 50.16,27.45 60.88,53.99 10.71,26.54 0.53,54.55 -6.37,81.11" /></g></g></svg>