<?xml version="1.0" encoding="UTF-8" standalone="no"?>
<svg
   xmlns:dc="http://purl.org/dc/elements/1.1/"
   xmlns:cc="http://creativecommons.org/ns#"
   xmlns:rdf="http://www.w3.org/1999/02/22-rdf-syntax-ns#"
   xmlns:svg="http://www.w3.org/2000/svg"
   xmlns="http://www.w3.org/2000/svg"
   viewBox="0 0 672.61334 792.78668"
   height="792.78668"
   width="672.61334"
   xml:space="preserve"
   id="svg2"
   version="1.1"><metadata
     id="metadata8"><rdf:RDF><cc:Work
         rdf:about=""><dc:format>image/svg+xml</dc:format><dc:type
           rdf:resource="http://purl.org/dc/dcmitype/StillImage" /></cc:Work></rdf:RDF></metadata><defs
     id="defs6" /><g
     transform="matrix(1.3333333,0,0,-1.3333333,0,792.78667)"
     id="g10"><g
       transform="scale(0.1)"
       id="g12"><path
         id="path14"
         style="fill:#100f0d;fill-opacity:1;fill-rule:nonzero;stroke:none"
         d="m 1229.54,100.27 c 0,7.519 -1.07,14 -3.3,19.3 -2.16,5.379 -5.2,9.532 -9.11,12.461 -3.89,2.848 -8.17,4.309 -12.91,4.309 -7.5,0 -13.83,-3.16 -18.99,-9.301 -5.16,-6.199 -7.73,-15.25 -7.73,-27.2499 0,-11.3203 2.57,-20.1094 7.65,-26.3086 5.16,-6.3086 11.52,-9.4688 19.07,-9.4688 4.51,0 8.73,1.3594 12.59,4.1485 3.8,2.7304 6.9,6.8281 9.24,12.2617 2.35,5.5273 3.49,12.0976 3.49,19.8481 z m -53.31,41.371 v -3.422 c 5.11,6.551 10.4,11.453 15.9,14.492 5.54,3.098 11.82,4.668 18.8,4.668 8.35,0 16.06,-2.27 23.11,-6.777 7.02,-4.512 12.58,-11.071 16.69,-19.77 4.08,-8.684 6.09,-18.91 6.09,-30.781 0,-8.7112 -1.14,-16.8401 -3.5,-24.0393 -2.35,-7.332 -5.6,-13.5117 -9.71,-18.4531 -4.12,-4.9492 -9.02,-8.7891 -14.59,-11.4297 -5.65,-2.707 -11.7,-4.0195 -18.09,-4.0195 -7.81,0 -14.34,1.6211 -19.62,4.8789 -5.32,3.2617 -10.32,8.0117 -15.08,14.332 V 18.7188 C 1176.23,6.21875 1171.87,0 1163.17,0 c -5.11,0 -8.53,1.58984 -10.14,4.80078 -1.68,3.23828 -2.5,7.94922 -2.5,14.09762 V 141.461 c 0,5.398 1.09,9.449 3.38,12.109 2.29,2.641 5.37,4.012 9.26,4.012 3.86,0 7,-1.371 9.41,-4.141 2.42,-2.75 3.65,-6.703 3.65,-11.8" /><path
         id="path16"
         style="fill:#100f0d;fill-opacity:1;fill-rule:nonzero;stroke:none"
         d="M 1349.37,58.1719 V 61.75 c -3.28,-4.2891 -6.69,-7.8711 -10.29,-10.7695 -3.59,-2.961 -7.5,-5.1094 -11.74,-6.5117 -4.29,-1.4102 -9.13,-2.129 -14.58,-2.129 -6.53,0 -12.43,1.4297 -17.66,4.2383 -5.23,2.8438 -9.27,6.7735 -12.09,11.7539 -3.44,6.0391 -5.09,14.7071 -5.09,25.9688 V 140.57 c 0,5.641 1.23,9.918 3.69,12.711 2.46,2.809 5.7,4.219 9.74,4.219 4.13,0 7.43,-1.41 9.97,-4.289 2.53,-2.852 3.78,-7.082 3.78,-12.641 V 95.0898 c 0,-6.5312 0.52,-12.0781 1.56,-16.5078 1.11,-4.5039 3.01,-7.9922 5.8,-10.5625 2.7,-2.4882 6.45,-3.7578 11.16,-3.7578 4.64,0 8.94,1.4375 12.96,4.2696 4.09,2.8085 7.05,6.5078 8.89,11.0898 1.53,4.0195 2.29,12.8203 2.29,26.4099 v 34.539 c 0,5.559 1.26,9.789 3.81,12.641 2.5,2.879 5.74,4.289 9.83,4.289 4.05,0 7.3,-1.41 9.76,-4.219 2.43,-2.793 3.64,-7.07 3.64,-12.711 V 58.332 c 0,-5.4023 -1.13,-9.4726 -3.49,-12.1523 -2.34,-2.7305 -5.37,-4.0508 -9.11,-4.0508 -3.7,0 -6.76,1.4414 -9.21,4.1719 -2.41,2.8476 -3.62,6.7383 -3.62,11.8711" /><path
         id="path18"
         style="fill:#100f0d;fill-opacity:1;fill-rule:nonzero;stroke:none"
         d="m 1428.27,99.1406 c 0,-11.289 2.45,-19.9297 7.38,-26.0195 4.97,-6.0391 11.47,-9.1094 19.52,-9.1094 6.85,0 12.71,3.1172 17.69,9.3086 4.98,6.2188 7.45,15.0586 7.45,26.6485 0,7.5702 -1.04,13.9802 -3.1,19.3712 -2.08,5.441 -5.02,9.621 -8.77,12.539 -3.84,2.941 -8.2,4.461 -13.27,4.461 -5.23,0 -9.77,-1.52 -13.85,-4.461 -4.08,-2.918 -7.24,-7.207 -9.59,-12.809 -2.33,-5.531 -3.46,-12.148 -3.46,-19.9294 z m -1.29,84.3904 v -43.39 c 5.05,5.589 10.3,9.789 15.6,12.808 5.32,2.93 11.92,4.43 19.74,4.43 9.05,0 16.95,-2.27 23.76,-6.688 6.8,-4.562 12.11,-10.992 15.85,-19.492 3.79,-8.469 5.64,-18.551 5.64,-30.187 0,-8.6214 -1.03,-16.4925 -3.11,-23.7112 -2.1,-7.1406 -5.11,-13.332 -9.11,-18.6719 -4.03,-5.2305 -8.87,-9.2578 -14.52,-12.2383 -5.7,-2.8203 -11.96,-4.2812 -18.8,-4.2812 -4.14,0 -8.12,0.5312 -11.82,1.539 -3.68,1.0625 -6.85,2.4219 -9.38,4.1602 -2.63,1.6133 -4.83,3.4219 -6.67,5.1797 -1.81,1.8437 -4.2,4.5117 -7.18,8.1211 V 58.332 c 0,-5.3632 -1.26,-9.3906 -3.72,-12.1523 -2.43,-2.7305 -5.6,-4.0703 -9.35,-4.0703 -3.88,0 -6.93,1.3398 -9.25,4.0703 -2.27,2.8203 -3.41,6.8086 -3.41,12.1523 v 123.969 c 0,5.711 1.1,10.07 3.36,13 2.21,2.961 5.29,4.429 9.3,4.429 4.17,0 7.4,-1.398 9.63,-4.23 2.29,-2.781 3.44,-6.762 3.44,-11.969" /><path
         id="path20"
         style="fill:#100f0d;fill-opacity:1;fill-rule:nonzero;stroke:none"
         d="M 1526.77,59.3906 V 182.469 c 0,5.722 1.2,9.98 3.6,12.91 2.47,2.883 5.72,4.351 9.84,4.351 4.12,0 7.42,-1.421 9.96,-4.308 2.49,-2.863 3.8,-7.211 3.8,-12.953 V 59.3906 c 0,-5.7617 -1.31,-10.1015 -3.86,-13 -2.54,-2.8203 -5.86,-4.2812 -9.9,-4.2812 -3.99,0 -7.19,1.5 -9.7,4.4687 -2.49,2.9922 -3.74,7.2422 -3.74,12.8125" /><path
         id="path22"
         style="fill:#100f0d;fill-opacity:1;fill-rule:nonzero;stroke:none"
         d="M 1609.24,141.379 V 59.3906 c 0,-5.7304 -1.33,-10.0195 -3.85,-12.9297 -2.62,-2.8515 -5.93,-4.3515 -9.88,-4.3515 -4,0 -7.24,1.5 -9.72,4.4414 -2.46,3.0195 -3.75,7.2695 -3.75,12.8398 V 140.57 c 0,5.559 1.29,9.789 3.75,12.641 2.48,2.879 5.72,4.289 9.72,4.289 3.95,0 7.26,-1.41 9.88,-4.289 2.52,-2.852 3.85,-6.77 3.85,-11.832 z m -13.45,29.34 c -3.79,0 -7,1.222 -9.75,3.711 -2.62,2.41 -4,5.859 -4,10.32 0,3.988 1.38,7.27 4.15,9.922 2.75,2.609 5.94,3.828 9.6,3.828 3.51,0 6.65,-1.141 9.37,-3.488 2.71,-2.352 4.08,-5.821 4.08,-10.262 0,-4.422 -1.34,-7.82 -4,-10.25 -2.66,-2.461 -5.78,-3.781 -9.45,-3.781" /><path
         id="path24"
         style="fill:#100f0d;fill-opacity:1;fill-rule:nonzero;stroke:none"
         d="m 1734.76,77.2617 c 0,-3.5234 -1,-7.3203 -3.01,-11.3398 -2.06,-4.0117 -5.14,-7.8203 -9.3,-11.4727 -4.13,-3.6289 -9.36,-6.5586 -15.68,-8.75 -6.3,-2.2773 -13.43,-3.3594 -21.31,-3.3594 -16.82,0 -29.92,5.1211 -39.37,15.3321 -9.41,10.2187 -14.13,23.8867 -14.13,41.0976 0,11.6405 2.15,21.9605 6.44,30.8785 4.31,8.891 10.61,15.864 18.75,20.711 8.15,4.93 17.95,7.371 29.27,7.371 7.06,0 13.53,-1.109 19.41,-3.23 5.87,-2.16 10.85,-4.949 14.94,-8.309 4.08,-3.402 7.19,-7.043 9.37,-10.863 2.17,-3.828 3.22,-7.437 3.22,-10.769 0,-3.348 -1.23,-6.227 -3.62,-8.598 -2.45,-2.379 -5.35,-3.551 -8.81,-3.551 -2.29,0 -4.14,0.66 -5.67,1.871 -1.45,1.168 -3.14,3.078 -5.02,5.84 -3.3,5.238 -6.8,9.231 -10.41,11.91 -3.62,2.61 -8.22,3.961 -13.76,3.961 -8.08,0 -14.56,-3.332 -19.46,-9.871 -4.93,-6.59 -7.35,-15.539 -7.35,-26.9101 0,-5.3007 0.63,-10.2695 1.9,-14.7109 1.25,-4.4883 3.07,-8.2891 5.45,-11.4609 2.4,-3.1602 5.27,-5.5274 8.67,-7.1602 3.38,-1.6601 7.11,-2.4492 11.14,-2.4492 5.48,0 10.12,1.2891 14.01,3.9297 3.9,2.6601 7.34,6.6797 10.32,12.0312 1.66,3.2696 3.45,5.7383 5.38,7.5703 1.95,1.8008 4.31,2.6602 7.09,2.6602 3.32,0 6.07,-1.2813 8.29,-3.9102 2.15,-2.6992 3.25,-5.4687 3.25,-8.4492" /><path
         id="path26"
         style="fill:#100f0d;fill-opacity:1;fill-rule:nonzero;stroke:none"
         d="m 1779.57,99.9688 c 0,-7.6875 1.14,-14.1993 3.42,-19.6407 2.31,-5.4179 5.4,-9.4375 9.38,-12.1679 4.02,-2.7891 8.37,-4.1485 13.05,-4.1485 4.79,0 9.15,1.3164 13.1,3.8789 3.97,2.6211 7.09,6.6289 9.48,11.9883 2.36,5.3633 3.53,12.082 3.53,20.0899 0,7.6132 -1.17,14.0702 -3.53,19.5312 -2.39,5.449 -5.56,9.602 -9.56,12.531 -4.03,2.848 -8.41,4.309 -13.19,4.309 -4.97,0 -9.41,-1.52 -13.35,-4.461 -3.89,-2.918 -6.96,-7.199 -9.11,-12.707 -2.14,-5.531 -3.22,-11.863 -3.22,-19.2032 z m 53.45,-41.6368 v 2.7774 c -3.65,-4.3711 -7.25,-7.9102 -10.85,-10.6094 -3.49,-2.7695 -7.37,-4.8398 -11.52,-6.2695 -4.14,-1.3907 -8.67,-2.1211 -13.57,-2.1211 -6.5,0 -12.57,1.4609 -18.1,4.2812 -5.52,2.9805 -10.32,7.0313 -14.38,12.3594 -4.03,5.3398 -7.11,11.6094 -9.22,18.8516 -2.12,7.1797 -3.14,14.9804 -3.14,23.4104 0,17.687 4.16,31.59 12.46,41.5 8.33,9.91 19.23,14.867 32.76,14.867 7.83,0 14.45,-1.43 19.83,-4.289 5.36,-2.77 10.63,-7.078 15.73,-12.949 v 41.91 c 0,5.84 1.1,10.238 3.34,13.211 2.22,2.988 5.36,4.468 9.49,4.468 4.12,0 7.28,-1.378 9.54,-4.078 2.2,-2.73 3.36,-6.781 3.36,-12.121 V 58.332 c 0,-5.4023 -1.22,-9.4726 -3.62,-12.1523 -2.4,-2.7305 -5.46,-4.0703 -9.28,-4.0703 -3.67,0 -6.79,1.4023 -9.22,4.1914 -2.4,2.8008 -3.61,6.7812 -3.61,12.0312" /><path
         id="path28"
         style="fill:#100f0d;fill-opacity:1;fill-rule:nonzero;stroke:none"
         d="m 1960.55,99.75 c 0,11.531 -2.48,20.57 -7.33,27.02 -4.89,6.41 -11.47,9.66 -19.68,9.66 -5.35,0 -10,-1.45 -14.06,-4.321 -4.05,-2.918 -7.16,-7.16 -9.36,-12.769 -2.18,-5.559 -3.29,-12.07 -3.29,-19.59 0,-7.4297 1.11,-13.8906 3.23,-19.4219 2.15,-5.539 5.26,-9.789 9.3,-12.7383 4,-2.9414 8.77,-4.3789 14.18,-4.3789 8.21,0 14.79,3.211 19.68,9.6797 4.85,6.461 7.33,15.4492 7.33,26.8594 z m 27.29,0 c 0,-8.4102 -1.28,-16.2109 -3.79,-23.3984 -2.53,-7.0821 -6.17,-13.2305 -10.93,-18.3828 -4.82,-5.1407 -10.53,-8.9688 -17.16,-11.7891 -6.63,-2.7305 -14.16,-4.0703 -22.42,-4.0703 -8.22,0 -15.64,1.3398 -22.2,4.1523 -6.58,2.7696 -12.3,6.7266 -17.12,11.9102 -4.79,5.1679 -8.43,11.2304 -10.95,18.2578 -2.49,7.082 -3.72,14.8086 -3.72,23.3711 0,8.5902 1.27,16.4492 3.77,23.5582 2.52,7.18 6.12,13.231 10.85,18.332 4.72,5.047 10.42,8.95 17.17,11.68 6.73,2.75 14.08,4.129 22.2,4.129 8.24,0 15.72,-1.379 22.42,-4.168 6.69,-2.762 12.43,-6.762 17.21,-11.871 4.81,-5.121 8.44,-11.262 10.88,-18.332 2.55,-7.047 3.79,-14.859 3.79,-23.379" /><path
         id="path30"
         style="fill:#100f0d;fill-opacity:1;fill-rule:nonzero;stroke:none"
         d="m 2102.69,123.199 c -2.04,-4.801 -3.01,-13.269 -3.01,-25.4568 V 60.0195 c 0,-5.9414 -1.27,-10.4492 -3.89,-13.4414 -2.58,-2.9687 -6.04,-4.4687 -10.28,-4.4687 -4.08,0 -7.41,1.5 -9.95,4.4687 -2.57,2.9922 -3.82,7.5 -3.82,13.4414 v 45.2695 c 0,7.121 -0.27,12.652 -0.73,16.66 -0.48,3.903 -1.72,7.16 -3.79,9.699 -2.01,2.551 -5.29,3.813 -9.72,3.813 -8.9,0 -14.75,-3.191 -17.59,-9.609 -2.85,-6.352 -4.19,-15.512 -4.19,-27.4536 V 60.0195 c 0,-5.9297 -1.32,-10.3906 -3.84,-13.3398 -2.58,-3.0703 -5.95,-4.5703 -10.09,-4.5703 -4.15,0 -7.56,1.5 -10.16,4.5703 -2.65,2.9492 -3.89,7.4101 -3.89,13.332 v 81.2073 c 0,5.351 1.12,9.422 3.46,12.179 2.39,2.75 5.49,4.184 9.37,4.184 3.71,0 6.83,-1.293 9.29,-3.902 2.49,-2.578 3.73,-6.16 3.73,-10.75 v -2.688 c 4.71,5.887 9.77,10.238 15.13,12.969 5.37,2.781 11.41,4.168 17.94,4.168 6.82,0 12.67,-1.43 17.59,-4.289 4.93,-2.809 8.96,-7.121 12.13,-12.848 4.6,5.77 9.51,10.117 14.77,12.93 5.26,2.82 11.05,4.207 17.4,4.207 7.5,0 13.89,-1.5 19.23,-4.59 5.4,-3.047 9.4,-7.41 12.07,-13.09 2.34,-5.14 3.48,-13.199 3.48,-24.25 V 60.0195 c 0,-5.9414 -1.29,-10.4492 -3.84,-13.4414 -2.64,-2.9687 -6.03,-4.4687 -10.29,-4.4687 -4.13,0 -7.49,1.5 -10.09,4.5703 -2.66,2.9492 -3.97,7.4101 -3.97,13.3398 v 47.7695 c 0,6.102 -0.25,10.973 -0.73,14.652 -0.51,3.707 -1.86,6.75 -4.07,9.258 -2.18,2.5 -5.52,3.762 -9.92,3.762 -3.59,0 -7.01,-1.121 -10.18,-3.289 -3.28,-2.25 -5.72,-5.223 -7.55,-8.973 v 0" /><path
         id="path32"
         style="fill:#100f0d;fill-opacity:1;fill-rule:nonzero;stroke:none"
         d="m 2256.71,99.2109 c -4.01,-1.5625 -9.81,-3.1211 -17.41,-4.8515 -7.61,-1.6992 -12.87,-2.9375 -15.8,-3.75 -2.93,-0.8203 -5.72,-2.3711 -8.34,-4.6602 -2.68,-2.3906 -4.03,-5.6211 -4.03,-9.7773 0,-4.3321 1.59,-7.961 4.68,-10.9805 3.14,-3.0625 7.23,-4.5312 12.28,-4.5312 5.37,0 10.37,1.25 14.89,3.7109 4.55,2.4375 7.92,5.6484 10.01,9.5 2.46,4.3203 3.72,11.3711 3.72,21.3008 z m 1.77,-41.1093 c -6.6,-5.3516 -12.95,-9.3321 -19.09,-11.9727 -6.12,-2.707 -13.05,-4.0195 -20.64,-4.0195 -7.03,0 -13.1,1.4609 -18.41,4.2812 -5.32,2.8985 -9.35,6.8086 -12.22,11.7813 -2.82,4.9101 -4.29,10.1875 -4.29,15.9765 0,7.7735 2.42,14.3633 7.12,19.8516 4.68,5.4492 11.14,9.129 19.38,11.012 1.73,0.418 6.04,1.32 12.83,2.777 6.92,1.492 12.72,2.793 17.67,4 4.84,1.191 10.17,2.672 15.88,4.391 -0.35,7.519 -1.79,13.011 -4.33,16.59 -2.59,3.46 -7.92,5.171 -15.91,5.171 -6.94,0 -12.11,-0.98 -15.64,-2.992 -3.47,-1.98 -6.48,-5.027 -8.93,-9.097 -2.52,-3.993 -4.24,-6.661 -5.28,-7.922 -1.06,-1.321 -3.28,-1.891 -6.61,-1.891 -3.1,0 -5.72,1 -7.92,3.02 -2.25,2.07 -3.35,4.64 -3.35,7.89 0,4.973 1.69,9.86 5.06,14.512 3.39,4.73 8.69,8.598 15.84,11.711 7.17,3.039 16.13,4.558 26.83,4.558 11.92,0 21.34,-1.519 28.22,-4.449 6.82,-2.922 11.6,-7.551 14.46,-13.972 2.84,-6.34 4.23,-14.84 4.23,-25.36 0,-6.64 0,-12.34 -0.04,-16.949 -0.05,-4.6797 -0.08,-9.8281 -0.14,-15.5078 0,-5.3203 0.84,-10.9024 2.55,-16.6602 1.65,-5.7929 2.5,-9.5429 2.5,-11.1718 0,-2.9219 -1.33,-5.5782 -3.94,-7.961 -2.57,-2.3906 -5.57,-3.5898 -8.87,-3.5898 -2.84,0 -5.53,1.3398 -8.3,4.0703 -2.72,2.7617 -5.6,6.75 -8.66,11.9219" /><path
         id="path34"
         style="fill:#100f0d;fill-opacity:1;fill-rule:nonzero;stroke:none"
         d="M 2338.21,141.379 V 59.3906 c 0,-5.7304 -1.31,-10.0195 -3.85,-12.9297 -2.6,-2.8515 -5.86,-4.3515 -9.86,-4.3515 -3.97,0 -7.25,1.5 -9.71,4.4414 -2.52,3.0195 -3.77,7.2695 -3.77,12.8398 V 140.57 c 0,5.559 1.25,9.789 3.77,12.641 2.46,2.879 5.74,4.289 9.71,4.289 4,0 7.26,-1.41 9.86,-4.289 2.54,-2.852 3.85,-6.77 3.85,-11.832 z m -13.44,29.34 c -3.75,0 -6.97,1.222 -9.67,3.711 -2.69,2.41 -4.08,5.859 -4.08,10.32 0,3.988 1.41,7.27 4.17,9.922 2.73,2.609 5.97,3.828 9.58,3.828 3.53,0 6.69,-1.141 9.41,-3.488 2.69,-2.352 4.03,-5.821 4.03,-10.262 0,-4.422 -1.31,-7.82 -3.98,-10.25 -2.65,-2.461 -5.81,-3.781 -9.46,-3.781" /><path
         id="path36"
         style="fill:#100f0d;fill-opacity:1;fill-rule:nonzero;stroke:none"
         d="m 2391.06,141.789 v -3.391 c 4.76,6.563 9.98,11.403 15.61,14.473 5.7,3.078 12.23,4.629 19.63,4.629 7.13,0 13.58,-1.621 19.26,-4.91 5.59,-3.238 9.84,-7.82 12.59,-13.758 1.82,-3.504 2.94,-7.281 3.52,-11.281 0.48,-3.969 0.8,-9.11 0.8,-15.371 V 59.3906 c 0,-5.7304 -1.29,-10.0195 -3.76,-12.9297 -2.5,-2.8515 -5.75,-4.3515 -9.71,-4.3515 -4.04,0 -7.35,1.5 -9.78,4.4687 -2.55,2.9922 -3.85,7.2422 -3.85,12.8125 v 47.2574 c 0,9.411 -1.21,16.551 -3.7,21.493 -2.53,4.949 -7.51,7.468 -14.96,7.468 -4.83,0 -9.24,-1.539 -13.21,-4.558 -3.98,-2.981 -6.91,-7.141 -8.76,-12.422 -1.33,-4.227 -2.03,-12.09 -2.03,-23.7501 V 59.3906 c 0,-5.7617 -1.25,-10.1015 -3.82,-13 -2.57,-2.8203 -5.87,-4.2812 -9.91,-4.2812 -3.89,0 -7.13,1.5 -9.64,4.4414 -2.57,3.0195 -3.81,7.2695 -3.81,12.8398 v 81.9884 c 0,5.43 1.12,9.422 3.41,12.101 2.21,2.668 5.37,4.02 9.27,4.02 2.35,0 4.54,-0.629 6.43,-1.77 1.99,-1.16 3.48,-2.98 4.65,-5.25 1.12,-2.41 1.77,-5.289 1.77,-8.691" /><path
         id="path38"
         style="fill:#100f0d;fill-opacity:1;fill-rule:nonzero;stroke:none"
         d="m 2506.11,139.84 21.96,-64.4494 23.72,67.2574 c 1.89,5.422 3.7,9.204 5.52,11.461 1.83,2.25 4.5,3.391 8.13,3.391 3.46,0 6.39,-1.211 8.87,-3.68 2.37,-2.398 3.6,-5.172 3.6,-8.441 0,-1.219 -0.24,-2.649 -0.67,-4.27 -0.39,-1.699 -0.89,-3.269 -1.48,-4.757 -0.57,-1.403 -1.16,-3.09 -1.95,-4.942 l -26.08,-67.5702 c -0.73,-1.9296 -1.7,-4.4179 -2.83,-7.4101 -1.18,-2.9688 -2.5,-5.4609 -3.89,-7.6602 -1.46,-2.0898 -3.2,-3.6875 -5.27,-4.8789 -2.13,-1.1797 -4.68,-1.7812 -7.67,-1.7812 -3.85,0 -6.9,0.9101 -9.23,2.7226 -2.28,1.8477 -3.98,3.8282 -5.07,6.0664 -1.07,2.1407 -2.95,6.4805 -5.51,12.9414 l -25.93,66.8402 c -0.6,1.629 -1.24,3.312 -1.89,4.98 -0.59,1.66 -1.08,3.32 -1.55,5.078 -0.42,1.774 -0.66,3.262 -0.66,4.453 0,1.981 0.56,3.887 1.72,5.801 1.13,1.918 2.69,3.488 4.67,4.68 2.03,1.199 4.13,1.828 6.51,1.828 4.47,0 7.59,-1.352 9.29,-4.102 1.7,-2.679 3.61,-7.207 5.69,-13.558" /><path
         id="path40"
         style="fill:#100f0d;fill-opacity:1;fill-rule:nonzero;stroke:none"
         d="m 2617.34,109.02 h 49.29 c -0.63,9.66 -3.12,16.921 -7.5,21.71 -4.37,4.801 -10.1,7.211 -17.22,7.211 -6.73,0 -12.32,-2.441 -16.64,-7.3 -4.35,-4.871 -6.95,-12.09 -7.93,-21.621 z m 53.2,-16.1606 h -53.2 c 0.01,-6.461 1.31,-12.1406 3.69,-17.0977 2.46,-4.8711 5.66,-8.5898 9.7,-11.1133 4,-2.5195 8.45,-3.7187 13.31,-3.7187 3.24,0 6.25,0.3906 8.89,1.1601 2.68,0.8399 5.32,2.0821 7.87,3.75 2.48,1.711 4.78,3.4805 6.93,5.5 2.1,1.9297 4.93,4.5196 8.27,7.8711 1.41,1.3086 3.42,1.8985 5.97,1.8985 2.84,0 5.07,-0.7813 6.8,-2.418 1.73,-1.5898 2.54,-3.8125 2.54,-6.7305 0,-2.5586 -0.93,-5.5625 -2.88,-9.0312 -1.9,-3.3789 -4.75,-6.6992 -8.71,-9.8906 -3.89,-3.1289 -8.77,-5.6875 -14.65,-7.8282 -5.85,-2.0703 -12.57,-3.1015 -20.28,-3.1015 -17.43,0 -31.04,5.2422 -40.69,15.582 -9.69,10.4492 -14.52,24.5078 -14.52,42.2774 0,8.5002 1.24,16.2112 3.57,23.3712 2.39,7.199 5.86,13.332 10.46,18.449 4.59,5.16 10.19,9.121 16.92,11.82 6.74,2.75 14.14,4.121 22.35,4.121 10.54,0 19.69,-2.339 27.29,-7.039 7.63,-4.679 13.31,-10.691 17.09,-18.089 3.79,-7.461 5.68,-14.981 5.68,-22.731 0,-7.082 -1.9,-11.7108 -5.86,-13.8124 -3.95,-2.1484 -9.43,-3.1992 -16.54,-3.1992" /><path
         id="path42"
         style="fill:#100f0d;fill-opacity:1;fill-rule:nonzero;stroke:none"
         d="m 2813.42,77.2617 c 0,-3.5234 -1,-7.3203 -3.07,-11.3398 -2.03,-4.0117 -5.06,-7.8203 -9.25,-11.4727 -4.13,-3.6289 -9.41,-6.5586 -15.73,-8.75 -6.27,-2.2773 -13.42,-3.3594 -21.25,-3.3594 -16.87,0 -29.97,5.1211 -39.39,15.3321 -9.4,10.2187 -14.15,23.8867 -14.15,41.0976 0,11.6405 2.14,21.9605 6.5,30.8785 4.32,8.891 10.5,15.864 18.71,20.711 8.13,4.93 17.93,7.371 29.3,7.371 7.03,0 13.47,-1.109 19.4,-3.23 5.86,-2.16 10.8,-4.949 14.94,-8.309 4.08,-3.402 7.17,-7.043 9.35,-10.863 2.14,-3.828 3.22,-7.437 3.22,-10.769 0,-3.348 -1.18,-6.227 -3.68,-8.598 -2.4,-2.379 -5.33,-3.551 -8.78,-3.551 -2.26,0 -4.13,0.66 -5.6,1.871 -1.52,1.168 -3.18,3.078 -5.07,5.84 -3.32,5.238 -6.77,9.231 -10.39,11.91 -3.62,2.61 -8.22,3.961 -13.82,3.961 -7.99,0 -14.48,-3.332 -19.39,-9.871 -4.96,-6.59 -7.4,-15.539 -7.4,-26.9101 0,-5.3007 0.67,-10.2695 1.88,-14.7109 1.27,-4.4883 3.12,-8.2891 5.52,-11.4609 2.38,-3.1602 5.29,-5.5274 8.67,-7.1602 3.33,-1.6601 7.07,-2.4492 11.15,-2.4492 5.43,0 10.12,1.2891 14.01,3.9297 3.86,2.6601 7.33,6.6797 10.32,12.0312 1.67,3.2696 3.43,5.7383 5.38,7.5703 1.9,1.8008 4.23,2.6602 7.07,2.6602 3.27,0 6.07,-1.2813 8.18,-3.9102 2.25,-2.6992 3.37,-5.4687 3.37,-8.4492" /><path
         id="path44"
         style="fill:#100f0d;fill-opacity:1;fill-rule:nonzero;stroke:none"
         d="m 2838.68,155.109 h 2.99 v 17.063 c 0,4.539 0.12,8.156 0.37,10.75 0.22,2.609 0.82,4.789 1.94,6.699 1.02,1.91 2.56,3.5 4.59,4.738 1.97,1.18 4.19,1.762 6.65,1.762 3.44,0 6.57,-1.332 9.35,-4.019 1.81,-1.821 3.02,-3.993 3.52,-6.571 0.51,-2.609 0.73,-6.351 0.73,-11.101 v -19.321 h 10 c 3.85,0 6.8,-0.968 8.82,-2.867 2.06,-1.922 3.05,-4.332 3.05,-7.32 0,-3.813 -1.44,-6.524 -4.37,-8.012 -2.87,-1.5 -7.01,-2.269 -12.38,-2.269 h -5.12 V 82.3711 c 0,-4.4609 0.17,-7.8828 0.45,-10.3008 0.35,-2.3984 1.19,-4.3398 2.45,-5.789 1.26,-1.5 3.37,-2.2696 6.32,-2.2696 1.58,0 3.73,0.2696 6.49,0.8867 2.65,0.5821 4.79,0.8829 6.34,0.8829 2.18,0 4.22,-0.9493 5.95,-2.6993 1.72,-1.9023 2.63,-4.1211 2.63,-6.8515 0,-4.5508 -2.35,-8.0508 -7.16,-10.4922 -4.83,-2.4297 -11.69,-3.6289 -20.62,-3.6289 -8.5,0 -14.97,1.5 -19.35,4.4687 -4.36,2.9922 -7.28,7.0821 -8.58,12.4219 -1.4,5.2617 -2.07,12.2891 -2.07,21.0898 v 54.5512 h -3.62 c -3.85,0 -6.84,0.968 -8.92,2.918 -2.07,1.929 -3.08,4.371 -3.08,7.363 0,2.988 1.05,5.398 3.19,7.32 2.19,1.899 5.31,2.867 9.44,2.867" /><path
         id="path46"
         style="fill:#100f0d;fill-opacity:1;fill-rule:nonzero;stroke:none"
         d="m 2983.87,99.75 c 0,11.531 -2.46,20.57 -7.31,27.02 -4.93,6.41 -11.43,9.66 -19.69,9.66 -5.33,0 -10,-1.45 -14.02,-4.321 -4.09,-2.918 -7.2,-7.16 -9.38,-12.769 -2.19,-5.559 -3.31,-12.07 -3.31,-19.59 0,-7.4297 1.12,-13.8906 3.27,-19.4219 2.15,-5.539 5.22,-9.789 9.23,-12.7383 4.01,-2.9414 8.75,-4.3789 14.21,-4.3789 8.26,0 14.76,3.211 19.69,9.6797 4.85,6.461 7.31,15.4492 7.31,26.8594 z m 27.31,0 c 0,-8.4102 -1.25,-16.2109 -3.82,-23.3984 -2.5,-7.0821 -6.17,-13.2305 -10.93,-18.3828 -4.79,-5.1407 -10.52,-8.9688 -17.13,-11.7891 -6.67,-2.7305 -14.09,-4.0703 -22.43,-4.0703 -8.27,0 -15.68,1.3398 -22.23,4.1523 -6.56,2.7696 -12.28,6.7266 -17.09,11.9102 -4.79,5.1679 -8.45,11.2304 -10.9,18.2578 -2.48,7.082 -3.71,14.8086 -3.71,23.3711 0,8.5902 1.23,16.4492 3.71,23.5582 2.57,7.18 6.15,13.231 10.85,18.332 4.76,5.047 10.45,8.95 17.14,11.68 6.78,2.75 14.16,4.129 22.23,4.129 8.26,0 15.69,-1.379 22.43,-4.168 6.7,-2.762 12.42,-6.762 17.22,-11.871 4.73,-5.121 8.44,-11.262 10.92,-18.332 2.49,-7.047 3.74,-14.859 3.74,-23.379" /><path
         id="path48"
         style="fill:#100f0d;fill-opacity:1;fill-rule:nonzero;stroke:none"
         d="M 3059.62,83.0117 V 59.3906 c 0,-5.7617 -1.3,-10.1015 -3.9,-13 -2.6,-2.8203 -5.87,-4.2812 -9.89,-4.2812 -3.87,0 -7.12,1.5 -9.63,4.3515 -2.52,2.9102 -3.76,7.1993 -3.76,12.9297 v 78.9884 c 0,12.762 4.39,19.121 13.23,19.121 4.47,0 7.74,-1.508 9.77,-4.461 1.96,-2.98 3.01,-7.387 3.28,-13.199 3.23,5.812 6.61,10.219 10.03,13.199 3.42,2.953 7.96,4.461 13.65,4.461 5.76,0 11.28,-1.508 16.68,-4.461 5.35,-2.98 8.07,-6.949 8.07,-11.859 0,-3.45 -1.18,-6.36 -3.46,-8.578 -2.27,-2.243 -4.75,-3.411 -7.44,-3.411 -0.98,0 -3.4,0.668 -7.21,1.969 -3.85,1.262 -7.22,1.93 -10.16,1.93 -3.93,0 -7.19,-1.059 -9.69,-3.289 -2.53,-2.219 -4.51,-5.41 -5.89,-9.699 -1.4,-4.352 -2.41,-9.43 -2.9,-15.391 -0.51,-5.8907 -0.78,-13.1016 -0.78,-21.6993" /><path
         id="path50"
         style="fill:#100f0d;fill-opacity:1;fill-rule:nonzero;stroke:none"
         d="m 3204.48,79.1914 c 0,-7.8516 -1.83,-14.543 -5.52,-20.1328 -3.67,-5.5977 -9.05,-9.7695 -16.2,-12.6797 -7.17,-2.8086 -15.82,-4.2695 -26.1,-4.2695 -9.68,0 -18.1,1.539 -25.09,4.6992 -6.98,3.1016 -12.13,6.9805 -15.42,11.6523 -3.36,4.6602 -5.07,9.3477 -5.07,14.0508 0,3.1172 1.09,5.7891 3.27,8.0078 2.11,2.2696 4.82,3.3203 8.03,3.3203 2.87,0 5.1,-0.7382 6.61,-2.1484 1.52,-1.543 2.95,-3.5391 4.38,-6.1797 2.79,-5.0703 6.11,-8.8515 10.05,-11.3398 3.82,-2.5313 9.12,-3.7735 15.89,-3.7735 5.42,0 9.89,1.293 13.39,3.8204 3.47,2.5312 5.26,5.4101 5.26,8.6718 0,5.0196 -1.83,8.668 -5.43,10.9414 -3.67,2.3282 -9.6,4.5078 -17.9,6.5664 -9.35,2.4297 -17,4.9805 -22.89,7.6329 -5.87,2.6797 -10.62,6.2307 -14.11,10.5977 -3.52,4.293 -5.31,9.703 -5.31,16.082 0,5.719 1.64,11.078 4.9,16.121 3.23,5.066 8.11,9.09 14.43,12.117 6.32,3.043 13.97,4.551 22.98,4.551 7.01,0 13.33,-0.781 18.98,-2.301 5.59,-1.519 10.34,-3.59 14.03,-6.121 3.75,-2.566 6.64,-5.418 8.59,-8.508 1.99,-3.16 2.95,-6.199 2.95,-9.16 0,-3.269 -1.02,-5.879 -3.16,-8.051 -2.1,-2 -5.1,-3.058 -8.89,-3.058 -2.82,0 -5.18,0.828 -7.18,2.519 -1.92,1.641 -4.19,4.129 -6.7,7.41 -2.06,2.782 -4.47,5.02 -7.29,6.68 -2.79,1.629 -6.57,2.5 -11.33,2.5 -4.93,0 -9.05,-1.09 -12.24,-3.289 -3.28,-2.172 -4.92,-4.922 -4.92,-8.172 0,-3 1.21,-5.429 3.56,-7.328 2.42,-1.922 5.63,-3.492 9.7,-4.75 4.08,-1.25 9.64,-2.801 16.75,-4.59 8.45,-2.14 15.32,-4.679 20.68,-7.679 5.34,-2.95 9.38,-6.4926 12.14,-10.5434 2.8,-4.0898 4.18,-8.707 4.18,-13.8672" /><path
         id="path52"
         style="fill:#100f0d;fill-opacity:1;fill-rule:nonzero;stroke:none"
         d="m 3235.36,42.1094 c -4.12,0 -7.69,1.3398 -10.64,4.1523 -3.04,2.7696 -4.51,6.668 -4.51,11.6094 0,4.2187 1.4,7.8594 4.23,10.9297 2.86,3.039 6.4,4.5195 10.59,4.5195 4.16,0 7.75,-1.4805 10.64,-4.5117 3,-2.9688 4.48,-6.6797 4.48,-10.9375 0,-4.9023 -1.48,-8.7695 -4.48,-11.5703 -2.89,-2.7891 -6.34,-4.1914 -10.31,-4.1914" /><path
         id="path54"
         style="fill:#100f0d;fill-opacity:1;fill-rule:nonzero;stroke:none"
         d="m 3355.61,99.75 c 0,11.531 -2.45,20.57 -7.33,27.02 -4.89,6.41 -11.42,9.66 -19.65,9.66 -5.32,0 -9.95,-1.45 -14.03,-4.321 -4.06,-2.918 -7.17,-7.16 -9.35,-12.769 -2.17,-5.559 -3.28,-12.07 -3.28,-19.59 0,-7.4297 1.04,-13.8906 3.19,-19.4219 2.23,-5.539 5.27,-9.789 9.31,-12.7383 4,-2.9414 8.72,-4.3789 14.16,-4.3789 8.23,0 14.76,3.211 19.65,9.6797 4.88,6.461 7.33,15.4492 7.33,26.8594 z m 27.32,0 c 0,-8.4102 -1.25,-16.2109 -3.8,-23.3984 -2.54,-7.0821 -6.16,-13.2305 -10.95,-18.3828 -4.83,-5.1407 -10.47,-8.9688 -17.13,-11.7891 -6.62,-2.7305 -14.09,-4.0703 -22.42,-4.0703 -8.22,0 -15.63,1.3398 -22.2,4.1523 -6.58,2.7696 -12.25,6.7266 -17.05,11.9102 -4.89,5.1679 -8.52,11.2304 -11.04,18.2578 -2.44,7.082 -3.69,14.8086 -3.69,23.3711 0,8.5902 1.25,16.4492 3.79,23.5582 2.57,7.18 6.14,13.231 10.82,18.332 4.72,5.047 10.44,8.95 17.17,11.68 6.7,2.75 14.05,4.129 22.2,4.129 8.23,0 15.7,-1.379 22.42,-4.168 6.74,-2.762 12.46,-6.762 17.26,-11.871 4.74,-5.121 8.37,-11.262 10.89,-18.332 2.48,-7.047 3.73,-14.859 3.73,-23.379" /><path
         id="path56"
         style="fill:#100f0d;fill-opacity:1;fill-rule:nonzero;stroke:none"
         d="M 3431.37,83.0117 V 59.3906 c 0,-5.7617 -1.3,-10.1015 -3.88,-13 -2.55,-2.8203 -5.88,-4.2812 -9.84,-4.2812 -3.96,0 -7.15,1.5 -9.69,4.3515 -2.55,2.9102 -3.79,7.1993 -3.79,12.9297 v 78.9884 c 0,12.762 4.47,19.121 13.26,19.121 4.52,0 7.75,-1.508 9.73,-4.461 1.97,-2.98 3.13,-7.387 3.36,-13.199 3.2,5.812 6.53,10.219 9.94,13.199 3.44,2.953 8.01,4.461 13.68,4.461 5.81,0 11.34,-1.508 16.67,-4.461 5.38,-2.98 8.09,-6.949 8.09,-11.859 0,-3.45 -1.15,-6.36 -3.43,-8.578 -2.31,-2.243 -4.74,-3.411 -7.47,-3.411 -0.95,0 -3.35,0.668 -7.17,1.969 -3.83,1.262 -7.2,1.93 -10.15,1.93 -3.96,0 -7.19,-1.059 -9.79,-3.289 -2.48,-2.219 -4.44,-5.41 -5.86,-9.699 -1.35,-4.352 -2.33,-9.43 -2.85,-15.391 -0.52,-5.8907 -0.81,-13.1016 -0.81,-21.6993" /><path
         id="path58"
         style="fill:#100f0d;fill-opacity:1;fill-rule:nonzero;stroke:none"
         d="m 3509.89,100.719 c 0,-11.4807 2.42,-20.1877 7.25,-26.1096 4.78,-5.8477 11.05,-8.8281 18.64,-8.8281 4.49,0 8.81,1.3085 12.81,3.8398 4.02,2.5273 7.29,6.3398 9.82,11.4375 2.56,5.1016 3.78,11.2617 3.78,18.5312 0,11.5702 -2.46,20.5702 -7.33,26.9882 -4.86,6.512 -11.3,9.762 -19.26,9.762 -7.74,0 -13.98,-3.16 -18.65,-9.301 -4.71,-6.187 -7.06,-14.937 -7.06,-26.32 z m 78.84,36 V 54.25 c 0,-9.4609 -1.04,-17.5586 -2.92,-24.3203 -1.94,-6.8203 -5.01,-12.4414 -9.26,-16.8594 C 3572.3,8.64063 3566.7,5.35156 3559.88,3.21094 3552.99,1.10156 3544.43,0 3534.21,0 c -9.38,0 -17.77,1.33203 -25.09,4.05859 -7.4,2.8125 -13.09,6.30081 -17.05,10.67191 -3.99,4.289 -6,8.75 -6,13.3515 0,3.4688 1.1,6.2774 3.43,8.4571 2.22,2.2304 4.96,3.3203 8.13,3.3203 4.01,0 7.44,-1.8594 10.49,-5.5078 1.46,-1.9414 2.99,-3.8008 4.5,-5.6914 1.56,-1.9102 3.3,-3.5782 5.18,-4.8985 1.91,-1.3828 4.21,-2.3828 6.86,-3.0508 2.6,-0.6523 5.71,-0.9804 9.17,-0.9804 6.99,0 12.51,1.039 16.37,3.0586 3.89,2.0507 6.62,4.9101 8.2,8.5703 1.49,3.6797 2.49,7.6015 2.65,11.7929 0.32,4.2696 0.51,10.9375 0.69,20.2774 -4.18,-6.0899 -9.09,-10.7383 -14.51,-13.9297 -5.48,-3.1992 -12.03,-4.75 -19.54,-4.75 -9.18,0 -17.13,2.3789 -23.89,7.2617 -6.84,4.8477 -12.08,11.6172 -15.72,20.3789 -3.6,8.7188 -5.48,18.7891 -5.48,30.2384 0,8.57 1.1,16.281 3.36,23.141 2.18,6.832 5.33,12.628 9.52,17.351 4.08,4.707 8.85,8.277 14.22,10.68 5.41,2.347 11.25,3.578 17.76,3.578 7.66,0 14.33,-1.57 19.97,-4.668 5.72,-3.039 10.9,-7.941 15.77,-14.492 v 3.801 c 0,4.96 1.2,8.742 3.49,11.531 2.3,2.66 5.32,4.031 8.95,4.031 5.26,0 8.75,-1.773 10.5,-5.34 1.7,-3.594 2.59,-8.781 2.59,-15.523" /><path
         id="path60"
         style="fill:#100f0d;fill-opacity:1;fill-rule:nonzero;stroke:none"
         d="m 2410.02,413.102 h 40.34 c -2.86,-21.75 -11.76,-38.723 -26.59,-50.942 -13.71,-11.969 -30.32,-17.871 -49.72,-17.871 -26.35,0 -47.38,9.262 -63.07,27.723 -14.88,17.57 -22.3,40.258 -22.3,67.957 0,28.402 7.37,51.101 22.08,68.281 14.71,17.121 35.5,25.73 62.39,25.73 19.99,0 36.91,-5.41 50.62,-16.152 14.55,-11.598 23.44,-27.898 26.59,-48.769 h -40.34 c -3.49,18.222 -14.6,27.273 -33.52,27.273 -31.17,0 -46.79,-18.473 -46.79,-55.422 0,-17.32 4.02,-31.449 12.03,-42.461 8.02,-11.07 19.32,-16.59 33.9,-16.59 21.74,0 33.21,10.43 34.38,31.243 z m -158.79,25.449 c 0,-36.11 11.45,-66.66 34.3,-91.571 22.9,-24.89 50.91,-37.351 84.15,-37.351 33.1,0 61.14,12.461 83.99,37.351 22.92,24.911 34.29,55.461 34.29,91.571 0,36.07 -11.37,66.609 -34.29,91.508 -22.85,24.953 -50.89,37.382 -83.99,37.382 -33.24,0 -61.25,-12.429 -84.15,-37.382 -22.85,-24.899 -34.3,-55.438 -34.3,-91.508 z m -40.99,0 c 0,45.929 15.56,85.14 46.66,117.711 31.16,32.519 68.76,48.789 112.78,48.789 43.92,0 81.47,-16.27 112.65,-48.789 31.13,-32.571 46.73,-71.782 46.73,-117.711 0,-45.981 -15.6,-85.25 -46.73,-117.75 -31.18,-32.551 -68.73,-48.832 -112.65,-48.832 -44.02,0 -81.62,16.281 -112.78,48.832 -31.1,32.5 -46.66,71.769 -46.66,117.75" /><path
         id="path62"
         style="fill:#100f0d;fill-opacity:1;fill-rule:nonzero;stroke:none"
         d="m 2274.75,334.121 23.26,-19.719 170.95,219.528 -23.24,19.699 -170.97,-219.508" /><path
         id="path64"
         style="fill:#2e2825;fill-opacity:1;fill-rule:evenodd;stroke:none"
         d="m 2522.31,4774.44 c 32.63,0 59.23,26.6 59.23,59.22 0,32.62 -26.6,59.23 -59.23,59.23 -32.63,0 -59.23,-26.61 -59.23,-59.23 0,-32.62 26.6,-59.22 59.23,-59.22" /><path
         id="path66"
         style="fill:#fef0d3;fill-opacity:1;fill-rule:evenodd;stroke:none"
         d="m 2522.31,901.289 c 1389.25,0 2522.31,1133.071 2522.31,2522.321 0,1389.24 -1133.06,2522.31 -2522.31,2522.31 C 1133.07,5945.92 0,4812.85 0,3423.61 0,2034.36 1133.07,901.289 2522.31,901.289" /><path
         id="path68"
         style="fill:#463c3b;fill-opacity:1;fill-rule:evenodd;stroke:none"
         d="m 2384.09,4848.51 41.96,-37.41 h 96.26 v 0 h 96.25 l 41.97,37.41 -138.22,21.53 v 0 l -138.22,-21.53" /><path
         id="path70"
         style="fill:#463c3b;fill-opacity:1;fill-rule:evenodd;stroke:none"
         d="m 2452.3,4352.52 h 140.02 l 49.13,-466.98 h -238.28 l 49.13,466.98" /><path
         id="path72"
         style="fill:#f39c10;fill-opacity:1;fill-rule:evenodd;stroke:none"
         d="m 4032.65,3129.25 c 127.43,-89.02 158.55,-264.47 69.54,-391.89 -89.02,-127.43 -264.48,-158.57 -391.91,-69.54 -7.46,5.22 -14.6,10.77 -21.43,16.55 l -1271.04,950.46 v 0 c -82.61,57.72 -102.8,171.47 -45.09,254.08 57.72,82.62 171.47,102.8 254.09,45.08 v 0 l 1382.93,-790.31 c 0,0 21.07,-13.14 22.91,-14.43" /><path
         id="path74"
         style="fill:#2e2825;fill-opacity:1;fill-rule:evenodd;stroke:none"
         d="m 1644.58,1525.49 461.56,601.96 416.17,-81.53 416.15,81.53 461.57,-601.96 -877.72,-62.16 -877.73,62.16" /><path
         id="path76"
         style="fill:#fab40a;fill-opacity:1;fill-rule:evenodd;stroke:none"
         d="m 2760.18,1648.61 c -199.4,-131.4 -467.57,-76.24 -598.95,123.16 -131.38,199.43 -76.22,467.6 123.19,598.97 2.89,1.9 35.78,21.21 35.78,21.22 l 1397.03,740.68 v 0 c 129.31,85.17 303.17,49.42 388.34,-79.86 85.17,-129.3 49.43,-303.17 -79.88,-388.34 v -0.01 L 2793.8,1673.1 c 0,0 -30.73,-22.6 -33.62,-24.49" /><path
         id="path78"
         style="fill:#2e2825;fill-opacity:1;fill-rule:evenodd;stroke:none"
         d="m 1098.25,800.5 h 2848.1 v 600.7 H 1098.25 V 800.5" /><path
         id="path80"
         style="fill:#463c3b;fill-opacity:1;fill-rule:evenodd;stroke:none"
         d="m 2149.47,1401.2 h 305.52 V 800.5 h -305.52 z m -693.91,0 H 1947.5 V 800.5 h -491.94 v 600.7 0" /><path
         id="path82"
         style="fill:#fab40a;fill-opacity:1;fill-rule:evenodd;stroke:none"
         d="m 1315.74,1401.2 h 2413.13 v 124.29 H 1315.74 V 1401.2" /><path
         id="path84"
         style="fill:#f9de1b;fill-opacity:1;fill-rule:evenodd;stroke:none"
         d="m 2883.37,2247.55 c 131.39,-199.41 76.23,-467.58 -123.19,-598.94 -199.4,-131.4 -467.57,-76.24 -598.95,123.16 -131.38,199.43 -76.22,467.6 123.19,598.97 199.4,131.37 467.59,76.22 598.95,-123.19" /><path
         id="path86"
         style="fill:#463c3b;fill-opacity:1;fill-rule:evenodd;stroke:none"
         d="m 2716.9,2137.86 c 70.81,-107.47 41.08,-251.98 -66.39,-322.8 -107.47,-70.8 -251.99,-41.06 -322.8,66.4 -70.8,107.47 -41.08,252 66.39,322.8 107.48,70.8 252,41.09 322.8,-66.4" /><path
         id="path88"
         style="fill:#f9de1b;fill-opacity:1;fill-rule:evenodd;stroke:none"
         d="m 4105.57,3052.78 c 85.2,-129.3 49.43,-303.17 -79.88,-388.35 -129.27,-85.17 -303.14,-49.43 -388.33,79.87 -85.17,129.3 -49.4,303.16 79.87,388.34 129.31,85.17 303.17,49.42 388.34,-79.86" /><path
         id="path90"
         style="fill:#463c3b;fill-opacity:1;fill-rule:evenodd;stroke:none"
         d="m 4001.2,2984.01 c 47.19,-71.65 27.38,-168 -44.26,-215.2 -71.64,-47.21 -167.99,-27.39 -215.19,44.26 -47.22,71.64 -27.41,167.99 44.26,215.19 71.65,47.2 167.99,27.39 215.19,-44.25" /><path
         id="path92"
         style="fill:#f9de1b;fill-opacity:1;fill-rule:evenodd;stroke:none"
         d="m 2372.72,3888.91 c 57.72,82.62 171.47,102.8 254.09,45.08 82.61,-57.71 102.79,-171.47 45.07,-254.08 -57.71,-82.61 -171.46,-102.8 -254.07,-45.08 -82.62,57.71 -102.8,171.47 -45.09,254.08" /><path
         id="path94"
         style="fill:#463c3b;fill-opacity:1;fill-rule:evenodd;stroke:none"
         d="m 2439.41,3842.32 c 31.99,45.78 95.03,56.97 140.81,24.98 45.78,-31.98 56.95,-95.02 24.98,-140.8 -31.98,-45.78 -95.03,-56.96 -140.81,-24.98 -45.77,31.98 -56.96,95.02 -24.98,140.8" /><path
         id="path96"
         style="fill:#2e2825;fill-opacity:1;fill-rule:evenodd;stroke:none"
         d="m 2653.63,4353.24 19.09,-305.54 c 1.61,-25.8 11.14,-49.74 26.45,-69.08 15.33,-19.37 36.43,-34.16 61.19,-41.66 40.71,-12.35 73.79,-38.73 95.06,-72.51 21.28,-33.82 30.8,-75.03 24.34,-117.04 -9.24,-60.02 -33.18,-115.56 -68.41,-162.42 -35.42,-47.09 -82.2,-85.38 -136.89,-110.6 -10.45,-4.81 -22.98,-14.69 -32.2,-27.03 -5.22,-6.98 -9.24,-14.6 -10.97,-22.25 -1.58,-7 -1.24,-14.19 1.94,-21.1 2.77,-6 7.74,-12.02 15.52,-17.83 l 449.73,-335.92 c 17.09,-12.78 29.99,-28.83 38.19,-47.09 8.17,-18.22 11.57,-38.46 9.7,-59.67 -1.87,-21.27 -8.8,-40.68 -20.06,-57.2 -11.25,-16.49 -26.76,-30.02 -45.88,-39.55 l -722,-360.09 c -132.47,-66.05 -232.62,-174.09 -290.19,-301.37 -57.57,-127.31 -72.58,-273.86 -34.71,-416.97 l -23.6,-6.22 c -39.35,148.68 -23.77,300.97 36.05,433.23 59.83,132.29 163.91,244.57 301.55,313.22 l 722.01,360.09 c 15.34,7.64 27.73,18.39 36.62,31.42 8.86,13.03 14.33,28.48 15.85,45.54 1.5,17.11 -1.17,33.27 -7.61,47.62 -6.45,14.39 -16.78,27.15 -30.55,37.45 l -449.71,335.92 c -11.23,8.38 -18.66,17.6 -23.08,27.2 -5.63,12.2 -6.27,24.67 -3.57,36.67 2.55,11.33 8.1,22.06 15.17,31.52 11.66,15.62 27.89,28.28 41.56,34.58 51.04,23.53 94.66,59.21 127.63,103.06 32.8,43.62 55.12,95.41 63.73,151.43 5.55,36.09 -2.58,71.45 -20.81,100.4 -18.24,28.99 -46.6,51.6 -81.48,62.18 -29.61,8.97 -54.88,26.7 -73.23,49.88 -18.36,23.2 -29.79,51.88 -31.72,82.76 l -19.08,305.53 24.37,1.44" /><path
         id="path98"
         style="fill:#463c3b;fill-opacity:1;fill-rule:evenodd;stroke:none"
         d="m 2233.91,4390.06 -56.96,126.88 26.24,276.97 19.57,84.22 43.52,-29.62 -12.3,-77.83 4.21,-225.26 97.41,-112.63 h -3.89 l -117.8,-42.73" /><path
         id="path100"
         style="fill:#fab40a;fill-opacity:1;fill-rule:evenodd;stroke:none"
         d="m 2208.01,4881.56 150.83,127.32 25.25,-42.95 -66.69,-118.28 -49.83,-30.13 z m -27.83,-424.18 -47.9,126.58 62.14,212.46 68.61,-19.59 20.71,-250.13 -103.56,-69.32 v 0" /><path
         id="path102"
         style="fill:#463c3b;fill-opacity:1;fill-rule:evenodd;stroke:none"
         d="m 2266.28,4848.51 c 11.85,0 21.51,9.68 21.51,21.53 0,11.85 -9.66,21.52 -21.51,21.52 -11.87,0 -21.53,-9.67 -21.53,-21.52 0,-11.85 9.66,-21.53 21.53,-21.53" /><path
         id="path104"
         style="fill:#463c3b;fill-opacity:1;fill-rule:evenodd;stroke:none"
         d="m 2223.23,4733.14 c 11.85,0 21.53,9.66 21.53,21.52 0,11.86 -9.68,21.52 -21.53,21.52 -11.85,0 -21.51,-9.66 -21.51,-21.52 0,-11.86 9.66,-21.52 21.51,-21.52" /><path
         id="path106"
         style="fill:#463c3b;fill-opacity:1;fill-rule:evenodd;stroke:none"
         d="m 2222.76,4510.94 c 11.85,0 21.52,9.68 21.52,21.53 0,11.85 -9.67,21.52 -21.52,21.52 -11.86,0 -21.53,-9.67 -21.53,-21.52 0,-11.85 9.67,-21.53 21.53,-21.53" /><path
         id="path108"
         style="fill:#463c3b;fill-opacity:1;fill-rule:evenodd;stroke:none"
         d="m 2810.71,4390.06 56.95,126.88 -26.23,276.97 -19.57,84.22 -43.53,-29.62 12.31,-77.83 -4.21,-225.26 -97.41,-112.63 h 3.87 l 117.82,-42.73" /><path
         id="path110"
         style="fill:#fab40a;fill-opacity:1;fill-rule:evenodd;stroke:none"
         d="m 2836.6,4881.56 -150.82,127.32 -25.25,-42.95 66.67,-118.28 49.85,-30.13 z m 27.83,-424.18 47.9,126.58 -62.13,212.46 -68.61,-19.59 -20.73,-250.13 103.57,-69.32 v 0" /><path
         id="path112"
         style="fill:#463c3b;fill-opacity:1;fill-rule:evenodd;stroke:none"
         d="m 2778.33,4848.51 c 11.86,0 21.53,9.68 21.53,21.53 0,11.85 -9.67,21.52 -21.53,21.52 -11.85,0 -21.52,-9.67 -21.52,-21.52 0,-11.85 9.67,-21.53 21.52,-21.53" /><path
         id="path114"
         style="fill:#463c3b;fill-opacity:1;fill-rule:evenodd;stroke:none"
         d="m 2821.38,4733.14 c 11.86,0 21.52,9.66 21.52,21.52 0,11.86 -9.66,21.52 -21.52,21.52 -11.86,0 -21.52,-9.66 -21.52,-21.52 0,-11.86 9.66,-21.52 21.52,-21.52" /><path
         id="path116"
         style="fill:#463c3b;fill-opacity:1;fill-rule:evenodd;stroke:none"
         d="m 2821.86,4510.94 c 11.85,0 21.51,9.68 21.51,21.53 0,11.85 -9.66,21.52 -21.51,21.52 -11.86,0 -21.53,-9.67 -21.53,-21.52 0,-11.85 9.67,-21.53 21.53,-21.53" /><path
         id="path118"
         style="fill:#fab40a;fill-opacity:1;fill-rule:evenodd;stroke:none"
         d="m 2522.31,4277.44 h -109.36 l -197.59,114.08 24.76,65.86 282.19,-7.11 282.19,7.11 24.74,-65.86 -197.57,-114.08 h -109.36" /><path
         id="path120"
         style="fill:#463c3b;fill-opacity:1;fill-rule:evenodd;stroke:none"
         d="m 2287.79,4389.1 c 11.87,0 21.53,9.67 21.53,21.52 0,11.86 -9.66,21.52 -21.53,21.52 -11.85,0 -21.51,-9.66 -21.51,-21.52 0,-11.85 9.66,-21.52 21.51,-21.52" /><path
         id="path122"
         style="fill:#463c3b;fill-opacity:1;fill-rule:evenodd;stroke:none"
         d="m 2756.81,4389.1 c 11.87,0 21.52,9.67 21.52,21.52 0,11.86 -9.65,21.52 -21.52,21.52 -11.85,0 -21.51,-9.66 -21.51,-21.52 0,-11.85 9.66,-21.52 21.51,-21.52" /><path
         id="path124"
         style="fill:#f9de1b;fill-opacity:1;fill-rule:evenodd;stroke:none"
         d="m 2526.04,2616.15 87.58,52.83 77.56,-128.59 -87.57,-52.84 -77.57,128.6" /><path
         id="path126"
         style="fill:#f9de1b;fill-opacity:1;fill-rule:evenodd;stroke:none"
         d="m 2954.75,2840.11 87.57,52.83 77.58,-128.6 -87.59,-52.81 -77.56,128.58" /><path
         id="path128"
         style="fill:#fab40a;fill-opacity:1;fill-rule:evenodd;stroke:none"
         d="m 2755.83,3242.03 -82.51,60.44 88.75,121.14 82.5,-60.43 -88.74,-121.15" /><path
         id="path130"
         style="fill:#fab40a;fill-opacity:1;fill-rule:evenodd;stroke:none"
         d="m 3017.33,3053.9 -82.51,60.44 88.75,121.15 82.51,-60.44 -88.75,-121.15" /><path
         id="path132"
         style="fill:#766764;fill-opacity:1;fill-rule:evenodd;stroke:none"
         d="m 2384.09,4848.51 h 276.44 v 204.12 h -276.44 v -204.12" /><path
         id="path134"
         style="fill:#f89b7c;fill-opacity:1;fill-rule:evenodd;stroke:none"
         d="m 2522.31,5713.44 c 169.95,0 307.72,-137.78 307.72,-307.74 0,-97.18 -45.04,-183.84 -115.41,-240.24 -35.36,-28.33 -54.09,-67.33 -54.09,-112.64 v -0.19 h -276.44 v 0.19 c 0,45.31 -18.73,84.31 -54.09,112.64 -70.36,56.4 -115.42,143.06 -115.42,240.24 0,169.96 137.77,307.74 307.73,307.74" /><path
         id="path136"
         style="fill:#463c3b;fill-opacity:1;fill-rule:evenodd;stroke:none"
         d="m 2384.09,4921.38 v -45.96 l 276.44,32.04 v 45.96 z m 0,72.58 276.44,32.04 v -45.95 L 2384.09,4948 v 45.96 0" /><path
         id="path138"
         style="fill:#ffffff;fill-opacity:1;fill-rule:evenodd;stroke:none"
         d="m 2390.05,5379.66 h 65.16 v 65.15 c 0,17.99 -7.29,34.28 -19.08,46.07 -11.79,11.78 -28.07,19.08 -46.08,19.08 -17.98,0 -34.27,-7.3 -46.06,-19.08 -11.78,-11.79 -19.08,-28.08 -19.08,-46.07 0,-17.99 7.3,-34.28 19.08,-46.07 11.79,-11.79 28.08,-19.08 46.06,-19.08 z m 199.35,65.15 v -65.15 h 65.15 c 18,0 34.28,7.29 46.07,19.08 11.79,11.79 19.08,28.08 19.08,46.07 0,17.99 -7.29,34.28 -19.08,46.07 -11.79,11.78 -28.07,19.08 -46.07,19.08 -17.99,0 -34.27,-7.3 -46.06,-19.08 -11.79,-11.79 -19.09,-28.08 -19.09,-46.07 z m -36.69,-392.18 v 290.33 h -60.8 v -290.33 h -36.7 v 290.33 h -65.16 c -28.11,0 -53.58,11.4 -72.01,29.84 -18.42,18.42 -29.82,43.89 -29.82,72.01 0,28.12 11.4,53.58 29.82,72.01 18.43,18.44 43.9,29.83 72.01,29.83 28.13,0 53.6,-11.39 72.03,-29.83 18.42,-18.43 29.83,-43.89 29.83,-72.01 v -65.15 h 60.8 v 65.15 c 0,28.12 11.41,53.58 29.82,72.01 18.44,18.44 43.91,29.83 72.02,29.83 28.12,0 53.59,-11.39 72.02,-29.83 18.43,-18.43 29.83,-43.89 29.83,-72.01 0,-28.12 -11.4,-53.59 -29.83,-72.01 -18.43,-18.44 -43.9,-29.84 -72.02,-29.84 h -65.15 v -290.33 h -36.69 v 0" /><path
         id="path140"
         style="fill:#ffffff;fill-opacity:1;fill-rule:evenodd;stroke:none"
         d="m 1224.15,2582.53 c -40.57,61.56 -123.36,78.6 -184.93,38.03 -61.564,-40.57 -78.591,-123.35 -38.03,-184.92 40.56,-61.58 123.36,-78.6 184.92,-38.04 61.57,40.57 78.6,123.36 38.04,184.93 z m 735.73,484.72 c -27.04,41.05 -82.23,52.4 -123.27,25.36 -41.05,-27.04 -52.4,-82.24 -25.36,-123.28 27.04,-41.05 82.24,-52.39 123.28,-25.36 41.05,27.05 52.4,82.24 25.35,123.28 z m -710.93,-765.01 c -114.24,-75.28 -267.864,-43.67 -343.13,70.57 -75.261,114.24 -43.668,267.87 70.571,343.12 1.652,1.09 20.5,12.16 20.5,12.16 l 800.319,424.3 v 0 c 74.06,48.81 173.66,28.32 222.46,-45.75 48.8,-74.06 28.32,-173.66 -45.75,-222.46 v 0 l -705.72,-567.9 c 0,0 -17.6,-12.97 -19.25,-14.04 v 0" /><path
         id="path142"
         style="fill:#ffffff;fill-opacity:1;fill-rule:evenodd;stroke:none"
         d="m 4023.9,4039.29 c 26.72,40.56 81.26,51.78 121.81,25.06 40.55,-26.72 51.78,-81.26 25.06,-121.81 -26.72,-40.56 -81.25,-51.77 -121.81,-25.05 -40.55,26.72 -51.78,81.25 -25.06,121.8 z m -484.65,319.31 c 17.83,27.03 54.18,34.51 81.2,16.69 27.05,-17.81 34.53,-54.16 16.73,-81.21 -17.82,-27.03 -54.18,-34.51 -81.21,-16.7 -27.05,17.82 -34.51,54.17 -16.72,81.22 z m 468.31,-503.93 c 75.26,-49.59 176.45,-28.77 226.03,46.48 49.58,75.25 28.77,176.44 -46.49,226.02 -1.09,0.72 -13.49,8.01 -13.49,8.01 l -527.2,279.5 v 0 c -48.79,32.14 -114.39,18.65 -146.53,-30.13 -32.14,-48.8 -18.66,-114.4 30.14,-146.55 v 0 l 464.87,-374.09 c 0,0 11.6,-8.53 12.67,-9.24 v 0" /><path
         id="path144"
         style="fill:#ffffff;fill-opacity:1;fill-rule:evenodd;stroke:none"
         d="m 964.535,4370.34 c -31.984,-45.78 -20.797,-108.82 24.981,-140.8 45.774,-31.99 108.814,-20.8 140.804,24.98 31.98,45.78 20.79,108.82 -24.99,140.8 -45.77,31.98 -108.81,20.8 -140.795,-24.98 z m -66.687,46.59 c 57.703,82.61 171.472,102.79 254.082,45.07 82.61,-57.7 102.79,-171.47 45.08,-254.07 -57.71,-82.63 -171.48,-102.8 -254.088,-45.09 -82.609,57.72 -102.789,171.48 -45.074,254.09 v 0" /><path
         id="path146"
         style="fill:#ffffff;fill-opacity:1;fill-rule:evenodd;stroke:none"
         d="m 3633.22,2002.5 c -31.99,-45.79 -20.81,-108.82 24.98,-140.81 45.76,-31.98 108.82,-20.78 140.8,24.98 31.99,45.8 20.79,108.82 -24.98,140.81 -45.79,31.98 -108.82,20.78 -140.8,-24.98 z m -66.71,46.58 c 57.73,82.62 171.48,102.82 254.1,45.08 82.61,-57.7 102.78,-171.46 45.08,-254.07 -57.72,-82.62 -171.47,-102.78 -254.08,-45.08 -82.61,57.71 -102.81,171.47 -45.1,254.07 v 0" /><path
         id="path148"
         style="fill:#ffffff;fill-opacity:1;fill-rule:evenodd;stroke:none"
         d="m 3582.01,5016.57 c -32,-45.77 -20.79,-108.81 24.98,-140.8 45.79,-31.97 108.82,-20.79 140.8,24.99 31.98,45.78 20.81,108.82 -24.98,140.79 -45.77,31.99 -108.82,20.81 -140.8,-24.98 z m -66.69,46.6 c 57.71,82.61 171.46,102.79 254.07,45.08 82.62,-57.71 102.81,-171.48 45.08,-254.08 -57.71,-82.62 -171.46,-102.8 -254.07,-45.09 -82.61,57.71 -102.79,171.48 -45.08,254.09 v 0" /><path
         id="path150"
         style="fill:#ffffff;fill-opacity:1;fill-rule:evenodd;stroke:none"
         d="m 1626.86,4874.86 c -16,-22.9 -10.4,-54.41 12.49,-70.41 22.89,-15.99 54.4,-10.39 70.4,12.5 15.99,22.89 10.4,54.41 -12.5,70.4 -22.88,15.99 -54.4,10.4 -70.39,-12.49 z m -33.35,23.3 c 28.86,41.3 85.73,51.39 127.04,22.53 41.31,-28.85 51.4,-85.74 22.54,-127.04 -28.86,-41.31 -85.73,-51.4 -127.04,-22.54 -41.3,28.85 -51.4,85.74 -22.54,127.05 v 0" /><path
         id="path152"
         style="fill:#ffffff;fill-opacity:1;fill-rule:evenodd;stroke:none"
         d="m 1957.17,3543.81 c -15.99,-22.89 -10.4,-54.4 12.5,-70.4 22.88,-15.99 54.4,-10.4 70.39,12.49 15.99,22.89 10.41,54.41 -12.49,70.41 -22.88,15.98 -54.41,10.39 -70.4,-12.5 z m -33.34,23.3 c 28.85,41.31 85.73,51.39 127.03,22.54 41.31,-28.86 51.41,-85.74 22.55,-127.04 -28.86,-41.3 -85.74,-51.4 -127.04,-22.54 -41.31,28.85 -51.4,85.73 -22.54,127.04 v 0" /><path
         id="path154"
         style="fill:#ffffff;fill-opacity:1;fill-rule:evenodd;stroke:none"
         d="m 4076.63,3539.64 c -15.98,-22.89 -10.38,-54.41 12.5,-70.41 22.89,-15.99 54.41,-10.4 70.39,12.5 16,22.88 10.41,54.4 -12.48,70.4 -22.88,15.98 -54.41,10.39 -70.41,-12.49 z m -33.34,23.29 c 28.86,41.31 85.73,51.4 127.05,22.54 41.29,-28.86 51.38,-85.74 22.52,-127.04 -28.84,-41.31 -85.74,-51.4 -127.03,-22.54 -41.31,28.85 -51.39,85.73 -22.54,127.04 v 0" /><path
         id="path156"
         style="fill:#ffffff;fill-opacity:1;fill-rule:evenodd;stroke:none"
         d="m 1694.38,2129.86 c -16,-22.89 -10.41,-54.41 12.49,-70.4 22.89,-16 54.4,-10.4 70.39,12.49 16,22.91 10.41,54.4 -12.49,70.41 -22.88,15.98 -54.4,10.38 -70.39,-12.5 z m -33.35,23.29 c 28.86,41.31 85.73,51.39 127.04,22.56 41.31,-28.87 51.39,-85.74 22.54,-127.06 -28.86,-41.29 -85.74,-51.39 -127.05,-22.55 -41.29,28.86 -51.39,85.76 -22.53,127.05 v 0" /></g></g></svg>