<?xml version="1.0" encoding="UTF-8" standalone="no"?>
<!-- Created with Inkscape (http://www.inkscape.org/) -->

<svg
   version="1.1"
   id="svg2"
   width="645.12"
   height="654.5733"
   viewBox="0 0 645.12 654.5733"
   sodipodi:docname="business-growth-happy-publicdomainvectors.org.eps"
   xmlns:inkscape="http://www.inkscape.org/namespaces/inkscape"
   xmlns:sodipodi="http://sodipodi.sourceforge.net/DTD/sodipodi-0.dtd"
   xmlns="http://www.w3.org/2000/svg"
   xmlns:svg="http://www.w3.org/2000/svg">
  <defs
     id="defs6" />
  <sodipodi:namedview
     id="namedview4"
     pagecolor="#ffffff"
     bordercolor="#000000"
     borderopacity="0.25"
     inkscape:showpageshadow="2"
     inkscape:pageopacity="0.0"
     inkscape:pagecheckerboard="0"
     inkscape:deskcolor="#d1d1d1" />
  <g
     id="g8"
     inkscape:groupmode="layer"
     inkscape:label="ink_ext_XXXXXX"
     transform="matrix(1.3333333,0,0,-1.3333333,0,654.57333)">
    <g
       id="g10"
       transform="scale(0.1)">
      <path
         d="m 1539.77,72.9219 c 0,5.457 -0.78,10.1679 -2.4,14.0273 -1.57,3.9219 -3.78,6.9297 -6.62,9.0625 -2.83,2.0703 -5.95,3.1367 -9.4,3.1367 -5.45,0 -10.06,-2.3086 -13.81,-6.7578 -3.75,-4.5117 -5.62,-11.0898 -5.62,-19.8203 0,-8.2383 1.87,-14.6289 5.57,-19.1484 3.75,-4.5821 8.37,-6.8828 13.86,-6.8828 3.28,0 6.35,1 9.16,3.0195 2.77,1.9922 5.02,4.9727 6.72,8.9102 1.71,4.0312 2.54,8.8125 2.54,14.4531 z M 1501,103 v -2.488 c 3.71,4.769 7.56,8.328 11.56,10.539 4.03,2.258 8.6,3.398 13.68,3.398 6.07,0 11.68,-1.648 16.8,-4.929 5.11,-3.278 9.15,-8.051 12.14,-14.3794 2.97,-6.3086 4.43,-13.7617 4.43,-22.3789 0,-6.3398 -0.83,-12.25 -2.54,-17.4922 -1.71,-5.3281 -4.08,-9.8203 -7.07,-13.4179 -2.99,-3.6016 -6.56,-6.3907 -10.61,-8.3125 -4.1,-1.9688 -8.51,-2.9297 -13.15,-2.9297 -5.69,0 -10.43,1.1797 -14.27,3.5625 -3.88,2.3594 -7.51,5.8203 -10.97,10.4179 V 13.6094 C 1501,4.51953 1497.83,0 1491.5,0 c -3.72,0 -6.2,1.14844 -7.37,3.48047 -1.22,2.35937 -1.82,5.76953 -1.82,10.26173 v 89.1288 c 0,3.918 0.79,6.871 2.45,8.809 1.67,1.922 3.91,2.922 6.74,2.922 2.8,0 5.09,-1 6.84,-3.012 1.76,-2.008 2.66,-4.871 2.66,-8.59"
         style="fill:#2e2825;fill-opacity:1;fill-rule:nonzero;stroke:none"
         id="path12" />
      <path
         d="m 1626.92,42.2891 v 2.6093 c -2.38,-3.1171 -4.86,-5.7187 -7.48,-7.8281 -2.61,-2.1601 -5.46,-3.7187 -8.54,-4.7383 -3.12,-1.0234 -6.64,-1.5507 -10.6,-1.5507 -4.76,0 -9.05,1.039 -12.85,3.0781 -3.8,2.0703 -6.74,4.9297 -8.79,8.5508 -2.5,4.3906 -3.7,10.6992 -3.7,18.8906 v 40.9182 c 0,4.113 0.88,7.222 2.68,9.25 1.79,2.043 4.14,3.07 7.08,3.07 3.01,0 5.41,-1.027 7.26,-3.117 1.83,-2.07 2.74,-5.152 2.74,-9.203 V 69.1484 c 0,-4.7578 0.38,-8.7773 1.13,-12.0078 0.82,-3.2695 2.2,-5.8086 4.22,-7.6797 1.97,-1.8203 4.7,-2.7304 8.13,-2.7304 3.37,0 6.49,1.039 9.42,3.1015 2.97,2.0391 5.13,4.7383 6.47,8.0664 1.11,2.9336 1.66,9.3204 1.66,19.211 v 25.1096 c 0,4.051 0.92,7.133 2.77,9.203 1.82,2.09 4.18,3.117 7.15,3.117 2.95,0 5.31,-1.027 7.1,-3.07 1.77,-2.028 2.65,-5.137 2.65,-9.25 V 42.4102 c 0,-3.9297 -0.83,-6.8907 -2.54,-8.8282 -1.7,-1.9922 -3.91,-2.9531 -6.63,-2.9531 -2.69,0 -4.92,1.0508 -6.69,3.043 -1.76,2.0664 -2.64,4.8984 -2.64,8.6172"
         style="fill:#2e2825;fill-opacity:1;fill-rule:nonzero;stroke:none"
         id="path14" />
      <path
         d="m 1684.3,72.1016 c 0,-8.2227 1.79,-14.5118 5.37,-18.9297 3.62,-4.3906 8.34,-6.6328 14.2,-6.6328 4.98,0 9.24,2.2812 12.86,6.7812 3.63,4.5195 5.42,10.9414 5.42,19.3789 0,5.5 -0.75,10.1719 -2.25,14.0821 -1.52,3.957 -3.65,7 -6.38,9.1289 -2.79,2.1289 -5.97,3.2382 -9.65,3.2382 -3.81,0 -7.11,-1.1093 -10.08,-3.2382 -2.96,-2.1289 -5.26,-5.25 -6.97,-9.3204 -1.69,-4.0195 -2.52,-8.8398 -2.52,-14.4882 z m -0.94,61.3674 V 101.91 c 3.68,4.07 7.49,7.129 11.35,9.32 3.87,2.141 8.67,3.219 14.36,3.219 6.58,0 12.33,-1.648 17.28,-4.867 4.94,-3.312 8.81,-7.992 11.53,-14.1601 2.75,-6.1719 4.1,-13.5 4.1,-21.9727 0,-6.2695 -0.75,-11.9883 -2.26,-17.2383 -1.53,-5.1992 -3.72,-9.6992 -6.63,-13.582 -2.93,-3.7969 -6.44,-6.7305 -10.56,-8.8984 -4.15,-2.0508 -8.7,-3.1211 -13.67,-3.1211 -3.02,0 -5.91,0.3906 -8.6,1.1406 -2.68,0.7617 -4.98,1.7422 -6.82,3.0117 -1.91,1.168 -3.51,2.4883 -4.85,3.7696 -1.32,1.3281 -3.06,3.2773 -5.23,5.8984 v -2.0195 c 0,-3.8985 -0.91,-6.8282 -2.7,-8.8282 -1.77,-1.9922 -4.07,-2.9726 -6.8,-2.9726 -2.82,0 -5.04,0.9804 -6.73,2.9726 -1.65,2.0391 -2.48,4.9493 -2.48,8.8282 v 90.1718 c 0,4.148 0.8,7.316 2.44,9.449 1.62,2.16 3.85,3.219 6.77,3.219 3.03,0 5.38,-1.012 7,-3.078 1.66,-2.024 2.5,-4.91 2.5,-8.703"
         style="fill:#2e2825;fill-opacity:1;fill-rule:nonzero;stroke:none"
         id="path16" />
      <path
         d="m 1755.94,43.1797 v 89.5193 c 0,4.153 0.88,7.262 2.62,9.391 1.8,2.101 4.16,3.16 7.16,3.16 3,0 5.4,-1.02 7.24,-3.129 1.81,-2.082 2.77,-5.25 2.77,-9.422 V 43.1797 c 0,-4.1875 -0.96,-7.3399 -2.81,-9.4492 -1.85,-2.0508 -4.26,-3.1211 -7.2,-3.1211 -2.9,0 -5.23,1.1015 -7.05,3.25 -1.82,2.1797 -2.73,5.2695 -2.73,9.3203"
         style="fill:#2e2825;fill-opacity:1;fill-rule:nonzero;stroke:none"
         id="path18" />
      <path
         d="M 1815.92,102.809 V 43.1797 c 0,-4.1602 -0.96,-7.2813 -2.8,-9.3984 -1.9,-2.0704 -4.31,-3.1719 -7.18,-3.1719 -2.91,0 -5.27,1.1015 -7.07,3.2422 -1.79,2.1875 -2.73,5.2773 -2.73,9.3281 v 59.0393 c 0,4.051 0.94,7.133 2.73,9.203 1.8,2.09 4.16,3.117 7.07,3.117 2.87,0 5.28,-1.027 7.18,-3.117 1.84,-2.07 2.8,-4.93 2.8,-8.613 z m -9.78,21.351 c -2.76,0 -5.09,0.879 -7.09,2.68 -1.91,1.762 -2.91,4.281 -2.91,7.512 0,2.91 1,5.296 3.02,7.218 2,1.891 4.32,2.782 6.98,2.782 2.56,0 4.84,-0.832 6.81,-2.532 1.98,-1.718 2.97,-4.238 2.97,-7.468 0,-3.204 -0.97,-5.68 -2.91,-7.45 -1.93,-1.793 -4.2,-2.742 -6.87,-2.742"
         style="fill:#2e2825;fill-opacity:1;fill-rule:nonzero;stroke:none"
         id="path20" />
      <path
         d="m 1907.21,56.1797 c 0,-2.5586 -0.72,-5.3203 -2.19,-8.2383 -1.49,-2.9219 -3.74,-5.6992 -6.76,-8.3516 -3,-2.6406 -6.81,-4.7695 -11.4,-6.371 -4.59,-1.6485 -9.77,-2.4375 -15.5,-2.4375 -12.23,0 -21.77,3.7304 -28.63,11.1484 -6.85,7.4414 -10.28,17.3789 -10.28,29.8906 0,8.4688 1.56,15.9805 4.68,22.461 3.14,6.4687 7.72,11.5387 13.64,15.0707 5.92,3.578 13.05,5.347 21.29,5.347 5.13,0 9.84,-0.801 14.12,-2.34 4.26,-1.57 7.89,-3.597 10.86,-6.039 2.96,-2.488 5.23,-5.121 6.81,-7.8981 1.58,-2.8008 2.35,-5.4219 2.35,-7.8399 0,-2.4414 -0.9,-4.5312 -2.64,-6.2617 -1.78,-1.7305 -3.89,-2.5703 -6.41,-2.5703 -1.66,0 -3,0.4688 -4.12,1.3516 -1.05,0.8476 -2.28,2.2382 -3.65,4.25 -2.4,3.8203 -4.94,6.707 -7.57,8.6601 -2.64,1.8985 -5.98,2.8789 -10.01,2.8789 -5.88,0 -10.58,-2.4218 -14.15,-7.1718 -3.58,-4.7969 -5.35,-11.2969 -5.35,-19.5704 0,-3.8593 0.46,-7.4765 1.39,-10.707 0.9,-3.2617 2.23,-6.0195 3.96,-8.332 1.75,-2.2891 3.83,-4.0196 6.3,-5.1992 2.46,-1.211 5.18,-1.7891 8.11,-1.7891 3.98,0 7.36,0.9375 10.19,2.8594 2.83,1.9414 5.33,4.8593 7.5,8.75 1.21,2.3711 2.51,4.1718 3.92,5.5 1.41,1.3203 3.13,1.9414 5.15,1.9414 2.42,0 4.42,-0.9336 6.03,-2.8516 1.56,-1.9492 2.36,-3.9687 2.36,-6.1406"
         style="fill:#2e2825;fill-opacity:1;fill-rule:nonzero;stroke:none"
         id="path22" />
      <path
         d="m 1939.8,72.6992 c 0,-5.5898 0.83,-10.3281 2.49,-14.2773 1.68,-3.9531 3.93,-6.8711 6.83,-8.8633 2.92,-2.0195 6.08,-3.0195 9.48,-3.0195 3.48,0 6.66,0.9726 9.53,2.832 2.89,1.9102 5.16,4.8203 6.89,8.7187 1.72,3.8907 2.57,8.7813 2.57,14.6094 0,5.5313 -0.85,10.2305 -2.57,14.2031 -1.73,3.9688 -4.04,6.9766 -6.95,9.1094 -2.93,2.0703 -6.11,3.1367 -9.59,3.1367 -3.61,0 -6.84,-1.1093 -9.71,-3.2382 -2.83,-2.1289 -5.06,-5.2383 -6.63,-9.2383 -1.55,-4.0313 -2.34,-8.6406 -2.34,-13.9727 z m 38.88,-30.289 v 2.0195 c -2.66,-3.168 -5.28,-5.75 -7.89,-7.7109 -2.54,-2.0196 -5.37,-3.5274 -8.38,-4.5586 -3.01,-1.0118 -6.31,-1.5508 -9.88,-1.5508 -4.72,0 -9.14,1.0703 -13.15,3.1211 -4.02,2.1679 -7.51,5.1093 -10.46,8.9883 -2.94,3.8828 -5.17,8.4414 -6.71,13.7031 -1.54,5.2265 -2.28,10.8984 -2.28,17.0273 0,12.8828 3.02,22.9805 9.06,30.1918 6.05,7.211 13.98,10.808 23.83,10.808 5.69,0 10.51,-1.039 14.41,-3.117 3.91,-2.012 7.74,-5.152 11.45,-9.422 v 30.488 c 0,4.243 0.8,7.442 2.43,9.602 1.61,2.18 3.89,3.25 6.9,3.25 2.99,0 5.3,-1 6.94,-2.969 1.6,-1.98 2.44,-4.929 2.44,-8.812 V 42.4102 c 0,-3.9297 -0.88,-6.8907 -2.63,-8.8282 -1.75,-1.9922 -3.97,-2.9726 -6.75,-2.9726 -2.67,0 -4.94,1.0195 -6.71,3.0625 -1.74,2.0273 -2.62,4.9179 -2.62,8.7383"
         style="fill:#2e2825;fill-opacity:1;fill-rule:nonzero;stroke:none"
         id="path24" />
      <path
         d="m 2071.43,72.5391 c 0,8.3828 -1.81,14.9609 -5.33,19.6406 -3.56,4.6601 -8.34,7.0391 -14.32,7.0391 -3.88,0 -7.27,-1.0586 -10.22,-3.1485 -2.94,-2.1211 -5.21,-5.1992 -6.81,-9.289 -1.58,-4.0391 -2.39,-8.7813 -2.39,-14.2422 0,-5.3985 0.81,-10.0977 2.35,-14.1172 1.56,-4.043 3.82,-7.1211 6.76,-9.2735 2.91,-2.1367 6.38,-3.1992 10.31,-3.1992 5.98,0 10.76,2.3516 14.32,7.0508 3.52,4.6992 5.33,11.2383 5.33,19.5391 z m 19.84,0 c 0,-6.1172 -0.92,-11.8008 -2.75,-17.0274 -1.84,-5.1406 -4.49,-9.6133 -7.95,-13.3515 -3.5,-3.7383 -7.65,-6.5391 -12.48,-8.5782 -4.82,-1.9922 -10.3,-2.9726 -16.31,-2.9726 -5.97,0 -11.37,0.9804 -16.14,3.0312 -4.79,2 -8.95,4.8907 -12.45,8.6485 -3.49,3.7695 -6.13,8.1718 -7.97,13.2812 -1.81,5.1602 -2.71,10.7695 -2.71,17.0117 0,6.25 0.93,11.9571 2.75,17.1172 1.83,5.2305 4.45,9.6328 7.89,13.3398 3.44,3.68 7.58,6.512 12.49,8.492 4.89,2 10.24,3.008 16.14,3.008 6,0 11.44,-1.008 16.31,-3.039 4.86,-2 9.04,-4.898 12.52,-8.629 3.5,-3.7226 6.13,-8.1913 7.91,-13.3319 1.86,-5.1289 2.75,-10.7969 2.75,-17"
         style="fill:#2e2825;fill-opacity:1;fill-rule:nonzero;stroke:none"
         id="path26" />
      <path
         d="m 2174.81,89.5898 c -1.48,-3.4882 -2.19,-9.6484 -2.19,-18.5195 V 43.6406 c 0,-4.3203 -0.93,-7.6015 -2.83,-9.7812 -1.87,-2.1485 -4.39,-3.25 -7.48,-3.25 -2.97,0 -5.39,1.1015 -7.24,3.25 -1.86,2.1797 -2.77,5.4609 -2.77,9.7812 v 32.9297 c 0,5.1797 -0.2,9.1992 -0.54,12.1094 -0.34,2.8398 -1.25,5.2109 -2.75,7.0586 -1.47,1.8515 -3.85,2.7734 -7.07,2.7734 -6.47,0 -10.72,-2.3203 -12.79,-6.9922 -2.07,-4.6172 -3.05,-11.2773 -3.05,-19.9687 V 43.6406 c 0,-4.3086 -0.96,-7.5508 -2.79,-9.6992 -1.88,-2.2305 -4.33,-3.332 -7.34,-3.332 -3.02,0 -5.5,1.1015 -7.39,3.332 -1.92,2.1484 -2.83,5.3906 -2.83,9.6875 v 59.0701 c 0,3.903 0.82,6.852 2.52,8.86 1.73,2 3.99,3.043 6.81,3.043 2.7,0 4.96,-0.942 6.76,-2.84 1.81,-1.883 2.72,-4.481 2.72,-7.821 v -1.961 c 3.41,4.29 7.1,7.45 10.99,9.442 3.91,2.008 8.3,3.027 13.05,3.027 4.96,0 9.22,-1.039 12.79,-3.117 3.6,-2.051 6.53,-5.184 8.83,-9.352 3.34,4.2 6.91,7.372 10.74,9.399 3.82,2.051 8.04,3.07 12.66,3.07 5.45,0 10.1,-1.078 13.98,-3.34 3.93,-2.218 6.84,-5.379 8.78,-9.519 1.7,-3.7306 2.53,-9.6017 2.53,-17.6408 V 43.6406 c 0,-4.3203 -0.94,-7.6015 -2.79,-9.7812 -1.93,-2.1485 -4.39,-3.25 -7.48,-3.25 -3.01,0 -5.45,1.1015 -7.35,3.332 -1.93,2.1484 -2.89,5.3906 -2.89,9.6992 v 34.7383 c 0,4.4414 -0.17,7.9805 -0.52,10.6602 -0.38,2.7109 -1.35,4.9101 -2.96,6.7422 -1.59,1.8085 -4.02,2.7304 -7.22,2.7304 -2.61,0 -5.1,-0.8203 -7.4,-2.3906 -2.38,-1.6406 -4.16,-3.8125 -5.49,-6.5313 v 0"
         style="fill:#2e2825;fill-opacity:1;fill-rule:nonzero;stroke:none"
         id="path28" />
      <path
         d="m 2286.82,72.1484 c -2.91,-1.1367 -7.13,-2.2773 -12.65,-3.539 -5.54,-1.2305 -9.37,-2.1289 -11.5,-2.7188 -2.13,-0.6015 -4.16,-1.7187 -6.06,-3.3906 -1.96,-1.7383 -2.93,-4.0781 -2.93,-7.1094 0,-3.1601 1.15,-5.789 3.4,-7.9922 2.28,-2.2187 5.26,-3.289 8.93,-3.289 3.91,0 7.54,0.9101 10.83,2.6914 3.31,1.7812 5.76,4.1211 7.28,6.918 1.79,3.1328 2.7,8.2617 2.7,15.4921 z m 1.29,-29.9062 c -4.79,-3.8828 -9.41,-6.7813 -13.88,-8.7031 -4.45,-1.9688 -9.49,-2.9297 -15.02,-2.9297 -5.1,0 -9.52,1.0703 -13.38,3.1211 -3.87,2.1093 -6.8,4.9492 -8.89,8.5586 -2.05,3.582 -3.12,7.4218 -3.12,11.6211 0,5.6601 1.76,10.4492 5.18,14.4492 3.4,3.9492 8.1,6.6406 14.09,8 1.26,0.3125 4.4,0.9609 9.34,2.0195 5.03,1.0899 9.24,2.043 12.85,2.9219 3.51,0.8711 7.39,1.9375 11.54,3.1875 -0.25,5.4726 -1.3,9.4609 -3.14,12.0625 -1.89,2.5195 -5.76,3.7692 -11.58,3.7692 -5.04,0 -8.8,-0.7106 -11.37,-2.1794 -2.52,-1.4414 -4.71,-3.6601 -6.5,-6.6211 -1.83,-2.8984 -3.08,-4.8398 -3.83,-5.7578 -0.78,-0.9609 -2.39,-1.3828 -4.81,-1.3828 -2.26,0 -4.16,0.7305 -5.76,2.2031 -1.64,1.5 -2.44,3.3789 -2.44,5.7266 0,3.6211 1.23,7.1797 3.68,10.5624 2.47,3.449 6.32,6.258 11.52,8.508 5.22,2.223 11.73,3.32 19.51,3.32 8.68,0 15.52,-1.097 20.53,-3.23 4.96,-2.117 8.44,-5.489 10.51,-10.16 2.07,-4.6098 3.09,-10.7895 3.09,-18.4379 0,-4.8398 0,-8.9805 -0.03,-12.3398 -0.04,-3.3907 -0.06,-7.1407 -0.11,-11.2813 0,-3.8594 0.61,-7.918 1.85,-12.1094 1.21,-4.2109 1.82,-6.9414 1.82,-8.1211 0,-2.1289 -0.97,-4.0586 -2.86,-5.8007 -1.87,-1.7266 -4.05,-2.6094 -6.46,-2.6094 -2.06,0 -4.02,0.9804 -6.03,2.9726 -1.97,2 -4.07,4.8985 -6.3,8.6602"
         style="fill:#2e2825;fill-opacity:1;fill-rule:nonzero;stroke:none"
         id="path30" />
      <path
         d="M 2346.1,102.809 V 43.1797 c 0,-4.1602 -0.95,-7.2813 -2.8,-9.3984 -1.89,-2.0704 -4.26,-3.1719 -7.17,-3.1719 -2.89,0 -5.28,1.1015 -7.06,3.2422 -1.84,2.1875 -2.75,5.2773 -2.75,9.3281 v 59.0393 c 0,4.051 0.91,7.133 2.75,9.203 1.78,2.09 4.17,3.117 7.06,3.117 2.91,0 5.28,-1.027 7.17,-3.117 1.85,-2.07 2.8,-4.93 2.8,-8.613 z m -9.78,21.351 c -2.72,0 -5.07,0.879 -7.03,2.68 -1.95,1.762 -2.97,4.281 -2.97,7.512 0,2.91 1.03,5.296 3.04,7.218 1.98,1.891 4.34,2.782 6.96,2.782 2.57,0 4.87,-0.832 6.85,-2.532 1.95,-1.718 2.93,-4.238 2.93,-7.468 0,-3.204 -0.95,-5.68 -2.89,-7.45 -1.94,-1.793 -4.23,-2.742 -6.89,-2.742"
         style="fill:#2e2825;fill-opacity:1;fill-rule:nonzero;stroke:none"
         id="path32" />
      <path
         d="m 2384.54,103.109 v -2.457 c 3.45,4.77 7.25,8.278 11.35,10.52 4.14,2.238 8.89,3.367 14.28,3.367 5.19,0 9.87,-1.168 14,-3.578 4.07,-2.352 7.15,-5.68 9.16,-10 1.32,-2.5391 2.14,-5.2891 2.55,-8.1993 0.37,-2.9023 0.59,-6.6328 0.59,-11.1797 V 43.1797 c 0,-4.1602 -0.94,-7.2813 -2.73,-9.3984 -1.82,-2.0704 -4.18,-3.1719 -7.07,-3.1719 -2.93,0 -5.34,1.1015 -7.1,3.25 -1.87,2.1797 -2.81,5.2695 -2.81,9.3203 v 34.3789 c 0,6.8437 -0.88,12.0312 -2.68,15.6211 -1.85,3.6016 -5.47,5.4297 -10.88,5.4297 -3.52,0 -6.73,-1.0977 -9.62,-3.3086 -2.89,-2.1719 -5.02,-5.1992 -6.37,-9.0313 -0.96,-3.0781 -1.47,-8.8007 -1.47,-17.2695 V 43.1797 c 0,-4.1875 -0.91,-7.3399 -2.79,-9.4492 -1.86,-2.0508 -4.26,-3.1211 -7.19,-3.1211 -2.84,0 -5.2,1.1015 -7.02,3.2422 -1.87,2.1875 -2.77,5.2773 -2.77,9.3281 v 59.6293 c 0,3.953 0.81,6.863 2.48,8.812 1.6,1.938 3.91,2.918 6.74,2.918 1.71,0 3.3,-0.457 4.68,-1.289 1.44,-0.84 2.53,-2.168 3.38,-3.82 0.82,-1.758 1.29,-3.848 1.29,-6.321"
         style="fill:#2e2825;fill-opacity:1;fill-rule:nonzero;stroke:none"
         id="path34" />
      <path
         d="m 2468.21,101.699 15.97,-46.8787 17.25,48.9217 c 1.38,3.93 2.7,6.688 4.01,8.34 1.34,1.629 3.29,2.457 5.93,2.457 2.51,0 4.64,-0.879 6.45,-2.68 1.73,-1.75 2.61,-3.757 2.61,-6.129 0,-0.89 -0.17,-1.929 -0.48,-3.121 -0.29,-1.238 -0.65,-2.367 -1.08,-3.4488 -0.42,-1.0196 -0.85,-2.25 -1.41,-3.6016 l -18.98,-49.1484 c -0.54,-1.3907 -1.24,-3.211 -2.06,-5.3907 -0.86,-2.1484 -1.82,-3.9609 -2.83,-5.5586 -1.06,-1.5195 -2.33,-2.6796 -3.83,-3.5507 -1.55,-0.8594 -3.4,-1.3008 -5.58,-1.3008 -2.8,0 -5.01,0.6719 -6.7,1.9804 -1.67,1.3516 -2.9,2.8008 -3.7,4.4219 -0.78,1.5586 -2.14,4.7188 -4.01,9.3985 l -18.86,48.6211 c -0.43,1.1875 -0.9,2.4101 -1.36,3.6171 -0.44,1.211 -0.8,2.4106 -1.14,3.7036 -0.3,1.289 -0.48,2.359 -0.48,3.23 0,1.449 0.41,2.84 1.25,4.219 0.82,1.398 1.97,2.551 3.4,3.41 1.48,0.871 3.01,1.328 4.73,1.328 3.26,0 5.53,-0.98 6.77,-2.98 1.24,-1.95 2.62,-5.239 4.13,-9.86"
         style="fill:#2e2825;fill-opacity:1;fill-rule:nonzero;stroke:none"
         id="path36" />
      <path
         d="m 2549.11,79.2695 h 35.85 c -0.46,7.0391 -2.27,12.3203 -5.46,15.8125 -3.18,3.4766 -7.35,5.238 -12.52,5.238 -4.9,0 -8.96,-1.7809 -12.1,-5.32 -3.17,-3.5391 -5.06,-8.7891 -5.77,-15.7305 z m 38.69,-11.7382 h -38.69 c 0.01,-4.711 0.95,-8.8321 2.68,-12.4415 1.8,-3.539 4.12,-6.25 7.05,-8.0781 2.92,-1.832 6.16,-2.7109 9.69,-2.7109 2.35,0 4.54,0.289 6.47,0.8476 1.95,0.6133 3.86,1.5118 5.72,2.7305 1.8,1.2422 3.47,2.5313 5.04,3.9922 1.52,1.4102 3.59,3.2891 6.01,5.7187 1.03,0.961 2.48,1.379 4.35,1.379 2.06,0 3.68,-0.5469 4.94,-1.75 1.26,-1.1602 1.86,-2.7774 1.86,-4.8868 0,-1.8711 -0.69,-4.0507 -2.1,-6.5703 -1.39,-2.4609 -3.46,-4.8711 -6.34,-7.1914 -2.83,-2.2695 -6.38,-4.1484 -10.66,-5.6992 -4.24,-1.5117 -9.14,-2.2617 -14.74,-2.2617 -12.69,0 -22.58,3.8125 -29.6,11.332 -7.04,7.6094 -10.56,17.8281 -10.56,30.7578 0,6.1719 0.9,11.7891 2.6,16.9922 1.74,5.2383 4.26,9.6992 7.6,13.4176 3.34,3.75 7.42,6.633 12.31,8.602 4.9,2 10.28,2.988 16.25,2.988 7.68,0 14.33,-1.699 19.85,-5.117 5.55,-3.402 9.68,-7.773 12.44,-13.1523 2.75,-5.4297 4.13,-10.8984 4.13,-16.5313 0,-5.1562 -1.39,-8.5273 -4.27,-10.0468 -2.87,-1.5625 -6.86,-2.3203 -12.03,-2.3203"
         style="fill:#2e2825;fill-opacity:1;fill-rule:nonzero;stroke:none"
         id="path38" />
      <path
         d="m 2691.72,56.1797 c 0,-2.5586 -0.73,-5.3203 -2.23,-8.2383 -1.49,-2.9219 -3.68,-5.6992 -6.73,-8.3516 -3.01,-2.6406 -6.85,-4.7695 -11.45,-6.371 -4.56,-1.6485 -9.75,-2.4375 -15.46,-2.4375 -12.25,0 -21.79,3.7304 -28.64,11.1484 -6.83,7.4414 -10.29,17.3789 -10.29,29.8906 0,8.4688 1.56,15.9805 4.73,22.461 3.14,6.4687 7.64,11.5387 13.6,15.0707 5.92,3.578 13.05,5.347 21.32,5.347 5.11,0 9.79,-0.801 14.1,-2.34 4.27,-1.57 7.86,-3.597 10.87,-6.039 2.97,-2.488 5.21,-5.121 6.8,-7.8981 1.56,-2.8008 2.35,-5.4219 2.35,-7.8399 0,-2.4414 -0.86,-4.5312 -2.69,-6.2617 -1.74,-1.7305 -3.86,-2.5703 -6.37,-2.5703 -1.65,0 -3.01,0.4688 -4.08,1.3516 -1.11,0.8476 -2.32,2.2382 -3.69,4.25 -2.41,3.8203 -4.92,6.707 -7.56,8.6601 -2.63,1.8985 -5.97,2.8789 -10.05,2.8789 -5.81,0 -10.53,-2.4218 -14.1,-7.1718 -3.6,-4.7969 -5.38,-11.2969 -5.38,-19.5704 0,-3.8593 0.49,-7.4765 1.37,-10.707 0.93,-3.2617 2.27,-6.0195 4.01,-8.332 1.73,-2.2891 3.85,-4.0196 6.31,-5.1992 2.42,-1.211 5.14,-1.7891 8.11,-1.7891 3.95,0 7.36,0.9375 10.18,2.8594 2.82,1.9414 5.33,4.8593 7.51,8.75 1.21,2.3711 2.49,4.1718 3.91,5.5 1.39,1.3203 3.08,1.9414 5.15,1.9414 2.38,0 4.42,-0.9336 5.95,-2.8516 1.63,-1.9492 2.45,-3.9687 2.45,-6.1406"
         style="fill:#2e2825;fill-opacity:1;fill-rule:nonzero;stroke:none"
         id="path40" />
      <path
         d="m 2710.08,112.801 h 2.18 v 12.41 c 0,3.301 0.09,5.937 0.26,7.809 0.17,1.902 0.61,3.492 1.42,4.878 0.75,1.383 1.87,2.551 3.34,3.442 1.44,0.859 3.05,1.281 4.83,1.281 2.5,0 4.79,-0.961 6.8,-2.922 1.33,-1.32 2.21,-2.91 2.57,-4.777 0.37,-1.902 0.54,-4.613 0.54,-8.082 v -14.039 h 7.26 c 2.8,0 4.95,-0.699 6.42,-2.09 1.5,-1.391 2.22,-3.141 2.22,-5.32 0,-2.782 -1.05,-4.739 -3.18,-5.8324 -2.09,-1.0898 -5.1,-1.6484 -9.01,-1.6484 h -3.71 V 59.8906 c 0,-3.2304 0.11,-5.7187 0.32,-7.4804 0.25,-1.75 0.87,-3.1602 1.79,-4.2188 0.9,-1.082 2.45,-1.6523 4.59,-1.6523 1.15,0 2.71,0.2109 4.71,0.6523 1.94,0.418 3.49,0.6406 4.62,0.6406 1.58,0 3.07,-0.6914 4.33,-1.9609 1.25,-1.3828 1.9,-3 1.9,-4.9805 0,-3.3086 -1.7,-5.8593 -5.2,-7.6289 -3.52,-1.7695 -8.5,-2.6523 -14.99,-2.6523 -6.19,0 -10.89,1.1015 -14.08,3.25 -3.17,2.1797 -5.29,5.1601 -6.25,9.039 -1.01,3.8321 -1.5,8.9336 -1.5,15.3399 v 39.6719 h -2.63 c -2.8,0 -4.98,0.6992 -6.49,2.1288 -1.5,1.402 -2.24,3.172 -2.24,5.352 0,2.179 0.77,3.929 2.33,5.32 1.59,1.391 3.85,2.09 6.85,2.09"
         style="fill:#2e2825;fill-opacity:1;fill-rule:nonzero;stroke:none"
         id="path42" />
      <path
         d="m 2815.69,72.5391 c 0,8.3828 -1.8,14.9609 -5.32,19.6406 -3.59,4.6601 -8.31,7.0391 -14.32,7.0391 -3.88,0 -7.28,-1.0586 -10.21,-3.1485 -2.96,-2.1211 -5.23,-5.1992 -6.81,-9.289 -1.59,-4.0391 -2.4,-8.7813 -2.4,-14.2422 0,-5.3985 0.81,-10.0977 2.37,-14.1172 1.56,-4.043 3.8,-7.1211 6.72,-9.2735 2.91,-2.1367 6.36,-3.1992 10.33,-3.1992 6.01,0 10.73,2.3516 14.32,7.0508 3.52,4.6992 5.32,11.2383 5.32,19.5391 z m 19.85,0 c 0,-6.1172 -0.91,-11.8008 -2.77,-17.0274 -1.82,-5.1406 -4.49,-9.6133 -7.95,-13.3515 -3.49,-3.7383 -7.65,-6.5391 -12.46,-8.5782 -4.85,-1.9922 -10.25,-2.9726 -16.31,-2.9726 -6.02,0 -11.41,0.9804 -16.17,3.0312 -4.77,2 -8.93,4.8907 -12.42,8.6485 -3.49,3.7695 -6.16,8.1718 -7.94,13.2812 -1.81,5.1602 -2.7,10.7695 -2.7,17.0117 0,6.25 0.89,11.9571 2.7,17.1172 1.87,5.2305 4.47,9.6328 7.9,13.3398 3.45,3.68 7.59,6.512 12.46,8.492 4.93,2 10.3,3.008 16.17,3.008 6.01,0 11.41,-1.008 16.31,-3.039 4.87,-2 9.03,-4.898 12.52,-8.629 3.45,-3.7226 6.14,-8.1913 7.95,-13.3319 1.8,-5.1289 2.71,-10.7969 2.71,-17"
         style="fill:#2e2825;fill-opacity:1;fill-rule:nonzero;stroke:none"
         id="path44" />
      <path
         d="M 2870.78,60.3711 V 43.1797 c 0,-4.1875 -0.95,-7.3399 -2.84,-9.4492 -1.89,-2.0508 -4.27,-3.1211 -7.19,-3.1211 -2.82,0 -5.19,1.1015 -7,3.1719 -1.84,2.1171 -2.74,5.2382 -2.74,9.3984 v 57.4493 c 0,9.293 3.19,13.91 9.62,13.91 3.25,0 5.63,-1.109 7.11,-3.238 1.43,-2.172 2.19,-5.379 2.38,-9.602 2.36,4.223 4.81,7.43 7.3,9.602 2.49,2.129 5.79,3.238 9.92,3.238 4.19,0 8.2,-1.109 12.14,-3.238 3.88,-2.172 5.87,-5.059 5.87,-8.629 0,-2.524 -0.86,-4.6329 -2.52,-6.2423 -1.65,-1.6289 -3.46,-2.4805 -5.41,-2.4805 -0.72,0 -2.47,0.4805 -5.25,1.4414 -2.79,0.918 -5.24,1.3907 -7.38,1.3907 -2.87,0 -5.23,-0.7696 -7.05,-2.3907 -1.85,-1.6093 -3.28,-3.9297 -4.29,-7.0508 -1.01,-3.1601 -1.75,-6.8593 -2.11,-11.1992 -0.37,-4.2812 -0.56,-9.5195 -0.56,-15.7695"
         style="fill:#2e2825;fill-opacity:1;fill-rule:nonzero;stroke:none"
         id="path46" />
      <path
         d="m 2976.13,57.582 c 0,-5.7109 -1.33,-10.5703 -4.02,-14.6328 -2.66,-4.0781 -6.58,-7.1094 -11.77,-9.2304 -5.22,-2.0391 -11.51,-3.1094 -18.99,-3.1094 -7.04,0 -13.16,1.1406 -18.25,3.4219 -5.07,2.2695 -8.82,5.0781 -11.21,8.4804 -2.44,3.3867 -3.68,6.7969 -3.68,10.2071 0,2.2734 0.79,4.2226 2.37,5.832 1.53,1.6406 3.51,2.4101 5.84,2.4101 2.09,0 3.7,-0.5312 4.81,-1.5586 1.11,-1.121 2.14,-2.582 3.19,-4.4921 2.02,-3.6914 4.43,-6.4414 7.3,-8.25 2.79,-1.8399 6.64,-2.7383 11.57,-2.7383 3.93,0 7.18,0.9297 9.73,2.7773 2.52,1.8321 3.83,3.9297 3.83,6.3008 0,3.6602 -1.34,6.3086 -3.94,7.9492 -2.68,1.6992 -6.99,3.2891 -13.03,4.7891 -6.81,1.7734 -12.37,3.6211 -16.64,5.5508 -4.28,1.9492 -7.74,4.5312 -10.28,7.7031 -2.55,3.1289 -3.85,7.0586 -3.85,11.6992 0,4.1602 1.19,8.0703 3.56,11.7186 2.35,3.692 5.89,6.621 10.49,8.82 4.61,2.2 10.17,3.309 16.72,3.309 5.1,0 9.7,-0.57 13.8,-1.668 4.07,-1.109 7.53,-2.609 10.21,-4.449 2.73,-1.883 4.83,-3.942 6.24,-6.203 1.45,-2.2893 2.15,-4.5081 2.15,-6.6604 0,-2.3789 -0.74,-4.2695 -2.29,-5.8594 -1.54,-1.4375 -3.72,-2.207 -6.47,-2.207 -2.06,0 -3.78,0.5898 -5.22,1.8281 -1.4,1.1914 -3.06,2.9883 -4.88,5.3789 -1.5,2.0313 -3.25,3.6602 -5.3,4.8594 -2.03,1.1914 -4.79,1.8124 -8.24,1.8124 -3.59,0 -6.58,-0.781 -8.91,-2.3905 -2.38,-1.5703 -3.57,-3.5586 -3.57,-5.9414 0,-2.168 0.88,-3.9375 2.59,-5.3282 1.76,-1.3789 4.09,-2.539 7.05,-3.4492 2.96,-0.9023 7.01,-2.0429 12.18,-3.3398 6.15,-1.5508 11.15,-3.4024 15.04,-5.5821 3.89,-2.1484 6.83,-4.7187 8.83,-7.6679 2.04,-2.9805 3.04,-6.3399 3.04,-10.0899"
         style="fill:#2e2825;fill-opacity:1;fill-rule:nonzero;stroke:none"
         id="path48" />
      <path
         d="m 2998.59,30.6094 c -3,0 -5.59,0.9804 -7.74,3.0312 -2.2,2 -3.28,4.8399 -3.28,8.4414 0,3.0664 1.02,5.7188 3.08,7.9493 2.08,2.1992 4.66,3.289 7.7,3.289 3.03,0 5.64,-1.0898 7.74,-3.2812 2.18,-2.1602 3.26,-4.8594 3.26,-7.9571 0,-3.5703 -1.08,-6.3828 -3.26,-8.4101 -2.1,-2.043 -4.61,-3.0625 -7.5,-3.0625"
         style="fill:#2e2825;fill-opacity:1;fill-rule:nonzero;stroke:none"
         id="path50" />
      <path
         d="m 3086.05,72.5391 c 0,8.3828 -1.79,14.9609 -5.33,19.6406 -3.56,4.6601 -8.31,7.0391 -14.29,7.0391 -3.88,0 -7.25,-1.0586 -10.2,-3.1485 -2.96,-2.1211 -5.23,-5.1992 -6.81,-9.289 -1.57,-4.0391 -2.38,-8.7813 -2.38,-14.2422 0,-5.3985 0.76,-10.0977 2.32,-14.1172 1.61,-4.043 3.84,-7.1211 6.77,-9.2735 2.91,-2.1367 6.34,-3.1992 10.3,-3.1992 5.98,0 10.73,2.3516 14.29,7.0508 3.54,4.6992 5.33,11.2383 5.33,19.5391 z m 19.87,0 c 0,-6.1172 -0.91,-11.8008 -2.77,-17.0274 -1.85,-5.1406 -4.47,-9.6133 -7.96,-13.3515 -3.51,-3.7383 -7.61,-6.5391 -12.46,-8.5782 -4.81,-1.9922 -10.24,-2.9726 -16.3,-2.9726 -5.99,0 -11.37,0.9804 -16.15,3.0312 -4.79,2 -8.91,4.8907 -12.4,8.6485 -3.56,3.7695 -6.2,8.1718 -8.03,13.2812 -1.77,5.1602 -2.68,10.7695 -2.68,17.0117 0,6.25 0.91,11.9571 2.76,17.1172 1.86,5.2305 4.45,9.6328 7.87,13.3398 3.43,3.68 7.59,6.512 12.48,8.492 4.87,2 10.22,3.008 16.15,3.008 5.98,0 11.42,-1.008 16.3,-3.039 4.9,-2 9.06,-4.898 12.55,-8.629 3.46,-3.7226 6.09,-8.1913 7.93,-13.3319 1.8,-5.1289 2.71,-10.7969 2.71,-17"
         style="fill:#2e2825;fill-opacity:1;fill-rule:nonzero;stroke:none"
         id="path52" />
      <path
         d="M 3141.15,60.3711 V 43.1797 c 0,-4.1875 -0.94,-7.3399 -2.82,-9.4492 -1.86,-2.0508 -4.28,-3.1211 -7.15,-3.1211 -2.89,0 -5.21,1.1015 -7.05,3.1719 -1.86,2.1171 -2.77,5.2382 -2.77,9.3984 v 57.4493 c 0,9.293 3.25,13.91 9.65,13.91 3.29,0 5.64,-1.109 7.08,-3.238 1.43,-2.172 2.28,-5.379 2.44,-9.602 2.33,4.223 4.75,7.43 7.24,9.602 2.49,2.129 5.82,3.238 9.94,3.238 4.22,0 8.25,-1.109 12.12,-3.238 3.92,-2.172 5.89,-5.059 5.89,-8.629 0,-2.524 -0.84,-4.6329 -2.49,-6.2423 -1.69,-1.6289 -3.46,-2.4805 -5.43,-2.4805 -0.71,0 -2.44,0.4805 -5.22,1.4414 -2.79,0.918 -5.24,1.3907 -7.39,1.3907 -2.88,0 -5.22,-0.7696 -7.11,-2.3907 -1.81,-1.6093 -3.24,-3.9297 -4.27,-7.0508 -0.98,-3.1601 -1.7,-6.8593 -2.07,-11.1992 -0.39,-4.2812 -0.59,-9.5195 -0.59,-15.7695"
         style="fill:#2e2825;fill-opacity:1;fill-rule:nonzero;stroke:none"
         id="path54" />
      <path
         d="m 3198.26,73.25 c 0,-8.3516 1.75,-14.6914 5.27,-19 3.48,-4.25 8.04,-6.418 13.55,-6.418 3.27,0 6.41,0.9571 9.32,2.7891 2.93,1.8477 5.3,4.6094 7.15,8.3203 1.86,3.707 2.74,8.1992 2.74,13.4805 0,8.4179 -1.78,14.957 -5.33,19.6367 -3.53,4.7227 -8.21,7.0898 -14,7.0898 -5.64,0 -10.18,-2.3086 -13.57,-6.7578 -3.42,-4.5 -5.13,-10.8711 -5.13,-19.1406 z m 57.33,26.1797 V 39.4414 c 0,-6.8711 -0.75,-12.7617 -2.12,-17.6797 -1.4,-4.9726 -3.65,-9.0508 -6.74,-12.27342 -3.08,-3.20703 -7.15,-5.60937 -12.12,-7.16797 C 3229.6,0.789063 3223.37,0 3215.95,0 c -6.82,0 -12.93,0.949219 -18.26,2.94922 -5.37,2.04297 -9.51,4.58203 -12.4,7.74998 -2.89,3.1211 -4.36,6.3711 -4.36,9.7227 0,2.5195 0.8,4.5586 2.49,6.1367 1.62,1.6328 3.61,2.4102 5.92,2.4102 2.91,0 5.41,-1.3477 7.63,-4 1.06,-1.4102 2.18,-2.7696 3.28,-4.129 1.13,-1.3984 2.39,-2.6093 3.76,-3.5703 1.39,-1.0078 3.07,-1.7304 4.99,-2.2109 1.89,-0.4766 4.15,-0.7266 6.67,-0.7266 5.08,0 9.1,0.7578 11.9,2.2383 2.84,1.4805 4.82,3.5586 5.97,6.2305 1.08,2.6797 1.81,5.5195 1.92,8.5703 0.24,3.1094 0.37,7.9609 0.51,14.75 -3.05,-4.4219 -6.61,-7.8125 -10.55,-10.1289 -3.99,-2.3203 -8.75,-3.4531 -14.21,-3.4531 -6.68,0 -12.46,1.7226 -17.39,5.2812 -4.97,3.5195 -8.78,8.4492 -11.42,14.8203 -2.63,6.3282 -3.99,13.668 -3.99,22 0,6.2305 0.79,11.8282 2.44,16.8203 1.59,4.9688 3.88,9.1911 6.93,12.6211 2.96,3.43 6.43,6.008 10.34,7.758 3.94,1.719 8.18,2.609 12.91,2.609 5.58,0 10.43,-1.14 14.53,-3.398 4.16,-2.211 7.93,-5.77 11.47,-10.539 v 2.777 c 0,3.602 0.88,6.352 2.54,8.383 1.68,1.93 3.86,2.93 6.51,2.93 3.83,0 6.36,-1.293 7.63,-3.891 1.24,-2.609 1.88,-6.379 1.88,-11.2813"
         style="fill:#2e2825;fill-opacity:1;fill-rule:nonzero;stroke:none"
         id="path56" />
      <path
         d="m 2398.33,300.43 h 29.33 c -2.07,-15.809 -8.55,-28.16 -19.33,-37.039 -9.98,-8.711 -22.06,-13 -36.17,-13 -19.16,0 -34.45,6.738 -45.87,20.16 -10.82,12.781 -16.22,29.281 -16.22,49.429 0,20.649 5.36,37.161 16.07,49.668 10.69,12.442 25.82,18.704 45.37,18.704 14.54,0 26.84,-3.942 36.82,-11.743 10.58,-8.437 17.05,-20.289 19.33,-35.468 h -29.33 c -2.54,13.238 -10.62,19.82 -24.38,19.82 -22.68,0 -34.03,-13.422 -34.03,-40.301 0,-12.601 2.92,-22.871 8.75,-30.89 5.83,-8.032 14.05,-12.059 24.66,-12.059 15.81,0 24.15,7.59 25,22.719 z m -115.49,18.511 c 0,-26.261 8.33,-48.48 24.95,-66.589 16.65,-18.102 37.02,-27.172 61.2,-27.172 24.07,0 44.46,9.07 61.08,27.172 16.67,18.109 24.94,40.328 24.94,66.589 0,26.239 -8.27,48.45 -24.94,66.559 -16.62,18.148 -37.01,27.191 -61.08,27.191 -24.18,0 -44.55,-9.043 -61.2,-27.191 -16.62,-18.109 -24.95,-40.32 -24.95,-66.559 z m -29.81,0 c 0,33.411 11.31,61.93 33.94,85.618 22.65,23.652 50,35.48 82.02,35.48 31.94,0 59.25,-11.828 81.92,-35.48 22.65,-23.688 33.99,-52.207 33.99,-85.618 0,-33.441 -11.34,-61.992 -33.99,-85.632 -22.67,-23.668 -49.98,-35.508 -81.92,-35.508 -32.02,0 -59.37,11.84 -82.02,35.508 -22.63,23.64 -33.94,52.191 -33.94,85.632"
         style="fill:#2e2825;fill-opacity:1;fill-rule:nonzero;stroke:none"
         id="path58" />
      <path
         d="m 2299.95,243 16.91,-14.352 124.34,159.672 -16.91,14.321 L 2299.95,243"
         style="fill:#2e2825;fill-opacity:1;fill-rule:nonzero;stroke:none"
         id="path60" />
      <path
         d="m 1941.63,2637.03 c 201.14,0 365.18,33.27 365.18,74.07 0,40.8 -164.04,74.08 -365.18,74.08 -201.13,0 -365.19,-33.28 -365.19,-74.08 0,-40.8 164.06,-74.07 365.19,-74.07"
         style="fill:#463c3b;fill-opacity:1;fill-rule:evenodd;stroke:none"
         id="path62" />
      <path
         d="m 1683.21,2737.23 h 439.46 v 412.44 h -439.46 v -412.44"
         style="fill:#463c3b;fill-opacity:1;fill-rule:evenodd;stroke:none"
         id="path64" />
      <path
         d="m 4405.2,4487.11 81.19,112.78 -1.17,98.7 c -0.81,69.21 52.97,126.82 122.09,130.75 l 102.21,72.43 c 15.45,10.94 36.4,9.78 50.54,-2.8 14.15,-12.58 17.77,-33.25 8.7,-49.88 l 60.51,-115.25 c 17.4,-33.13 9.35,-73.92 -19.36,-97.95 l -163.97,-106.06 -76.63,-139.49 -164.11,96.77"
         style="fill:#f28f61;fill-opacity:1;fill-rule:evenodd;stroke:none"
         id="path66" />
      <path
         d="m 2538.15,4491.96 -99.03,97.48 -15.48,97.49 c -10.86,68.36 -73.58,116.09 -142.36,108.32 l -112.97,54.16 c -17.07,8.18 -37.53,3.51 -49.35,-11.27 -11.83,-14.78 -11.9,-35.77 -0.17,-50.63 l -40.23,-123.79 c -11.57,-35.6 3.26,-74.44 35.59,-93.3 l 179.51,-76.92 99.02,-124.59 145.47,123.05"
         style="fill:#f28f61;fill-opacity:1;fill-rule:evenodd;stroke:none"
         id="path68" />
      <path
         d="m 1991.04,845.469 11.71,-54.91 c 10.45,-49.059 0.99,-100.27 -26.31,-142.36 h -289.37 l 64.99,68.11 238.98,129.16"
         style="fill:#ab6c21;fill-opacity:1;fill-rule:evenodd;stroke:none"
         id="path70" />
      <path
         d="m 1246.64,3785.56 h 1217.75 c 22.15,0 44.03,-18.1 48.68,-40.24 l 175.18,-834.05 c 4.65,-22.13 -9.65,-40.23 -31.79,-40.23 H 1438.71 c -22.13,0 -44.04,18.1 -48.68,40.23 l -175.18,834.05 c -4.64,22.14 9.66,40.24 31.79,40.24"
         style="fill:#b2a29e;fill-opacity:1;fill-rule:evenodd;stroke:none"
         id="path72" />
      <path
         d="m 2342.58,540.641 c 1290.24,0 2342.57,29.879 2342.57,66.539 0,36.652 -1052.33,66.531 -2342.57,66.531 C 1052.33,673.711 0,643.832 0,607.18 0,570.52 1052.33,540.641 2342.58,540.641"
         style="fill:#ab6c21;fill-opacity:1;fill-rule:evenodd;stroke:none"
         id="path74" />
      <path
         d="m 2923.68,607.18 h 1279.2 V 2604.16 H 2923.68 V 607.18"
         style="fill:#ab6c21;fill-opacity:1;fill-rule:evenodd;stroke:none"
         id="path76" />
      <path
         d="m 4150.27,607.172 h 105.22 V 2604.16 H 4150.27 V 607.172"
         style="fill:#ab6c21;fill-opacity:1;fill-rule:evenodd;stroke:none"
         id="path78" />
      <path
         d="M 352.914,2604.16 H 4388.97 v 133.07 H 352.914 v -133.07"
         style="fill:#f7af58;fill-opacity:1;fill-rule:evenodd;stroke:none"
         id="path80" />
      <path
         d="m 4146.61,4161.44 318.85,441.25 165.88,-117.93 -286.65,-706.96 -198.08,383.64"
         style="fill:#fcd1d6;fill-opacity:1;fill-rule:evenodd;stroke:none"
         id="path82" />
      <path
         d="m 2736.55,2350.58 -260.78,-176.79 c -24.58,-16.64 -37.71,-48.97 -35.59,-87.64 l 65.28,-1199.181 -148.58,-170.66 238.98,129.16 185.68,581.131 c 16.32,51.07 15.63,112.81 -1.93,175.27 L 2666.09,1952.4 H 2805 l -68.45,398.18"
         style="fill:#d64420;fill-opacity:1;fill-rule:evenodd;stroke:none"
         id="path84" />
      <path
         d="m 2493.54,2350.58 -303.29,-176.79 c -28.57,-16.64 -49.45,-48.97 -56.63,-87.64 l -223,-1199.181 -179.8,-182.149 260.22,140.649 325.36,581.131 c 28.6,51.07 42.78,112.81 40.22,175.27 l -29.25,350.53 h 138.93 l 27.24,398.18"
         style="fill:#f3652f;fill-opacity:1;fill-rule:evenodd;stroke:none"
         id="path86" />
      <path
         d="m 3140.79,2632.73 -597.72,-251.39 c -67.64,-28.43 -118.54,-99.43 -134.26,-187.16 -15.7,-87.72 6.1,-179.42 57.49,-241.78 h 1089.44 c 259.88,0 309.69,234.92 108.07,646.28 l -523.02,34.05"
         style="fill:#6398d7;fill-opacity:1;fill-rule:evenodd;stroke:none"
         id="path88" />
      <path
         d="m 2481.59,4570.42 864.09,-897.63 c 134.4,-4.57 197.8,-24.52 350.68,-111.62 l 413.1,-263.06 -445.65,-699.43 -523.02,34.05 86.65,343.52 c -104.01,84.58 -89.84,216.67 -27.86,309.47 l -863.44,1132.71 145.45,151.99"
         style="fill:#fcd1d6;fill-opacity:1;fill-rule:evenodd;stroke:none"
         id="path90" />
      <path
         d="m 3628.33,4368.91 c 117.93,0 198.29,-132.32 179.44,-295.55 -18.83,-163.23 -129.7,-295.56 -247.64,-295.56 -117.93,0 -198.27,132.33 -179.44,295.56 18.84,163.23 129.71,295.55 247.64,295.55"
         style="fill:#f28f61;fill-opacity:1;fill-rule:evenodd;stroke:none"
         id="path92" />
      <path
         d="m 3618.91,4040.73 -97.06,72.5 c -87.57,65.39 -123.46,179.48 -89.07,283.22 34.37,103.73 131.31,173.82 240.58,173.97 234.2,0.33 457.58,-98.54 614.81,-272.1 157.22,-173.57 233.59,-405.6 210.18,-638.62 -21.7,-216.16 -179.74,-393.96 -391.86,-440.87 -212.12,-46.91 -430.39,47.65 -541.24,234.5 -110.83,186.85 -89.19,423.74 53.66,587.4"
         style="fill:#2e2825;fill-opacity:1;fill-rule:evenodd;stroke:none"
         id="path94" />
      <path
         d="m 3823.46,3206.93 v 0 c 201.17,0 324.87,-164.59 274.91,-365.76 l -75.59,-304.4 c -21.14,-85.09 -108.07,-154.74 -193.17,-154.74 h -422.03 c -85.11,0 -137.44,69.65 -116.32,154.74 l 75.6,304.4 c 49.97,201.17 255.43,365.76 456.6,365.76"
         style="fill:#f1444b;fill-opacity:1;fill-rule:evenodd;stroke:none"
         id="path96" />
      <path
         d="m 3910.11,3149.67 h 0.01 c 201.16,0 324.88,-164.59 274.91,-365.75 l -75.59,-304.41 c -21.14,-85.1 -108.07,-154.73 -193.19,-154.73 h -422.02 c -85.1,0 -137.45,69.63 -116.31,154.73 l 75.6,304.41 c 49.96,201.16 255.43,365.75 456.59,365.75"
         style="fill:#463c3b;fill-opacity:1;fill-rule:evenodd;stroke:none"
         id="path98" />
      <path
         d="m 2973.7,1821.89 h 836.82 V 1952.4 H 2973.7 v -130.51"
         style="fill:#463c3b;fill-opacity:1;fill-rule:evenodd;stroke:none"
         id="path100" />
      <path
         d="m 3938.37,2659.03 h 0.02 c 82.97,0 131.89,-67.9 108.68,-150.87 l -171.35,-612.79 c -23.22,-82.97 -110.09,-150.86 -193.07,-150.86 v 0 c -82.98,0 -131.88,67.89 -108.69,150.86 l 171.37,612.79 c 23.19,82.97 110.07,150.87 193.04,150.87"
         style="fill:#2e2825;fill-opacity:1;fill-rule:evenodd;stroke:none"
         id="path102" />
      <path
         d="m 3255.18,1691.34 h 273.86 v 130.55 h -273.86 v -130.55"
         style="fill:#2e2825;fill-opacity:1;fill-rule:evenodd;stroke:none"
         id="path104" />
      <path
         d="m 3319.38,1379.31 h 145.46 v 312.03 h -145.46 v -312.03"
         style="fill:#d7c9c4;fill-opacity:1;fill-rule:evenodd;stroke:none"
         id="path106" />
      <path
         d="m 3278.54,1006.4 h 227.13 v 406.96 H 3278.54 V 1006.4"
         style="fill:#2e2825;fill-opacity:1;fill-rule:evenodd;stroke:none"
         id="path108" />
      <path
         d="M 3319.38,1093.06 2692.07,771.191 2740.03,704.672 3332.7,830 V 687.629 h 118.82 V 830 l 592.65,-125.328 47.97,66.519 -627.3,321.869 -72.74,-21.68 -72.72,21.68"
         style="fill:#2e2825;fill-opacity:1;fill-rule:evenodd;stroke:none"
         id="path110" />
      <path
         d="m 2743.63,740.23 c 36.75,0 72.66,-29.781 80.21,-66.519 7.55,-36.742 -16.11,-66.531 -52.85,-66.531 -36.76,0 -72.67,29.789 -80.22,66.531 -7.55,36.738 16.12,66.519 52.86,66.519"
         style="fill:#2e2825;fill-opacity:1;fill-rule:evenodd;stroke:none"
         id="path112" />
      <path
         d="m 2811.57,740.23 c 36.75,0 72.66,-29.781 80.22,-66.519 7.56,-36.742 -16.11,-66.531 -52.87,-66.531 -36.74,0 -72.65,29.789 -80.2,66.531 -7.56,36.738 16.11,66.519 52.85,66.519"
         style="fill:#2e2825;fill-opacity:1;fill-rule:evenodd;stroke:none"
         id="path114" />
      <path
         d="m 3983.1,740.23 c 36.75,0 72.67,-29.781 80.23,-66.519 7.54,-36.742 -16.13,-66.531 -52.87,-66.531 -36.75,0 -72.66,29.789 -80.22,66.531 -7.55,36.738 16.12,66.519 52.86,66.519"
         style="fill:#2e2825;fill-opacity:1;fill-rule:evenodd;stroke:none"
         id="path116" />
      <path
         d="m 4051.04,740.23 c 36.76,0 72.67,-29.781 80.22,-66.519 7.56,-36.742 -16.11,-66.531 -52.86,-66.531 -36.74,0 -72.65,29.789 -80.21,66.531 -7.56,36.738 16.11,66.519 52.85,66.519"
         style="fill:#2e2825;fill-opacity:1;fill-rule:evenodd;stroke:none"
         id="path118" />
      <path
         d="m 3379.51,740.23 c 36.74,0 72.66,-29.781 80.21,-66.519 7.56,-36.742 -16.11,-66.531 -52.86,-66.531 -36.75,0 -72.66,29.789 -80.21,66.531 -7.56,36.738 16.12,66.519 52.86,66.519"
         style="fill:#2e2825;fill-opacity:1;fill-rule:evenodd;stroke:none"
         id="path120" />
      <path
         d="m 3447.45,740.23 c 36.75,0 72.66,-29.781 80.22,-66.519 7.56,-36.742 -16.11,-66.531 -52.87,-66.531 -36.74,0 -72.65,29.789 -80.21,66.531 -7.55,36.738 16.12,66.519 52.86,66.519"
         style="fill:#2e2825;fill-opacity:1;fill-rule:evenodd;stroke:none"
         id="path122" />
      <path
         d="M 432.871,607.18 H 1712.08 V 2604.16 H 432.871 V 607.18"
         style="fill:#da8a37;fill-opacity:1;fill-rule:evenodd;stroke:none"
         id="path124" />
      <path
         d="M 1659.47,607.172 H 1764.7 V 2604.16 H 1659.47 V 607.172"
         style="fill:#e1a04a;fill-opacity:1;fill-rule:evenodd;stroke:none"
         id="path126" />
      <path
         d="m 1283.77,3814.95 h 1217.75 c 22.15,0 44.03,-18.09 48.69,-40.23 l 175.17,-834.05 c 4.64,-22.13 -9.64,-40.23 -31.78,-40.23 H 1475.83 c -22.12,0 -44.03,18.1 -48.67,40.23 l -175.17,834.05 c -4.65,22.14 9.65,40.23 31.78,40.23"
         style="fill:#463c3b;fill-opacity:1;fill-rule:evenodd;stroke:none"
         id="path128" />
      <path
         d="m 1313.01,3758.57 h 1182.97 l 168.39,-801.74 H 1481.38 l -168.37,801.74"
         style="fill:#adda1a;fill-opacity:1;fill-rule:evenodd;stroke:none"
         id="path130" />
      <path
         d="m 2595.86,845.469 11.7,-54.91 c 10.47,-49.059 1.01,-100.27 -26.3,-142.36 H 2291.9 l 64.98,68.11 238.98,129.16"
         style="fill:#ab6c21;fill-opacity:1;fill-rule:evenodd;stroke:none"
         id="path132" />
      <path
         d="m 1512.98,3304.11 c -2.9,2.79 -2.99,7.41 -0.19,10.31 2.79,2.9 7.41,2.99 10.31,0.2 l 158.72,-153.46 168.16,268.12 187.92,-118.03 82.43,102.78 122.1,-47.4 155.26,239.16 c 2.2,3.37 6.72,4.33 10.09,2.14 3.37,-2.19 4.33,-6.71 2.14,-10.08 l -161.71,-249.09 -123.19,47.81 -83.89,-104.58 -186.55,117.19 -169.98,-271 -171.62,165.93"
         style="fill:#eff7c2;fill-opacity:1;fill-rule:evenodd;stroke:none"
         id="path134" />
      <path
         d="m 1846.05,3454.82 c 19.64,0 38.37,-15.94 41.82,-35.59 3.44,-19.66 -9.7,-35.59 -29.36,-35.59 -19.65,0 -38.38,15.93 -41.82,35.59 -3.45,19.65 9.7,35.59 29.36,35.59 z m 187.23,-117.61 c 19.65,0 38.38,-15.93 41.82,-35.59 3.44,-19.66 -9.69,-35.59 -29.35,-35.59 -19.65,0 -38.38,15.93 -41.82,35.59 -3.45,19.66 9.69,35.59 29.35,35.59 z m 83.16,103.68 c 19.65,0 38.38,-15.93 41.82,-35.59 3.45,-19.65 -9.71,-35.59 -29.36,-35.59 -19.65,0 -38.37,15.94 -41.82,35.59 -3.44,19.66 9.7,35.59 29.36,35.59 z m 122.64,-47.61 c 19.66,0 38.39,-15.93 41.82,-35.58 3.46,-19.66 -9.68,-35.59 -29.34,-35.59 -19.66,0 -38.39,15.93 -41.82,35.59 -3.46,19.65 9.68,35.58 29.34,35.58 z m -562.11,-208.02 c 19.66,0 38.39,-15.93 41.82,-35.59 3.45,-19.65 -9.68,-35.59 -29.34,-35.59 -19.66,0 -38.39,15.94 -41.83,35.59 -3.45,19.66 9.69,35.59 29.35,35.59 v 0"
         style="fill:#eff7c2;fill-opacity:1;fill-rule:evenodd;stroke:none"
         id="path136" />
      <path
         d="m 2371.83,3601.44 43.52,-29.4 10.44,63.83 z"
         style="fill:#eff7c2;fill-opacity:1;fill-rule:evenodd;stroke:none"
         id="path138" />
    </g>
  </g>
</svg>
