<svg xmlns="http://www.w3.org/2000/svg" xml:space="preserve" width="730.08" height="609.307"><path d="M1512.81 100.262c0 7.519-1.08 14-3.31 19.308-2.16 5.379-5.19 9.532-9.1 12.461-3.89 2.84-8.18 4.297-12.91 4.297-7.5 0-13.84-3.156-18.99-9.289-5.16-6.199-7.74-15.258-7.74-27.258 0-11.32 2.58-20.11 7.66-26.312 5.15-6.309 11.52-9.469 19.07-9.469 4.5 0 8.73 1.371 12.59 4.148 3.8 2.73 6.9 6.844 9.24 12.274 2.35 5.52 3.49 12.097 3.49 19.84zm-53.31 41.379v-3.422c5.1 6.543 10.39 11.441 15.9 14.48 5.53 3.11 11.82 4.672 18.8 4.672 8.35 0 16.06-2.269 23.1-6.781 7.03-4.512 12.59-11.059 16.7-19.758 4.08-8.691 6.09-18.922 6.09-30.781 0-8.723-1.14-16.84-3.5-24.051-2.35-7.32-5.6-13.5-9.71-18.45-4.12-4.948-9.02-8.78-14.59-11.421-5.65-2.719-11.7-4.02-18.09-4.02-7.81 0-14.34 1.621-19.62 4.88-5.33 3.25-10.33 8.011-15.08 14.32v-42.59c0-12.5-4.36-18.719-13.06-18.719-5.12 0-8.53 1.59-10.14 4.79-1.68 3.241-2.5 7.948-2.5 14.1V141.45c0 5.403 1.09 9.449 3.37 12.11 2.3 2.652 5.37 4.011 9.27 4.011 3.85 0 6.99-1.359 9.41-4.14 2.42-2.75 3.65-6.7 3.65-11.789M1632.63 58.16v3.578c-3.27-4.277-6.68-7.867-10.28-10.77a36.248 36.248 0 0 0-11.74-6.5c-4.29-1.417-9.13-2.14-14.58-2.14-6.54 0-12.44 1.441-17.67 4.254-5.22 2.828-9.27 6.77-12.08 11.75-3.44 6.027-5.09 14.7-5.09 25.957v56.27c0 5.652 1.22 9.921 3.69 12.722 2.46 2.797 5.7 4.219 9.73 4.219 4.14 0 7.44-1.422 9.98-4.289 2.53-2.852 3.77-7.082 3.77-12.652v-45.48c0-6.528.53-12.079 1.56-16.509 1.12-4.488 3.02-7.988 5.8-10.558 2.7-2.492 6.46-3.762 11.17-3.762 4.63 0 8.94 1.441 12.96 4.27 4.09 2.808 7.05 6.52 8.89 11.101 1.53 4.02 2.29 12.82 2.29 26.399v34.539c0 5.57 1.26 9.8 3.8 12.652 2.5 2.867 5.75 4.289 9.83 4.289 4.06 0 7.31-1.422 9.77-4.219 2.43-2.801 3.64-7.07 3.64-12.722V58.332c0-5.402-1.13-9.48-3.49-12.152-2.34-2.739-5.38-4.051-9.11-4.051-3.71 0-6.76 1.43-9.21 4.172-2.42 2.847-3.63 6.73-3.63 11.86M1711.53 99.14c0-11.288 2.46-19.93 7.39-26.03 4.97-6.028 11.47-9.11 19.52-9.11 6.85 0 12.7 3.129 17.69 9.32 4.97 6.22 7.45 15.059 7.45 26.649 0 7.57-1.04 13.972-3.11 19.363-2.08 5.438-5.02 9.617-8.76 12.539-3.84 2.938-8.2 4.457-13.27 4.457-5.23 0-9.77-1.519-13.86-4.457-4.08-2.922-7.24-7.211-9.58-12.801-2.33-5.539-3.47-12.16-3.47-19.93zm-1.29 84.38v-43.391c5.05 5.601 10.3 9.801 15.6 12.82 5.33 2.93 11.93 4.422 19.75 4.422 9.04 0 16.95-2.269 23.76-6.691 6.8-4.551 12.11-10.989 15.85-19.481 3.78-8.48 5.63-18.558 5.63-30.199 0-8.61-1.03-16.48-3.1-23.71-2.1-7.142-5.11-13.33-9.12-18.661-4.02-5.238-8.86-9.27-14.51-12.25-5.71-2.82-11.97-4.27-18.8-4.27-4.15 0-8.12.52-11.83 1.54-3.68 1.05-6.84 2.41-9.37 4.16-2.63 1.601-4.84 3.422-6.67 5.172-1.81 1.84-4.21 4.519-7.19 8.12v-2.769c0-5.371-1.26-9.402-3.72-12.152-2.42-2.739-5.6-4.07-9.34-4.07-3.88 0-6.93 1.331-9.26 4.07-2.26 2.808-3.4 6.8-3.4 12.152v123.957c0 5.711 1.1 10.07 3.36 13.012 2.21 2.961 5.28 4.418 9.3 4.418 4.16 0 7.4-1.387 9.63-4.231 2.28-2.777 3.43-6.746 3.43-11.968M1810.03 59.379v123.09c0 5.711 1.21 9.98 3.6 12.91 2.47 2.883 5.73 4.34 9.85 4.34 4.12 0 7.42-1.41 9.96-4.297 2.48-2.871 3.8-7.223 3.8-12.953V59.379c0-5.758-1.32-10.098-3.87-13-2.54-2.82-5.85-4.27-9.89-4.27-3.99 0-7.19 1.493-9.7 4.473-2.5 2.988-3.75 7.227-3.75 12.797M1892.5 141.371V59.379c0-5.719-1.32-10.02-3.85-12.93-2.61-2.847-5.92-4.34-9.87-4.34-4 0-7.25 1.493-9.72 4.442-2.47 3.02-3.76 7.258-3.76 12.828v81.18c0 5.57 1.29 9.8 3.76 12.652 2.47 2.867 5.72 4.289 9.72 4.289 3.95 0 7.26-1.422 9.87-4.289 2.53-2.852 3.85-6.781 3.85-11.84zm-13.45 29.348c-3.79 0-6.99 1.211-9.75 3.703-2.62 2.41-4 5.867-4 10.316 0 4.004 1.38 7.282 4.15 9.922 2.76 2.61 5.95 3.828 9.6 3.828 3.52 0 6.66-1.136 9.37-3.476 2.71-2.364 4.08-5.821 4.08-10.274 0-4.406-1.33-7.816-3.99-10.238-2.67-2.461-5.78-3.781-9.46-3.781M2018.03 77.25c0-3.508-1-7.309-3.02-11.34-2.05-4.012-5.13-7.82-9.3-11.469-4.12-3.62-9.36-6.55-15.67-8.75-6.3-2.28-13.43-3.363-21.31-3.363-16.82 0-29.93 5.133-39.37 15.332-9.41 10.23-14.14 23.899-14.14 41.11 0 11.64 2.15 21.96 6.45 30.871 4.31 8.89 10.61 15.859 18.75 20.718 8.14 4.922 17.94 7.36 29.26 7.36 7.07 0 13.54-1.098 19.42-3.219 5.87-2.172 10.85-4.949 14.93-8.309 4.09-3.41 7.2-7.043 9.37-10.859 2.18-3.844 3.23-7.441 3.23-10.773 0-3.348-1.23-6.227-3.63-8.61-2.44-2.379-5.34-3.539-8.81-3.539-2.28 0-4.13.649-5.66 1.86-1.45 1.179-3.14 3.082-5.02 5.839-3.3 5.25-6.8 9.231-10.41 11.922-3.63 2.598-8.23 3.949-13.76 3.949-8.09 0-14.56-3.332-19.46-9.871-4.93-6.578-7.36-15.539-7.36-26.898 0-5.313.63-10.281 1.91-14.711 1.25-4.488 3.07-8.29 5.45-11.469 2.4-3.152 5.26-5.52 8.66-7.152 3.39-1.668 7.12-2.457 11.14-2.457 5.49 0 10.13 1.289 14.02 3.93 3.9 2.668 7.34 6.687 10.31 12.027 1.67 3.27 3.46 5.742 5.39 7.57 1.95 1.813 4.31 2.672 7.09 2.672 3.31 0 6.07-1.281 8.29-3.922 2.14-2.699 3.25-5.468 3.25-8.449M2062.83 99.969c0-7.7 1.14-14.2 3.42-19.637 2.31-5.422 5.41-9.453 9.39-12.184 4.01-2.777 8.37-4.148 13.04-4.148 4.8 0 9.16 1.332 13.1 3.89 3.98 2.61 7.09 6.63 9.48 11.989 2.37 5.351 3.53 12.082 3.53 20.09 0 7.601-1.16 14.062-3.53 19.531-2.39 5.449-5.55 9.602-9.56 12.531-4.02 2.84-8.4 4.297-13.18 4.297-4.97 0-9.41-1.519-13.35-4.457-3.89-2.922-6.97-7.199-9.12-12.699-2.13-5.531-3.22-11.871-3.22-19.203zm53.46-41.637v2.77c-3.66-4.371-7.26-7.91-10.86-10.614-3.49-2.77-7.36-4.84-11.51-6.27-4.14-1.378-8.68-2.109-13.58-2.109-6.5 0-12.57 1.45-18.09 4.27-5.53 2.98-10.32 7.031-14.38 12.371-4.04 5.34-7.11 11.61-9.22 18.84-2.12 7.18-3.14 14.98-3.14 23.41 0 17.699 4.16 31.59 12.46 41.512 8.32 9.91 19.23 14.859 32.76 14.859 7.83 0 14.45-1.43 19.82-4.289 5.37-2.762 10.63-7.082 15.74-12.953v41.922c0 5.84 1.1 10.23 3.34 13.199 2.22 3 5.36 4.469 9.49 4.469 4.11 0 7.28-1.367 9.53-4.078 2.21-2.719 3.36-6.782 3.36-12.121V58.332c0-5.402-1.21-9.48-3.61-12.152-2.4-2.739-5.46-4.07-9.28-4.07-3.68 0-6.79 1.39-9.22 4.19-2.4 2.802-3.61 6.77-3.61 12.032M2243.82 99.738c0 11.543-2.48 20.582-7.34 27.024-4.88 6.41-11.46 9.66-19.68 9.66-5.34 0-10-1.442-14.06-4.313-4.04-2.918-7.15-7.16-9.35-12.777-2.18-5.551-3.3-12.07-3.3-19.594 0-7.43 1.12-13.879 3.24-19.406 2.15-5.55 5.25-9.8 9.3-12.754 4-2.937 8.76-4.379 14.17-4.379 8.22 0 14.8 3.211 19.68 9.692 4.86 6.449 7.34 15.449 7.34 26.847zm27.28 0c0-8.41-1.28-16.207-3.79-23.398-2.52-7.078-6.17-13.23-10.92-18.38-4.82-5.128-10.53-8.972-17.16-11.78-6.64-2.739-14.17-4.07-22.43-4.07-8.22 0-15.64 1.331-22.19 4.152-6.58 2.757-12.31 6.718-17.12 11.898-4.79 5.18-8.43 11.23-10.96 18.262-2.48 7.078-3.72 14.82-3.72 23.367 0 8.59 1.28 16.461 3.77 23.57 2.53 7.172 6.13 13.231 10.86 18.332 4.72 5.039 10.42 8.938 17.17 11.68 6.72 2.738 14.08 4.129 22.19 4.129 8.25 0 15.72-1.391 22.43-4.168 6.68-2.773 12.43-6.762 17.21-11.883 4.81-5.121 8.43-11.258 10.87-18.328 2.55-7.051 3.79-14.851 3.79-23.383M2385.96 123.191c-2.04-4.8-3.01-13.261-3.01-25.46V60.02c0-5.938-1.27-10.45-3.89-13.438-2.58-2.98-6.04-4.473-10.29-4.473-4.08 0-7.41 1.493-9.95 4.473-2.56 2.988-3.81 7.5-3.81 13.438v45.269c0 7.121-.27 12.652-.74 16.652-.47 3.911-1.72 7.168-3.78 9.707-2.02 2.551-5.29 3.813-9.72 3.813-8.9 0-14.75-3.199-17.6-9.609-2.84-6.352-4.19-15.512-4.19-27.461V60.019c0-5.93-1.31-10.39-3.83-13.34-2.59-3.077-5.96-4.57-10.09-4.57-4.15 0-7.56 1.493-10.16 4.57-2.65 2.95-3.89 7.41-3.89 13.333v81.207c0 5.351 1.12 9.41 3.45 12.172 2.4 2.757 5.5 4.179 9.38 4.179 3.71 0 6.82-1.281 9.29-3.89 2.49-2.59 3.73-6.16 3.73-10.75v-2.7c4.7 5.899 9.77 10.239 15.12 12.981 5.37 2.769 11.42 4.16 17.94 4.16 6.82 0 12.68-1.43 17.59-4.289 4.94-2.812 8.97-7.121 12.14-12.852 4.59 5.77 9.51 10.129 14.77 12.93 5.25 2.82 11.05 4.211 17.4 4.211 7.5 0 13.89-1.492 19.22-4.59 5.41-3.051 9.41-7.402 12.08-13.09 2.34-5.132 3.48-13.203 3.48-24.242v-55.43c0-5.937-1.29-10.449-3.84-13.437-2.65-2.98-6.03-4.473-10.29-4.473-4.13 0-7.49 1.493-10.1 4.57-2.65 2.95-3.97 7.41-3.97 13.34v47.762c0 6.098-.24 10.981-.72 14.66-.51 3.707-1.86 6.75-4.07 9.258-2.18 2.5-5.52 3.762-9.93 3.762-3.58 0-7.01-1.129-10.17-3.301-3.28-2.238-5.72-5.219-7.55-8.969M2539.98 99.21c-4.01-1.57-9.81-3.132-17.41-4.858-7.61-1.704-12.88-2.942-15.8-3.75-2.93-.82-5.73-2.364-8.34-4.66-2.69-2.391-4.03-5.61-4.03-9.77 0-4.34 1.59-7.961 4.67-10.992 3.15-3.051 7.24-4.532 12.29-4.532 5.37 0 10.36 1.25 14.89 3.711 4.55 2.442 7.92 5.66 10 9.5 2.47 4.32 3.73 11.371 3.73 21.301zm1.76-41.12c-6.59-5.352-12.94-9.32-19.08-11.961-6.12-2.719-13.05-4.02-20.65-4.02-7.02 0-13.09 1.45-18.41 4.27-5.31 2.902-9.34 6.812-12.21 11.781-2.83 4.91-4.29 10.2-4.29 15.988 0 7.762 2.42 14.352 7.12 19.84 4.67 5.453 11.14 9.133 19.37 11.024 1.73.418 6.04 1.308 12.84 2.769 6.91 1.489 12.72 2.789 17.67 4 4.84 1.188 10.16 2.68 15.88 4.399-.36 7.519-1.79 13.011-4.33 16.582-2.59 3.468-7.93 5.179-15.91 5.179-6.95 0-12.11-.98-15.65-2.992-3.46-1.988-6.47-5.027-8.92-9.097-2.53-4-4.25-6.661-5.28-7.922-1.06-1.321-3.28-1.899-6.61-1.899-3.1 0-5.72 1.008-7.92 3.028-2.25 2.062-3.36 4.64-3.36 7.882 0 4.969 1.7 9.86 5.07 14.508 3.39 4.742 8.68 8.602 15.84 11.711 7.17 3.051 16.13 4.559 26.83 4.559 11.92 0 21.33-1.508 28.22-4.438 6.82-2.922 11.6-7.551 14.45-13.98 2.84-6.34 4.24-14.832 4.24-25.36 0-6.64 0-12.332-.04-16.941-.05-4.691-.08-9.84-.15-15.52 0-5.308.84-10.898 2.56-16.66 1.65-5.789 2.49-9.53 2.49-11.16 0-2.922-1.32-5.59-3.93-7.969-2.57-2.382-5.58-3.582-8.87-3.582-2.84 0-5.54 1.332-8.3 4.07-2.72 2.75-5.61 6.75-8.67 11.91M2621.47 141.371V59.379c0-5.719-1.3-10.02-3.85-12.93-2.59-2.847-5.85-4.34-9.85-4.34-3.98 0-7.26 1.493-9.71 4.442-2.53 3.02-3.78 7.258-3.78 12.828v81.18c0 5.57 1.25 9.8 3.78 12.652 2.45 2.867 5.73 4.289 9.71 4.289 4 0 7.26-1.422 9.85-4.289 2.55-2.852 3.85-6.781 3.85-11.84zm-13.44 29.348c-3.74 0-6.97 1.211-9.66 3.703-2.69 2.41-4.09 5.867-4.09 10.316 0 4.004 1.41 7.282 4.18 9.922 2.73 2.61 5.96 3.828 9.57 3.828 3.54 0 6.69-1.136 9.42-3.476 2.68-2.364 4.02-5.821 4.02-10.274 0-4.406-1.3-7.816-3.97-10.238-2.66-2.461-5.81-3.781-9.47-3.781M2674.33 141.781v-3.39c4.75 6.57 9.97 11.398 15.61 14.48 5.69 3.07 12.23 4.629 19.63 4.629 7.13 0 13.57-1.621 19.26-4.922 5.58-3.238 9.83-7.816 12.59-13.758 1.81-3.488 2.94-7.269 3.51-11.269.49-3.981.8-9.121.8-15.379V59.379c0-5.719-1.29-10.02-3.76-12.93-2.5-2.847-5.74-4.34-9.7-4.34-4.05 0-7.36 1.493-9.78 4.473-2.56 2.988-3.86 7.227-3.86 12.797v47.269c0 9.403-1.21 16.543-3.69 21.481-2.54 4.953-7.52 7.473-14.96 7.473-4.83 0-9.24-1.532-13.22-4.563-3.98-2.98-6.9-7.141-8.75-12.418-1.34-4.23-2.03-12.09-2.03-23.742v-35.5c0-5.758-1.25-10.098-3.83-13-2.57-2.82-5.87-4.27-9.9-4.27-3.89 0-7.14 1.493-9.65 4.442-2.57 3.02-3.8 7.258-3.8 12.828v81.992c0 5.43 1.11 9.43 3.41 12.098 2.2 2.679 5.37 4.031 9.26 4.031 2.35 0 4.55-.641 6.44-1.77 1.98-1.16 3.47-2.992 4.64-5.261 1.13-2.41 1.78-5.289 1.78-8.688M2789.38 139.828l21.96-64.437 23.72 67.25c1.88 5.418 3.7 9.199 5.52 11.468 1.82 2.243 4.5 3.391 8.13 3.391 3.46 0 6.39-1.211 8.87-3.691 2.37-2.399 3.59-5.161 3.59-8.43 0-1.219-.23-2.66-.66-4.277a31.792 31.792 0 0 0-1.49-4.762c-.56-1.391-1.15-3.078-1.94-4.942L2831 63.828c-.74-1.93-1.7-4.418-2.84-7.406a46.12 46.12 0 0 0-3.88-7.652c-1.47-2.09-3.21-3.7-5.28-4.891-2.12-1.18-4.67-1.77-7.66-1.77-3.85 0-6.91.903-9.23 2.711-2.29 1.86-3.98 3.84-5.07 6.07-1.07 2.141-2.96 6.489-5.52 12.938l-25.92 66.844a287.1 287.1 0 0 1-1.89 4.976c-.59 1.661-1.08 3.321-1.55 5.09-.42 1.774-.67 3.25-.67 4.442 0 1.98.57 3.902 1.72 5.8 1.14 1.93 2.7 3.5 4.68 4.68 2.02 1.199 4.13 1.84 6.5 1.84 4.48 0 7.59-1.352 9.3-4.109 1.7-2.672 3.6-7.2 5.69-13.563M2900.61 109.012h49.28c-.62 9.668-3.11 16.918-7.5 21.718-4.36 4.79-10.1 7.211-17.21 7.211-6.73 0-12.32-2.453-16.64-7.312-4.35-4.859-6.96-12.09-7.93-21.617zm53.2-16.153h-53.2c.01-6.468 1.3-12.14 3.69-17.097 2.46-4.883 5.66-8.602 9.69-11.121 4.01-2.512 8.46-3.72 13.31-3.72 3.25 0 6.25.388 8.9 1.169 2.68.84 5.31 2.082 7.86 3.75 2.48 1.71 4.79 3.469 6.94 5.488 2.1 1.941 4.93 4.531 8.27 7.883 1.4 1.3 3.42 1.89 5.96 1.89 2.85 0 5.07-.769 6.81-2.41 1.73-1.59 2.54-3.82 2.54-6.73 0-2.57-.94-5.57-2.88-9.031-1.91-3.38-4.76-6.7-8.71-9.899-3.9-3.12-8.77-5.691-14.65-7.832-5.85-2.07-12.58-3.09-20.28-3.09-17.43 0-31.04 5.23-40.7 15.57-9.68 10.45-14.51 24.512-14.51 42.29 0 8.492 1.23 16.211 3.57 23.371 2.39 7.191 5.86 13.332 10.46 18.441 4.58 5.16 10.19 9.117 16.92 11.821 6.74 2.75 14.14 4.117 22.34 4.117 10.55 0 19.7-2.328 27.3-7.039 7.62-4.68 13.31-10.68 17.09-18.09 3.79-7.461 5.68-14.981 5.68-22.731 0-7.078-1.9-11.71-5.86-13.808-3.95-2.153-9.43-3.192-16.54-3.192M3096.69 77.25c0-3.508-1.01-7.309-3.08-11.34-2.03-4.012-5.06-7.82-9.24-11.469-4.14-3.62-9.41-6.55-15.74-8.75-6.27-2.28-13.42-3.363-21.25-3.363-16.86 0-29.97 5.133-39.38 15.332-9.41 10.23-14.15 23.899-14.15 41.11 0 11.64 2.14 21.96 6.49 30.871 4.33 8.89 10.51 15.859 18.71 20.718 8.14 4.922 17.93 7.36 29.31 7.36 7.03 0 13.47-1.098 19.39-3.219 5.86-2.172 10.8-4.949 14.95-8.309 4.08-3.41 7.16-7.043 9.35-10.859 2.14-3.844 3.21-7.441 3.21-10.773 0-3.348-1.18-6.227-3.68-8.61-2.39-2.379-5.32-3.539-8.78-3.539-2.25 0-4.13.649-5.59 1.86-1.53 1.179-3.19 3.082-5.07 5.839-3.32 5.25-6.77 9.231-10.39 11.922-3.62 2.598-8.22 3.949-13.82 3.949-7.99 0-14.48-3.332-19.39-9.871-4.97-6.578-7.41-15.539-7.41-26.898 0-5.313.68-10.281 1.89-14.711 1.27-4.488 3.11-8.29 5.52-11.469 2.38-3.152 5.29-5.52 8.67-7.152 3.33-1.668 7.07-2.457 11.15-2.457 5.43 0 10.12 1.289 14 3.93 3.87 2.668 7.34 6.687 10.33 12.027 1.67 3.27 3.42 5.742 5.38 7.57 1.9 1.813 4.22 2.672 7.07 2.672 3.27 0 6.07-1.281 8.18-3.922 2.25-2.699 3.37-5.468 3.37-8.449M3121.94 155.102h2.99v17.058c0 4.551.13 8.172.37 10.762.23 2.598.82 4.777 1.95 6.699 1.02 1.899 2.55 3.488 4.59 4.731 1.97 1.179 4.19 1.757 6.65 1.757 3.43 0 6.57-1.328 9.34-4.007 1.82-1.832 3.03-4 3.53-6.582.51-2.598.73-6.34.73-11.098v-19.32h10c3.85 0 6.8-.961 8.82-2.872 2.06-1.91 3.05-4.32 3.05-7.308 0-3.82-1.44-6.531-4.37-8.024-2.87-1.488-7.01-2.269-12.38-2.269h-5.12v-52.27c0-4.449.17-7.87.45-10.289.35-2.41 1.19-4.351 2.45-5.789 1.26-1.512 3.37-2.281 6.32-2.281 1.58 0 3.73.27 6.48.898 2.66.57 4.8.883 6.35.883 2.18 0 4.22-.96 5.95-2.71 1.72-1.891 2.62-4.122 2.62-6.84 0-4.551-2.34-8.06-7.15-10.493-4.84-2.43-11.69-3.629-20.62-3.629-8.5 0-14.97 1.493-19.35 4.473-4.36 2.988-7.28 7.078-8.59 12.406-1.39 5.262-2.07 12.301-2.07 21.09v54.551h-3.61c-3.85 0-6.85.973-8.93 2.922-2.07 1.937-3.07 4.371-3.07 7.371 0 2.988 1.05 5.398 3.19 7.308 2.19 1.911 5.3 2.872 9.43 2.872M3267.14 99.738c0 11.543-2.46 20.582-7.32 27.024-4.93 6.41-11.42 9.66-19.68 9.66-5.34 0-10-1.442-14.03-4.313-4.08-2.918-7.19-7.16-9.37-12.777-2.19-5.551-3.31-12.07-3.31-19.594 0-7.43 1.12-13.879 3.27-19.406 2.15-5.55 5.21-9.8 9.23-12.754 4-2.937 8.75-4.379 14.21-4.379 8.26 0 14.75 3.211 19.68 9.692 4.86 6.449 7.32 15.449 7.32 26.847zm27.3 0c0-8.41-1.25-16.207-3.81-23.398-2.5-7.078-6.18-13.23-10.93-18.38-4.8-5.128-10.52-8.972-17.13-11.78-6.67-2.739-14.09-4.07-22.43-4.07-8.27 0-15.69 1.331-22.23 4.152-6.56 2.757-12.28 6.718-17.09 11.898-4.79 5.18-8.46 11.23-10.91 18.262-2.48 7.078-3.7 14.82-3.7 23.367 0 8.59 1.22 16.461 3.7 23.57 2.58 7.172 6.15 13.231 10.86 18.332 4.76 5.039 10.45 8.938 17.14 11.68 6.78 2.738 14.16 4.129 22.23 4.129 8.26 0 15.69-1.391 22.43-4.168 6.7-2.773 12.42-6.762 17.22-11.883 4.72-5.121 8.43-11.258 10.91-18.328 2.49-7.051 3.74-14.851 3.74-23.383M3342.89 83V59.379c0-5.758-1.31-10.098-3.91-13-2.59-2.82-5.86-4.27-9.89-4.27-3.87 0-7.12 1.493-9.63 4.34-2.52 2.91-3.76 7.211-3.76 12.93v79c0 12.762 4.4 19.121 13.24 19.121 4.47 0 7.74-1.52 9.77-4.469 1.95-2.98 3.01-7.39 3.27-13.203 3.23 5.813 6.61 10.223 10.04 13.203 3.42 2.949 7.96 4.469 13.64 4.469 5.77 0 11.28-1.52 16.68-4.469 5.36-2.98 8.08-6.953 8.08-11.851 0-3.461-1.18-6.371-3.47-8.59-2.26-2.231-4.74-3.399-7.44-3.399-.97 0-3.4.661-7.21 1.969-3.84 1.262-7.21 1.922-10.15 1.922-3.94 0-7.19-1.051-9.69-3.293-2.54-2.219-4.51-5.41-5.9-9.699-1.39-4.34-2.4-9.43-2.9-15.391-.51-5.89-.77-13.09-.77-21.699M3487.74 79.191c0-7.863-1.82-14.55-5.51-20.132-3.68-5.61-9.06-9.778-16.2-12.688-7.17-2.812-15.82-4.262-26.11-4.262-9.68 0-18.09 1.54-25.09 4.692-6.97 3.11-12.12 6.988-15.42 11.648-3.36 4.66-5.06 9.36-5.06 14.063 0 3.11 1.09 5.789 3.27 8 2.11 2.27 4.81 3.316 8.02 3.316 2.88 0 5.1-.738 6.62-2.137 1.52-1.55 2.95-3.55 4.38-6.191 2.78-5.059 6.1-8.84 10.05-11.328 3.82-2.531 9.12-3.774 15.89-3.774 5.42 0 9.89 1.293 13.39 3.813 3.46 2.527 5.26 5.418 5.26 8.68 0 5.02-1.84 8.668-5.43 10.93-3.67 2.34-9.6 4.519-17.9 6.577-9.36 2.434-17 4.98-22.89 7.621-5.87 2.692-10.63 6.231-14.11 10.602-3.53 4.301-5.31 9.711-5.31 16.078 0 5.731 1.64 11.09 4.9 16.133 3.23 5.059 8.1 9.09 14.42 12.117 6.33 3.031 13.98 4.551 22.99 4.551 7 0 13.33-.789 18.98-2.309 5.59-1.511 10.34-3.582 14.03-6.109 3.75-2.582 6.64-5.422 8.58-8.523 1.99-3.149 2.96-6.2 2.96-9.161 0-3.269-1.02-5.878-3.16-8.039-2.1-2.007-5.1-3.058-8.89-3.058-2.82 0-5.19.82-7.19 2.519-1.91 1.641-4.19 4.121-6.7 7.399-2.06 2.781-4.46 5.019-7.28 6.679-2.79 1.633-6.57 2.5-11.33 2.5-4.93 0-9.05-1.078-12.25-3.289-3.28-2.168-4.92-4.91-4.92-8.16 0-3 1.21-5.429 3.57-7.34 2.42-1.91 5.62-3.48 9.69-4.738 4.09-1.25 9.64-2.812 16.75-4.59 8.46-2.14 15.32-4.679 20.69-7.691 5.34-2.949 9.38-6.48 12.13-10.54 2.81-4.09 4.18-8.71 4.18-13.859M3518.62 42.11c-4.12 0-7.68 1.331-10.63 4.152-3.04 2.758-4.51 6.668-4.51 11.61 0 4.218 1.39 7.859 4.23 10.929 2.86 3.031 6.4 4.52 10.59 4.52 4.16 0 7.74-1.489 10.64-4.52 2.99-2.961 4.48-6.672 4.48-10.93 0-4.91-1.49-8.77-4.48-11.57-2.9-2.801-6.34-4.192-10.32-4.192M3638.88 99.738c0 11.543-2.45 20.582-7.34 27.024-4.88 6.41-11.41 9.66-19.65 9.66-5.32 0-9.95-1.442-14.02-4.313-4.06-2.918-7.18-7.16-9.35-12.777-2.17-5.551-3.29-12.07-3.29-19.594 0-7.43 1.05-13.879 3.2-19.406 2.22-5.55 5.27-9.8 9.3-12.754 4.01-2.937 8.73-4.379 14.16-4.379 8.24 0 14.77 3.211 19.65 9.692 4.89 6.449 7.34 15.449 7.34 26.847zm27.32 0c0-8.41-1.25-16.207-3.81-23.398-2.54-7.078-6.15-13.23-10.94-18.38-4.83-5.128-10.47-8.972-17.13-11.78-6.62-2.739-14.1-4.07-22.43-4.07-8.22 0-15.62 1.331-22.19 4.152-6.58 2.757-12.25 6.718-17.05 11.898-4.9 5.18-8.52 11.23-11.04 18.262-2.44 7.078-3.69 14.82-3.69 23.367 0 8.59 1.25 16.461 3.79 23.57 2.57 7.172 6.13 13.231 10.82 18.332 4.72 5.039 10.44 8.938 17.17 11.68 6.7 2.738 14.05 4.129 22.19 4.129 8.24 0 15.71-1.391 22.43-4.168 6.73-2.773 12.46-6.762 17.25-11.883 4.75-5.121 8.38-11.258 10.9-18.328 2.48-7.051 3.73-14.851 3.73-23.383M3714.64 83V59.379c0-5.758-1.3-10.098-3.89-13-2.55-2.82-5.88-4.27-9.83-4.27-3.97 0-7.15 1.493-9.69 4.34-2.56 2.91-3.8 7.211-3.8 12.93v79c0 12.762 4.47 19.121 13.26 19.121 4.52 0 7.76-1.52 9.74-4.469 1.96-2.98 3.12-7.39 3.36-13.203 3.19 5.813 6.52 10.223 9.94 13.203 3.44 2.949 8.01 4.469 13.67 4.469 5.81 0 11.35-1.52 16.67-4.469 5.38-2.98 8.1-6.953 8.1-11.851 0-3.461-1.15-6.371-3.43-8.59-2.31-2.231-4.75-3.399-7.47-3.399-.96 0-3.35.661-7.17 1.969-3.84 1.262-7.21 1.922-10.15 1.922-3.96 0-7.19-1.051-9.79-3.293-2.48-2.219-4.44-5.41-5.86-9.699-1.36-4.34-2.33-9.43-2.85-15.391-.53-5.89-.81-13.09-.81-21.699M3793.15 100.719c0-11.489 2.43-20.2 7.26-26.11 4.78-5.847 11.05-8.828 18.63-8.828 4.5 0 8.82 1.309 12.82 3.84 4.02 2.52 7.29 6.328 9.82 11.43 2.56 5.11 3.78 11.258 3.78 18.539 0 11.57-2.46 20.558-7.33 26.992-4.87 6.5-11.3 9.746-19.26 9.746-7.75 0-13.99-3.156-18.66-9.289-4.7-6.187-7.06-14.937-7.06-26.32zm78.84 35.992V54.238c0-9.457-1.03-17.547-2.92-24.308-1.93-6.828-5.01-12.438-9.26-16.871-4.24-4.418-9.84-7.707-16.67-9.86C3836.26 1.09 3827.7 0 3817.48 0c-9.38 0-17.77 1.32-25.1 4.059-7.39 2.8-13.08 6.3-17.05 10.66-3.98 4.293-5.99 8.75-5.99 13.351 0 3.48 1.1 6.282 3.42 8.461 2.23 2.238 4.96 3.32 8.14 3.32 4 0 7.44-1.863 10.49-5.511 1.46-1.93 2.99-3.8 4.5-5.68 1.56-1.922 3.3-3.59 5.17-4.898 1.92-1.39 4.21-2.39 6.87-3.051 2.6-.66 5.7-.992 9.17-.992 6.98 0 12.51 1.05 16.37 3.07 3.88 2.04 6.62 4.902 8.2 8.563 1.48 3.687 2.49 7.597 2.65 11.789.32 4.28.5 10.949.69 20.28-4.18-6.093-9.09-10.741-14.51-13.921-5.48-3.2-12.03-4.762-19.54-4.762-9.18 0-17.13 2.39-23.89 7.274-6.85 4.84-12.08 11.617-15.72 20.379-3.61 8.71-5.48 18.789-5.48 30.23 0 8.578 1.09 16.277 3.36 23.149 2.18 6.82 5.33 12.621 9.52 17.339 4.07 4.723 8.85 8.282 14.22 10.692 5.41 2.347 11.25 3.57 17.75 3.57 7.67 0 14.34-1.562 19.97-4.672 5.73-3.039 10.91-7.937 15.77-14.48v3.801c0 4.96 1.21 8.742 3.5 11.519 2.3 2.672 5.31 4.031 8.95 4.031 5.26 0 8.75-1.761 10.49-5.34 1.7-3.582 2.59-8.781 2.59-15.519M2693.29 413.09h40.33c-2.85-21.75-11.75-38.719-26.58-50.942-13.71-11.968-30.33-17.867-49.73-17.867-26.34 0-47.37 9.258-63.07 27.731-14.87 17.57-22.3 40.25-22.3 67.957 0 28.402 7.38 51.09 22.09 68.281 14.71 17.121 35.5 25.719 62.39 25.719 19.99 0 36.91-5.41 50.62-16.137 14.54-11.602 23.44-27.902 26.58-48.773h-40.33c-3.5 18.211-14.6 27.261-33.52 27.261-31.18 0-46.8-18.461-46.8-55.422 0-17.32 4.02-31.449 12.04-42.457 8.02-11.062 19.32-16.589 33.9-16.589 21.74 0 33.2 10.429 34.38 31.238zm-158.8 25.449c0-36.098 11.45-66.66 34.31-91.559 22.89-24.89 50.9-37.351 84.15-37.351 33.1 0 61.13 12.461 83.98 37.351 22.92 24.899 34.3 55.461 34.3 91.559 0 36.082-11.38 66.609-34.3 91.512-22.85 24.961-50.88 37.39-83.98 37.39-33.25 0-61.26-12.429-84.15-37.39-22.86-24.903-34.31-55.43-34.31-91.512zm-40.98 0c0 45.941 15.55 85.152 46.66 117.723 31.15 32.519 68.76 48.789 112.78 48.789 43.92 0 81.46-16.27 112.65-48.789 31.13-32.571 46.72-71.782 46.72-117.723 0-45.98-15.59-85.238-46.72-117.738-31.19-32.551-68.73-48.832-112.65-48.832-44.02 0-81.63 16.281-112.78 48.832-31.11 32.5-46.66 71.758-46.66 117.738" style="fill:#100f0d;fill-opacity:1;fill-rule:nonzero;stroke:none" transform="matrix(.13333 0 0 -.13333 0 609.307)"/><path d="m2558.02 334.121 23.25-19.73 170.96 219.527-23.25 19.703-170.96-219.5" style="fill:#100f0d;fill-opacity:1;fill-rule:nonzero;stroke:none" transform="matrix(.13333 0 0 -.13333 0 609.307)"/><path d="M2743.77 4569.84c1316.95 0 2384.59-1067.61 2384.59-2384.58 0-191.56-22.76-377.77-65.41-556.27H424.574c-42.66 178.5-65.394 364.71-65.394 556.27 0 1316.97 1067.61 2384.58 2384.59 2384.58" style="fill:#fef0d3;fill-opacity:1;fill-rule:evenodd;stroke:none" transform="matrix(.13333 0 0 -.13333 0 609.307)"/><path d="M2737.81 1465.92c1507.94 0 2737.82 73.25 2737.82 163.07s-1229.88 163.07-2737.82 163.07S0 1718.81 0 1628.99s1229.87-163.07 2737.81-163.07" style="fill:#fbc6a4;fill-opacity:1;fill-rule:evenodd;stroke:none" transform="matrix(.13333 0 0 -.13333 0 609.307)"/><path d="m4400.59 4244.52-23.44 33.98c-55.07 79.85-154.58 116.19-248.16 90.62a1148.487 1148.487 0 0 1-377.71-182.66c-64.63-47.54-102.57-123.17-102-203.39.56-80.23 39.55-155.32 104.82-201.95 99.94-71.36 136.02-203.1 86.39-315.43l555.67-99.79 4.43 878.62" style="fill:#2e2825;fill-opacity:1;fill-rule:evenodd;stroke:none" transform="matrix(.13333 0 0 -.13333 0 609.307)"/><path d="m4269.54 4299.73 42.5 12.74c93.47 28.02 194.6 11.86 274.7-43.89 167.42-116.57 231.57-333.7 154.34-522.53-43.7-106.85-48.2-225.72-12.75-335.58 44.24-137.06-12.91-286.44-137.37-358.94-124.46-72.51-282.61-48.56-380.01 57.54-97.41 106.1-107.79 265.72-24.93 383.53l83.52 807.13" style="fill:#2e2825;fill-opacity:1;fill-rule:evenodd;stroke:none" transform="matrix(.13333 0 0 -.13333 0 609.307)"/><path d="m4128.99 3546.57-842.07 157.02-28.05 23.87c-62.92 53.59-128.44 85.32-208.94 104.06l-547.14 127.3 22.91-97.71c333.05-178.13 295.25-309.82 693.57-339.08l670.6-201.46 239.12 226" style="fill:#d64420;fill-opacity:1;fill-rule:evenodd;stroke:none" transform="matrix(.13333 0 0 -.13333 0 609.307)"/><path d="m815.891 1966.16-604.774 233.06-7.988 20.87a51.734 51.734 0 0 1-41.531 32.77 51.723 51.723 0 0 1-48.61-20.88c-11.148-15.35-12.988-35.57-4.812-52.69l-11.762-157.31a49.84 49.84 0 0 1 18.488-42.56 49.844 49.844 0 0 1 45.536-8.89l9.8-16.58c19.52-32.97 55.02-53.2 93.356-53.13a188.896 188.896 0 0 0 150.101-73.8c22.668-29.49 57.258-47.42 94.43-48.89a125.344 125.344 0 0 1 98.047 41.19l151.387 30.74 58.332 116.1" style="fill:#f3652f;fill-opacity:1;fill-rule:evenodd;stroke:none" transform="matrix(.13333 0 0 -.13333 0 609.307)"/><path d="m3605.41 2342.32-291.16 242.08a1947.78 1947.78 0 0 1-916.05 422.05l-81.78-35.99-101.42-164.4-90.42-186.48a9160.5 9160.5 0 0 0-377.41-699.3l261.73-19.63 261.72 189.75c146.7 106.36 237.01 273.74 245.37 454.75l91.6-147.21a5423.927 5423.927 0 0 1 323.88-464.57c123.68-159.01 346.86-200.12 519.06-95.61 172.21 104.49 238.82 321.45 154.88 504.56" style="fill:#382116;fill-opacity:1;fill-rule:evenodd;stroke:none" transform="matrix(.13333 0 0 -.13333 0 609.307)"/><path d="m3548.76 2717.79 53.03 115.2 580.57-45.32-92.04-169.93-414.91-107.61-127.43 158.6.78 49.06" style="fill:#f3652f;fill-opacity:1;fill-rule:evenodd;stroke:none" transform="matrix(.13333 0 0 -.13333 0 609.307)"/><path d="m3548.76 2717.79-139.5-407.5c-427.63 40.01-629.48 41.45-1063.48-55.05l-283.21-11.33-232.22-90.62-181.26-28.32c-309.02-48.29-598.99-84.2-911.242-66.04-59.285 3.46-114.301-30.9-137.227-85.66-22.926-54.79 10.551-150.74 67.594-167.23l437.805-126.58c294.04-85.04 587.23-16.74 843.27 150.98 61.88 40.52 138.06 52.88 209.57 33.98l283.21-56.62c191.38-38.3 263.15-62.85 453.13-107.64a6267.722 6267.722 0 0 1 617.39-113.28c141.56-18.69 283.94 28.3 386.55 127.58 102.63 99.34 154.26 240.08 140.21 382.19L4009.5 2451l80.82 166.74c-391.15 3.59-498.49 47.27-541.56 100.05" style="fill:#603516;fill-opacity:1;fill-rule:evenodd;stroke:none" transform="matrix(.13333 0 0 -.13333 0 609.307)"/><path d="M4286.74 3652.43c72.24 6.75 140.14-21.47 182.63-75.93 42.49-54.47 54.47-128.58 32.2-199.38-54.24-172.51-124.37-340.92-209.46-502.91-31.05-59.11-44.16-124.68-37.59-187.93l-85.94-8.03c-222.52-20.78-442.4 6.95-644.47 81.27l85.93 136.91c31.67 50.47 39.61 110.69 21.47 163.13l-48.31 97.54c-45.37 91.49-13.31 209.01 75.17 275.54 42.83 32.2 85.03 65.27 126.58 99.16 88.48 72.19 186.35 107.51 300.54 108.45l201.25 12.18" style="fill:#fbc907;fill-opacity:1;fill-rule:evenodd;stroke:none" transform="matrix(.13333 0 0 -.13333 0 609.307)"/><path d="m4485.06 3444.38 76.17-772.83 21.26-30.08c47.71-67.52 74.19-135.51 84.76-217.49l97.88-759.23-95.23 31.64c-147.31 347.8-302.43 524.87-295.57 924.18l-135.94 606.07 246.67 217.74" style="fill:#f3652f;fill-opacity:1;fill-rule:evenodd;stroke:none" transform="matrix(.13333 0 0 -.13333 0 609.307)"/><path d="M4390.6 3565.07c88.45 0 133.36-98.24 100.28-219.43-33.05-121.2-131.56-219.44-220.03-219.44-88.46 0-133.37 98.24-100.29 219.44 33.06 121.19 131.57 219.43 220.04 219.43" style="fill:#f3652f;fill-opacity:1;fill-rule:evenodd;stroke:none" transform="matrix(.13333 0 0 -.13333 0 609.307)"/><path d="m4890.47 1648.38 47.15 4.07a86.178 86.178 0 0 0 42.52-7.13c13.4-5.94 26.41-12.74 38.98-20.29a59.502 59.502 0 0 1 16.92-6.96c3.37-.8 5.65-3.88 5.49-7.34a7.12 7.12 0 0 0-6.15-6.74l-128.75 1.58c-1.38 2.8-1.22 2.29-2.75 4.75l-13.41 38.06" style="fill:#d64420;fill-opacity:1;fill-rule:evenodd;stroke:none" transform="matrix(.13333 0 0 -.13333 0 609.307)"/><path d="M4669.9 1696.39c-20.01-6.99-37.3-20.09-49.49-37.44-19.07-27.24-52.49-40.57-85.07-33.96-4.31.88-8.72-1-11.07-4.69-2.38-3.71-2.22-8.48.38-12.01 16.22-22.07 44.92-30.98 70.78-21.98 24.54 8.58 49.93 14.54 75.69 17.86 37.33 4.78 75.13 3.73 112.11-3.17a835.032 835.032 0 0 1 258.56-7.28c6.22.82 10.72 6.34 10.22 12.61s-5.82 11.04-12.1 10.8c-93.13 13.72-245.33 40.1-291.23 140.04l-78.78-60.78" style="fill:#f3652f;fill-opacity:1;fill-rule:evenodd;stroke:none" transform="matrix(.13333 0 0 -.13333 0 609.307)"/><path d="M4085.49 3640.25c-94.86-20.78-166.7-64.6-193.45-165.51-13.92-52.52 61.41-55.72 115.4.7 77.08 80.54 169.7 151.32 279.3 176.99l-201.25-12.18" style="fill:#e9531d;fill-opacity:1;fill-rule:evenodd;stroke:none" transform="matrix(.13333 0 0 -.13333 0 609.307)"/><path d="m2546.63 3850.55-109.14 49.86a64.958 64.958 0 0 0-37.43 50.69 388.397 388.397 0 0 0 3.52 122.57 53.367 53.367 0 0 0 30.49 38.69 744.925 744.925 0 0 1 68.34 35.11c9.21 5.35 21.01 2.58 26.89-6.31 5.87-8.88 3.8-20.81-4.72-27.2l22.05-263.41" style="fill:#d64420;fill-opacity:1;fill-rule:evenodd;stroke:none" transform="matrix(.13333 0 0 -.13333 0 609.307)"/><path d="m2608.78 3930.78-.53 30.03c-.43 23.91-5.16 47.54-14 69.76a127.445 127.445 0 0 0-3.25 84.98c2.09 6.71-1.47 13.86-8.07 16.23-6.61 2.39-13.91-.85-16.57-7.35l-30.16-179.81 72.58-13.84" style="fill:#d64420;fill-opacity:1;fill-rule:evenodd;stroke:none" transform="matrix(.13333 0 0 -.13333 0 609.307)"/><path d="M2580.41 4352.02h.02c13.18-1.74 22.54-13.96 20.81-27.14l-52.36-396.23c-1.75-13.17-13.96-22.54-27.14-20.8h-.01c-13.19 1.75-22.55 13.96-20.81 27.14l52.36 396.23c1.74 13.18 13.96 22.55 27.13 20.8" style="fill:#2e2825;fill-opacity:1;fill-rule:evenodd;stroke:none" transform="matrix(.13333 0 0 -.13333 0 609.307)"/><path d="m4059.99 3820.42 28.56-25.49c23.19-20.72 36.46-50.33 36.46-81.42 0-31.09-13.27-60.72-36.46-81.43l198.19 20.35c-14.15 93.62-13.06 167.94 25.3 277.72l-252.05-109.73" style="fill:#e9531d;fill-opacity:1;fill-rule:evenodd;stroke:none" transform="matrix(.13333 0 0 -.13333 0 609.307)"/><path d="m4059.99 3820.42 28.56-25.49c23.19-20.72 36.46-50.33 36.46-81.42a108.8 108.8 0 0 0-4.31-30.32c56.73 3.88 101.56 51.13 101.56 108.84 0 33-14.65 62.58-37.81 82.58l-124.46-54.19" style="fill:#d64420;fill-opacity:1;fill-rule:evenodd;stroke:none" transform="matrix(.13333 0 0 -.13333 0 609.307)"/><path d="M4027.45 4244.52c-9.07-24.4-18.13-48.82-27.22-73.22a1036.787 1036.787 0 0 1-63.45-415c136.09-33.66 307.55 15.93 380.1 142.98 27.91 91.84 55.8 183.67 83.71 275.5-124.39 23.25-248.76 46.5-373.14 69.74" style="fill:#e9531d;fill-opacity:1;fill-rule:evenodd;stroke:none" transform="matrix(.13333 0 0 -.13333 0 609.307)"/><path d="m3908.12 4098.32 16.99 13.44c44 34.84 95.71 58.64 150.8 69.39l11.33-29.73c25.54-67.07 47.77-135.36 66.55-204.62 24.88-91.71 88.83-167.84 174.88-208.16l181.97 452.43-409.95 85.66-137.35 3.54-55.22-181.95" style="fill:#2e2825;fill-opacity:1;fill-rule:evenodd;stroke:none" transform="matrix(.13333 0 0 -.13333 0 609.307)"/><path d="M3946.52 3890.66c0-79.95 57.37-96.63 124.97-15.86-41.66 5.29-83.31 10.58-124.97 15.86" style="fill:#fff;fill-opacity:1;fill-rule:evenodd;stroke:none" transform="matrix(.13333 0 0 -.13333 0 609.307)"/></svg>