<?xml version="1.0" encoding="UTF-8" standalone="no"?>
<svg
   xmlns:dc="http://purl.org/dc/elements/1.1/"
   xmlns:cc="http://creativecommons.org/ns#"
   xmlns:rdf="http://www.w3.org/1999/02/22-rdf-syntax-ns#"
   xmlns:svg="http://www.w3.org/2000/svg"
   xmlns="http://www.w3.org/2000/svg"
   viewBox="0 0 726.18665 745.8667"
   height="745.8667"
   width="726.18665"
   xml:space="preserve"
   id="svg2"
   version="1.1"><metadata
     id="metadata8"><rdf:RDF><cc:Work
         rdf:about=""><dc:format>image/svg+xml</dc:format><dc:type
           rdf:resource="http://purl.org/dc/dcmitype/StillImage" /></cc:Work></rdf:RDF></metadata><defs
     id="defs6" /><g
     transform="matrix(1.3333333,0,0,-1.3333333,0,745.86667)"
     id="g10"><g
       transform="scale(0.1)"
       id="g12"><path
         id="path14"
         style="fill:#100f0d;fill-opacity:1;fill-rule:nonzero;stroke:none"
         d="m 1506.8,100.262 c 0,7.519 -1.08,14.008 -3.31,19.308 -2.16,5.379 -5.19,9.532 -9.1,12.461 -3.89,2.84 -8.18,4.309 -12.92,4.309 -7.49,0 -13.83,-3.16 -18.98,-9.301 -5.16,-6.199 -7.74,-15.25 -7.74,-27.2499 0,-11.3203 2.58,-20.1094 7.66,-26.3086 5.15,-6.3125 11.52,-9.4688 19.06,-9.4688 4.51,0 8.74,1.3594 12.6,4.1485 3.8,2.7304 6.9,6.832 9.24,12.2617 2.34,5.5273 3.49,12.0976 3.49,19.8401 z m -53.31,41.379 v -3.422 c 5.1,6.551 10.39,11.449 15.9,14.492 5.53,3.098 11.82,4.66 18.8,4.66 8.35,0 16.06,-2.262 23.1,-6.769 7.03,-4.512 12.59,-11.071 16.7,-19.77 4.08,-8.684 6.09,-18.91 6.09,-30.781 0,-8.7112 -1.14,-16.8401 -3.5,-24.0393 -2.35,-7.332 -5.6,-13.5117 -9.71,-18.4531 -4.12,-4.9492 -9.02,-8.7891 -14.6,-11.4297 -5.64,-2.7109 -11.69,-4.0195 -18.08,-4.0195 -7.81,0 -14.34,1.6211 -19.62,4.8789 -5.33,3.2617 -10.33,8.0117 -15.08,14.332 V 18.7188 C 1453.49,6.21875 1449.13,0 1440.42,0 c -5.11,0 -8.52,1.58984 -10.13,4.80078 -1.68,3.23828 -2.5,7.94922 -2.5,14.09762 V 141.461 c 0,5.398 1.09,9.449 3.37,12.109 2.3,2.641 5.37,4.008 9.26,4.008 3.86,0 7,-1.367 9.42,-4.137 2.42,-2.761 3.65,-6.703 3.65,-11.8" /><path
         id="path16"
         style="fill:#100f0d;fill-opacity:1;fill-rule:nonzero;stroke:none"
         d="M 1626.62,58.1719 V 61.75 c -3.27,-4.2891 -6.68,-7.8711 -10.28,-10.7695 -3.59,-2.961 -7.51,-5.1094 -11.74,-6.5117 -4.29,-1.4102 -9.13,-2.129 -14.58,-2.129 -6.54,0 -12.44,1.4297 -17.67,4.2422 -5.22,2.8399 -9.27,6.7696 -12.08,11.75 -3.44,6.0391 -5.09,14.7071 -5.09,25.9688 V 140.57 c 0,5.641 1.22,9.918 3.69,12.711 2.46,2.809 5.7,4.219 9.73,4.219 4.14,0 7.44,-1.41 9.98,-4.289 2.53,-2.852 3.77,-7.082 3.77,-12.641 V 95.0898 c 0,-6.5312 0.53,-12.0781 1.56,-16.5117 1.11,-4.4961 3.02,-7.9883 5.8,-10.5586 2.7,-2.4882 6.46,-3.7578 11.17,-3.7578 4.63,0 8.93,1.4297 12.96,4.2696 4.08,2.8085 7.05,6.5078 8.89,11.0898 1.53,4.0195 2.28,12.8203 2.28,26.4099 v 34.539 c 0,5.559 1.26,9.789 3.81,12.641 2.5,2.879 5.75,4.289 9.83,4.289 4.06,0 7.31,-1.41 9.77,-4.219 2.42,-2.793 3.64,-7.07 3.64,-12.711 V 58.332 c 0,-5.4023 -1.13,-9.4726 -3.5,-12.1523 -2.33,-2.7305 -5.37,-4.0508 -9.1,-4.0508 -3.71,0 -6.76,1.4414 -9.21,4.1719 -2.42,2.8476 -3.63,6.7383 -3.63,11.8711" /><path
         id="path18"
         style="fill:#100f0d;fill-opacity:1;fill-rule:nonzero;stroke:none"
         d="m 1705.52,99.1406 c 0,-11.289 2.46,-19.9297 7.39,-26.0195 4.97,-6.0391 11.47,-9.1094 19.52,-9.1094 6.85,0 12.7,3.1172 17.69,9.3086 4.97,6.2188 7.45,15.0586 7.45,26.6485 0,7.5702 -1.04,13.9802 -3.11,19.3712 -2.08,5.441 -5.02,9.621 -8.76,12.539 -3.84,2.941 -8.2,4.461 -13.27,4.461 -5.23,0 -9.77,-1.52 -13.86,-4.461 -4.08,-2.918 -7.24,-7.211 -9.58,-12.809 -2.33,-5.531 -3.47,-12.148 -3.47,-19.9294 z m -1.29,84.3904 v -43.39 c 5.05,5.589 10.3,9.789 15.6,12.808 5.33,2.93 11.93,4.422 19.75,4.422 9.04,0 16.95,-2.262 23.76,-6.691 6.8,-4.551 12.11,-10.981 15.84,-19.481 3.79,-8.469 5.64,-18.551 5.64,-30.187 0,-8.6214 -1.03,-16.4925 -3.1,-23.7112 -2.11,-7.1406 -5.11,-13.332 -9.12,-18.6719 -4.02,-5.2305 -8.86,-9.2578 -14.51,-12.2383 -5.71,-2.8203 -11.97,-4.2812 -18.8,-4.2812 -4.15,0 -8.12,0.5312 -11.83,1.539 -3.68,1.0625 -6.84,2.4219 -9.37,4.1602 -2.63,1.6133 -4.84,3.4219 -6.67,5.1797 -1.82,1.8398 -4.21,4.5117 -7.19,8.1133 V 58.332 c 0,-5.3632 -1.26,-9.3906 -3.72,-12.1523 -2.42,-2.7305 -5.6,-4.0703 -9.34,-4.0703 -3.88,0 -6.93,1.3398 -9.26,4.0703 -2.26,2.8203 -3.4,6.8086 -3.4,12.1523 v 123.969 c 0,5.711 1.1,10.058 3.36,13 2.21,2.961 5.28,4.429 9.3,4.429 4.16,0 7.39,-1.398 9.63,-4.23 2.28,-2.781 3.43,-6.758 3.43,-11.969" /><path
         id="path20"
         style="fill:#100f0d;fill-opacity:1;fill-rule:nonzero;stroke:none"
         d="M 1804.02,59.3906 V 182.469 c 0,5.711 1.21,9.98 3.6,12.91 2.47,2.883 5.72,4.351 9.85,4.351 4.12,0 7.42,-1.421 9.96,-4.308 2.48,-2.863 3.8,-7.223 3.8,-12.953 V 59.3906 c 0,-5.7695 -1.32,-10.1015 -3.87,-13 -2.54,-2.8203 -5.85,-4.2812 -9.89,-4.2812 -3.99,0 -7.19,1.4922 -9.7,4.4726 -2.5,2.9883 -3.75,7.2383 -3.75,12.8086" /><path
         id="path22"
         style="fill:#100f0d;fill-opacity:1;fill-rule:nonzero;stroke:none"
         d="M 1886.49,141.379 V 59.3906 c 0,-5.7304 -1.32,-10.0195 -3.85,-12.9297 -2.62,-2.8593 -5.92,-4.3515 -9.87,-4.3515 -4,0 -7.25,1.4922 -9.72,4.4414 -2.47,3.0195 -3.76,7.2695 -3.76,12.8398 V 140.57 c 0,5.559 1.29,9.789 3.76,12.641 2.47,2.879 5.72,4.289 9.72,4.289 3.95,0 7.25,-1.41 9.87,-4.289 2.53,-2.852 3.85,-6.77 3.85,-11.832 z m -13.45,29.34 c -3.79,0 -7,1.211 -9.75,3.711 -2.62,2.41 -4,5.859 -4,10.32 0,3.992 1.38,7.27 4.15,9.918 2.76,2.613 5.95,3.832 9.6,3.832 3.52,0 6.66,-1.148 9.37,-3.488 2.71,-2.352 4.08,-5.821 4.08,-10.262 0,-4.418 -1.33,-7.82 -3.99,-10.25 -2.67,-2.461 -5.78,-3.781 -9.46,-3.781" /><path
         id="path24"
         style="fill:#100f0d;fill-opacity:1;fill-rule:nonzero;stroke:none"
         d="m 2012.02,77.2617 c 0,-3.5195 -1,-7.3203 -3.02,-11.3437 -2.05,-4.0078 -5.13,-7.8164 -9.3,-11.4766 -4.12,-3.6211 -9.36,-6.5508 -15.67,-8.75 -6.31,-2.2734 -13.43,-3.3516 -21.31,-3.3516 -16.82,0 -29.93,5.1211 -39.37,15.3321 -9.41,10.2187 -14.14,23.8867 -14.14,41.0976 0,11.6405 2.15,21.9605 6.45,30.8785 4.31,8.891 10.61,15.864 18.74,20.711 8.15,4.922 17.95,7.371 29.27,7.371 7.07,0 13.54,-1.109 19.42,-3.23 5.87,-2.16 10.85,-4.949 14.93,-8.309 4.08,-3.41 7.2,-7.043 9.37,-10.859 2.18,-3.832 3.23,-7.441 3.23,-10.773 0,-3.348 -1.24,-6.227 -3.63,-8.598 -2.44,-2.383 -5.34,-3.551 -8.81,-3.551 -2.28,0 -4.13,0.66 -5.66,1.871 -1.45,1.168 -3.14,3.071 -5.02,5.84 -3.31,5.238 -6.8,9.231 -10.41,11.91 -3.63,2.61 -8.23,3.957 -13.76,3.957 -8.09,0 -14.56,-3.328 -19.46,-9.879 -4.93,-6.578 -7.36,-15.531 -7.36,-26.8981 0,-5.3007 0.63,-10.2695 1.91,-14.7109 1.25,-4.4883 3.07,-8.2891 5.45,-11.4609 2.4,-3.1602 5.26,-5.5274 8.66,-7.1602 3.39,-1.6601 7.12,-2.4492 11.14,-2.4492 5.49,0 10.13,1.2891 14.02,3.9219 3.9,2.6679 7.33,6.6875 10.31,12.039 1.67,3.2696 3.46,5.7383 5.39,7.5586 1.95,1.8125 4.31,2.6719 7.09,2.6719 3.31,0 6.07,-1.2813 8.28,-3.9219 2.15,-2.6875 3.26,-5.4609 3.26,-8.4375" /><path
         id="path26"
         style="fill:#100f0d;fill-opacity:1;fill-rule:nonzero;stroke:none"
         d="m 2056.82,99.9688 c 0,-7.6875 1.14,-14.1993 3.42,-19.6368 2.31,-5.4218 5.4,-9.4414 9.39,-12.1718 4.01,-2.7891 8.37,-4.1485 13.04,-4.1485 4.8,0 9.16,1.3203 13.1,3.8789 3.98,2.6211 7.09,6.6289 9.48,11.9883 2.37,5.3594 3.53,12.082 3.53,20.0899 0,7.6092 -1.16,14.0622 -3.53,19.5312 -2.39,5.449 -5.55,9.602 -9.56,12.531 -4.02,2.84 -8.4,4.309 -13.19,4.309 -4.96,0 -9.4,-1.52 -13.34,-4.461 -3.89,-2.918 -6.97,-7.199 -9.12,-12.707 -2.13,-5.531 -3.22,-11.863 -3.22,-19.2032 z m 53.46,-41.6368 v 2.7696 c -3.66,-4.3633 -7.26,-7.9102 -10.86,-10.6016 -3.49,-2.7695 -7.36,-4.8398 -11.51,-6.2695 -4.14,-1.3907 -8.68,-2.1211 -13.58,-2.1211 -6.5,0 -12.57,1.4609 -18.09,4.2812 -5.53,2.9805 -10.32,7.0274 -14.38,12.3594 -4.04,5.3398 -7.11,11.6094 -9.22,18.8516 -2.12,7.1797 -3.14,14.9765 -3.14,23.4104 0,17.687 4.16,31.59 12.46,41.5 8.32,9.91 19.23,14.859 32.76,14.859 7.83,0 14.45,-1.422 19.82,-4.281 5.37,-2.77 10.63,-7.078 15.74,-12.949 v 41.91 c 0,5.84 1.1,10.238 3.34,13.211 2.21,2.988 5.35,4.468 9.49,4.468 4.11,0 7.28,-1.378 9.53,-4.082 2.21,-2.726 3.36,-6.777 3.36,-12.117 V 58.332 c 0,-5.4023 -1.21,-9.4726 -3.61,-12.1523 -2.4,-2.7305 -5.46,-4.0703 -9.28,-4.0703 -3.68,0 -6.79,1.4023 -9.22,4.1914 -2.41,2.8008 -3.61,6.7773 -3.61,12.0312" /><path
         id="path28"
         style="fill:#100f0d;fill-opacity:1;fill-rule:nonzero;stroke:none"
         d="m 2237.81,99.75 c 0,11.531 -2.48,20.57 -7.34,27.02 -4.88,6.41 -11.46,9.66 -19.68,9.66 -5.35,0 -10,-1.45 -14.06,-4.321 -4.04,-2.918 -7.15,-7.16 -9.35,-12.769 -2.18,-5.559 -3.3,-12.07 -3.3,-19.59 0,-7.4297 1.12,-13.8906 3.24,-19.418 2.15,-5.5429 5.25,-9.7929 9.3,-12.7422 4,-2.9414 8.76,-4.3906 14.17,-4.3906 8.22,0 14.8,3.2227 19.68,9.6914 4.86,6.461 7.34,15.4492 7.34,26.8594 z m 27.28,0 c 0,-8.4102 -1.28,-16.2109 -3.79,-23.3984 -2.52,-7.0821 -6.17,-13.2305 -10.92,-18.3828 -4.82,-5.1368 -10.53,-8.9688 -17.16,-11.7891 -6.64,-2.7305 -14.17,-4.0703 -22.43,-4.0703 -8.22,0 -15.64,1.3398 -22.19,4.1523 -6.58,2.7578 -12.31,6.7266 -17.13,11.9102 -4.79,5.1679 -8.42,11.2265 -10.95,18.2578 -2.48,7.082 -3.72,14.8125 -3.72,23.3711 0,8.5902 1.28,16.4492 3.77,23.5582 2.53,7.18 6.12,13.231 10.86,18.332 4.72,5.047 10.42,8.95 17.17,11.68 6.72,2.738 14.08,4.129 22.19,4.129 8.25,0 15.72,-1.391 22.43,-4.168 6.68,-2.762 12.43,-6.762 17.2,-11.871 4.82,-5.121 8.44,-11.262 10.88,-18.332 2.55,-7.051 3.79,-14.859 3.79,-23.379" /><path
         id="path30"
         style="fill:#100f0d;fill-opacity:1;fill-rule:nonzero;stroke:none"
         d="m 2379.95,123.191 c -2.04,-4.793 -3.01,-13.261 -3.01,-25.4527 V 60.0195 c 0,-5.9375 -1.27,-10.4492 -3.89,-13.4375 -2.58,-2.9804 -6.04,-4.4726 -10.29,-4.4726 -4.08,0 -7.41,1.4922 -9.95,4.4726 -2.56,2.9883 -3.81,7.5 -3.81,13.4375 v 45.2695 c 0,7.121 -0.27,12.652 -0.74,16.652 -0.47,3.911 -1.72,7.168 -3.78,9.707 -2.02,2.551 -5.3,3.813 -9.72,3.813 -8.9,0 -14.75,-3.191 -17.6,-9.609 -2.84,-6.352 -4.19,-15.512 -4.19,-27.4536 V 60.0195 c 0,-5.9297 -1.31,-10.3906 -3.83,-13.3398 -2.59,-3.0781 -5.96,-4.5703 -10.09,-4.5703 -4.15,0 -7.56,1.4922 -10.16,4.5703 -2.65,2.9492 -3.89,7.4101 -3.89,13.332 v 81.2073 c 0,5.351 1.12,9.422 3.45,12.179 2.39,2.75 5.5,4.18 9.38,4.18 3.71,0 6.82,-1.289 9.29,-3.898 2.48,-2.59 3.73,-6.16 3.73,-10.75 v -2.692 c 4.7,5.891 9.77,10.242 15.12,12.973 5.37,2.777 11.42,4.16 17.94,4.16 6.82,0 12.68,-1.422 17.59,-4.281 4.94,-2.82 8.97,-7.121 12.14,-12.852 4.59,5.774 9.5,10.121 14.77,12.934 5.25,2.816 11.05,4.199 17.4,4.199 7.5,0 13.89,-1.492 19.22,-4.59 5.4,-3.043 9.41,-7.402 12.08,-13.082 2.34,-5.14 3.48,-13.199 3.48,-24.25 V 60.0195 c 0,-5.9375 -1.29,-10.4492 -3.84,-13.4375 -2.65,-2.9804 -6.03,-4.4726 -10.29,-4.4726 -4.13,0 -7.49,1.4922 -10.1,4.5703 -2.65,2.9492 -3.97,7.4101 -3.97,13.3398 v 47.7615 c 0,6.11 -0.24,10.981 -0.72,14.66 -0.51,3.707 -1.86,6.75 -4.07,9.258 -2.18,2.5 -5.52,3.762 -9.93,3.762 -3.58,0 -7.01,-1.121 -10.17,-3.293 -3.28,-2.246 -5.72,-5.227 -7.55,-8.977 v 0" /><path
         id="path32"
         style="fill:#100f0d;fill-opacity:1;fill-rule:nonzero;stroke:none"
         d="m 2533.96,99.2109 c -4,-1.5625 -9.8,-3.1211 -17.4,-4.8515 -7.61,-1.6992 -12.88,-2.9375 -15.8,-3.75 -2.93,-0.8203 -5.73,-2.3711 -8.34,-4.6602 -2.69,-2.3906 -4.03,-5.6172 -4.03,-9.7773 0,-4.3321 1.59,-7.961 4.67,-10.9805 3.15,-3.0625 7.24,-4.5312 12.29,-4.5312 5.37,0 10.36,1.25 14.89,3.7109 4.55,2.4375 7.92,5.6484 10,9.5 2.47,4.3086 3.72,11.3672 3.72,21.3008 z m 1.77,-41.1093 c -6.59,-5.3516 -12.94,-9.3321 -19.08,-11.9727 -6.12,-2.7109 -13.05,-4.0195 -20.65,-4.0195 -7.02,0 -13.09,1.4609 -18.41,4.2812 -5.31,2.8985 -9.34,6.8008 -12.21,11.7813 -2.83,4.9062 -4.29,10.1875 -4.29,15.9765 0,7.7735 2.42,14.3633 7.12,19.8516 4.67,5.4414 11.14,9.129 19.37,11.012 1.73,0.418 6.04,1.316 12.84,2.769 6.91,1.5 12.71,2.797 17.67,4.008 4.83,1.191 10.16,2.672 15.87,4.391 -0.35,7.519 -1.78,13.011 -4.32,16.582 -2.59,3.468 -7.93,5.179 -15.91,5.179 -6.95,0 -12.11,-0.98 -15.65,-2.992 -3.46,-1.98 -6.47,-5.027 -8.92,-9.097 -2.53,-3.993 -4.25,-6.661 -5.28,-7.922 -1.06,-1.321 -3.28,-1.891 -6.61,-1.891 -3.1,0 -5.72,1 -7.92,3.02 -2.26,2.062 -3.36,4.64 -3.36,7.882 0,4.981 1.7,9.868 5.06,14.52 3.4,4.73 8.69,8.598 15.85,11.711 7.17,3.039 16.13,4.558 26.83,4.558 11.92,0 21.33,-1.519 28.22,-4.449 6.82,-2.922 11.6,-7.551 14.45,-13.972 2.84,-6.34 4.24,-14.84 4.24,-25.36 0,-6.64 0,-12.34 -0.04,-16.949 -0.05,-4.6797 -0.08,-9.832 -0.15,-15.5117 0,-5.3164 0.84,-10.8985 2.56,-16.6602 1.65,-5.7968 2.49,-9.539 2.49,-11.1679 0,-2.9219 -1.33,-5.5821 -3.93,-7.9688 -2.57,-2.3828 -5.58,-3.582 -8.87,-3.582 -2.84,0 -5.54,1.3398 -8.31,4.0703 -2.71,2.7617 -5.6,6.75 -8.66,11.9219" /><path
         id="path34"
         style="fill:#100f0d;fill-opacity:1;fill-rule:nonzero;stroke:none"
         d="M 2615.46,141.379 V 59.3906 c 0,-5.7304 -1.3,-10.0195 -3.85,-12.9297 -2.59,-2.8593 -5.85,-4.3515 -9.85,-4.3515 -3.98,0 -7.26,1.4922 -9.71,4.4414 -2.53,3.0195 -3.78,7.2695 -3.78,12.8398 V 140.57 c 0,5.559 1.25,9.789 3.78,12.641 2.45,2.879 5.73,4.289 9.71,4.289 4,0 7.26,-1.41 9.85,-4.289 2.55,-2.852 3.85,-6.77 3.85,-11.832 z m -13.44,29.34 c -3.74,0 -6.97,1.211 -9.66,3.711 -2.69,2.41 -4.09,5.859 -4.09,10.32 0,3.992 1.41,7.27 4.18,9.918 2.73,2.613 5.96,3.832 9.57,3.832 3.54,0 6.69,-1.148 9.42,-3.488 2.68,-2.352 4.02,-5.821 4.02,-10.262 0,-4.418 -1.3,-7.82 -3.97,-10.25 -2.66,-2.461 -5.81,-3.781 -9.47,-3.781" /><path
         id="path36"
         style="fill:#100f0d;fill-opacity:1;fill-rule:nonzero;stroke:none"
         d="m 2668.32,141.789 v -3.391 c 4.75,6.563 9.97,11.403 15.61,14.473 5.69,3.078 12.23,4.629 19.63,4.629 7.13,0 13.57,-1.621 19.26,-4.91 5.58,-3.238 9.83,-7.82 12.59,-13.762 1.81,-3.496 2.93,-7.277 3.51,-11.277 0.49,-3.973 0.8,-9.11 0.8,-15.371 V 59.3906 c 0,-5.7304 -1.29,-10.0195 -3.76,-12.9297 -2.5,-2.8593 -5.74,-4.3515 -9.71,-4.3515 -4.04,0 -7.35,1.4922 -9.77,4.4726 -2.56,2.9883 -3.86,7.2383 -3.86,12.8086 v 47.2574 c 0,9.411 -1.21,16.543 -3.69,21.493 -2.54,4.949 -7.52,7.468 -14.96,7.468 -4.83,0 -9.24,-1.539 -13.22,-4.558 -3.98,-2.981 -6.9,-7.141 -8.75,-12.43 -1.34,-4.223 -2.03,-12.09 -2.03,-23.7421 V 59.3906 c 0,-5.7695 -1.25,-10.1015 -3.83,-13 -2.57,-2.8203 -5.87,-4.2812 -9.9,-4.2812 -3.89,0 -7.14,1.4922 -9.65,4.4414 -2.57,3.0195 -3.8,7.2695 -3.8,12.8398 v 81.9884 c 0,5.43 1.11,9.422 3.41,12.101 2.2,2.668 5.37,4.02 9.26,4.02 2.35,0 4.54,-0.629 6.43,-1.77 1.99,-1.16 3.48,-2.98 4.65,-5.25 1.13,-2.41 1.78,-5.289 1.78,-8.691" /><path
         id="path38"
         style="fill:#100f0d;fill-opacity:1;fill-rule:nonzero;stroke:none"
         d="m 2783.36,139.84 21.97,-64.4494 23.72,67.2574 c 1.88,5.422 3.7,9.204 5.52,11.461 1.82,2.25 4.5,3.391 8.13,3.391 3.46,0 6.39,-1.211 8.87,-3.68 2.37,-2.398 3.59,-5.172 3.59,-8.441 0,-1.219 -0.23,-2.649 -0.66,-4.277 -0.39,-1.692 -0.89,-3.262 -1.49,-4.75 -0.56,-1.403 -1.15,-3.09 -1.94,-4.942 l -26.08,-67.5702 c -0.74,-1.9296 -1.7,-4.4179 -2.84,-7.4101 -1.18,-2.9688 -2.5,-5.4609 -3.88,-7.6602 -1.47,-2.0898 -3.21,-3.6914 -5.28,-4.8789 -2.13,-1.1797 -4.67,-1.7812 -7.66,-1.7812 -3.85,0 -6.91,0.9101 -9.23,2.7187 -2.29,1.8516 -3.99,3.8321 -5.07,6.0703 -1.07,2.1407 -2.96,6.4805 -5.52,12.9414 l -25.93,66.8402 c -0.59,1.629 -1.24,3.308 -1.88,4.98 -0.6,1.66 -1.08,3.32 -1.55,5.078 -0.42,1.774 -0.67,3.262 -0.67,4.453 0,1.977 0.57,3.891 1.72,5.797 1.13,1.922 2.7,3.492 4.68,4.684 2.02,1.199 4.13,1.828 6.5,1.828 4.48,0 7.59,-1.352 9.3,-4.102 1.7,-2.679 3.6,-7.207 5.68,-13.558" /><path
         id="path40"
         style="fill:#100f0d;fill-opacity:1;fill-rule:nonzero;stroke:none"
         d="m 2894.59,109.012 h 49.29 c -0.62,9.668 -3.11,16.929 -7.5,21.718 -4.36,4.801 -10.1,7.211 -17.21,7.211 -6.73,0 -12.32,-2.441 -16.65,-7.3 -4.34,-4.871 -6.95,-12.09 -7.93,-21.629 z m 53.21,-16.1526 h -53.21 c 0.01,-6.461 1.31,-12.1406 3.7,-17.0977 2.46,-4.8711 5.66,-8.5937 9.69,-11.1133 4.01,-2.5195 8.46,-3.7187 13.31,-3.7187 3.25,0 6.25,0.3906 8.9,1.1601 2.68,0.8399 5.31,2.0821 7.86,3.75 2.48,1.711 4.79,3.4805 6.94,5.5 2.09,1.9297 4.93,4.5196 8.27,7.8711 1.4,1.3086 3.41,1.8907 5.96,1.8907 2.85,0 5.07,-0.7696 6.81,-2.4102 1.73,-1.5898 2.54,-3.8203 2.54,-6.7305 0,-2.5625 -0.94,-5.5625 -2.88,-9.0312 -1.91,-3.3789 -4.76,-6.6992 -8.71,-9.8906 -3.9,-3.1289 -8.77,-5.6993 -14.65,-7.8282 -5.85,-2.0703 -12.58,-3.1015 -20.28,-3.1015 -17.44,0 -31.04,5.2304 -40.7,15.582 -9.68,10.4492 -14.51,24.5078 -14.51,42.2774 0,8.5002 1.23,16.2112 3.57,23.3712 2.39,7.199 5.85,13.332 10.45,18.449 4.59,5.152 10.2,9.121 16.93,11.813 6.74,2.757 14.14,4.128 22.34,4.128 10.55,0 19.7,-2.339 27.3,-7.05 7.62,-4.668 13.31,-10.68 17.09,-18.078 3.79,-7.461 5.68,-14.981 5.68,-22.743 0,-7.078 -1.9,-11.6988 -5.86,-13.8004 -3.95,-2.1484 -9.43,-3.1992 -16.54,-3.1992" /><path
         id="path42"
         style="fill:#100f0d;fill-opacity:1;fill-rule:nonzero;stroke:none"
         d="m 3090.68,77.2617 c 0,-3.5195 -1.01,-7.3203 -3.08,-11.3437 -2.03,-4.0078 -5.06,-7.8164 -9.25,-11.4766 -4.13,-3.6211 -9.4,-6.5508 -15.73,-8.75 -6.27,-2.2734 -13.42,-3.3516 -21.25,-3.3516 -16.86,0 -29.97,5.1211 -39.38,15.3321 -9.41,10.2187 -14.15,23.8867 -14.15,41.0976 0,11.6405 2.14,21.9605 6.49,30.8785 4.33,8.891 10.51,15.864 18.71,20.711 8.14,4.922 17.93,7.371 29.31,7.371 7.03,0 13.47,-1.109 19.39,-3.23 5.86,-2.16 10.8,-4.949 14.94,-8.309 4.09,-3.41 7.17,-7.043 9.36,-10.859 2.14,-3.832 3.21,-7.441 3.21,-10.773 0,-3.348 -1.18,-6.227 -3.68,-8.598 -2.39,-2.383 -5.32,-3.551 -8.78,-3.551 -2.25,0 -4.13,0.66 -5.59,1.871 -1.53,1.168 -3.19,3.071 -5.07,5.84 -3.32,5.238 -6.77,9.231 -10.39,11.91 -3.63,2.61 -8.23,3.957 -13.82,3.957 -7.99,0 -14.48,-3.328 -19.4,-9.879 -4.96,-6.578 -7.4,-15.531 -7.4,-26.8981 0,-5.3007 0.68,-10.2695 1.89,-14.7109 1.27,-4.4883 3.11,-8.2891 5.51,-11.4609 2.39,-3.1602 5.3,-5.5274 8.68,-7.1602 3.33,-1.6601 7.07,-2.4492 11.15,-2.4492 5.43,0 10.12,1.2891 14,3.9219 3.87,2.6679 7.34,6.6875 10.32,12.039 1.67,3.2696 3.43,5.7383 5.39,7.5586 1.9,1.8125 4.22,2.6719 7.07,2.6719 3.27,0 6.07,-1.2813 8.18,-3.9219 2.25,-2.6875 3.37,-5.4609 3.37,-8.4375" /><path
         id="path44"
         style="fill:#100f0d;fill-opacity:1;fill-rule:nonzero;stroke:none"
         d="m 3115.93,155.109 h 2.99 v 17.059 c 0,4.543 0.13,8.164 0.37,10.754 0.23,2.609 0.82,4.789 1.95,6.699 1.02,1.899 2.55,3.5 4.59,4.738 1.97,1.18 4.18,1.75 6.65,1.75 3.43,0 6.57,-1.32 9.34,-4.007 1.82,-1.832 3.03,-3.993 3.53,-6.571 0.5,-2.609 0.73,-6.351 0.73,-11.101 v -19.321 h 10 c 3.85,0 6.8,-0.968 8.82,-2.871 2.06,-1.918 3.04,-4.328 3.04,-7.316 0,-3.82 -1.43,-6.524 -4.36,-8.012 -2.87,-1.5 -7.01,-2.269 -12.38,-2.269 h -5.12 V 82.3594 c 0,-4.4492 0.17,-7.8711 0.45,-10.2891 0.35,-2.4023 1.19,-4.3398 2.45,-5.789 1.26,-1.5 3.37,-2.2696 6.32,-2.2696 1.58,0 3.73,0.2696 6.48,0.8867 2.66,0.5821 4.8,0.8829 6.35,0.8829 2.18,0 4.22,-0.9532 5.95,-2.7032 1.72,-1.8984 2.62,-4.1172 2.62,-6.8476 0,-4.5508 -2.34,-8.0508 -7.15,-10.4922 -4.84,-2.4297 -11.69,-3.6289 -20.62,-3.6289 -8.51,0 -14.97,1.4922 -19.35,4.4726 -4.36,2.9883 -7.28,7.0782 -8.59,12.418 -1.4,5.2617 -2.07,12.2891 -2.07,21.0898 v 54.5512 h -3.61 c -3.85,0 -6.85,0.968 -8.93,2.918 -2.07,1.929 -3.07,4.371 -3.07,7.363 0,2.988 1.05,5.398 3.19,7.316 2.19,1.903 5.3,2.871 9.43,2.871" /><path
         id="path46"
         style="fill:#100f0d;fill-opacity:1;fill-rule:nonzero;stroke:none"
         d="m 3261.13,99.75 c 0,11.531 -2.46,20.57 -7.32,27.02 -4.93,6.41 -11.42,9.66 -19.68,9.66 -5.34,0 -10,-1.45 -14.03,-4.321 -4.08,-2.918 -7.19,-7.16 -9.37,-12.769 -2.19,-5.559 -3.31,-12.07 -3.31,-19.59 0,-7.4297 1.12,-13.8906 3.27,-19.418 2.15,-5.5429 5.21,-9.7929 9.23,-12.7422 4,-2.9414 8.75,-4.3906 14.21,-4.3906 8.26,0 14.75,3.2227 19.68,9.6914 4.86,6.461 7.32,15.4492 7.32,26.8594 z m 27.3,0 c 0,-8.4102 -1.25,-16.2109 -3.82,-23.3984 -2.5,-7.0821 -6.17,-13.2305 -10.92,-18.3828 -4.8,-5.1368 -10.52,-8.9688 -17.13,-11.7891 -6.67,-2.7305 -14.09,-4.0703 -22.43,-4.0703 -8.28,0 -15.69,1.3398 -22.23,4.1523 -6.56,2.7578 -12.29,6.7266 -17.09,11.9102 -4.8,5.1679 -8.46,11.2265 -10.91,18.2578 -2.48,7.082 -3.7,14.8125 -3.7,23.3711 0,8.5902 1.22,16.4492 3.7,23.5582 2.58,7.18 6.15,13.231 10.86,18.332 4.76,5.047 10.45,8.95 17.14,11.68 6.78,2.738 14.16,4.129 22.23,4.129 8.26,0 15.69,-1.391 22.43,-4.168 6.7,-2.762 12.42,-6.762 17.21,-11.871 4.73,-5.121 8.44,-11.262 10.92,-18.332 2.49,-7.051 3.74,-14.859 3.74,-23.379" /><path
         id="path48"
         style="fill:#100f0d;fill-opacity:1;fill-rule:nonzero;stroke:none"
         d="M 3336.88,83.0117 V 59.3906 c 0,-5.7695 -1.31,-10.1015 -3.91,-13 -2.59,-2.8203 -5.87,-4.2812 -9.89,-4.2812 -3.87,0 -7.12,1.4922 -9.63,4.3515 -2.52,2.9102 -3.76,7.1993 -3.76,12.9297 v 78.9884 c 0,12.762 4.4,19.121 13.23,19.121 4.48,0 7.75,-1.512 9.78,-4.461 1.95,-2.98 3.01,-7.391 3.27,-13.199 3.23,5.808 6.61,10.219 10.04,13.199 3.42,2.949 7.96,4.461 13.64,4.461 5.77,0 11.28,-1.512 16.68,-4.461 5.35,-2.98 8.08,-6.949 8.08,-11.859 0,-3.45 -1.18,-6.36 -3.47,-8.578 -2.26,-2.243 -4.74,-3.411 -7.44,-3.411 -0.98,0 -3.4,0.661 -7.21,1.969 -3.84,1.262 -7.21,1.93 -10.15,1.93 -3.94,0 -7.19,-1.059 -9.69,-3.289 -2.54,-2.223 -4.51,-5.41 -5.9,-9.699 -1.39,-4.352 -2.4,-9.43 -2.9,-15.391 -0.51,-5.8907 -0.77,-13.1016 -0.77,-21.6993" /><path
         id="path50"
         style="fill:#100f0d;fill-opacity:1;fill-rule:nonzero;stroke:none"
         d="m 3481.73,79.1914 c 0,-7.8516 -1.82,-14.543 -5.51,-20.1328 -3.68,-5.5977 -9.06,-9.7695 -16.21,-12.6797 -7.16,-2.8086 -15.82,-4.2695 -26.1,-4.2695 -9.68,0 -18.09,1.539 -25.09,4.6992 -6.97,3.1016 -12.13,6.9805 -15.42,11.6523 -3.36,4.6602 -5.07,9.3477 -5.07,14.0508 0,3.1172 1.1,5.7891 3.28,8.0078 2.11,2.2618 4.81,3.3203 8.02,3.3203 2.87,0 5.1,-0.7382 6.62,-2.1484 1.52,-1.543 2.94,-3.543 4.38,-6.1797 2.78,-5.0703 6.1,-8.8515 10.05,-11.3398 3.82,-2.5313 9.12,-3.7735 15.89,-3.7735 5.42,0 9.89,1.293 13.39,3.8204 3.46,2.5312 5.26,5.4101 5.26,8.6718 0,5.0196 -1.84,8.668 -5.43,10.9375 -3.67,2.3321 -9.6,4.5117 -17.9,6.5703 -9.36,2.4336 -17,4.9805 -22.89,7.6329 -5.87,2.6797 -10.63,6.2307 -14.11,10.5897 -3.53,4.301 -5.31,9.711 -5.31,16.09 0,5.719 1.64,11.078 4.9,16.121 3.23,5.066 8.1,9.09 14.42,12.117 6.33,3.039 13.98,4.551 22.99,4.551 7,0 13.33,-0.781 18.97,-2.301 5.6,-1.519 10.35,-3.59 14.04,-6.117 3.75,-2.57 6.64,-5.422 8.58,-8.512 1.99,-3.16 2.96,-6.199 2.96,-9.16 0,-3.269 -1.02,-5.879 -3.16,-8.051 -2.1,-2 -5.1,-3.058 -8.89,-3.058 -2.82,0 -5.19,0.82 -7.19,2.519 -1.91,1.641 -4.19,4.121 -6.7,7.41 -2.06,2.782 -4.46,5.02 -7.28,6.68 -2.8,1.629 -6.57,2.5 -11.33,2.5 -4.93,0 -9.05,-1.09 -12.25,-3.301 -3.28,-2.16 -4.92,-4.91 -4.92,-8.16 0,-3 1.21,-5.429 3.57,-7.328 2.42,-1.922 5.62,-3.492 9.69,-4.75 4.09,-1.25 9.64,-2.801 16.75,-4.59 8.46,-2.14 15.32,-4.679 20.69,-7.691 5.34,-2.942 9.38,-6.4806 12.13,-10.5314 2.81,-4.0898 4.18,-8.707 4.18,-13.8672" /><path
         id="path52"
         style="fill:#100f0d;fill-opacity:1;fill-rule:nonzero;stroke:none"
         d="m 3512.61,42.1094 c -4.12,0 -7.68,1.3398 -10.63,4.1523 -3.04,2.7578 -4.51,6.668 -4.51,11.6094 0,4.2187 1.39,7.8594 4.22,10.9297 2.87,3.039 6.41,4.5195 10.6,4.5195 4.16,0 7.74,-1.4805 10.63,-4.5117 3,-2.9688 4.49,-6.6797 4.49,-10.9375 0,-4.9023 -1.49,-8.7695 -4.49,-11.5703 -2.89,-2.7891 -6.33,-4.1914 -10.31,-4.1914" /><path
         id="path54"
         style="fill:#100f0d;fill-opacity:1;fill-rule:nonzero;stroke:none"
         d="m 3632.87,99.75 c 0,11.531 -2.45,20.57 -7.34,27.02 -4.88,6.41 -11.41,9.66 -19.65,9.66 -5.32,0 -9.95,-1.45 -14.02,-4.321 -4.06,-2.918 -7.18,-7.16 -9.36,-12.769 -2.16,-5.559 -3.28,-12.07 -3.28,-19.59 0,-7.4297 1.05,-13.8906 3.2,-19.418 2.22,-5.5429 5.27,-9.7929 9.3,-12.7422 4.01,-2.9414 8.72,-4.3906 14.16,-4.3906 8.24,0 14.77,3.2227 19.65,9.6914 4.89,6.461 7.34,15.4492 7.34,26.8594 z m 27.32,0 c 0,-8.4102 -1.25,-16.2109 -3.81,-23.3984 -2.54,-7.0821 -6.15,-13.2305 -10.95,-18.3828 -4.82,-5.1368 -10.46,-8.9688 -17.12,-11.7891 -6.63,-2.7305 -14.1,-4.0703 -22.43,-4.0703 -8.22,0 -15.62,1.3398 -22.19,4.1523 -6.59,2.7578 -12.25,6.7266 -17.05,11.9102 -4.9,5.1679 -8.52,11.2265 -11.04,18.2578 -2.44,7.082 -3.69,14.8125 -3.69,23.3711 0,8.5902 1.25,16.4492 3.79,23.5582 2.57,7.18 6.13,13.231 10.82,18.332 4.72,5.047 10.44,8.95 17.17,11.68 6.7,2.738 14.05,4.129 22.19,4.129 8.24,0 15.71,-1.391 22.43,-4.168 6.73,-2.762 12.46,-6.762 17.25,-11.871 4.75,-5.121 8.38,-11.262 10.9,-18.332 2.48,-7.051 3.73,-14.859 3.73,-23.379" /><path
         id="path56"
         style="fill:#100f0d;fill-opacity:1;fill-rule:nonzero;stroke:none"
         d="M 3708.63,83.0117 V 59.3906 c 0,-5.7695 -1.3,-10.1015 -3.89,-13 -2.55,-2.8203 -5.88,-4.2812 -9.83,-4.2812 -3.97,0 -7.15,1.4922 -9.69,4.3515 -2.56,2.9102 -3.8,7.1993 -3.8,12.9297 v 78.9884 c 0,12.762 4.47,19.121 13.26,19.121 4.52,0 7.76,-1.512 9.74,-4.461 1.96,-2.98 3.12,-7.391 3.36,-13.199 3.19,5.808 6.52,10.219 9.94,13.199 3.44,2.949 8.01,4.461 13.67,4.461 5.81,0 11.35,-1.512 16.67,-4.461 5.38,-2.98 8.1,-6.949 8.1,-11.859 0,-3.45 -1.16,-6.36 -3.43,-8.578 -2.31,-2.243 -4.75,-3.411 -7.47,-3.411 -0.96,0 -3.35,0.661 -7.17,1.969 -3.84,1.262 -7.21,1.93 -10.16,1.93 -3.95,0 -7.18,-1.059 -9.78,-3.289 -2.48,-2.223 -4.44,-5.41 -5.86,-9.699 -1.36,-4.352 -2.33,-9.43 -2.85,-15.391 -0.53,-5.8907 -0.81,-13.1016 -0.81,-21.6993" /><path
         id="path58"
         style="fill:#100f0d;fill-opacity:1;fill-rule:nonzero;stroke:none"
         d="m 3787.14,100.719 c 0,-11.4807 2.43,-20.1877 7.26,-26.1096 4.77,-5.8477 11.04,-8.8281 18.63,-8.8281 4.49,0 8.82,1.3085 12.81,3.8398 4.03,2.5273 7.3,6.3398 9.83,11.4375 2.56,5.1016 3.78,11.2617 3.78,18.5312 0,11.5702 -2.46,20.5702 -7.34,26.9922 -4.86,6.508 -11.29,9.758 -19.25,9.758 -7.75,0 -13.99,-3.16 -18.66,-9.301 -4.7,-6.187 -7.06,-14.937 -7.06,-26.32 z m 78.84,36 V 54.25 c 0,-9.4609 -1.03,-17.5586 -2.92,-24.3203 -1.93,-6.8203 -5.01,-12.4375 -9.26,-16.8594 -4.24,-4.42967 -9.84,-7.71874 -16.67,-9.87108 C 3830.25,1.08984 3821.68,0 3811.47,0 c -9.39,0 -17.77,1.32813 -25.1,4.05859 -7.39,2.8125 -13.08,6.30081 -17.05,10.67191 -3.98,4.2812 -5.99,8.75 -5.99,13.3476 0,3.4727 1.1,6.2813 3.42,8.4532 2.23,2.2382 4.96,3.3203 8.14,3.3203 4,0 7.44,-1.8516 10.49,-5.5 1.46,-1.9414 2.98,-3.8008 4.5,-5.6914 1.56,-1.9102 3.3,-3.5821 5.17,-4.8985 1.92,-1.3906 4.21,-2.3828 6.87,-3.0508 2.6,-0.6523 5.7,-0.9804 9.17,-0.9804 6.98,0 12.51,1.039 16.37,3.0586 3.88,2.0507 6.62,4.9101 8.2,8.5703 1.48,3.6797 2.49,7.6015 2.65,11.789 0.32,4.2735 0.5,10.9414 0.69,20.2813 -4.18,-6.0899 -9.09,-10.7383 -14.51,-13.9297 -5.48,-3.1992 -12.03,-4.75 -19.54,-4.75 -9.18,0 -17.13,2.3789 -23.89,7.2617 -6.85,4.8477 -12.08,11.6172 -15.72,20.3789 -3.61,8.711 -5.48,18.7891 -5.48,30.2384 0,8.57 1.09,16.281 3.36,23.141 2.18,6.832 5.33,12.628 9.52,17.351 4.07,4.711 8.85,8.277 14.22,10.68 5.41,2.347 11.25,3.57 17.75,3.57 7.67,0 14.34,-1.562 19.97,-4.66 5.73,-3.043 10.91,-7.941 15.77,-14.492 v 3.801 c 0,4.96 1.21,8.742 3.5,11.531 2.3,2.66 5.31,4.027 8.95,4.027 5.26,0 8.75,-1.769 10.49,-5.34 1.7,-3.59 2.59,-8.777 2.59,-15.519" /><path
         id="path60"
         style="fill:#100f0d;fill-opacity:1;fill-rule:nonzero;stroke:none"
         d="m 2687.28,413.102 h 40.33 c -2.85,-21.75 -11.76,-38.723 -26.58,-50.942 -13.72,-11.969 -30.33,-17.871 -49.73,-17.871 -26.34,0 -47.37,9.262 -63.07,27.723 -14.88,17.57 -22.3,40.258 -22.3,67.957 0,28.402 7.38,51.101 22.09,68.281 14.7,17.121 35.5,25.73 62.39,25.73 19.99,0 36.9,-5.41 50.62,-16.152 14.54,-11.598 23.44,-27.898 26.58,-48.769 h -40.33 c -3.5,18.222 -14.6,27.269 -33.53,27.269 -31.17,0 -46.79,-18.469 -46.79,-55.418 0,-17.32 4.02,-31.461 12.04,-42.461 8.02,-11.07 19.32,-16.59 33.9,-16.59 21.74,0 33.2,10.43 34.38,31.243 z m -158.8,25.449 c 0,-36.11 11.45,-66.66 34.31,-91.571 22.89,-24.89 50.9,-37.351 84.15,-37.351 33.1,0 61.13,12.461 83.98,37.351 22.92,24.911 34.3,55.461 34.3,91.571 0,36.07 -11.38,66.609 -34.3,91.508 -22.85,24.953 -50.88,37.382 -83.98,37.382 -33.25,0 -61.26,-12.429 -84.15,-37.382 -22.86,-24.899 -34.31,-55.438 -34.31,-91.508 z m -40.98,0 c 0,45.929 15.55,85.14 46.66,117.711 31.15,32.519 68.76,48.789 112.78,48.789 43.92,0 81.46,-16.27 112.64,-48.789 31.14,-32.571 46.73,-71.782 46.73,-117.711 0,-45.981 -15.59,-85.25 -46.73,-117.75 -31.18,-32.551 -68.72,-48.832 -112.64,-48.832 -44.02,0 -81.63,16.281 -112.78,48.832 -31.11,32.5 -46.66,71.769 -46.66,117.75" /><path
         id="path62"
         style="fill:#100f0d;fill-opacity:1;fill-rule:nonzero;stroke:none"
         d="m 2552.01,334.121 23.25,-19.723 170.96,219.532 -23.25,19.691 -170.96,-219.5" /><path
         id="path64"
         style="fill:#fcd5dd;fill-opacity:1;fill-rule:evenodd;stroke:none"
         d="m 2723.22,5594.01 c 1503.99,0 2723.22,-1219.23 2723.22,-2723.22 0,-506.99 -138.71,-981.52 -380.01,-1388 H 380.004 C 138.711,1889.27 0,2363.8 0,2870.79 0,4374.78 1219.22,5594.01 2723.22,5594.01" /><path
         id="path66"
         style="fill:#f8c0c8;fill-opacity:1;fill-rule:evenodd;stroke:none"
         d="m 3319.61,4433.51 c -264.36,0 -478.68,-214.32 -478.68,-478.7 0,-264.37 214.32,-478.69 478.68,-478.69 264.38,0 478.7,214.32 478.7,478.69 0,264.38 -214.32,478.7 -478.7,478.7 z m 292.08,504.81 c 68.89,-20.43 134.74,-47.93 196.75,-81.59 l 279.31,173.9 307.67,-307.68 -173.89,-279.33 c 33.67,-61.99 61.16,-127.84 81.59,-196.73 l 320.35,-74.52 v -435.11 l -320.35,-74.52 C 4282.69,3593.85 4255.2,3528 4221.53,3466 l 173.89,-279.31 -307.66,-307.68 -279.32,173.9 c -62.01,-33.67 -127.86,-61.16 -196.75,-81.59 l -74.52,-320.36 h -435.1 l -74.52,320.36 c -68.89,20.43 -134.74,47.92 -196.73,81.59 l -279.34,-173.9 -307.66,307.68 173.89,279.31 c -33.66,62 -61.16,127.85 -81.59,196.74 l -320.36,74.52 v 435.11 l 320.36,74.52 c 20.43,68.89 47.93,134.74 81.6,196.73 l -173.9,279.33 307.66,307.67 279.33,-173.89 c 62,33.66 127.85,61.16 196.74,81.59 l 74.52,320.35 h 435.1 l 74.52,-320.35 v 0" /><path
         id="path68"
         style="fill:#fac2cc;fill-opacity:1;fill-rule:evenodd;stroke:none"
         d="m 2748.35,1416.74 c 1455.48,0 2642.6,29.67 2642.6,66.05 0,36.38 -1187.12,66.06 -2642.6,66.06 -1455.48,0 -2642.588,-29.68 -2642.588,-66.06 0,-36.38 1187.108,-66.05 2642.588,-66.05" /><path
         id="path70"
         style="fill:#ad9294;fill-opacity:1;fill-rule:evenodd;stroke:none"
         d="M 515.813,1482.78 H 2657.86 V 5112.24 H 515.813 V 1482.78" /><path
         id="path72"
         style="fill:#7a6266;fill-opacity:1;fill-rule:evenodd;stroke:none"
         d="M 617.895,4544.88 H 2555.77 v 472.83 H 617.895 v -472.83" /><path
         id="path74"
         style="fill:#7a6266;fill-opacity:1;fill-rule:evenodd;stroke:none"
         d="m 617.906,4523.14 c 645.954,0 1291.914,0 1937.874,0 0,-157.61 0,-315.22 0,-472.83 -645.96,0 -1291.92,0 -1937.874,0 0,157.61 0,315.22 0,472.83" /><path
         id="path76"
         style="fill:#7a6266;fill-opacity:1;fill-rule:evenodd;stroke:none"
         d="m 617.906,4028.58 c 645.954,0 1291.914,0 1937.874,0 0,-157.61 0,-315.22 0,-472.83 -645.96,0 -1291.92,0 -1937.874,0 0,157.61 0,315.22 0,472.83" /><path
         id="path78"
         style="fill:#7a6266;fill-opacity:1;fill-rule:evenodd;stroke:none"
         d="m 617.906,3534.01 c 645.954,0 1291.914,0 1937.874,0 0,-157.61 0,-315.21 0,-472.83 -645.96,0 -1291.92,0 -1937.874,0 0,157.62 0,315.22 0,472.83" /><path
         id="path80"
         style="fill:#7a6266;fill-opacity:1;fill-rule:evenodd;stroke:none"
         d="m 617.906,3039.44 c 645.954,0 1291.914,0 1937.874,0 0,-157.59 0,-315.21 0,-472.82 -645.96,0 -1291.92,0 -1937.874,0 0,157.61 0,315.23 0,472.82" /><path
         id="path82"
         style="fill:#7a6266;fill-opacity:1;fill-rule:evenodd;stroke:none"
         d="m 617.906,2544.89 c 645.954,0 1291.914,0 1937.874,0 0,-157.6 0,-315.23 0,-472.83 -645.96,0 -1291.92,0 -1937.874,0 0,157.6 0,315.23 0,472.83" /><path
         id="path84"
         style="fill:#7a6266;fill-opacity:1;fill-rule:evenodd;stroke:none"
         d="M 617.895,1577.49 H 2555.77 v 472.83 H 617.895 v -472.83" /><path
         id="path86"
         style="fill:#8a7276;fill-opacity:1;fill-rule:evenodd;stroke:none"
         d="m 2502.47,4756.24 h -428.05 v -164.79 h 428.05 z m 0,-279.66 c -142.68,0 -285.37,0 -428.05,0 0,-54.93 0,-109.86 0,-164.79 142.68,0 285.37,0 428.05,0 0,54.93 0,109.86 0,164.79 z m 0,-214.91 c -142.68,0 -285.37,0 -428.05,0 0,-54.93 0,-109.86 0,-164.78 142.68,0 285.37,0 428.05,0 0,54.92 0,109.85 0,164.78 z m 0,-279.65 c -142.68,0 -285.37,0 -428.05,0 0,-54.93 0,-109.86 0,-164.79 142.68,0 285.37,0 428.05,0 0,54.93 0,109.86 0,164.79 z m 0,-214.91 c -142.68,0 -285.37,0 -428.05,0 0,-54.93 0,-109.86 0,-164.78 142.68,0 285.37,0 428.05,0 0,54.92 0,109.85 0,164.78 z m 0,-279.66 c -142.68,0 -285.37,0 -428.05,0 0,-54.93 0,-109.86 0,-164.78 142.68,0 285.37,0 428.05,0 0,54.92 0,109.85 0,164.78 z m 0,-214.91 c -142.68,0 -285.37,0 -428.05,0 0,-54.93 0,-109.85 0,-164.78 142.68,0 285.37,0 428.05,0 0,54.93 0,109.85 0,164.78 z m 0,-279.66 c -142.68,0 -285.37,0 -428.05,0 0,-54.92 0,-109.85 0,-164.78 142.68,0 285.37,0 428.05,0 0,54.93 0,109.86 0,164.78 z m 0,-214.9 c -142.68,0 -285.37,0 -428.05,0 0,-54.93 0,-109.86 0,-164.79 142.68,0 285.37,0 428.05,0 0,54.93 0,109.86 0,164.79 z m 0,-279.66 c -142.68,0 -285.37,0 -428.05,0 0,-54.93 0,-109.84 0,-164.79 142.68,0 285.37,0 428.05,0 0,54.95 0,109.86 0,164.79 z m 0,-214.9 c -142.68,0 -285.37,0 -428.05,0 0,-54.93 0,-109.86 0,-164.79 142.68,0 285.37,0 428.05,0 0,54.93 0,109.86 0,164.79 z m 0,-279.66 h -428.05 v -164.78 h 428.05 v 164.78 z m 0,-214.91 h -428.05 v -164.79 h 428.05 v 164.79 z m 0,3182.29 h -428.05 v -164.78 h 428.05 v 164.78 0" /><path
         id="path88"
         style="fill:#674d51;fill-opacity:1;fill-rule:evenodd;stroke:none"
         d="m 1303.08,4971.14 c 25.07,0 50.14,0 75.22,0 0,-126.57 0,-253.13 0,-379.69 -25.08,0 -50.15,0 -75.22,0 0,126.56 0,253.12 0,379.69 z m -113.13,0 c 25.07,0 50.14,0 75.22,0 0,-126.57 0,-253.13 0,-379.69 -25.08,0 -50.15,0 -75.22,0 0,126.56 0,253.12 0,379.69 z m -113.14,0 c 25.08,0 50.15,0 75.23,0 0,-126.57 0,-253.13 0,-379.69 -25.08,0 -50.15,0 -75.23,0 0,126.56 0,253.12 0,379.69 z m -113.126,0 c 25.07,0 50.146,0 75.226,0 0,-126.57 0,-253.13 0,-379.69 -25.08,0 -50.156,0 -75.226,0 0,126.56 0,253.12 0,379.69 z m -113.137,0 c 25.082,0 50.152,0 75.223,0 0,-126.57 0,-253.13 0,-379.69 -25.071,0 -50.141,0 -75.223,0 0,126.56 0,253.12 0,379.69 z m 565.673,0 h 75.22 v -379.69 h -75.22 v 379.69 z m -113.14,-494.56 c 25.07,0 50.14,0 75.22,0 0,-126.57 0,-253.13 0,-379.69 -25.08,0 -50.15,0 -75.22,0 0,126.56 0,253.12 0,379.69 z m -113.13,0 c 25.07,0 50.14,0 75.22,0 0,-126.57 0,-253.13 0,-379.69 -25.08,0 -50.15,0 -75.22,0 0,126.56 0,253.12 0,379.69 z m -113.14,0 c 25.08,0 50.15,0 75.23,0 0,-126.57 0,-253.13 0,-379.69 -25.08,0 -50.15,0 -75.23,0 0,126.56 0,253.12 0,379.69 z m -113.126,0 c 25.07,0 50.146,0 75.226,0 0,-126.57 0,-253.13 0,-379.69 -25.08,0 -50.156,0 -75.226,0 0,126.56 0,253.12 0,379.69 z m -113.137,0 c 25.082,0 50.152,0 75.223,0 0,-126.57 0,-253.13 0,-379.69 -25.071,0 -50.141,0 -75.223,0 0,126.56 0,253.12 0,379.69 z m 565.673,0 c 25.07,0 50.14,0 75.22,0 0,-126.57 0,-253.13 0,-379.69 -25.08,0 -50.15,0 -75.22,0 0,126.56 0,253.12 0,379.69 z m -678.802,0 c 25.078,0 50.145,0 75.223,0 0,-126.57 0,-253.13 0,-379.69 -25.078,0 -50.145,0 -75.223,0 0,126.56 0,253.12 0,379.69 z m 565.662,-494.56 c 25.07,0 50.14,0 75.22,0 0,-126.57 0,-253.14 0,-379.69 -25.08,0 -50.15,0 -75.22,0 0,126.55 0,253.12 0,379.69 z m -113.13,0 c 25.07,0 50.14,0 75.22,0 0,-126.57 0,-253.14 0,-379.69 -25.08,0 -50.15,0 -75.22,0 0,126.55 0,253.12 0,379.69 z m -113.14,0 c 25.08,0 50.15,0 75.23,0 0,-126.57 0,-253.14 0,-379.69 -25.08,0 -50.15,0 -75.23,0 0,126.55 0,253.12 0,379.69 z m -113.126,0 c 25.07,0 50.146,0 75.226,0 0,-126.57 0,-253.14 0,-379.69 -25.08,0 -50.156,0 -75.226,0 0,126.55 0,253.12 0,379.69 z m -113.137,0 c 25.082,0 50.152,0 75.223,0 0,-126.57 0,-253.14 0,-379.69 -25.071,0 -50.141,0 -75.223,0 0,126.55 0,253.12 0,379.69 z m 565.673,0 c 25.07,0 50.14,0 75.22,0 0,-126.57 0,-253.14 0,-379.69 -25.08,0 -50.15,0 -75.22,0 0,126.55 0,253.12 0,379.69 z m -678.802,0 c 25.078,0 50.145,0 75.223,0 0,-126.57 0,-253.14 0,-379.69 -25.078,0 -50.145,0 -75.223,0 0,126.55 0,253.12 0,379.69 z m 565.662,-494.57 c 25.07,0 50.14,0 75.22,0 0,-126.57 0,-253.13 0,-379.69 -25.08,0 -50.15,0 -75.22,0 0,126.56 0,253.12 0,379.69 z m -113.13,0 c 25.07,0 50.14,0 75.22,0 0,-126.57 0,-253.13 0,-379.69 -25.08,0 -50.15,0 -75.22,0 0,126.56 0,253.12 0,379.69 z m -113.14,0 c 25.08,0 50.15,0 75.23,0 0,-126.57 0,-253.13 0,-379.69 -25.08,0 -50.15,0 -75.23,0 0,126.56 0,253.12 0,379.69 z m -113.126,0 c 25.07,0 50.146,0 75.226,0 0,-126.57 0,-253.13 0,-379.69 -25.08,0 -50.156,0 -75.226,0 0,126.56 0,253.12 0,379.69 z m -113.137,0 c 25.082,0 50.152,0 75.223,0 0,-126.57 0,-253.13 0,-379.69 -25.071,0 -50.141,0 -75.223,0 0,126.56 0,253.12 0,379.69 z m 565.673,0 c 25.07,0 50.14,0 75.22,0 0,-126.57 0,-253.13 0,-379.69 -25.08,0 -50.15,0 -75.22,0 0,126.56 0,253.12 0,379.69 z m -678.802,0 c 25.078,0 50.145,0 75.223,0 0,-126.57 0,-253.13 0,-379.69 -25.078,0 -50.145,0 -75.223,0 0,126.56 0,253.12 0,379.69 z m 565.662,-494.57 c 25.07,0 50.14,0 75.22,0 0,-126.56 0,-253.12 0,-379.69 -25.08,0 -50.15,0 -75.22,0 0,126.57 0,253.13 0,379.69 z m -113.13,0 c 25.07,0 50.14,0 75.22,0 0,-126.56 0,-253.12 0,-379.69 -25.08,0 -50.15,0 -75.22,0 0,126.57 0,253.13 0,379.69 z m -113.14,0 c 25.08,0 50.15,0 75.23,0 0,-126.56 0,-253.12 0,-379.69 -25.08,0 -50.15,0 -75.23,0 0,126.57 0,253.13 0,379.69 z m -113.126,0 c 25.07,0 50.146,0 75.226,0 0,-126.56 0,-253.12 0,-379.69 -25.08,0 -50.156,0 -75.226,0 0,126.57 0,253.13 0,379.69 z m -113.137,0 c 25.082,0 50.152,0 75.223,0 0,-126.56 0,-253.12 0,-379.69 -25.071,0 -50.141,0 -75.223,0 0,126.57 0,253.13 0,379.69 z m 565.673,0 c 25.07,0 50.14,0 75.22,0 0,-126.56 0,-253.12 0,-379.69 -25.08,0 -50.15,0 -75.22,0 0,126.57 0,253.13 0,379.69 z m -678.802,0 c 25.078,0 50.145,0 75.223,0 0,-126.56 0,-253.12 0,-379.69 -25.078,0 -50.145,0 -75.223,0 0,126.57 0,253.13 0,379.69 z m 565.662,-494.56 c 25.07,0 50.14,0 75.22,0 0,-126.57 0,-253.12 0,-379.69 -25.08,0 -50.15,0 -75.22,0 0,126.57 0,253.12 0,379.69 z m -113.13,0 c 25.07,0 50.14,0 75.22,0 0,-126.57 0,-253.12 0,-379.69 -25.08,0 -50.15,0 -75.22,0 0,126.57 0,253.12 0,379.69 z m -113.14,0 c 25.08,0 50.15,0 75.23,0 0,-126.57 0,-253.12 0,-379.69 -25.08,0 -50.15,0 -75.23,0 0,126.57 0,253.12 0,379.69 z m -113.126,0 c 25.07,0 50.146,0 75.226,0 0,-126.57 0,-253.12 0,-379.69 -25.08,0 -50.156,0 -75.226,0 0,126.57 0,253.12 0,379.69 z m -113.137,0 c 25.082,0 50.152,0 75.223,0 0,-126.57 0,-253.12 0,-379.69 -25.071,0 -50.141,0 -75.223,0 0,126.57 0,253.12 0,379.69 z m 565.673,0 c 25.07,0 50.14,0 75.22,0 0,-126.57 0,-253.12 0,-379.69 -25.08,0 -50.15,0 -75.22,0 0,126.57 0,253.12 0,379.69 z m -678.802,0 c 25.078,0 50.145,0 75.223,0 0,-126.57 0,-253.12 0,-379.69 -25.078,0 -50.145,0 -75.223,0 0,126.57 0,253.12 0,379.69 z m 565.662,-494.56 c 25.07,0 50.14,0 75.22,0 0,-126.57 0,-253.13 0,-379.7 -25.08,0 -50.15,0 -75.22,0 0,126.57 0,253.13 0,379.7 z m -113.13,0 c 25.07,0 50.14,0 75.22,0 0,-126.57 0,-253.13 0,-379.7 -25.08,0 -50.15,0 -75.22,0 0,126.57 0,253.13 0,379.7 z m -113.14,0 c 25.08,0 50.15,0 75.23,0 0,-126.57 0,-253.13 0,-379.7 -25.08,0 -50.15,0 -75.23,0 0,126.57 0,253.13 0,379.7 z m -113.126,0 c 25.07,0 50.146,0 75.226,0 0,-126.57 0,-253.13 0,-379.7 -25.08,0 -50.156,0 -75.226,0 0,126.57 0,253.13 0,379.7 z m -113.137,0 c 25.082,0 50.152,0 75.223,0 0,-126.57 0,-253.13 0,-379.7 -25.071,0 -50.141,0 -75.223,0 0,126.57 0,253.13 0,379.7 z m 565.673,0 h 75.22 v -379.7 h -75.22 v 379.7 z m -678.802,0 h 75.223 v -379.7 h -75.223 v 379.7 z m 0,2967.38 h 75.223 v -379.69 h -75.223 v 379.69 0" /><path
         id="path90"
         style="fill:#483234;fill-opacity:1;fill-rule:evenodd;stroke:none"
         d="m 2001.88,4886.52 c 13.74,0 27.48,0 41.2,0 0,-13.73 0,-27.47 0,-41.21 -13.72,0 -27.46,0 -41.2,0 0,13.74 0,27.48 0,41.21 z m -80,0 c 13.74,0 27.47,0 41.21,0 0,-13.73 0,-27.47 0,-41.21 -13.74,0 -27.47,0 -41.21,0 0,13.74 0,27.48 0,41.21 z m -80,0 c 13.74,0 27.48,0 41.21,0 0,-13.73 0,-27.47 0,-41.21 -13.73,0 -27.47,0 -41.21,0 0,13.74 0,27.48 0,41.21 z m -80,0 c 13.74,0 27.48,0 41.21,0 0,-13.73 0,-27.47 0,-41.21 -13.73,0 -27.47,0 -41.21,0 0,13.74 0,27.48 0,41.21 z m -79.99,0 c 13.74,0 27.47,0 41.2,0 0,-13.73 0,-27.47 0,-41.21 -13.73,0 -27.46,0 -41.2,0 0,13.74 0,27.48 0,41.21 z m -160,0 c 13.74,0 27.47,0 41.21,0 0,-13.73 0,-27.47 0,-41.21 -13.74,0 -27.47,0 -41.21,0 0,13.74 0,27.48 0,41.21 z m 479.99,-84.63 c 13.74,0 27.48,0 41.2,0 0,-13.73 0,-27.46 0,-41.2 -13.72,0 -27.46,0 -41.2,0 0,13.74 0,27.47 0,41.2 z m -80,0 c 13.74,0 27.47,0 41.21,0 0,-13.73 0,-27.46 0,-41.2 -13.74,0 -27.47,0 -41.21,0 0,13.74 0,27.47 0,41.2 z m -80,0 c 13.74,0 27.48,0 41.21,0 0,-13.73 0,-27.46 0,-41.2 -13.73,0 -27.47,0 -41.21,0 0,13.74 0,27.47 0,41.2 z m -80,0 c 13.74,0 27.48,0 41.21,0 0,-13.73 0,-27.46 0,-41.2 -13.73,0 -27.47,0 -41.21,0 0,13.74 0,27.47 0,41.2 z m -79.99,0 c 13.74,0 27.47,0 41.2,0 0,-13.73 0,-27.46 0,-41.2 -13.73,0 -27.46,0 -41.2,0 0,13.74 0,27.47 0,41.2 z m -160,0 c 13.74,0 27.47,0 41.21,0 0,-13.73 0,-27.46 0,-41.2 -13.74,0 -27.47,0 -41.21,0 0,13.74 0,27.47 0,41.2 z m 479.99,-84.62 c 13.74,0 27.48,0 41.2,0 0,-13.73 0,-27.47 0,-41.2 -13.72,0 -27.46,0 -41.2,0 0,13.73 0,27.47 0,41.2 z m -80,0 c 13.74,0 27.47,0 41.21,0 0,-13.73 0,-27.47 0,-41.2 -13.74,0 -27.47,0 -41.21,0 0,13.73 0,27.47 0,41.2 z m -80,0 c 13.74,0 27.48,0 41.21,0 0,-13.73 0,-27.47 0,-41.2 -13.73,0 -27.47,0 -41.21,0 0,13.73 0,27.47 0,41.2 z m -80,0 c 13.74,0 27.48,0 41.21,0 0,-13.73 0,-27.47 0,-41.2 -13.73,0 -27.47,0 -41.21,0 0,13.73 0,27.47 0,41.2 z m -79.99,0 c 13.74,0 27.47,0 41.2,0 0,-13.73 0,-27.47 0,-41.2 -13.73,0 -27.46,0 -41.2,0 0,13.73 0,27.47 0,41.2 z m -160,0 c 13.74,0 27.47,0 41.21,0 0,-13.73 0,-27.47 0,-41.2 -13.74,0 -27.47,0 -41.21,0 0,13.73 0,27.47 0,41.2 z m 479.99,-84.61 h 41.2 v -41.21 h -41.2 v 41.21 z m -80,0 c 13.74,0 27.47,0 41.21,0 0,-13.74 0,-27.48 0,-41.21 -13.74,0 -27.47,0 -41.21,0 0,13.73 0,27.47 0,41.21 z m -80,0 c 13.74,0 27.48,0 41.21,0 0,-13.74 0,-27.48 0,-41.21 -13.73,0 -27.47,0 -41.21,0 0,13.73 0,27.47 0,41.21 z m -80,0 c 13.74,0 27.48,0 41.21,0 0,-13.74 0,-27.48 0,-41.21 -13.73,0 -27.47,0 -41.21,0 0,13.73 0,27.47 0,41.21 z m -79.99,0 c 13.74,0 27.47,0 41.2,0 0,-13.74 0,-27.48 0,-41.21 -13.73,0 -27.46,0 -41.2,0 0,13.73 0,27.47 0,41.21 z m -160,0 h 41.21 v -41.21 h -41.21 v 41.21 z m 80,0 c 13.74,0 27.47,0 41.21,0 0,-13.74 0,-27.48 0,-41.21 -13.74,0 -27.47,0 -41.21,0 0,13.73 0,27.47 0,41.21 z m 0,84.61 c 13.74,0 27.47,0 41.21,0 0,-13.73 0,-27.47 0,-41.2 -13.74,0 -27.47,0 -41.21,0 0,13.73 0,27.47 0,41.2 z m 0,84.62 c 13.74,0 27.47,0 41.21,0 0,-13.73 0,-27.46 0,-41.2 -13.74,0 -27.47,0 -41.21,0 0,13.74 0,27.47 0,41.2 z m 399.99,169.25 h 41.2 v -41.2 h -41.2 v 41.2 z m -80,0 c 13.74,0 27.47,0 41.21,0 0,-13.74 0,-27.47 0,-41.2 -13.74,0 -27.47,0 -41.21,0 0,13.73 0,27.46 0,41.2 z m -80,0 c 13.74,0 27.48,0 41.21,0 0,-13.74 0,-27.47 0,-41.2 -13.73,0 -27.47,0 -41.21,0 0,13.73 0,27.46 0,41.2 z m -80,0 c 13.74,0 27.48,0 41.21,0 0,-13.74 0,-27.47 0,-41.2 -13.73,0 -27.47,0 -41.21,0 0,13.73 0,27.46 0,41.2 z m -79.99,0 c 13.74,0 27.47,0 41.2,0 0,-13.74 0,-27.47 0,-41.2 -13.73,0 -27.46,0 -41.2,0 0,13.73 0,27.46 0,41.2 z m -160,0 h 41.21 v -41.2 h -41.21 v 41.2 z m 80,0 c 13.74,0 27.47,0 41.21,0 0,-13.74 0,-27.47 0,-41.2 -13.74,0 -27.47,0 -41.21,0 0,13.73 0,27.46 0,41.2 z m 399.99,-579.19 c 13.74,0 27.48,0 41.2,0 0,-13.73 0,-27.47 0,-41.2 -13.72,0 -27.46,0 -41.2,0 0,13.73 0,27.47 0,41.2 z m -80,0 c 13.74,0 27.47,0 41.21,0 0,-13.73 0,-27.47 0,-41.2 -13.74,0 -27.47,0 -41.21,0 0,13.73 0,27.47 0,41.2 z m -80,0 c 13.74,0 27.48,0 41.21,0 0,-13.73 0,-27.47 0,-41.2 -13.73,0 -27.47,0 -41.21,0 0,13.73 0,27.47 0,41.2 z m -80,0 c 13.74,0 27.48,0 41.21,0 0,-13.73 0,-27.47 0,-41.2 -13.73,0 -27.47,0 -41.21,0 0,13.73 0,27.47 0,41.2 z m -79.99,0 c 13.74,0 27.47,0 41.2,0 0,-13.73 0,-27.47 0,-41.2 -13.73,0 -27.46,0 -41.2,0 0,13.73 0,27.47 0,41.2 z m -160,0 c 13.74,0 27.47,0 41.21,0 0,-13.73 0,-27.47 0,-41.2 -13.74,0 -27.47,0 -41.21,0 0,13.73 0,27.47 0,41.2 z m 479.99,-84.62 c 13.74,0 27.48,0 41.2,0 0,-13.74 0,-27.47 0,-41.2 -13.72,0 -27.46,0 -41.2,0 0,13.73 0,27.46 0,41.2 z m -80,0 c 13.74,0 27.47,0 41.21,0 0,-13.74 0,-27.47 0,-41.2 -13.74,0 -27.47,0 -41.21,0 0,13.73 0,27.46 0,41.2 z m -80,0 c 13.74,0 27.48,0 41.21,0 0,-13.74 0,-27.47 0,-41.2 -13.73,0 -27.47,0 -41.21,0 0,13.73 0,27.46 0,41.2 z m -80,0 c 13.74,0 27.48,0 41.21,0 0,-13.74 0,-27.47 0,-41.2 -13.73,0 -27.47,0 -41.21,0 0,13.73 0,27.46 0,41.2 z m -79.99,0 c 13.74,0 27.47,0 41.2,0 0,-13.74 0,-27.47 0,-41.2 -13.73,0 -27.46,0 -41.2,0 0,13.73 0,27.46 0,41.2 z m -160,0 c 13.74,0 27.47,0 41.21,0 0,-13.74 0,-27.47 0,-41.2 -13.74,0 -27.47,0 -41.21,0 0,13.73 0,27.46 0,41.2 z m 479.99,-84.62 c 13.74,0 27.48,0 41.2,0 0,-13.73 0,-27.47 0,-41.2 -13.72,0 -27.46,0 -41.2,0 0,13.73 0,27.47 0,41.2 z m -80,0 c 13.74,0 27.47,0 41.21,0 0,-13.73 0,-27.47 0,-41.2 -13.74,0 -27.47,0 -41.21,0 0,13.73 0,27.47 0,41.2 z m -80,0 c 13.74,0 27.48,0 41.21,0 0,-13.73 0,-27.47 0,-41.2 -13.73,0 -27.47,0 -41.21,0 0,13.73 0,27.47 0,41.2 z m -80,0 c 13.74,0 27.48,0 41.21,0 0,-13.73 0,-27.47 0,-41.2 -13.73,0 -27.47,0 -41.21,0 0,13.73 0,27.47 0,41.2 z m -79.99,0 c 13.74,0 27.47,0 41.2,0 0,-13.73 0,-27.47 0,-41.2 -13.73,0 -27.46,0 -41.2,0 0,13.73 0,27.47 0,41.2 z m -160,0 c 13.74,0 27.47,0 41.21,0 0,-13.73 0,-27.47 0,-41.2 -13.74,0 -27.47,0 -41.21,0 0,13.73 0,27.47 0,41.2 z m 479.99,-84.62 c 13.74,0 27.48,0 41.2,0 0,-13.74 0,-27.47 0,-41.2 -13.72,0 -27.46,0 -41.2,0 0,13.73 0,27.46 0,41.2 z m -80,0 c 13.74,0 27.47,0 41.21,0 0,-13.74 0,-27.47 0,-41.2 -13.74,0 -27.47,0 -41.21,0 0,13.73 0,27.46 0,41.2 z m -80,0 c 13.74,0 27.48,0 41.21,0 0,-13.74 0,-27.47 0,-41.2 -13.73,0 -27.47,0 -41.21,0 0,13.73 0,27.46 0,41.2 z m -80,0 c 13.74,0 27.48,0 41.21,0 0,-13.74 0,-27.47 0,-41.2 -13.73,0 -27.47,0 -41.21,0 0,13.73 0,27.46 0,41.2 z m -79.99,0 c 13.74,0 27.47,0 41.2,0 0,-13.74 0,-27.47 0,-41.2 -13.73,0 -27.46,0 -41.2,0 0,13.73 0,27.46 0,41.2 z m -160,0 c 13.74,0 27.47,0 41.21,0 0,-13.74 0,-27.47 0,-41.2 -13.74,0 -27.47,0 -41.21,0 0,13.73 0,27.46 0,41.2 z m 80,0 c 13.74,0 27.47,0 41.21,0 0,-13.74 0,-27.47 0,-41.2 -13.74,0 -27.47,0 -41.21,0 0,13.73 0,27.46 0,41.2 z m 0,84.62 c 13.74,0 27.47,0 41.21,0 0,-13.73 0,-27.47 0,-41.2 -13.74,0 -27.47,0 -41.21,0 0,13.73 0,27.47 0,41.2 z m 0,84.62 c 13.74,0 27.47,0 41.21,0 0,-13.74 0,-27.47 0,-41.2 -13.74,0 -27.47,0 -41.21,0 0,13.73 0,27.46 0,41.2 z m 399.99,169.25 c 13.74,0 27.48,0 41.2,0 0,-13.74 0,-27.47 0,-41.21 -13.72,0 -27.46,0 -41.2,0 0,13.74 0,27.47 0,41.21 z m -80,0 c 13.74,0 27.47,0 41.21,0 0,-13.74 0,-27.47 0,-41.21 -13.74,0 -27.47,0 -41.21,0 0,13.74 0,27.47 0,41.21 z m -80,0 c 13.74,0 27.48,0 41.21,0 0,-13.74 0,-27.47 0,-41.21 -13.73,0 -27.47,0 -41.21,0 0,13.74 0,27.47 0,41.21 z m -80,0 c 13.74,0 27.48,0 41.21,0 0,-13.74 0,-27.47 0,-41.21 -13.73,0 -27.47,0 -41.21,0 0,13.74 0,27.47 0,41.21 z m -79.99,0 c 13.74,0 27.47,0 41.2,0 0,-13.74 0,-27.47 0,-41.21 -13.73,0 -27.46,0 -41.2,0 0,13.74 0,27.47 0,41.21 z m -160,0 c 13.74,0 27.47,0 41.21,0 0,-13.74 0,-27.47 0,-41.21 -13.74,0 -27.47,0 -41.21,0 0,13.74 0,27.47 0,41.21 z m 80,0 c 13.74,0 27.47,0 41.21,0 0,-13.74 0,-27.47 0,-41.21 -13.74,0 -27.47,0 -41.21,0 0,13.74 0,27.47 0,41.21 z m 0,-84.63 c 13.74,0 27.47,0 41.21,0 0,-13.73 0,-27.47 0,-41.2 -13.74,0 -27.47,0 -41.21,0 0,13.73 0,27.47 0,41.2 z m 399.99,-494.56 c 13.74,0 27.48,0 41.2,0 0,-13.73 0,-27.46 0,-41.2 -13.72,0 -27.46,0 -41.2,0 0,13.74 0,27.47 0,41.2 z m -80,0 c 13.74,0 27.47,0 41.21,0 0,-13.73 0,-27.46 0,-41.2 -13.74,0 -27.47,0 -41.21,0 0,13.74 0,27.47 0,41.2 z m -80,0 c 13.74,0 27.48,0 41.21,0 0,-13.73 0,-27.46 0,-41.2 -13.73,0 -27.47,0 -41.21,0 0,13.74 0,27.47 0,41.2 z m -80,0 c 13.74,0 27.48,0 41.21,0 0,-13.73 0,-27.46 0,-41.2 -13.73,0 -27.47,0 -41.21,0 0,13.74 0,27.47 0,41.2 z m -79.99,0 c 13.74,0 27.47,0 41.2,0 0,-13.73 0,-27.46 0,-41.2 -13.73,0 -27.46,0 -41.2,0 0,13.74 0,27.47 0,41.2 z m -160,0 c 13.74,0 27.47,0 41.21,0 0,-13.73 0,-27.46 0,-41.2 -13.74,0 -27.47,0 -41.21,0 0,13.74 0,27.47 0,41.2 z m 479.99,-84.62 c 13.74,0 27.48,0 41.2,0 0,-13.74 0,-27.48 0,-41.2 -13.72,0 -27.46,0 -41.2,0 0,13.72 0,27.46 0,41.2 z m -80,0 c 13.74,0 27.47,0 41.21,0 0,-13.74 0,-27.48 0,-41.2 -13.74,0 -27.47,0 -41.21,0 0,13.72 0,27.46 0,41.2 z m -80,0 c 13.74,0 27.48,0 41.21,0 0,-13.74 0,-27.48 0,-41.2 -13.73,0 -27.47,0 -41.21,0 0,13.72 0,27.46 0,41.2 z m -80,0 c 13.74,0 27.48,0 41.21,0 0,-13.74 0,-27.48 0,-41.2 -13.73,0 -27.47,0 -41.21,0 0,13.72 0,27.46 0,41.2 z m -79.99,0 c 13.74,0 27.47,0 41.2,0 0,-13.74 0,-27.48 0,-41.2 -13.73,0 -27.46,0 -41.2,0 0,13.72 0,27.46 0,41.2 z m -160,0 c 13.74,0 27.47,0 41.21,0 0,-13.74 0,-27.48 0,-41.2 -13.74,0 -27.47,0 -41.21,0 0,13.72 0,27.46 0,41.2 z m 479.99,-84.62 c 13.74,0 27.48,0 41.2,0 0,-13.73 0,-27.47 0,-41.21 -13.72,0 -27.46,0 -41.2,0 0,13.74 0,27.48 0,41.21 z m -80,0 c 13.74,0 27.47,0 41.21,0 0,-13.73 0,-27.47 0,-41.21 -13.74,0 -27.47,0 -41.21,0 0,13.74 0,27.48 0,41.21 z m -80,0 c 13.74,0 27.48,0 41.21,0 0,-13.73 0,-27.47 0,-41.21 -13.73,0 -27.47,0 -41.21,0 0,13.74 0,27.48 0,41.21 z m -80,0 c 13.74,0 27.48,0 41.21,0 0,-13.73 0,-27.47 0,-41.21 -13.73,0 -27.47,0 -41.21,0 0,13.74 0,27.48 0,41.21 z m -79.99,0 c 13.74,0 27.47,0 41.2,0 0,-13.73 0,-27.47 0,-41.21 -13.73,0 -27.46,0 -41.2,0 0,13.74 0,27.48 0,41.21 z m -160,0 c 13.74,0 27.47,0 41.21,0 0,-13.73 0,-27.47 0,-41.21 -13.74,0 -27.47,0 -41.21,0 0,13.74 0,27.48 0,41.21 z m 479.99,-84.62 c 13.74,0 27.48,0 41.2,0 0,-13.74 0,-27.47 0,-41.2 -13.72,0 -27.46,0 -41.2,0 0,13.73 0,27.46 0,41.2 z m -80,0 c 13.74,0 27.47,0 41.21,0 0,-13.74 0,-27.47 0,-41.2 -13.74,0 -27.47,0 -41.21,0 0,13.73 0,27.46 0,41.2 z m -80,0 c 13.74,0 27.48,0 41.21,0 0,-13.74 0,-27.47 0,-41.2 -13.73,0 -27.47,0 -41.21,0 0,13.73 0,27.46 0,41.2 z m -80,0 c 13.74,0 27.48,0 41.21,0 0,-13.74 0,-27.47 0,-41.2 -13.73,0 -27.47,0 -41.21,0 0,13.73 0,27.46 0,41.2 z m -79.99,0 c 13.74,0 27.47,0 41.2,0 0,-13.74 0,-27.47 0,-41.2 -13.73,0 -27.46,0 -41.2,0 0,13.73 0,27.46 0,41.2 z m -160,0 c 13.74,0 27.47,0 41.21,0 0,-13.74 0,-27.47 0,-41.2 -13.74,0 -27.47,0 -41.21,0 0,13.73 0,27.46 0,41.2 z m 80,0 c 13.74,0 27.47,0 41.21,0 0,-13.74 0,-27.47 0,-41.2 -13.74,0 -27.47,0 -41.21,0 0,13.73 0,27.46 0,41.2 z m 0,84.62 c 13.74,0 27.47,0 41.21,0 0,-13.73 0,-27.47 0,-41.21 -13.74,0 -27.47,0 -41.21,0 0,13.74 0,27.48 0,41.21 z m 0,84.62 c 13.74,0 27.47,0 41.21,0 0,-13.74 0,-27.48 0,-41.2 -13.74,0 -27.47,0 -41.21,0 0,13.72 0,27.46 0,41.2 z m 399.99,169.25 c 13.74,0 27.48,0 41.2,0 0,-13.74 0,-27.48 0,-41.21 -13.72,0 -27.46,0 -41.2,0 0,13.73 0,27.47 0,41.21 z m -80,0 c 13.74,0 27.47,0 41.21,0 0,-13.74 0,-27.48 0,-41.21 -13.74,0 -27.47,0 -41.21,0 0,13.73 0,27.47 0,41.21 z m -80,0 c 13.74,0 27.48,0 41.21,0 0,-13.74 0,-27.48 0,-41.21 -13.73,0 -27.47,0 -41.21,0 0,13.73 0,27.47 0,41.21 z m -80,0 c 13.74,0 27.48,0 41.21,0 0,-13.74 0,-27.48 0,-41.21 -13.73,0 -27.47,0 -41.21,0 0,13.73 0,27.47 0,41.21 z m -79.99,0 c 13.74,0 27.47,0 41.2,0 0,-13.74 0,-27.48 0,-41.21 -13.73,0 -27.46,0 -41.2,0 0,13.73 0,27.47 0,41.21 z m -160,0 c 13.74,0 27.47,0 41.21,0 0,-13.74 0,-27.48 0,-41.21 -13.74,0 -27.47,0 -41.21,0 0,13.73 0,27.47 0,41.21 z m 80,0 c 13.74,0 27.47,0 41.21,0 0,-13.74 0,-27.48 0,-41.21 -13.74,0 -27.47,0 -41.21,0 0,13.73 0,27.47 0,41.21 z m 0,-84.63 c 13.74,0 27.47,0 41.21,0 0,-13.73 0,-27.46 0,-41.2 -13.74,0 -27.47,0 -41.21,0 0,13.74 0,27.47 0,41.2 z m 399.99,-494.56 c 13.74,0 27.48,0 41.2,0 0,-13.74 0,-27.47 0,-41.21 -13.72,0 -27.46,0 -41.2,0 0,13.74 0,27.47 0,41.21 z m -80,0 c 13.74,0 27.47,0 41.21,0 0,-13.74 0,-27.47 0,-41.21 -13.74,0 -27.47,0 -41.21,0 0,13.74 0,27.47 0,41.21 z m -80,0 c 13.74,0 27.48,0 41.21,0 0,-13.74 0,-27.47 0,-41.21 -13.73,0 -27.47,0 -41.21,0 0,13.74 0,27.47 0,41.21 z m -80,0 c 13.74,0 27.48,0 41.21,0 0,-13.74 0,-27.47 0,-41.21 -13.73,0 -27.47,0 -41.21,0 0,13.74 0,27.47 0,41.21 z m -79.99,0 c 13.74,0 27.47,0 41.2,0 0,-13.74 0,-27.47 0,-41.21 -13.73,0 -27.46,0 -41.2,0 0,13.74 0,27.47 0,41.21 z m -160,0 c 13.74,0 27.47,0 41.21,0 0,-13.74 0,-27.47 0,-41.21 -13.74,0 -27.47,0 -41.21,0 0,13.74 0,27.47 0,41.21 z m 479.99,-84.63 c 13.74,0 27.48,0 41.2,0 0,-13.73 0,-27.47 0,-41.2 -13.72,0 -27.46,0 -41.2,0 0,13.73 0,27.47 0,41.2 z m -80,0 c 13.74,0 27.47,0 41.21,0 0,-13.73 0,-27.47 0,-41.2 -13.74,0 -27.47,0 -41.21,0 0,13.73 0,27.47 0,41.2 z m -80,0 c 13.74,0 27.48,0 41.21,0 0,-13.73 0,-27.47 0,-41.2 -13.73,0 -27.47,0 -41.21,0 0,13.73 0,27.47 0,41.2 z m -80,0 c 13.74,0 27.48,0 41.21,0 0,-13.73 0,-27.47 0,-41.2 -13.73,0 -27.47,0 -41.21,0 0,13.73 0,27.47 0,41.2 z m -79.99,0 c 13.74,0 27.47,0 41.2,0 0,-13.73 0,-27.47 0,-41.2 -13.73,0 -27.46,0 -41.2,0 0,13.73 0,27.47 0,41.2 z m -160,0 c 13.74,0 27.47,0 41.21,0 0,-13.73 0,-27.47 0,-41.2 -13.74,0 -27.47,0 -41.21,0 0,13.73 0,27.47 0,41.2 z m 479.99,-84.62 c 13.74,0 27.48,0 41.2,0 0,-13.74 0,-27.47 0,-41.2 -13.72,0 -27.46,0 -41.2,0 0,13.73 0,27.46 0,41.2 z m -80,0 c 13.74,0 27.47,0 41.21,0 0,-13.74 0,-27.47 0,-41.2 -13.74,0 -27.47,0 -41.21,0 0,13.73 0,27.46 0,41.2 z m -80,0 c 13.74,0 27.48,0 41.21,0 0,-13.74 0,-27.47 0,-41.2 -13.73,0 -27.47,0 -41.21,0 0,13.73 0,27.46 0,41.2 z m -80,0 c 13.74,0 27.48,0 41.21,0 0,-13.74 0,-27.47 0,-41.2 -13.73,0 -27.47,0 -41.21,0 0,13.73 0,27.46 0,41.2 z m -79.99,0 c 13.74,0 27.47,0 41.2,0 0,-13.74 0,-27.47 0,-41.2 -13.73,0 -27.46,0 -41.2,0 0,13.73 0,27.46 0,41.2 z m -160,0 c 13.74,0 27.47,0 41.21,0 0,-13.74 0,-27.47 0,-41.2 -13.74,0 -27.47,0 -41.21,0 0,13.73 0,27.46 0,41.2 z m 479.99,-84.62 c 13.74,0 27.48,0 41.2,0 0,-13.73 0,-27.46 0,-41.2 -13.72,0 -27.46,0 -41.2,0 0,13.74 0,27.47 0,41.2 z m -80,0 c 13.74,0 27.47,0 41.21,0 0,-13.73 0,-27.46 0,-41.2 -13.74,0 -27.47,0 -41.21,0 0,13.74 0,27.47 0,41.2 z m -80,0 c 13.74,0 27.48,0 41.21,0 0,-13.73 0,-27.46 0,-41.2 -13.73,0 -27.47,0 -41.21,0 0,13.74 0,27.47 0,41.2 z m -80,0 c 13.74,0 27.48,0 41.21,0 0,-13.73 0,-27.46 0,-41.2 -13.73,0 -27.47,0 -41.21,0 0,13.74 0,27.47 0,41.2 z m -79.99,0 c 13.74,0 27.47,0 41.2,0 0,-13.73 0,-27.46 0,-41.2 -13.73,0 -27.46,0 -41.2,0 0,13.74 0,27.47 0,41.2 z m -160,0 c 13.74,0 27.47,0 41.21,0 0,-13.73 0,-27.46 0,-41.2 -13.74,0 -27.47,0 -41.21,0 0,13.74 0,27.47 0,41.2 z m 80,0 c 13.74,0 27.47,0 41.21,0 0,-13.73 0,-27.46 0,-41.2 -13.74,0 -27.47,0 -41.21,0 0,13.74 0,27.47 0,41.2 z m 0,84.62 c 13.74,0 27.47,0 41.21,0 0,-13.74 0,-27.47 0,-41.2 -13.74,0 -27.47,0 -41.21,0 0,13.73 0,27.46 0,41.2 z m 0,84.62 c 13.74,0 27.47,0 41.21,0 0,-13.73 0,-27.47 0,-41.2 -13.74,0 -27.47,0 -41.21,0 0,13.73 0,27.47 0,41.2 z m 399.99,169.25 c 13.74,0 27.48,0 41.2,0 0,-13.74 0,-27.47 0,-41.2 -13.72,0 -27.46,0 -41.2,0 0,13.73 0,27.46 0,41.2 z m -80,0 c 13.74,0 27.47,0 41.21,0 0,-13.74 0,-27.47 0,-41.2 -13.74,0 -27.47,0 -41.21,0 0,13.73 0,27.46 0,41.2 z m -80,0 c 13.74,0 27.48,0 41.21,0 0,-13.74 0,-27.47 0,-41.2 -13.73,0 -27.47,0 -41.21,0 0,13.73 0,27.46 0,41.2 z m -80,0 c 13.74,0 27.48,0 41.21,0 0,-13.74 0,-27.47 0,-41.2 -13.73,0 -27.47,0 -41.21,0 0,13.73 0,27.46 0,41.2 z m -79.99,0 c 13.74,0 27.47,0 41.2,0 0,-13.74 0,-27.47 0,-41.2 -13.73,0 -27.46,0 -41.2,0 0,13.73 0,27.46 0,41.2 z m -160,0 c 13.74,0 27.47,0 41.21,0 0,-13.74 0,-27.47 0,-41.2 -13.74,0 -27.47,0 -41.21,0 0,13.73 0,27.46 0,41.2 z m 80,0 c 13.74,0 27.47,0 41.21,0 0,-13.74 0,-27.47 0,-41.2 -13.74,0 -27.47,0 -41.21,0 0,13.73 0,27.46 0,41.2 z m 0,-84.62 c 13.74,0 27.47,0 41.21,0 0,-13.74 0,-27.47 0,-41.21 -13.74,0 -27.47,0 -41.21,0 0,13.74 0,27.47 0,41.21 z m 399.99,-494.57 c 13.74,0 27.48,0 41.2,0 0,-13.74 0,-27.47 0,-41.2 -13.72,0 -27.46,0 -41.2,0 0,13.73 0,27.46 0,41.2 z m -80,0 c 13.74,0 27.47,0 41.21,0 0,-13.74 0,-27.47 0,-41.2 -13.74,0 -27.47,0 -41.21,0 0,13.73 0,27.46 0,41.2 z m -80,0 c 13.74,0 27.48,0 41.21,0 0,-13.74 0,-27.47 0,-41.2 -13.73,0 -27.47,0 -41.21,0 0,13.73 0,27.46 0,41.2 z m -80,0 c 13.74,0 27.48,0 41.21,0 0,-13.74 0,-27.47 0,-41.2 -13.73,0 -27.47,0 -41.21,0 0,13.73 0,27.46 0,41.2 z m -79.99,0 c 13.74,0 27.47,0 41.2,0 0,-13.74 0,-27.47 0,-41.2 -13.73,0 -27.46,0 -41.2,0 0,13.73 0,27.46 0,41.2 z m -160,0 c 13.74,0 27.47,0 41.21,0 0,-13.74 0,-27.47 0,-41.2 -13.74,0 -27.47,0 -41.21,0 0,13.73 0,27.46 0,41.2 z m 479.99,-84.62 c 13.74,0 27.48,0 41.2,0 0,-13.74 0,-27.48 0,-41.21 -13.72,0 -27.46,0 -41.2,0 0,13.73 0,27.47 0,41.21 z m -80,0 c 13.74,0 27.47,0 41.21,0 0,-13.74 0,-27.48 0,-41.21 -13.74,0 -27.47,0 -41.21,0 0,13.73 0,27.47 0,41.21 z m -80,0 c 13.74,0 27.48,0 41.21,0 0,-13.74 0,-27.48 0,-41.21 -13.73,0 -27.47,0 -41.21,0 0,13.73 0,27.47 0,41.21 z m -80,0 c 13.74,0 27.48,0 41.21,0 0,-13.74 0,-27.48 0,-41.21 -13.73,0 -27.47,0 -41.21,0 0,13.73 0,27.47 0,41.21 z m -79.99,0 c 13.74,0 27.47,0 41.2,0 0,-13.74 0,-27.48 0,-41.21 -13.73,0 -27.46,0 -41.2,0 0,13.73 0,27.47 0,41.21 z m -160,0 c 13.74,0 27.47,0 41.21,0 0,-13.74 0,-27.48 0,-41.21 -13.74,0 -27.47,0 -41.21,0 0,13.73 0,27.47 0,41.21 z m 479.99,-84.63 c 13.74,0 27.48,0 41.2,0 0,-13.73 0,-27.46 0,-41.2 -13.72,0 -27.46,0 -41.2,0 0,13.74 0,27.47 0,41.2 z m -80,0 c 13.74,0 27.47,0 41.21,0 0,-13.73 0,-27.46 0,-41.2 -13.74,0 -27.47,0 -41.21,0 0,13.74 0,27.47 0,41.2 z m -80,0 c 13.74,0 27.48,0 41.21,0 0,-13.73 0,-27.46 0,-41.2 -13.73,0 -27.47,0 -41.21,0 0,13.74 0,27.47 0,41.2 z m -80,0 c 13.74,0 27.48,0 41.21,0 0,-13.73 0,-27.46 0,-41.2 -13.73,0 -27.47,0 -41.21,0 0,13.74 0,27.47 0,41.2 z m -79.99,0 c 13.74,0 27.47,0 41.2,0 0,-13.73 0,-27.46 0,-41.2 -13.73,0 -27.46,0 -41.2,0 0,13.74 0,27.47 0,41.2 z m -160,0 c 13.74,0 27.47,0 41.21,0 0,-13.73 0,-27.46 0,-41.2 -13.74,0 -27.47,0 -41.21,0 0,13.74 0,27.47 0,41.2 z m 479.99,-84.61 c 13.74,0 27.48,0 41.2,0 0,-13.73 0,-27.47 0,-41.21 -13.72,0 -27.46,0 -41.2,0 0,13.74 0,27.48 0,41.21 z m -80,0 c 13.74,0 27.47,0 41.21,0 0,-13.73 0,-27.47 0,-41.21 -13.74,0 -27.47,0 -41.21,0 0,13.74 0,27.48 0,41.21 z m -80,0 c 13.74,0 27.48,0 41.21,0 0,-13.73 0,-27.47 0,-41.21 -13.73,0 -27.47,0 -41.21,0 0,13.74 0,27.48 0,41.21 z m -80,0 c 13.74,0 27.48,0 41.21,0 0,-13.73 0,-27.47 0,-41.21 -13.73,0 -27.47,0 -41.21,0 0,13.74 0,27.48 0,41.21 z m -79.99,0 c 13.74,0 27.47,0 41.2,0 0,-13.73 0,-27.47 0,-41.21 -13.73,0 -27.46,0 -41.2,0 0,13.74 0,27.48 0,41.21 z m -160,0 c 13.74,0 27.47,0 41.21,0 0,-13.73 0,-27.47 0,-41.21 -13.74,0 -27.47,0 -41.21,0 0,13.74 0,27.48 0,41.21 z m 80,0 c 13.74,0 27.47,0 41.21,0 0,-13.73 0,-27.47 0,-41.21 -13.74,0 -27.47,0 -41.21,0 0,13.74 0,27.48 0,41.21 z m 0,84.61 c 13.74,0 27.47,0 41.21,0 0,-13.73 0,-27.46 0,-41.2 -13.74,0 -27.47,0 -41.21,0 0,13.74 0,27.47 0,41.2 z m 0,84.63 c 13.74,0 27.47,0 41.21,0 0,-13.74 0,-27.48 0,-41.21 -13.74,0 -27.47,0 -41.21,0 0,13.73 0,27.47 0,41.21 z m 399.99,169.24 c 13.74,0 27.48,0 41.2,0 0,-13.73 0,-27.46 0,-41.2 -13.72,0 -27.46,0 -41.2,0 0,13.74 0,27.47 0,41.2 z m -80,0 c 13.74,0 27.47,0 41.21,0 0,-13.73 0,-27.46 0,-41.2 -13.74,0 -27.47,0 -41.21,0 0,13.74 0,27.47 0,41.2 z m -80,0 c 13.74,0 27.48,0 41.21,0 0,-13.73 0,-27.46 0,-41.2 -13.73,0 -27.47,0 -41.21,0 0,13.74 0,27.47 0,41.2 z m -80,0 c 13.74,0 27.48,0 41.21,0 0,-13.73 0,-27.46 0,-41.2 -13.73,0 -27.47,0 -41.21,0 0,13.74 0,27.47 0,41.2 z m -79.99,0 c 13.74,0 27.47,0 41.2,0 0,-13.73 0,-27.46 0,-41.2 -13.73,0 -27.46,0 -41.2,0 0,13.74 0,27.47 0,41.2 z m -160,0 c 13.74,0 27.47,0 41.21,0 0,-13.73 0,-27.46 0,-41.2 -13.74,0 -27.47,0 -41.21,0 0,13.74 0,27.47 0,41.2 z m 80,0 c 13.74,0 27.47,0 41.21,0 0,-13.73 0,-27.46 0,-41.2 -13.74,0 -27.47,0 -41.21,0 0,13.74 0,27.47 0,41.2 z m 0,-84.62 c 13.74,0 27.47,0 41.21,0 0,-13.74 0,-27.47 0,-41.2 -13.74,0 -27.47,0 -41.21,0 0,13.73 0,27.46 0,41.2 z m 399.99,-494.56 c 13.74,0 27.48,0 41.2,0 0,-13.73 0,-27.47 0,-41.2 -13.72,0 -27.46,0 -41.2,0 0,13.73 0,27.47 0,41.2 z m -80,0 c 13.74,0 27.47,0 41.21,0 0,-13.73 0,-27.47 0,-41.2 -13.74,0 -27.47,0 -41.21,0 0,13.73 0,27.47 0,41.2 z m -80,0 c 13.74,0 27.48,0 41.21,0 0,-13.73 0,-27.47 0,-41.2 -13.73,0 -27.47,0 -41.21,0 0,13.73 0,27.47 0,41.2 z m -80,0 c 13.74,0 27.48,0 41.21,0 0,-13.73 0,-27.47 0,-41.2 -13.73,0 -27.47,0 -41.21,0 0,13.73 0,27.47 0,41.2 z m -79.99,0 c 13.74,0 27.47,0 41.2,0 0,-13.73 0,-27.47 0,-41.2 -13.73,0 -27.46,0 -41.2,0 0,13.73 0,27.47 0,41.2 z m -160,0 c 13.74,0 27.47,0 41.21,0 0,-13.73 0,-27.47 0,-41.2 -13.74,0 -27.47,0 -41.21,0 0,13.73 0,27.47 0,41.2 z m 479.99,-84.63 c 13.74,0 27.48,0 41.2,0 0,-13.73 0,-27.47 0,-41.2 -13.72,0 -27.46,0 -41.2,0 0,13.73 0,27.47 0,41.2 z m -80,0 c 13.74,0 27.47,0 41.21,0 0,-13.73 0,-27.47 0,-41.2 -13.74,0 -27.47,0 -41.21,0 0,13.73 0,27.47 0,41.2 z m -80,0 c 13.74,0 27.48,0 41.21,0 0,-13.73 0,-27.47 0,-41.2 -13.73,0 -27.47,0 -41.21,0 0,13.73 0,27.47 0,41.2 z m -80,0 c 13.74,0 27.48,0 41.21,0 0,-13.73 0,-27.47 0,-41.2 -13.73,0 -27.47,0 -41.21,0 0,13.73 0,27.47 0,41.2 z m -79.99,0 c 13.74,0 27.47,0 41.2,0 0,-13.73 0,-27.47 0,-41.2 -13.73,0 -27.46,0 -41.2,0 0,13.73 0,27.47 0,41.2 z m -160,0 c 13.74,0 27.47,0 41.21,0 0,-13.73 0,-27.47 0,-41.2 -13.74,0 -27.47,0 -41.21,0 0,13.73 0,27.47 0,41.2 z m 479.99,-84.62 c 13.74,0 27.48,0 41.2,0 0,-13.73 0,-27.47 0,-41.2 -13.72,0 -27.46,0 -41.2,0 0,13.73 0,27.47 0,41.2 z m -80,0 c 13.74,0 27.47,0 41.21,0 0,-13.73 0,-27.47 0,-41.2 -13.74,0 -27.47,0 -41.21,0 0,13.73 0,27.47 0,41.2 z m -80,0 c 13.74,0 27.48,0 41.21,0 0,-13.73 0,-27.47 0,-41.2 -13.73,0 -27.47,0 -41.21,0 0,13.73 0,27.47 0,41.2 z m -80,0 c 13.74,0 27.48,0 41.21,0 0,-13.73 0,-27.47 0,-41.2 -13.73,0 -27.47,0 -41.21,0 0,13.73 0,27.47 0,41.2 z m -79.99,0 c 13.74,0 27.47,0 41.2,0 0,-13.73 0,-27.47 0,-41.2 -13.73,0 -27.46,0 -41.2,0 0,13.73 0,27.47 0,41.2 z m -160,0 c 13.74,0 27.47,0 41.21,0 0,-13.73 0,-27.47 0,-41.2 -13.74,0 -27.47,0 -41.21,0 0,13.73 0,27.47 0,41.2 z m 479.99,-84.62 c 13.74,0 27.48,0 41.2,0 0,-13.73 0,-27.46 0,-41.2 -13.72,0 -27.46,0 -41.2,0 0,13.74 0,27.47 0,41.2 z m -80,0 c 13.74,0 27.47,0 41.21,0 0,-13.73 0,-27.46 0,-41.2 -13.74,0 -27.47,0 -41.21,0 0,13.74 0,27.47 0,41.2 z m -80,0 c 13.74,0 27.48,0 41.21,0 0,-13.73 0,-27.46 0,-41.2 -13.73,0 -27.47,0 -41.21,0 0,13.74 0,27.47 0,41.2 z m -80,0 c 13.74,0 27.48,0 41.21,0 0,-13.73 0,-27.46 0,-41.2 -13.73,0 -27.47,0 -41.21,0 0,13.74 0,27.47 0,41.2 z m -79.99,0 c 13.74,0 27.47,0 41.2,0 0,-13.73 0,-27.46 0,-41.2 -13.73,0 -27.46,0 -41.2,0 0,13.74 0,27.47 0,41.2 z m -160,0 c 13.74,0 27.47,0 41.21,0 0,-13.73 0,-27.46 0,-41.2 -13.74,0 -27.47,0 -41.21,0 0,13.74 0,27.47 0,41.2 z m 80,0 c 13.74,0 27.47,0 41.21,0 0,-13.73 0,-27.46 0,-41.2 -13.74,0 -27.47,0 -41.21,0 0,13.74 0,27.47 0,41.2 z m 0,84.62 c 13.74,0 27.47,0 41.21,0 0,-13.73 0,-27.47 0,-41.2 -13.74,0 -27.47,0 -41.21,0 0,13.73 0,27.47 0,41.2 z m 0,84.62 c 13.74,0 27.47,0 41.21,0 0,-13.73 0,-27.47 0,-41.2 -13.74,0 -27.47,0 -41.21,0 0,13.73 0,27.47 0,41.2 z m 399.99,169.25 c 13.74,0 27.48,0 41.2,0 0,-13.73 0,-27.47 0,-41.2 -13.72,0 -27.46,0 -41.2,0 0,13.73 0,27.47 0,41.2 z m -80,0 c 13.74,0 27.47,0 41.21,0 0,-13.73 0,-27.47 0,-41.2 -13.74,0 -27.47,0 -41.21,0 0,13.73 0,27.47 0,41.2 z m -80,0 c 13.74,0 27.48,0 41.21,0 0,-13.73 0,-27.47 0,-41.2 -13.73,0 -27.47,0 -41.21,0 0,13.73 0,27.47 0,41.2 z m -80,0 c 13.74,0 27.48,0 41.21,0 0,-13.73 0,-27.47 0,-41.2 -13.73,0 -27.47,0 -41.21,0 0,13.73 0,27.47 0,41.2 z m -79.99,0 c 13.74,0 27.47,0 41.2,0 0,-13.73 0,-27.47 0,-41.2 -13.73,0 -27.46,0 -41.2,0 0,13.73 0,27.47 0,41.2 z m -160,0 c 13.74,0 27.47,0 41.21,0 0,-13.73 0,-27.47 0,-41.2 -13.74,0 -27.47,0 -41.21,0 0,13.73 0,27.47 0,41.2 z m 80,0 c 13.74,0 27.47,0 41.21,0 0,-13.73 0,-27.47 0,-41.2 -13.74,0 -27.47,0 -41.21,0 0,13.73 0,27.47 0,41.2 z m 0,-84.62 c 13.74,0 27.47,0 41.21,0 0,-13.73 0,-27.47 0,-41.2 -13.74,0 -27.47,0 -41.21,0 0,13.73 0,27.47 0,41.2 z m 399.99,-494.56 c 13.74,0 27.48,0 41.2,0 0,-13.74 0,-27.47 0,-41.21 -13.72,0 -27.46,0 -41.2,0 0,13.74 0,27.47 0,41.21 z m -80,0 c 13.74,0 27.47,0 41.21,0 0,-13.74 0,-27.47 0,-41.21 -13.74,0 -27.47,0 -41.21,0 0,13.74 0,27.47 0,41.21 z m -80,0 c 13.74,0 27.48,0 41.21,0 0,-13.74 0,-27.47 0,-41.21 -13.73,0 -27.47,0 -41.21,0 0,13.74 0,27.47 0,41.21 z m -80,0 c 13.74,0 27.48,0 41.21,0 0,-13.74 0,-27.47 0,-41.21 -13.73,0 -27.47,0 -41.21,0 0,13.74 0,27.47 0,41.21 z m -79.99,0 c 13.74,0 27.47,0 41.2,0 0,-13.74 0,-27.47 0,-41.21 -13.73,0 -27.46,0 -41.2,0 0,13.74 0,27.47 0,41.21 z m -160,0 c 13.74,0 27.47,0 41.21,0 0,-13.74 0,-27.47 0,-41.21 -13.74,0 -27.47,0 -41.21,0 0,13.74 0,27.47 0,41.21 z m 479.99,-84.63 c 13.74,0 27.48,0 41.2,0 0,-13.74 0,-27.47 0,-41.21 -13.72,0 -27.46,0 -41.2,0 0,13.74 0,27.47 0,41.21 z m -80,0 c 13.74,0 27.47,0 41.21,0 0,-13.74 0,-27.47 0,-41.21 -13.74,0 -27.47,0 -41.21,0 0,13.74 0,27.47 0,41.21 z m -80,0 c 13.74,0 27.48,0 41.21,0 0,-13.74 0,-27.47 0,-41.21 -13.73,0 -27.47,0 -41.21,0 0,13.74 0,27.47 0,41.21 z m -80,0 c 13.74,0 27.48,0 41.21,0 0,-13.74 0,-27.47 0,-41.21 -13.73,0 -27.47,0 -41.21,0 0,13.74 0,27.47 0,41.21 z m -79.99,0 c 13.74,0 27.47,0 41.2,0 0,-13.74 0,-27.47 0,-41.21 -13.73,0 -27.46,0 -41.2,0 0,13.74 0,27.47 0,41.21 z m -160,0 c 13.74,0 27.47,0 41.21,0 0,-13.74 0,-27.47 0,-41.21 -13.74,0 -27.47,0 -41.21,0 0,13.74 0,27.47 0,41.21 z m 479.99,-84.62 c 13.74,0 27.48,0 41.2,0 0,-13.74 0,-27.47 0,-41.21 -13.72,0 -27.46,0 -41.2,0 0,13.74 0,27.47 0,41.21 z m -80,0 c 13.74,0 27.47,0 41.21,0 0,-13.74 0,-27.47 0,-41.21 -13.74,0 -27.47,0 -41.21,0 0,13.74 0,27.47 0,41.21 z m -80,0 c 13.74,0 27.48,0 41.21,0 0,-13.74 0,-27.47 0,-41.21 -13.73,0 -27.47,0 -41.21,0 0,13.74 0,27.47 0,41.21 z m -80,0 c 13.74,0 27.48,0 41.21,0 0,-13.74 0,-27.47 0,-41.21 -13.73,0 -27.47,0 -41.21,0 0,13.74 0,27.47 0,41.21 z m -79.99,0 c 13.74,0 27.47,0 41.2,0 0,-13.74 0,-27.47 0,-41.21 -13.73,0 -27.46,0 -41.2,0 0,13.74 0,27.47 0,41.21 z m -160,0 c 13.74,0 27.47,0 41.21,0 0,-13.74 0,-27.47 0,-41.21 -13.74,0 -27.47,0 -41.21,0 0,13.74 0,27.47 0,41.21 z m 479.99,-84.62 h 41.2 v -41.21 h -41.2 v 41.21 z m -80,0 c 13.74,0 27.47,0 41.21,0 0,-13.74 0,-27.47 0,-41.21 -13.74,0 -27.47,0 -41.21,0 0,13.74 0,27.47 0,41.21 z m -80,0 c 13.74,0 27.48,0 41.21,0 0,-13.74 0,-27.47 0,-41.21 -13.73,0 -27.47,0 -41.21,0 0,13.74 0,27.47 0,41.21 z m -80,0 c 13.74,0 27.48,0 41.21,0 0,-13.74 0,-27.47 0,-41.21 -13.73,0 -27.47,0 -41.21,0 0,13.74 0,27.47 0,41.21 z m -79.99,0 c 13.74,0 27.47,0 41.2,0 0,-13.74 0,-27.47 0,-41.21 -13.73,0 -27.46,0 -41.2,0 0,13.74 0,27.47 0,41.21 z m -160,0 h 41.21 v -41.21 h -41.21 v 41.21 z m 80,0 c 13.74,0 27.47,0 41.21,0 0,-13.74 0,-27.47 0,-41.21 -13.74,0 -27.47,0 -41.21,0 0,13.74 0,27.47 0,41.21 z m 0,84.62 c 13.74,0 27.47,0 41.21,0 0,-13.74 0,-27.47 0,-41.21 -13.74,0 -27.47,0 -41.21,0 0,13.74 0,27.47 0,41.21 z m 0,84.62 c 13.74,0 27.47,0 41.21,0 0,-13.74 0,-27.47 0,-41.21 -13.74,0 -27.47,0 -41.21,0 0,13.74 0,27.47 0,41.21 z m 399.99,169.25 h 41.2 v -41.21 h -41.2 v 41.21 z m -80,0 c 13.74,0 27.47,0 41.21,0 0,-13.74 0,-27.47 0,-41.21 -13.74,0 -27.47,0 -41.21,0 0,13.74 0,27.47 0,41.21 z m -80,0 c 13.74,0 27.48,0 41.21,0 0,-13.74 0,-27.47 0,-41.21 -13.73,0 -27.47,0 -41.21,0 0,13.74 0,27.47 0,41.21 z m -80,0 c 13.74,0 27.48,0 41.21,0 0,-13.74 0,-27.47 0,-41.21 -13.73,0 -27.47,0 -41.21,0 0,13.74 0,27.47 0,41.21 z m -79.99,0 c 13.74,0 27.47,0 41.2,0 0,-13.74 0,-27.47 0,-41.21 -13.73,0 -27.46,0 -41.2,0 0,13.74 0,27.47 0,41.21 z m -160,0 h 41.21 v -41.21 h -41.21 v 41.21 z m 80,0 c 13.74,0 27.47,0 41.21,0 0,-13.74 0,-27.47 0,-41.21 -13.74,0 -27.47,0 -41.21,0 0,13.74 0,27.47 0,41.21 z m 0,-84.62 c 13.74,0 27.47,0 41.21,0 0,-13.74 0,-27.47 0,-41.21 -13.74,0 -27.47,0 -41.21,0 0,13.74 0,27.47 0,41.21 z m 0,2967.38 c 13.74,0 27.47,0 41.21,0 0,-13.73 0,-27.47 0,-41.21 -13.74,0 -27.47,0 -41.21,0 0,13.74 0,27.48 0,41.21 v 0" /><path
         id="path92"
         style="fill:#ffffff;fill-opacity:1;fill-rule:evenodd;stroke:none"
         d="m 3376.95,1523.52 h 558.8 v 399.84 h -558.8 v -399.84" /><path
         id="path94"
         style="fill:#271c1c;fill-opacity:1;fill-rule:evenodd;stroke:none"
         d="M 2322.58,3603.32 H 4990.1 c 42.66,0 77.56,-34.89 77.56,-77.54 V 1904.19 c 0,-42.66 -34.9,-77.55 -77.56,-77.55 H 2322.58 c -42.65,0 -77.55,34.89 -77.55,77.55 v 1621.59 c 0,42.65 34.9,77.54 77.55,77.54" /><path
         id="path96"
         style="fill:#3e2b2d;fill-opacity:1;fill-rule:evenodd;stroke:none"
         d="M 2339.05,1920.67 H 4973.64 V 3509.31 H 2339.05 V 1920.67" /><path
         id="path98"
         style="fill:#5a4548;fill-opacity:1;fill-rule:evenodd;stroke:none"
         d="m 3188,1482.78 h 936.7 v 81.48 H 3188 v -81.48" /><path
         id="path100"
         style="fill:#e2c4c7;fill-opacity:1;fill-rule:evenodd;stroke:none"
         d="m 3376.94,1718.28 h 558.81 v 108.36 h -558.81 v -108.36" /><path
         id="path102"
         style="fill:#7f5f64;fill-opacity:1;fill-rule:evenodd;stroke:none"
         d="M 2560.24,2572.59 H 4322.6 V 3683.01 H 2560.24 V 2572.59" /><path
         id="path104"
         style="fill:#634a4e;fill-opacity:1;fill-rule:evenodd;stroke:none"
         d="m 2634.08,2646.42 h 1614.68 v 962.76 H 2634.08 v -962.76" /><path
         id="path106"
         style="fill:#ffffff;fill-opacity:1;fill-rule:evenodd;stroke:none"
         d="M 3237.25,2232.3 H 4773.94 V 3242.43 H 3237.25 V 2232.3" /><path
         id="path108"
         style="fill:#ffffff;fill-opacity:1;fill-rule:evenodd;stroke:none"
         d="M 2560.24,3683.02 H 4322.6 v 136.11 H 2560.24 v -136.11" /><path
         id="path110"
         style="fill:#bf8a90;fill-opacity:1;fill-rule:evenodd;stroke:none"
         d="m 3730.23,3779.28 h 103.88 c 15.51,0 28.21,-12.69 28.21,-28.2 v -0.01 c 0,-15.52 -12.7,-28.21 -28.21,-28.21 h -103.88 c -15.52,0 -28.2,12.69 -28.2,28.21 v 0.01 c 0,15.51 12.68,28.2 28.2,28.2 z m 408.34,0 h 103.89 c 15.51,0 28.2,-12.69 28.2,-28.2 v -0.01 c 0,-15.52 -12.69,-28.21 -28.2,-28.21 h -103.89 c -15.51,0 -28.2,12.69 -28.2,28.21 v 0.01 c 0,15.51 12.69,28.2 28.2,28.2 z m -204.17,0 c 34.62,0 69.26,0 103.89,0 15.5,0 28.2,-12.69 28.2,-28.2 0,-0.01 0,-0.01 0,-0.01 0,-15.52 -12.7,-28.21 -28.2,-28.21 -34.63,0 -69.27,0 -103.89,0 -15.52,0 -28.2,12.69 -28.2,28.21 0,0 0,0 0,0.01 0,15.51 12.68,28.2 28.2,28.2 v 0" /><path
         id="path112"
         style="fill:#fcd5dd;fill-opacity:1;fill-rule:evenodd;stroke:none"
         d="m 3237.25,3106.31 h 1536.69 v 136.12 H 3237.25 v -136.12" /><path
         id="path114"
         style="fill:#bf8a90;fill-opacity:1;fill-rule:evenodd;stroke:none"
         d="m 4181.57,3202.58 h 103.87 c 15.51,0 28.21,-12.7 28.21,-28.21 v 0 c 0,-15.51 -12.7,-28.21 -28.21,-28.21 h -103.87 c -15.52,0 -28.22,12.7 -28.22,28.21 v 0 c 0,15.51 12.7,28.21 28.22,28.21 z m 408.35,0 h 103.86 c 15.52,0 28.23,-12.7 28.23,-28.21 v 0 c 0,-15.51 -12.71,-28.21 -28.23,-28.21 h -103.86 c -15.52,0 -28.21,12.7 -28.21,28.21 v 0 c 0,15.51 12.69,28.21 28.21,28.21 z m -204.18,0 c 34.63,0 69.25,0 103.87,0 15.52,0 28.21,-12.7 28.21,-28.21 v 0 c 0,-15.51 -12.69,-28.21 -28.21,-28.21 -34.62,0 -69.24,0 -103.87,0 -15.51,0 -28.22,12.7 -28.22,28.21 v 0 c 0,15.51 12.71,28.21 28.22,28.21 v 0" /><path
         id="path116"
         style="fill:#d95b6c;fill-opacity:1;fill-rule:evenodd;stroke:none"
         d="m 3957.68,2513.28 h 95.82 v 76.16 h -95.82 z m 0,344.29 v -229.26 h 95.82 v 229.26 h -95.82 z m 149.23,74.74 72.44,-71.98 72.45,-71.98 0.33,-102.12 0.34,-102.12 -71.97,-72.45 -71.98,-72.44 -102.12,-0.34 -102.12,-0.33 -72.45,71.97 -72.45,71.97 -0.33,102.12 -0.34,102.12 71.98,72.46 71.96,72.44 102.12,0.33 102.14,0.35 v 0" /><path
         id="path118"
         style="fill:#7f5f64;fill-opacity:1;fill-rule:evenodd;stroke:none"
         d="m 3052.78,3375.36 h 777.28 v 163.04 h -777.28 v -163.04" /></g></g></svg>